<svg width="720" height="405"><g transform="translate(80,10)"><g transform="translate(0,345)" fill="none" font-size="10" font-family="sans-serif" text-anchor="middle"><path class="domain" stroke="#000" d="M0.5,6V0.5H610.5V6"></path><g class="tick" opacity="1" transform="translate(11.36645962732922,0)"><line stroke="#000" y2="6"></line><text fill="#000" y="9" dy="0.71em" style="text-anchor: middle;">1</text></g><g class="tick" opacity="1" transform="translate(30.310559006211207,0)"><line stroke="#000" y2="6"></line><text fill="#000" y="9" dy="0.71em" style="text-anchor: middle;">2</text></g><g class="tick" opacity="1" transform="translate(49.254658385093194,0)"><line stroke="#000" y2="6"></line><text fill="#000" y="9" dy="0.71em" style="text-anchor: middle;">3</text></g><g class="tick" opacity="1" transform="translate(68.19875776397518,0)"><line stroke="#000" y2="6"></line><text fill="#000" y="9" dy="0.71em" style="text-anchor: middle;">4</text></g><g class="tick" opacity="1" transform="translate(87.14285714285717,0)"><line stroke="#000" y2="6"></line><text fill="#000" y="9" dy="0.71em" style="text-anchor: middle;">5</text></g><g class="tick" opacity="1" transform="translate(106.08695652173915,0)"><line stroke="#000" y2="6"></line><text fill="#000" y="9" dy="0.71em" style="text-anchor: middle;">6</text></g><g class="tick" opacity="1" transform="translate(125.03105590062114,0)"><line stroke="#000" y2="6"></line><text fill="#000" y="9" dy="0.71em" style="text-anchor: middle;">7</text></g><g class="tick" opacity="1" transform="translate(143.97515527950313,0)"><line stroke="#000" y2="6"></line><text fill="#000" y="9" dy="0.71em" style="text-anchor: middle;">8</text></g><g class="tick" opacity="1" transform="translate(162.9192546583851,0)"><line stroke="#000" y2="6"></line><text fill="#000" y="9" dy="0.71em" style="text-anchor: middle;">9</text></g><g class="tick" opacity="1" transform="translate(181.8633540372671,0)"><line stroke="#000" y2="6"></line><text fill="#000" y="9" dy="0.71em" style="text-anchor: middle;">10</text></g><g class="tick" opacity="1" transform="translate(200.8074534161491,0)"><line stroke="#000" y2="6"></line><text fill="#000" y="9" dy="0.71em" style="text-anchor: middle;">11</text></g><g class="tick" opacity="1" transform="translate(219.75155279503107,0)"><line stroke="#000" y2="6"></line><text fill="#000" y="9" dy="0.71em" style="text-anchor: middle;">12</text></g><g class="tick" opacity="1" transform="translate(238.69565217391306,0)"><line stroke="#000" y2="6"></line><text fill="#000" y="9" dy="0.71em" style="text-anchor: middle;">13</text></g><g class="tick" opacity="1" transform="translate(257.639751552795,0)"><line stroke="#000" y2="6"></line><text fill="#000" y="9" dy="0.71em" style="text-anchor: middle;">14</text></g><g class="tick" opacity="1" transform="translate(276.58385093167703,0)"><line stroke="#000" y2="6"></line><text fill="#000" y="9" dy="0.71em" style="text-anchor: middle;">15</text></g><g class="tick" opacity="1" transform="translate(295.527950310559,0)"><line stroke="#000" y2="6"></line><text fill="#000" y="9" dy="0.71em" style="text-anchor: middle;">16</text></g><g class="tick" opacity="1" transform="translate(314.472049689441,0)"><line stroke="#000" y2="6"></line><text fill="#000" y="9" dy="0.71em" style="text-anchor: middle;">17</text></g><g class="tick" opacity="1" transform="translate(333.416149068323,0)"><line stroke="#000" y2="6"></line><text fill="#000" y="9" dy="0.71em" style="text-anchor: middle;">18</text></g><g class="tick" opacity="1" transform="translate(352.360248447205,0)"><line stroke="#000" y2="6"></line><text fill="#000" y="9" dy="0.71em" style="text-anchor: middle;">19</text></g><g class="tick" opacity="1" transform="translate(371.30434782608694,0)"><line stroke="#000" y2="6"></line><text fill="#000" y="9" dy="0.71em" style="text-anchor: middle;">20</text></g><g class="tick" opacity="1" transform="translate(390.24844720496895,0)"><line stroke="#000" y2="6"></line><text fill="#000" y="9" dy="0.71em" style="text-anchor: middle;">21</text></g><g class="tick" opacity="1" transform="translate(409.19254658385097,0)"><line stroke="#000" y2="6"></line><text fill="#000" y="9" dy="0.71em" style="text-anchor: middle;">22</text></g><g class="tick" opacity="1" transform="translate(428.1366459627329,0)"><line stroke="#000" y2="6"></line><text fill="#000" y="9" dy="0.71em" style="text-anchor: middle;">23</text></g><g class="tick" opacity="1" transform="translate(447.0807453416149,0)"><line stroke="#000" y2="6"></line><text fill="#000" y="9" dy="0.71em" style="text-anchor: middle;">24</text></g><g class="tick" opacity="1" transform="translate(466.0248447204969,0)"><line stroke="#000" y2="6"></line><text fill="#000" y="9" dy="0.71em" style="text-anchor: middle;">25</text></g><g class="tick" opacity="1" transform="translate(484.9689440993789,0)"><line stroke="#000" y2="6"></line><text fill="#000" y="9" dy="0.71em" style="text-anchor: middle;">26</text></g><g class="tick" opacity="1" transform="translate(503.9130434782609,0)"><line stroke="#000" y2="6"></line><text fill="#000" y="9" dy="0.71em" style="text-anchor: middle;">27</text></g><g class="tick" opacity="1" transform="translate(522.8571428571429,0)"><line stroke="#000" y2="6"></line><text fill="#000" y="9" dy="0.71em" style="text-anchor: middle;">28</text></g><g class="tick" opacity="1" transform="translate(541.8012422360248,0)"><line stroke="#000" y2="6"></line><text fill="#000" y="9" dy="0.71em" style="text-anchor: middle;">29</text></g><g class="tick" opacity="1" transform="translate(560.7453416149069,0)"><line stroke="#000" y2="6"></line><text fill="#000" y="9" dy="0.71em" style="text-anchor: middle;">30</text></g><g class="tick" opacity="1" transform="translate(579.6894409937888,0)"><line stroke="#000" y2="6"></line><text fill="#000" y="9" dy="0.71em" style="text-anchor: middle;">31</text></g><g class="tick" opacity="1" transform="translate(598.6335403726707,0)"><line stroke="#000" y2="6"></line><text fill="#000" y="9" dy="0.71em" style="text-anchor: middle;">32</text></g></g><text transform="translate(305 ,385)" style="text-anchor: middle;">Number of appearances</text><g fill="none" font-size="10" font-family="sans-serif" text-anchor="end"><path class="domain" stroke="#000" d="M-6,345.5H0.5V0.5H-6"></path><g class="tick" opacity="1" transform="translate(0,345.5)"><line stroke="#000" x2="-6"></line><text fill="#000" x="-9" dy="0.32em">0</text></g><g class="tick" opacity="1" transform="translate(0,299.33009474867515)"><line stroke="#000" x2="-6"></line><text fill="#000" x="-9" dy="0.32em">5,000</text></g><g class="tick" opacity="1" transform="translate(0,253.16018949735025)"><line stroke="#000" x2="-6"></line><text fill="#000" x="-9" dy="0.32em">10,000</text></g><g class="tick" opacity="1" transform="translate(0,206.99028424602537)"><line stroke="#000" x2="-6"></line><text fill="#000" x="-9" dy="0.32em">15,000</text></g><g class="tick" opacity="1" transform="translate(0,160.82037899470052)"><line stroke="#000" x2="-6"></line><text fill="#000" x="-9" dy="0.32em">20,000</text></g><g class="tick" opacity="1" transform="translate(0,114.65047374337561)"><line stroke="#000" x2="-6"></line><text fill="#000" x="-9" dy="0.32em">25,000</text></g><g class="tick" opacity="1" transform="translate(0,68.48056849205074)"><line stroke="#000" x2="-6"></line><text fill="#000" x="-9" dy="0.32em">30,000</text></g><g class="tick" opacity="1" transform="translate(0,22.310663240725887)"><line stroke="#000" x2="-6"></line><text fill="#000" x="-9" dy="0.32em">35,000</text></g></g><text transform="rotate(-90)" y="-70" x="-172.5" dy="1em" style="text-anchor: middle;">Number of answers</text><rect x="3.7888198757764258" y="0" width="15.15527950310559" height="345" fill="#006B71"></rect><rect x="22.732919254658412" y="232.74249237192868" width="15.15527950310559" height="112.25750762807132" fill="#006B71"></rect><rect x="41.6770186335404" y="283.85257748514533" width="15.15527950310559" height="61.14742251485467" fill="#006B71"></rect><rect x="60.621118012422386" y="307.63931267062793" width="15.15527950310559" height="37.36068732937207" fill="#006B71"></rect><rect x="79.56521739130437" y="319.8004657138269" width="15.15527950310559" height="25.199534286173105" fill="#006B71"></rect><rect x="98.50931677018636" y="326.4119961458166" width="15.15527950310559" height="18.5880038541834" fill="#006B71"></rect><rect x="117.45341614906835" y="331.0012847277983" width="15.15527950310559" height="13.998715272201707" fill="#006B71"></rect><rect x="136.39751552795033" y="334.88879074995987" width="15.15527950310559" height="10.111209250040133" fill="#006B71"></rect><rect x="155.34161490683232" y="336.495503452706" width="15.15527950310559" height="8.504496547294025" fill="#006B71"></rect><rect x="174.2857142857143" y="338.8871045447246" width="15.15527950310559" height="6.112895455275407" fill="#006B71"></rect><rect x="193.2298136645963" y="339.97671430865586" width="15.15527950310559" height="5.023285691344142" fill="#006B71"></rect><rect x="212.17391304347828" y="340.992452224185" width="15.15527950310559" height="4.007547775814999" fill="#006B71"></rect><rect x="231.11801242236027" y="341.8881483860607" width="15.15527950310559" height="3.1118516139392796" fill="#006B71"></rect><rect x="250.06211180124225" y="342.6083989079814" width="15.15527950310559" height="2.391601092018618" fill="#006B71"></rect><rect x="269.00621118012424" y="343.16243777099726" width="15.15527950310559" height="1.8375622290027422" fill="#006B71"></rect><rect x="287.9503105590062" y="343.3378834109523" width="15.15527950310559" height="1.6621165890476846" fill="#006B71"></rect><rect x="306.8944099378882" y="343.5964348803597" width="15.15527950310559" height="1.403565119640291" fill="#006B71"></rect><rect x="325.8385093167702" y="343.69800867191265" width="15.15527950310559" height="1.3019913280873538" fill="#006B71"></rect><rect x="344.7826086956522" y="344.2058776296772" width="15.15527950310559" height="0.794122370322782" fill="#006B71"></rect><rect x="363.72670807453414" y="344.1781756865264" width="15.15527950310559" height="0.8218243134735985" fill="#006B71"></rect><rect x="382.67080745341616" y="344.3813232696322" width="15.15527950310559" height="0.6186767303677811" fill="#006B71"></rect><rect x="401.6149068322982" y="344.6029388148386" width="15.15527950310559" height="0.3970611851614194" fill="#006B71"></rect><rect x="420.55900621118013" y="344.61217279588885" width="15.15527950310559" height="0.38782720411114724" fill="#006B71"></rect><rect x="439.5031055900621" y="344.6029388148386" width="15.15527950310559" height="0.3970611851614194" fill="#006B71"></rect><rect x="458.4472049689441" y="344.82455436004494" width="15.15527950310559" height="0.1754456399550577" fill="#006B71"></rect><rect x="477.3913043478261" y="344.80608639794445" width="15.15527950310559" height="0.1939136020555452" fill="#006B71"></rect><rect x="496.3354037267081" y="344.8337883410952" width="15.15527950310559" height="0.1662116589047855" fill="#006B71"></rect><rect x="515.27950310559" y="344.86149028424603" width="15.15527950310559" height="0.13850971575396898" fill="#006B71"></rect><rect x="534.223602484472" y="344.80608639794445" width="15.15527950310559" height="0.1939136020555452" fill="#006B71"></rect><rect x="553.1677018633541" y="344.9445961136984" width="15.15527950310559" height="0.05540388630157622" fill="#006B71"></rect><rect x="572.111801242236" y="344.88919222739685" width="15.15527950310559" height="0.11080777260315244" fill="#006B71"></rect><rect x="591.055900621118" y="344.9445961136984" width="15.15527950310559" height="0.05540388630157622" fill="#006B71"></rect></g></svg>
