<svg width="720" height="405"><g transform="translate(80,10)"><g transform="translate(0,345)" fill="none" font-size="10" font-family="sans-serif" text-anchor="middle"><path class="domain" stroke="#000" d="M0.5,6V0.5H610.5V6"></path><g class="tick" opacity="1" transform="translate(11.024096385542137,0)"><line stroke="#000" y2="6"></line><text fill="#000" y="9" dy="0.71em" style="text-anchor: middle;">0</text></g><g class="tick" opacity="1" transform="translate(29.397590361445754,0)"><line stroke="#000" y2="6"></line><text fill="#000" y="9" dy="0.71em" style="text-anchor: middle;">1</text></g><g class="tick" opacity="1" transform="translate(47.77108433734937,0)"><line stroke="#000" y2="6"></line><text fill="#000" y="9" dy="0.71em" style="text-anchor: middle;">2</text></g><g class="tick" opacity="1" transform="translate(66.14457831325299,0)"><line stroke="#000" y2="6"></line><text fill="#000" y="9" dy="0.71em" style="text-anchor: middle;">3</text></g><g class="tick" opacity="1" transform="translate(84.5180722891566,0)"><line stroke="#000" y2="6"></line><text fill="#000" y="9" dy="0.71em" style="text-anchor: middle;">4</text></g><g class="tick" opacity="1" transform="translate(102.89156626506022,0)"><line stroke="#000" y2="6"></line><text fill="#000" y="9" dy="0.71em" style="text-anchor: middle;">5</text></g><g class="tick" opacity="1" transform="translate(121.26506024096385,0)"><line stroke="#000" y2="6"></line><text fill="#000" y="9" dy="0.71em" style="text-anchor: middle;">6</text></g><g class="tick" opacity="1" transform="translate(139.63855421686745,0)"><line stroke="#000" y2="6"></line><text fill="#000" y="9" dy="0.71em" style="text-anchor: middle;">7</text></g><g class="tick" opacity="1" transform="translate(158.01204819277106,0)"><line stroke="#000" y2="6"></line><text fill="#000" y="9" dy="0.71em" style="text-anchor: middle;">8</text></g><g class="tick" opacity="1" transform="translate(176.38554216867468,0)"><line stroke="#000" y2="6"></line><text fill="#000" y="9" dy="0.71em" style="text-anchor: middle;">9</text></g><g class="tick" opacity="1" transform="translate(194.7590361445783,0)"><line stroke="#000" y2="6"></line><text fill="#000" y="9" dy="0.71em" style="text-anchor: middle;">10</text></g><g class="tick" opacity="1" transform="translate(213.1325301204819,0)"><line stroke="#000" y2="6"></line><text fill="#000" y="9" dy="0.71em" style="text-anchor: middle;">11</text></g><g class="tick" opacity="1" transform="translate(231.50602409638554,0)"><line stroke="#000" y2="6"></line><text fill="#000" y="9" dy="0.71em" style="text-anchor: middle;">12</text></g><g class="tick" opacity="1" transform="translate(249.87951807228916,0)"><line stroke="#000" y2="6"></line><text fill="#000" y="9" dy="0.71em" style="text-anchor: middle;">13</text></g><g class="tick" opacity="1" transform="translate(268.2530120481928,0)"><line stroke="#000" y2="6"></line><text fill="#000" y="9" dy="0.71em" style="text-anchor: middle;">14</text></g><g class="tick" opacity="1" transform="translate(286.6265060240964,0)"><line stroke="#000" y2="6"></line><text fill="#000" y="9" dy="0.71em" style="text-anchor: middle;">15</text></g><g class="tick" opacity="1" transform="translate(305,0)"><line stroke="#000" y2="6"></line><text fill="#000" y="9" dy="0.71em" style="text-anchor: middle;">16</text></g><g class="tick" opacity="1" transform="translate(323.3734939759036,0)"><line stroke="#000" y2="6"></line><text fill="#000" y="9" dy="0.71em" style="text-anchor: middle;">17</text></g><g class="tick" opacity="1" transform="translate(341.7469879518072,0)"><line stroke="#000" y2="6"></line><text fill="#000" y="9" dy="0.71em" style="text-anchor: middle;">18</text></g><g class="tick" opacity="1" transform="translate(360.12048192771084,0)"><line stroke="#000" y2="6"></line><text fill="#000" y="9" dy="0.71em" style="text-anchor: middle;">19</text></g><g class="tick" opacity="1" transform="translate(378.49397590361446,0)"><line stroke="#000" y2="6"></line><text fill="#000" y="9" dy="0.71em" style="text-anchor: middle;">20</text></g><g class="tick" opacity="1" transform="translate(396.86746987951807,0)"><line stroke="#000" y2="6"></line><text fill="#000" y="9" dy="0.71em" style="text-anchor: middle;">21</text></g><g class="tick" opacity="1" transform="translate(415.2409638554217,0)"><line stroke="#000" y2="6"></line><text fill="#000" y="9" dy="0.71em" style="text-anchor: middle;">22</text></g><g class="tick" opacity="1" transform="translate(433.6144578313253,0)"><line stroke="#000" y2="6"></line><text fill="#000" y="9" dy="0.71em" style="text-anchor: middle;">23</text></g><g class="tick" opacity="1" transform="translate(451.98795180722897,0)"><line stroke="#000" y2="6"></line><text fill="#000" y="9" dy="0.71em" style="text-anchor: middle;">24</text></g><g class="tick" opacity="1" transform="translate(470.3614457831326,0)"><line stroke="#000" y2="6"></line><text fill="#000" y="9" dy="0.71em" style="text-anchor: middle;">25</text></g><g class="tick" opacity="1" transform="translate(488.7349397590362,0)"><line stroke="#000" y2="6"></line><text fill="#000" y="9" dy="0.71em" style="text-anchor: middle;">26</text></g><g class="tick" opacity="1" transform="translate(507.1084337349398,0)"><line stroke="#000" y2="6"></line><text fill="#000" y="9" dy="0.71em" style="text-anchor: middle;">27</text></g><g class="tick" opacity="1" transform="translate(525.4819277108435,0)"><line stroke="#000" y2="6"></line><text fill="#000" y="9" dy="0.71em" style="text-anchor: middle;">28</text></g><g class="tick" opacity="1" transform="translate(543.855421686747,0)"><line stroke="#000" y2="6"></line><text fill="#000" y="9" dy="0.71em" style="text-anchor: middle;">29</text></g><g class="tick" opacity="1" transform="translate(562.2289156626507,0)"><line stroke="#000" y2="6"></line><text fill="#000" y="9" dy="0.71em" style="text-anchor: middle;">30</text></g><g class="tick" opacity="1" transform="translate(580.6024096385543,0)"><line stroke="#000" y2="6"></line><text fill="#000" y="9" dy="0.71em" style="text-anchor: middle;">31</text></g><g class="tick" opacity="1" transform="translate(598.9759036144579,0)"><line stroke="#000" y2="6"></line><text fill="#000" y="9" dy="0.71em" style="text-anchor: middle;">32</text></g></g><text transform="translate(305 ,385)" style="text-anchor: middle;">Answer length</text><g fill="none" font-size="10" font-family="sans-serif" text-anchor="end"><path class="domain" stroke="#000" d="M-6,345.5H0.5V0.5H-6"></path><g class="tick" opacity="1" transform="translate(0,345.5)"><line stroke="#000" x2="-6"></line><text fill="#000" x="-9" dy="0.32em">0</text></g><g class="tick" opacity="1" transform="translate(0,312.66474731131626)"><line stroke="#000" x2="-6"></line><text fill="#000" x="-9" dy="0.32em">1,000</text></g><g class="tick" opacity="1" transform="translate(0,279.8294946226325)"><line stroke="#000" x2="-6"></line><text fill="#000" x="-9" dy="0.32em">2,000</text></g><g class="tick" opacity="1" transform="translate(0,246.99424193394879)"><line stroke="#000" x2="-6"></line><text fill="#000" x="-9" dy="0.32em">3,000</text></g><g class="tick" opacity="1" transform="translate(0,214.15898924526505)"><line stroke="#000" x2="-6"></line><text fill="#000" x="-9" dy="0.32em">4,000</text></g><g class="tick" opacity="1" transform="translate(0,181.32373655658134)"><line stroke="#000" x2="-6"></line><text fill="#000" x="-9" dy="0.32em">5,000</text></g><g class="tick" opacity="1" transform="translate(0,148.48848386789757)"><line stroke="#000" x2="-6"></line><text fill="#000" x="-9" dy="0.32em">6,000</text></g><g class="tick" opacity="1" transform="translate(0,115.65323117921386)"><line stroke="#000" x2="-6"></line><text fill="#000" x="-9" dy="0.32em">7,000</text></g><g class="tick" opacity="1" transform="translate(0,82.8179784905301)"><line stroke="#000" x2="-6"></line><text fill="#000" x="-9" dy="0.32em">8,000</text></g><g class="tick" opacity="1" transform="translate(0,49.982725801846414)"><line stroke="#000" x2="-6"></line><text fill="#000" x="-9" dy="0.32em">9,000</text></g><g class="tick" opacity="1" transform="translate(0,17.147473113162675)"><line stroke="#000" x2="-6"></line><text fill="#000" x="-9" dy="0.32em">10,000</text></g></g><text transform="rotate(-90)" y="-70" x="-172.5" dy="1em" style="text-anchor: middle;">Number of answers</text><rect x="3.6746987951806886" y="345" width="14.698795180722895" height="0" fill="#006B71"></rect><rect x="22.048192771084306" y="345" width="14.698795180722895" height="0" fill="#006B71"></rect><rect x="40.42168674698792" y="345" width="14.698795180722895" height="0" fill="#006B71"></rect><rect x="58.795180722891544" y="327.79432759112973" width="14.698795180722895" height="17.20567240887027" fill="#006B71"></rect><rect x="77.16867469879516" y="249.94194346626057" width="14.698795180722895" height="95.05805653373943" fill="#006B71"></rect><rect x="95.54216867469877" y="174.2566860188446" width="14.698795180722895" height="170.7433139811554" fill="#006B71"></rect><rect x="113.9156626506024" y="84.18958789378507" width="14.698795180722895" height="260.8104121062149" fill="#006B71"></rect><rect x="132.289156626506" y="9.91624631198249" width="14.698795180722895" height="335.0837536880175" fill="#006B71"></rect><rect x="150.66265060240963" y="0" width="14.698795180722895" height="345" fill="#006B71"></rect><rect x="169.03614457831324" y="7.486437613019916" width="14.698795180722895" height="337.5135623869801" fill="#006B71"></rect><rect x="187.40963855421685" y="74.7330351194442" width="14.698795180722895" height="270.2669648805558" fill="#006B71"></rect><rect x="205.78313253012047" y="194.51603692776243" width="14.698795180722895" height="150.48396307223757" fill="#006B71"></rect><rect x="224.1566265060241" y="261.8611401922528" width="14.698795180722895" height="83.13885980774722" fill="#006B71"></rect><rect x="242.53012048192772" y="272.8609498429618" width="14.698795180722895" height="72.13905015703818" fill="#006B71"></rect><rect x="260.90361445783134" y="290.0666222518321" width="14.698795180722895" height="54.93337774816791" fill="#006B71"></rect><rect x="279.27710843373495" y="294.5322166174931" width="14.698795180722895" height="50.46778338250692" fill="#006B71"></rect><rect x="297.65060240963857" y="297.7829066336728" width="14.698795180722895" height="47.21709336632722" fill="#006B71"></rect><rect x="316.0240963855422" y="317.1885409726849" width="14.698795180722895" height="27.811459027315095" fill="#006B71"></rect><rect x="334.3975903614458" y="329.40325497287523" width="14.698795180722895" height="15.596745027124769" fill="#006B71"></rect><rect x="352.7710843373494" y="338.82697249452747" width="14.698795180722895" height="6.1730275054725325" fill="#006B71"></rect><rect x="371.144578313253" y="341.782145236509" width="14.698795180722895" height="3.2178547634910046" fill="#006B71"></rect><rect x="389.51807228915663" y="342.1104977633958" width="14.698795180722895" height="2.889502236604187" fill="#006B71"></rect><rect x="407.89156626506025" y="342.27467402683925" width="14.698795180722895" height="2.72532597316075" fill="#006B71"></rect><rect x="426.26506024096386" y="343.0955553440563" width="14.698795180722895" height="1.9044446559436778" fill="#006B71"></rect><rect x="444.63855421686753" y="342.9642143333016" width="14.698795180722895" height="2.035785666698416" fill="#006B71"></rect><rect x="463.01204819277115" y="343.45674312363184" width="14.698795180722895" height="1.5432568763681616" fill="#006B71"></rect><rect x="481.38554216867476" y="343.75226039783" width="14.698795180722895" height="1.247739602169986" fill="#006B71"></rect><rect x="499.7590361445784" y="343.9492719139621" width="14.698795180722895" height="1.050728086037907" fill="#006B71"></rect><rect x="518.132530120482" y="344.4418007042924" width="14.698795180722895" height="0.5581992957075954" fill="#006B71"></rect><rect x="536.5060240963855" y="344.21195393547157" width="14.698795180722895" height="0.7880460645284302" fill="#006B71"></rect><rect x="554.8795180722892" y="344.31045969353767" width="14.698795180722895" height="0.6895403064623338" fill="#006B71"></rect><rect x="573.2530120481928" y="344.7373179784905" width="14.698795180722895" height="0.2626820215094767" fill="#006B71"></rect><rect x="591.6265060240964" y="344.6716474731132" width="14.698795180722895" height="0.3283525268868175" fill="#006B71"></rect></g></svg>
