<svg width="720" height="405"><g transform="translate(80,10)"><g transform="translate(0,345)" fill="none" font-size="10" font-family="sans-serif" text-anchor="middle"><path class="domain" stroke="#000" d="M0.5,6V0.5H610.5V6"></path><g class="tick" opacity="1" transform="translate(45.6786271450858,0)"><line stroke="#000" y2="6"></line><text fill="#000" y="9" dy="0.71em" style="text-anchor: middle;">10</text></g><g class="tick" opacity="1" transform="translate(93.26053042121684,0)"><line stroke="#000" y2="6"></line><text fill="#000" y="9" dy="0.71em" style="text-anchor: middle;">20</text></g><g class="tick" opacity="1" transform="translate(140.84243369734787,0)"><line stroke="#000" y2="6"></line><text fill="#000" y="9" dy="0.71em" style="text-anchor: middle;">30</text></g><g class="tick" opacity="1" transform="translate(188.42433697347892,0)"><line stroke="#000" y2="6"></line><text fill="#000" y="9" dy="0.71em" style="text-anchor: middle;">40</text></g><g class="tick" opacity="1" transform="translate(236.00624024960996,0)"><line stroke="#000" y2="6"></line><text fill="#000" y="9" dy="0.71em" style="text-anchor: middle;">50</text></g><g class="tick" opacity="1" transform="translate(283.58814352574103,0)"><line stroke="#000" y2="6"></line><text fill="#000" y="9" dy="0.71em" style="text-anchor: middle;">60</text></g><g class="tick" opacity="1" transform="translate(331.17004680187205,0)"><line stroke="#000" y2="6"></line><text fill="#000" y="9" dy="0.71em" style="text-anchor: middle;">70</text></g><g class="tick" opacity="1" transform="translate(378.7519500780031,0)"><line stroke="#000" y2="6"></line><text fill="#000" y="9" dy="0.71em" style="text-anchor: middle;">80</text></g><g class="tick" opacity="1" transform="translate(426.33385335413413,0)"><line stroke="#000" y2="6"></line><text fill="#000" y="9" dy="0.71em" style="text-anchor: middle;">90</text></g><g class="tick" opacity="1" transform="translate(473.9157566302652,0)"><line stroke="#000" y2="6"></line><text fill="#000" y="9" dy="0.71em" style="text-anchor: middle;">100</text></g><g class="tick" opacity="1" transform="translate(521.4976599063963,0)"><line stroke="#000" y2="6"></line><text fill="#000" y="9" dy="0.71em" style="text-anchor: middle;">110</text></g><g class="tick" opacity="1" transform="translate(569.0795631825273,0)"><line stroke="#000" y2="6"></line><text fill="#000" y="9" dy="0.71em" style="text-anchor: middle;">120</text></g></g><text transform="translate(305 ,385)" style="text-anchor: middle;">Length of clue</text><g fill="none" font-size="10" font-family="sans-serif" text-anchor="end"><path class="domain" stroke="#000" d="M-6,345.5H0.5V0.5H-6"></path><g class="tick" opacity="1" transform="translate(0,345.5)"><line stroke="#000" x2="-6"></line><text fill="#000" x="-9" dy="0.32em">0</text></g><g class="tick" opacity="1" transform="translate(0,317.4192576916816)"><line stroke="#000" x2="-6"></line><text fill="#000" x="-9" dy="0.32em">500</text></g><g class="tick" opacity="1" transform="translate(0,289.3385153833632)"><line stroke="#000" x2="-6"></line><text fill="#000" x="-9" dy="0.32em">1,000</text></g><g class="tick" opacity="1" transform="translate(0,261.2577730750448)"><line stroke="#000" x2="-6"></line><text fill="#000" x="-9" dy="0.32em">1,500</text></g><g class="tick" opacity="1" transform="translate(0,233.17703076672635)"><line stroke="#000" x2="-6"></line><text fill="#000" x="-9" dy="0.32em">2,000</text></g><g class="tick" opacity="1" transform="translate(0,205.09628845840794)"><line stroke="#000" x2="-6"></line><text fill="#000" x="-9" dy="0.32em">2,500</text></g><g class="tick" opacity="1" transform="translate(0,177.01554615008953)"><line stroke="#000" x2="-6"></line><text fill="#000" x="-9" dy="0.32em">3,000</text></g><g class="tick" opacity="1" transform="translate(0,148.93480384177113)"><line stroke="#000" x2="-6"></line><text fill="#000" x="-9" dy="0.32em">3,500</text></g><g class="tick" opacity="1" transform="translate(0,120.8540615334527)"><line stroke="#000" x2="-6"></line><text fill="#000" x="-9" dy="0.32em">4,000</text></g><g class="tick" opacity="1" transform="translate(0,92.77331922513429)"><line stroke="#000" x2="-6"></line><text fill="#000" x="-9" dy="0.32em">4,500</text></g><g class="tick" opacity="1" transform="translate(0,64.69257691681588)"><line stroke="#000" x2="-6"></line><text fill="#000" x="-9" dy="0.32em">5,000</text></g><g class="tick" opacity="1" transform="translate(0,36.611834608497475)"><line stroke="#000" x2="-6"></line><text fill="#000" x="-9" dy="0.32em">5,500</text></g><g class="tick" opacity="1" transform="translate(0,8.531092300179068)"><line stroke="#000" x2="-6"></line><text fill="#000" x="-9" dy="0.32em">6,000</text></g></g><text transform="rotate(-90)" y="-70" x="-172.5" dy="1em" style="text-anchor: middle;">Number of clues</text><rect x="0.9516380655226158" y="345" width="3.806552262090484" height="0" fill="#006B71"></rect><rect x="5.70982839313572" y="345" width="3.806552262090484" height="0" fill="#006B71"></rect><rect x="10.468018720748825" y="345" width="3.806552262090484" height="0" fill="#006B71"></rect><rect x="15.22620904836193" y="315.9645124531988" width="3.806552262090484" height="29.03548754680122" fill="#006B71"></rect><rect x="19.984399375975034" y="340.0016278691193" width="3.806552262090484" height="4.998372130880682" fill="#006B71"></rect><rect x="24.742589703588138" y="344.60686960768356" width="3.806552262090484" height="0.39313039231643643" fill="#006B71"></rect><rect x="29.500780031201245" y="344.8315155461501" width="3.806552262090484" height="0.16848445384988509" fill="#006B71"></rect><rect x="34.258970358814345" y="344.0452547615172" width="3.806552262090484" height="0.9547452384828148" fill="#006B71"></rect><rect x="39.01716068642745" y="344.21373921536707" width="3.806552262090484" height="0.7862607846329297" fill="#006B71"></rect><rect x="43.77535101404056" y="343.5398013999674" width="3.806552262090484" height="1.4601986000325837" fill="#006B71"></rect><rect x="48.53354134165366" y="340.4509197460524" width="3.806552262090484" height="4.549080253947579" fill="#006B71"></rect><rect x="53.29173166926677" y="337.6428455152206" width="3.806552262090484" height="7.357154484779414" fill="#006B71"></rect><rect x="58.049921996879874" y="331.97053556894025" width="3.806552262090484" height="13.02946443105975" fill="#006B71"></rect><rect x="62.808112324492974" y="324.2202506918444" width="3.806552262090484" height="20.7797493081556" fill="#006B71"></rect><rect x="67.56630265210607" y="320.4574312225297" width="3.806552262090484" height="24.542568777470308" fill="#006B71"></rect><rect x="72.32449297971918" y="310.90997883770143" width="3.806552262090484" height="34.09002116229857" fill="#006B71"></rect><rect x="77.08268330733229" y="302.0364642682728" width="3.806552262090484" height="42.96353573172718" fill="#006B71"></rect><rect x="81.8408736349454" y="295.97102392967605" width="3.806552262090484" height="49.02897607032395" fill="#006B71"></rect><rect x="86.5990639625585" y="290.46719843724566" width="3.806552262090484" height="54.532801562754344" fill="#006B71"></rect><rect x="91.3572542901716" y="282.09913722936676" width="3.806552262090484" height="62.90086277063324" fill="#006B71"></rect><rect x="96.1154446177847" y="274.011883444571" width="3.806552262090484" height="70.98811655542897" fill="#006B71"></rect><rect x="100.87363494539781" y="264.6329155135927" width="3.806552262090484" height="80.3670844864073" fill="#006B71"></rect><rect x="105.63182527301092" y="252.4458733517825" width="3.806552262090484" height="92.5541266482175" fill="#006B71"></rect><rect x="110.39001560062403" y="239.5848933745727" width="3.806552262090484" height="105.41510662542731" fill="#006B71"></rect><rect x="115.14820592823713" y="215.2108090509523" width="3.806552262090484" height="129.7891909490477" fill="#006B71"></rect><rect x="119.90639625585023" y="209.65082207390526" width="3.806552262090484" height="135.34917792609474" fill="#006B71"></rect><rect x="124.66458658346333" y="191.06137066579848" width="3.806552262090484" height="153.93862933420152" fill="#006B71"></rect><rect x="129.42277691107643" y="160.28487709588148" width="3.806552262090484" height="184.71512290411852" fill="#006B71"></rect><rect x="134.18096723868953" y="144.33501546475662" width="3.806552262090484" height="200.66498453524338" fill="#006B71"></rect><rect x="138.93915756630264" y="134.7875630799284" width="3.806552262090484" height="210.2124369200716" fill="#006B71"></rect><rect x="143.69734789391575" y="118.21992511802051" width="3.806552262090484" height="226.7800748819795" fill="#006B71"></rect><rect x="148.45553822152885" y="95.69916978674914" width="3.806552262090484" height="249.30083021325086" fill="#006B71"></rect><rect x="153.21372854914196" y="87.89272342503659" width="3.806552262090484" height="257.1072765749634" fill="#006B71"></rect><rect x="157.97191887675507" y="59.75581963210158" width="3.806552262090484" height="285.2441803678984" fill="#006B71"></rect><rect x="162.73010920436818" y="49.64675240110694" width="3.806552262090484" height="295.35324759889306" fill="#006B71"></rect><rect x="167.48829953198128" y="45.153833631776024" width="3.806552262090484" height="299.846166368224" fill="#006B71"></rect><rect x="172.2464898595944" y="27.799934885235245" width="3.806552262090484" height="317.20006511476475" fill="#006B71"></rect><rect x="177.0046801872075" y="14.433501546475668" width="3.806552262090484" height="330.56649845352433" fill="#006B71"></rect><rect x="181.76287051482058" y="3.145043138531662" width="3.806552262090484" height="341.85495686146834" fill="#006B71"></rect><rect x="186.52106084243368" y="11.906234738726994" width="3.806552262090484" height="333.093765261273" fill="#006B71"></rect><rect x="191.2792511700468" y="7.300993000162748" width="3.806552262090484" height="337.69900699983725" fill="#006B71"></rect><rect x="196.0374414976599" y="2.808074230831835" width="3.806552262090484" height="342.19192576916817" fill="#006B71"></rect><rect x="200.795631825273" y="0" width="3.806552262090484" height="345" fill="#006B71"></rect><rect x="205.5538221528861" y="6.907862607846312" width="3.806552262090484" height="338.0921373921537" fill="#006B71"></rect><rect x="210.31201248049922" y="19.71268110043951" width="3.806552262090484" height="325.2873188995605" fill="#006B71"></rect><rect x="215.07020280811233" y="17.522383200390664" width="3.806552262090484" height="327.47761679960934" fill="#006B71"></rect><rect x="219.82839313572543" y="33.24759889304897" width="3.806552262090484" height="311.752401106951" fill="#006B71"></rect><rect x="224.58658346333854" y="33.64072928536547" width="3.806552262090484" height="311.35927071463453" fill="#006B71"></rect><rect x="229.34477379095165" y="43.07585870096045" width="3.806552262090484" height="301.92414129903955" fill="#006B71"></rect><rect x="234.10296411856473" y="58.0709750936025" width="3.806552262090484" height="286.9290249063975" fill="#006B71"></rect><rect x="238.86115444617784" y="70.65114764772909" width="3.806552262090484" height="274.3488523522709" fill="#006B71"></rect><rect x="243.61934477379094" y="86.93797818655383" width="3.806552262090484" height="258.06202181344617" fill="#006B71"></rect><rect x="248.37753510140405" y="105.13429920234412" width="3.806552262090484" height="239.86570079765588" fill="#006B71"></rect><rect x="253.13572542901716" y="115.52417385642195" width="3.806552262090484" height="229.47582614357805" fill="#006B71"></rect><rect x="257.89391575663024" y="130.01383688751426" width="3.806552262090484" height="214.98616311248574" fill="#006B71"></rect><rect x="262.65210608424337" y="150.28813283412015" width="3.806552262090484" height="194.71186716587985" fill="#006B71"></rect><rect x="267.41029641185645" y="158.71235552661568" width="3.806552262090484" height="186.28764447338432" fill="#006B71"></rect><rect x="272.1684867394696" y="172.64040371154158" width="3.806552262090484" height="172.35959628845842" fill="#006B71"></rect><rect x="276.92667706708266" y="188.75874979651635" width="3.806552262090484" height="156.24125020348365" fill="#006B71"></rect><rect x="281.6848673946958" y="196.78984209669542" width="3.806552262090484" height="148.21015790330458" fill="#006B71"></rect><rect x="286.4430577223089" y="214.70535568940258" width="3.806552262090484" height="130.29464431059742" fill="#006B71"></rect><rect x="291.201248049922" y="222.56796353573174" width="3.806552262090484" height="122.43203646426826" fill="#006B71"></rect><rect x="295.9594383775351" y="234.586521243692" width="3.806552262090484" height="110.413478756308" fill="#006B71"></rect><rect x="300.71762870514823" y="241.8875142438548" width="3.806552262090484" height="103.11248575614519" fill="#006B71"></rect><rect x="305.4758190327613" y="251.94041999023278" width="3.806552262090484" height="93.05958000976722" fill="#006B71"></rect><rect x="310.2340093603744" y="262.6672635520104" width="3.806552262090484" height="82.33273644798959" fill="#006B71"></rect><rect x="314.9921996879875" y="269.1819957675403" width="3.806552262090484" height="75.81800423245971" fill="#006B71"></rect><rect x="319.7503900156006" y="275.9775354061534" width="3.806552262090484" height="69.02246459384662" fill="#006B71"></rect><rect x="324.50858034321374" y="285.07569591404854" width="3.806552262090484" height="59.92430408595146" fill="#006B71"></rect><rect x="329.2667706708268" y="289.6809376526127" width="3.806552262090484" height="55.31906234738727" fill="#006B71"></rect><rect x="334.02496099843995" y="296.47647729122576" width="3.806552262090484" height="48.52352270877424" fill="#006B71"></rect><rect x="338.78315132605303" y="303.0473709913723" width="3.806552262090484" height="41.952629008627696" fill="#006B71"></rect><rect x="343.54134165366617" y="304.22676216832167" width="3.806552262090484" height="40.77323783167833" fill="#006B71"></rect><rect x="348.29953198127924" y="310.17987953768517" width="3.806552262090484" height="34.82012046231483" fill="#006B71"></rect><rect x="353.0577223088924" y="311.0784632915514" width="3.806552262090484" height="33.92153670844863" fill="#006B71"></rect><rect x="357.81591263650546" y="318.3232948070975" width="3.806552262090484" height="26.67670519290249" fill="#006B71"></rect><rect x="362.57410296411854" y="322.64772912257854" width="3.806552262090484" height="22.35227087742146" fill="#006B71"></rect><rect x="367.3322932917317" y="325.00651147647727" width="3.806552262090484" height="19.99348852352273" fill="#006B71"></rect><rect x="372.09048361934475" y="326.2982256226599" width="3.806552262090484" height="18.701774377340087" fill="#006B71"></rect><rect x="376.8486739469579" y="328.15155461500893" width="3.806552262090484" height="16.848445384991066" fill="#006B71"></rect><rect x="381.60686427457097" y="331.1281132996907" width="3.806552262090484" height="13.87188670030929" fill="#006B71"></rect><rect x="386.3650546021841" y="331.91437408432364" width="3.806552262090484" height="13.08562591567636" fill="#006B71"></rect><rect x="391.1232449297972" y="333.5430571382061" width="3.806552262090484" height="11.456942861793891" fill="#006B71"></rect><rect x="395.8814352574103" y="334.83477128438875" width="3.806552262090484" height="10.16522871561125" fill="#006B71"></rect><rect x="400.6396255850234" y="336.0141624613381" width="3.806552262090484" height="8.985837538661883" fill="#006B71"></rect><rect x="405.39781591263653" y="337.1373921536708" width="3.806552262090484" height="7.862607846329183" fill="#006B71"></rect><rect x="410.1560062402496" y="339.0468826306365" width="3.806552262090484" height="5.953117369363497" fill="#006B71"></rect><rect x="414.9141965678627" y="338.87839817678656" width="3.806552262090484" height="6.121601823213439" fill="#006B71"></rect><rect x="419.6723868954758" y="339.27152856910305" width="3.806552262090484" height="5.7284714308969455" fill="#006B71"></rect><rect x="424.4305772230889" y="339.83314341526943" width="3.806552262090484" height="5.166856584730567" fill="#006B71"></rect><rect x="429.18876755070204" y="341.3495034999186" width="3.806552262090484" height="3.650496500081374" fill="#006B71"></rect><rect x="433.9469578783151" y="340.95637310760213" width="3.806552262090484" height="4.043626892397867" fill="#006B71"></rect><rect x="438.70514820592825" y="341.91111834608495" width="3.806552262090484" height="3.0888816539150525" fill="#006B71"></rect><rect x="443.46333853354133" y="341.9672798307016" width="3.806552262090484" height="3.0327201692983863" fill="#006B71"></rect><rect x="448.22152886115447" y="342.36041022301805" width="3.806552262090484" height="2.63958977698195" fill="#006B71"></rect><rect x="452.97971918876755" y="342.528894676868" width="3.806552262090484" height="2.471105323132008" fill="#006B71"></rect><rect x="457.7379095163807" y="343.0343480384177" width="3.806552262090484" height="1.9656519615822958" fill="#006B71"></rect><rect x="462.49609984399376" y="343.09050952303437" width="3.806552262090484" height="1.9094904769656296" fill="#006B71"></rect><rect x="467.25429017160684" y="343.82060882305063" width="3.806552262090484" height="1.1793911769493661" fill="#006B71"></rect><rect x="472.01248049922" y="343.20283249226765" width="3.806552262090484" height="1.797167507732354" fill="#006B71"></rect><rect x="476.77067082683305" y="343.5398013999674" width="3.806552262090484" height="1.4601986000325837" fill="#006B71"></rect><rect x="481.5288611544462" y="343.6521243692007" width="3.806552262090484" height="1.347875630799308" fill="#006B71"></rect><rect x="486.28705148205927" y="344.0452547615172" width="3.806552262090484" height="0.9547452384828148" fill="#006B71"></rect><rect x="491.0452418096724" y="344.1014162461338" width="3.806552262090484" height="0.8985837538662054" fill="#006B71"></rect><rect x="495.8034321372855" y="343.82060882305063" width="3.806552262090484" height="1.1793911769493661" fill="#006B71"></rect><rect x="500.5616224648986" y="344.26990069998374" width="3.806552262090484" height="0.7300993000162634" fill="#006B71"></rect><rect x="505.3198127925117" y="344.4945466384503" width="3.806552262090484" height="0.5054533615497121" fill="#006B71"></rect><rect x="510.0780031201248" y="344.4945466384503" width="3.806552262090484" height="0.5054533615497121" fill="#006B71"></rect><rect x="514.8361934477379" y="344.0452547615172" width="3.806552262090484" height="0.9547452384828148" fill="#006B71"></rect><rect x="519.594383775351" y="344.71919257691684" width="3.806552262090484" height="0.28080742308316076" fill="#006B71"></rect><rect x="524.3525741029641" y="344.60686960768356" width="3.806552262090484" height="0.39313039231643643" fill="#006B71"></rect><rect x="529.1107644305772" y="344.71919257691684" width="3.806552262090484" height="0.28080742308316076" fill="#006B71"></rect><rect x="533.8689547581903" y="344.71919257691684" width="3.806552262090484" height="0.28080742308316076" fill="#006B71"></rect><rect x="538.6271450858035" y="344.77535406153345" width="3.806552262090484" height="0.22464593846655134" fill="#006B71"></rect><rect x="543.3853354134166" y="344.8315155461501" width="3.806552262090484" height="0.16848445384988509" fill="#006B71"></rect><rect x="548.1435257410296" y="344.5507081230669" width="3.806552262090484" height="0.4492918769331027" fill="#006B71"></rect><rect x="552.9017160686427" y="344.71919257691684" width="3.806552262090484" height="0.28080742308316076" fill="#006B71"></rect><rect x="557.6599063962559" y="344.9438385153834" width="3.806552262090484" height="0.056161484616609414" fill="#006B71"></rect><rect x="562.418096723869" y="344.9438385153834" width="3.806552262090484" height="0.056161484616609414" fill="#006B71"></rect><rect x="567.1762870514821" y="344.8315155461501" width="3.806552262090484" height="0.16848445384988509" fill="#006B71"></rect><rect x="571.9344773790951" y="344.9438385153834" width="3.806552262090484" height="0.056161484616609414" fill="#006B71"></rect><rect x="576.6926677067082" y="344.9438385153834" width="3.806552262090484" height="0.056161484616609414" fill="#006B71"></rect><rect x="581.4508580343214" y="344.8315155461501" width="3.806552262090484" height="0.16848445384988509" fill="#006B71"></rect><rect x="586.2090483619345" y="344.8876770307667" width="3.806552262090484" height="0.11232296923327567" fill="#006B71"></rect><rect x="590.9672386895476" y="344.8315155461501" width="3.806552262090484" height="0.16848445384988509" fill="#006B71"></rect><rect x="595.7254290171606" y="344.8876770307667" width="3.806552262090484" height="0.11232296923327567" fill="#006B71"></rect><rect x="600.4836193447738" y="345" width="3.806552262090484" height="0" fill="#006B71"></rect><rect x="605.2418096723869" y="344.8876770307667" width="3.806552262090484" height="0.11232296923327567" fill="#006B71"></rect></g></svg>
