<svg width="720" height="405"><g transform="translate(80,10)"><g transform="translate(0,345)" fill="none" font-size="10" font-family="sans-serif" text-anchor="middle"><path class="domain" stroke="#000" d="M0.5,6V0.5H610.5V6"></path><g class="tick" opacity="1" transform="translate(17.264150943396203,0)"><line stroke="#000" y2="6"></line><text fill="#000" y="9" dy="0.71em" style="text-anchor: middle;">16</text></g><g class="tick" opacity="1" transform="translate(46.03773584905658,0)"><line stroke="#000" y2="6"></line><text fill="#000" y="9" dy="0.71em" style="text-anchor: middle;">17</text></g><g class="tick" opacity="1" transform="translate(74.81132075471696,0)"><line stroke="#000" y2="6"></line><text fill="#000" y="9" dy="0.71em" style="text-anchor: middle;">18</text></g><g class="tick" opacity="1" transform="translate(103.58490566037733,0)"><line stroke="#000" y2="6"></line><text fill="#000" y="9" dy="0.71em" style="text-anchor: middle;">19</text></g><g class="tick" opacity="1" transform="translate(132.35849056603772,0)"><line stroke="#000" y2="6"></line><text fill="#000" y="9" dy="0.71em" style="text-anchor: middle;">20</text></g><g class="tick" opacity="1" transform="translate(161.1320754716981,0)"><line stroke="#000" y2="6"></line><text fill="#000" y="9" dy="0.71em" style="text-anchor: middle;">21</text></g><g class="tick" opacity="1" transform="translate(189.90566037735846,0)"><line stroke="#000" y2="6"></line><text fill="#000" y="9" dy="0.71em" style="text-anchor: middle;">22</text></g><g class="tick" opacity="1" transform="translate(218.67924528301884,0)"><line stroke="#000" y2="6"></line><text fill="#000" y="9" dy="0.71em" style="text-anchor: middle;">23</text></g><g class="tick" opacity="1" transform="translate(247.45283018867923,0)"><line stroke="#000" y2="6"></line><text fill="#000" y="9" dy="0.71em" style="text-anchor: middle;">24</text></g><g class="tick" opacity="1" transform="translate(276.2264150943396,0)"><line stroke="#000" y2="6"></line><text fill="#000" y="9" dy="0.71em" style="text-anchor: middle;">25</text></g><g class="tick" opacity="1" transform="translate(305,0)"><line stroke="#000" y2="6"></line><text fill="#000" y="9" dy="0.71em" style="text-anchor: middle;">26</text></g><g class="tick" opacity="1" transform="translate(333.77358490566036,0)"><line stroke="#000" y2="6"></line><text fill="#000" y="9" dy="0.71em" style="text-anchor: middle;">27</text></g><g class="tick" opacity="1" transform="translate(362.5471698113207,0)"><line stroke="#000" y2="6"></line><text fill="#000" y="9" dy="0.71em" style="text-anchor: middle;">28</text></g><g class="tick" opacity="1" transform="translate(391.3207547169811,0)"><line stroke="#000" y2="6"></line><text fill="#000" y="9" dy="0.71em" style="text-anchor: middle;">29</text></g><g class="tick" opacity="1" transform="translate(420.0943396226415,0)"><line stroke="#000" y2="6"></line><text fill="#000" y="9" dy="0.71em" style="text-anchor: middle;">30</text></g><g class="tick" opacity="1" transform="translate(448.8679245283019,0)"><line stroke="#000" y2="6"></line><text fill="#000" y="9" dy="0.71em" style="text-anchor: middle;">31</text></g><g class="tick" opacity="1" transform="translate(477.64150943396226,0)"><line stroke="#000" y2="6"></line><text fill="#000" y="9" dy="0.71em" style="text-anchor: middle;">32</text></g><g class="tick" opacity="1" transform="translate(506.4150943396226,0)"><line stroke="#000" y2="6"></line><text fill="#000" y="9" dy="0.71em" style="text-anchor: middle;">33</text></g><g class="tick" opacity="1" transform="translate(535.188679245283,0)"><line stroke="#000" y2="6"></line><text fill="#000" y="9" dy="0.71em" style="text-anchor: middle;">34</text></g><g class="tick" opacity="1" transform="translate(563.9622641509433,0)"><line stroke="#000" y2="6"></line><text fill="#000" y="9" dy="0.71em" style="text-anchor: middle;">35</text></g><g class="tick" opacity="1" transform="translate(592.7358490566038,0)"><line stroke="#000" y2="6"></line><text fill="#000" y="9" dy="0.71em" style="text-anchor: middle;">36</text></g></g><text transform="translate(305 ,385)" style="text-anchor: middle;">Answer length</text><g fill="none" font-size="10" font-family="sans-serif" text-anchor="end"><path class="domain" stroke="#000" d="M-6,345.5H0.5V0.5H-6"></path><g class="tick" opacity="1" transform="translate(0,345.5)"><line stroke="#000" x2="-6"></line><text fill="#000" x="-9" dy="0.32em">0</text></g><g class="tick" opacity="1" transform="translate(0,314.9825298540469)"><line stroke="#000" x2="-6"></line><text fill="#000" x="-9" dy="0.32em">200</text></g><g class="tick" opacity="1" transform="translate(0,284.46505970809375)"><line stroke="#000" x2="-6"></line><text fill="#000" x="-9" dy="0.32em">400</text></g><g class="tick" opacity="1" transform="translate(0,253.94758956214065)"><line stroke="#000" x2="-6"></line><text fill="#000" x="-9" dy="0.32em">600</text></g><g class="tick" opacity="1" transform="translate(0,223.43011941618752)"><line stroke="#000" x2="-6"></line><text fill="#000" x="-9" dy="0.32em">800</text></g><g class="tick" opacity="1" transform="translate(0,192.91264927023443)"><line stroke="#000" x2="-6"></line><text fill="#000" x="-9" dy="0.32em">1,000</text></g><g class="tick" opacity="1" transform="translate(0,162.3951791242813)"><line stroke="#000" x2="-6"></line><text fill="#000" x="-9" dy="0.32em">1,200</text></g><g class="tick" opacity="1" transform="translate(0,131.87770897832814)"><line stroke="#000" x2="-6"></line><text fill="#000" x="-9" dy="0.32em">1,400</text></g><g class="tick" opacity="1" transform="translate(0,101.36023883237505)"><line stroke="#000" x2="-6"></line><text fill="#000" x="-9" dy="0.32em">1,600</text></g><g class="tick" opacity="1" transform="translate(0,70.84276868642195)"><line stroke="#000" x2="-6"></line><text fill="#000" x="-9" dy="0.32em">1,800</text></g><g class="tick" opacity="1" transform="translate(0,40.32529854046885)"><line stroke="#000" x2="-6"></line><text fill="#000" x="-9" dy="0.32em">2,000</text></g><g class="tick" opacity="1" transform="translate(0,9.807828394515695)"><line stroke="#000" x2="-6"></line><text fill="#000" x="-9" dy="0.32em">2,200</text></g></g><text transform="rotate(-90)" y="-70" x="-172.5" dy="1em" style="text-anchor: middle;">Number of answers</text><rect x="5.754716981132049" y="345" width="23.018867924528305" height="0" fill="#006B71"></rect><rect x="34.52830188679243" y="345" width="23.018867924528305" height="0" fill="#006B71"></rect><rect x="63.301886792452805" y="345" width="23.018867924528305" height="0" fill="#006B71"></rect><rect x="92.07547169811318" y="344.8474126492702" width="23.018867924528305" height="0.1525873507297888" fill="#006B71"></rect><rect x="120.84905660377356" y="344.38965059708096" width="23.018867924528305" height="0.6103494029190415" fill="#006B71"></rect><rect x="149.62264150943395" y="342.8637770897833" width="23.018867924528305" height="2.136222910216702" fill="#006B71"></rect><rect x="178.3962264150943" y="341.33790358248564" width="23.018867924528305" height="3.6620964175143627" fill="#006B71"></rect><rect x="207.1698113207547" y="335.9973463069438" width="23.018867924528305" height="9.002653693056175" fill="#006B71"></rect><rect x="235.94339622641508" y="317.0765148164529" width="23.018867924528305" height="27.923485183547086" fill="#006B71"></rect><rect x="264.71698113207543" y="305.93763821318" width="23.018867924528305" height="39.06236178682002" fill="#006B71"></rect><rect x="293.49056603773585" y="239.10437859354266" width="23.018867924528305" height="105.89562140645734" fill="#006B71"></rect><rect x="322.2641509433962" y="229.49137549756745" width="23.018867924528305" height="115.50862450243255" fill="#006B71"></rect><rect x="351.03773584905656" y="0" width="23.018867924528305" height="345" fill="#006B71"></rect><rect x="379.811320754717" y="209.3498452012384" width="23.018867924528305" height="135.6501547987616" fill="#006B71"></rect><rect x="408.58490566037733" y="224.15081822202563" width="23.018867924528305" height="120.84918177797437" fill="#006B71"></rect><rect x="437.35849056603774" y="324.5532950022114" width="23.018867924528305" height="20.446704997788572" fill="#006B71"></rect><rect x="466.1320754716981" y="274.65723131357805" width="23.018867924528305" height="70.34276868642195" fill="#006B71"></rect><rect x="494.90566037735846" y="320.28084918177797" width="23.018867924528305" height="24.719150818222033" fill="#006B71"></rect><rect x="523.6792452830189" y="344.0844758956214" width="23.018867924528305" height="0.9155241043786191" fill="#006B71"></rect><rect x="552.4528301886792" y="345" width="23.018867924528305" height="0" fill="#006B71"></rect><rect x="581.2264150943397" y="345" width="23.018867924528305" height="0" fill="#006B71"></rect></g></svg>
