<svg xmlns="http://www.w3.org/2000/svg" width="720" height="405"><g transform="translate(60,10)"><g transform="translate(0,365)" fill="none" font-size="10" font-family="sans-serif" text-anchor="middle"><path class="domain" stroke="#000" d="M0.5,6V0.5H630.5V6"></path><g class="tick" opacity="1" transform="translate(0.5,0)"><line stroke="#000" y2="6"></line><text fill="#000" y="9" dy="0.71em">0</text></g><g class="tick" opacity="1" transform="translate(158,0)"><line stroke="#000" y2="6"></line><text fill="#000" y="9" dy="0.71em">50</text></g><g class="tick" opacity="1" transform="translate(315.5,0)"><line stroke="#000" y2="6"></line><text fill="#000" y="9" dy="0.71em">100</text></g><g class="tick" opacity="1" transform="translate(473,0)"><line stroke="#000" y2="6"></line><text fill="#000" y="9" dy="0.71em">150</text></g><g class="tick" opacity="1" transform="translate(630.5,0)"><line stroke="#000" y2="6"></line><text fill="#000" y="9" dy="0.71em">200</text></g></g><g fill="none" font-size="10" font-family="sans-serif" text-anchor="end"><path class="domain" stroke="#000" d="M-6,365.5H0.5V0.5H-6"></path><g class="tick" opacity="1" transform="translate(0,365.5)"><line stroke="#000" x2="-6"></line><text fill="#000" x="-9" dy="0.32em">0.000</text></g><g class="tick" opacity="1" transform="translate(0,336.3)"><line stroke="#000" x2="-6"></line><text fill="#000" x="-9" dy="0.32em">0.002</text></g><g class="tick" opacity="1" transform="translate(0,307.1)"><line stroke="#000" x2="-6"></line><text fill="#000" x="-9" dy="0.32em">0.004</text></g><g class="tick" opacity="1" transform="translate(0,277.9)"><line stroke="#000" x2="-6"></line><text fill="#000" x="-9" dy="0.32em">0.006</text></g><g class="tick" opacity="1" transform="translate(0,248.7)"><line stroke="#000" x2="-6"></line><text fill="#000" x="-9" dy="0.32em">0.008</text></g><g class="tick" opacity="1" transform="translate(0,219.5)"><line stroke="#000" x2="-6"></line><text fill="#000" x="-9" dy="0.32em">0.010</text></g><g class="tick" opacity="1" transform="translate(0,190.3)"><line stroke="#000" x2="-6"></line><text fill="#000" x="-9" dy="0.32em">0.012</text></g><g class="tick" opacity="1" transform="translate(0,161.10000000000002)"><line stroke="#000" x2="-6"></line><text fill="#000" x="-9" dy="0.32em">0.014</text></g><g class="tick" opacity="1" transform="translate(0,131.9)"><line stroke="#000" x2="-6"></line><text fill="#000" x="-9" dy="0.32em">0.016</text></g><g class="tick" opacity="1" transform="translate(0,102.70000000000005)"><line stroke="#000" x2="-6"></line><text fill="#000" x="-9" dy="0.32em">0.018</text></g><g class="tick" opacity="1" transform="translate(0,73.5)"><line stroke="#000" x2="-6"></line><text fill="#000" x="-9" dy="0.32em">0.020</text></g><g class="tick" opacity="1" transform="translate(0,44.30000000000001)"><line stroke="#000" x2="-6"></line><text fill="#000" x="-9" dy="0.32em">0.022</text></g><g class="tick" opacity="1" transform="translate(0,15.100000000000023)"><line stroke="#000" x2="-6"></line><text fill="#000" x="-9" dy="0.32em">0.024</text></g></g><path fill="none" stroke="#9e9e9e" stroke-width="1.5" d="M0,365C1.05,364.9803956322543,2.0999999999999996,364.9607912645086,3.15,364.9607912645086C4.2,364.9607912645086,5.25,365,6.3,365C7.35,365,8.399999999999999,364.98039563225433,9.45,364.9607912645086C10.5,364.9411868967629,11.549999999999999,364.88237379352574,12.6,364.88237379352574C13.65,364.88237379352574,14.7,364.88237379352574,15.75,364.88237379352574C16.8,364.88237379352574,17.849999999999998,364.76474758705143,18.9,364.72553885156003C19.95,364.6863301160686,21,364.6993996945657,22.05,364.6471213805772C23.1,364.5948430665886,24.15,364.4053341783801,25.2,364.25503402566295C26.25,364.1047338729458,27.299999999999997,363.9086901954887,28.349999999999998,363.7453204642744C29.4,363.5819507330601,30.45,363.523137629823,31.5,363.2748156383773C32.55,363.0264936469316,33.6,362.6082671350231,34.65,362.25538851560026C35.699999999999996,361.90250989617743,36.75,361.4908181735174,37.8,361.15754392184033C38.85,360.82426967016323,39.9,360.7327826206832,40.95,360.25574300553757C42,359.7787033903919,43.050000000000004,359.2885941967491,44.1,358.29530623096633C45.15,357.30201826518356,46.2,354.5051284667952,47.25,354.29601521084095C48.3,354.0869019548867,49.35,354.1914585828638,50.4,353.9823453269095C51.45,353.77323207095526,52.5,351.1919903177698,53.550000000000004,349.9830543067842C54.6,348.7741182957986,55.65,347.6501345450444,56.699999999999996,346.7287292609959C57.75,345.80732397694743,58.8,345.15384505209033,59.85,344.45462260249326C60.9,343.7554001528962,61.95,343.80767846688474,63,342.5333945634134C64.05,341.2591106599421,65.1,338.0832030851367,66.14999999999999,336.8089191816654C67.19999999999999,335.53463527819406,68.25,336.1554402568083,69.3,334.88769114258554C70.35,333.6199420283628,71.4,331.18246563864585,72.45,329.2024244963289C73.5,327.2223833540119,74.55,325.1835291084578,75.6,323.0074442886837C76.64999999999999,320.8313594689096,77.7,318.5768571781527,78.75,316.1459155776843C79.8,313.71497397721595,80.85000000000001,310.4541141421791,81.9,308.4217946858736C82.95,306.38947522956806,84.00000000000001,306.0562009778909,85.05000000000001,303.9519988398511C86.10000000000001,301.8477967018113,87.15,298.60000644527156,88.2,295.7965818576347C89.25,292.9931572699978,90.3,289.30100134455523,91.35,287.13145131402973C92.39999999999999,284.96190128350423,93.45,285.1252710147185,94.5,282.7792816744816C95.55,280.43329233424464,96.60000000000001,275.9831008559679,97.65,273.05551527260815C98.7,270.1279296892484,99.75,268.48769758785716,100.8,265.21376817432315C101.85,261.93983876078914,102.9,256.0519936478268,103.95,253.41193879140417C105,250.77188393498153,106.05000000000001,252.06577220619857,107.10000000000001,249.37343903578736C108.15,246.68110586537617,109.2,237.22526582269418,110.25,232.5136827744746C111.3,227.80209972625502,112.35,224.8875837213924,113.39999999999999,221.10394074646987C114.44999999999999,217.32029777154733,115.5,212.62831909107345,116.55,209.81182492493943C117.6,206.9953307588054,118.65,207.54425305568537,119.7,204.20497574966566C120.75,200.86569844364595,121.80000000000001,194.19367862085514,122.85000000000001,189.77616108882123C123.9,185.35864355678734,124.95,181.05221744197914,126,177.6998705574623C127.05,174.34752367294544,128.1,171.83162981224567,129.15,169.66207978172014C130.2,167.49252975119464,131.25,166.88479435107752,132.29999999999998,164.68257037430917C133.35,162.48034639754079,134.39999999999998,160.09514832181242,135.45,156.4487359211099C136.5,152.80232352040736,137.54999999999998,142.80409597009395,138.6,142.80409597009395C139.65,142.80409597009395,140.7,145.0389938931052,141.75,145.0389938931052C142.8,145.0389938931052,143.85,137.44556878626582,144.9,136.06019346556883C145.95,134.67481814487184,147,134.72056166961184,148.04999999999998,133.98213048452334C149.1,133.24369929943484,150.14999999999998,132.93656420475193,151.2,131.62960635503777C152.25,130.3226485053236,153.29999999999998,128.28379425976954,154.35,126.14038338623831C155.4,123.99697251270707,156.45,118.76914111385037,157.5,118.76914111385037C158.55,118.76914111385037,159.6,121.00403903686166,160.65,121.55296133374159C161.70000000000002,122.10188363062153,162.75,122.3763447790615,163.8,122.3763447790615C164.85000000000002,122.3763447790615,165.9,119.34420256772462,166.95000000000002,119.08281099778176C168.00000000000003,118.8214194278389,169.05,118.69072364286748,170.10000000000002,118.69072364286748C171.15,118.69072364286748,172.20000000000002,121.51375259825014,173.25,121.51375259825014C174.3,121.51375259825014,175.35,118.4946799654104,176.4,118.4946799654104C177.45,118.4946799654104,178.5,118.70379322136465,179.54999999999998,119.12201973327316C180.6,119.54024624518168,181.64999999999998,121.23929144981014,182.7,121.23929144981014C183.75,121.23929144981014,184.79999999999998,117.51446157812478,185.85,117.51446157812478C186.9,117.51446157812478,187.95,127.78715027687815,189,127.78715027687815C190.05,127.78715027687815,191.1,119.12201973327316,192.15,119.12201973327316C193.20000000000002,119.12201973327316,194.25,121.10859566483873,195.3,121.86663121767296C196.35,122.62466677050718,197.4,122.46783182854148,198.45,123.67023305027851C199.5,124.87263427201556,200.54999999999998,129.388173642778,201.6,131.08068405815786C202.65,132.7731944735377,203.7,133.0215164649834,204.75,133.8252955425576C205.8,134.6290746201318,206.85,134.91660534706892,207.9,135.90335852360312C208.95000000000002,136.8901117001373,210,139.30144893286,211.05,139.74581460176282C212.10000000000002,140.19018027066562,213.15,140.412363105117,214.20000000000002,140.412363105117C215.25,140.412363105117,216.3,137.66775162071727,217.35,137.66775162071727C218.4,137.66775162071727,219.45,152.33181869451025,220.5,152.33181869451025C221.54999999999998,152.33181869451025,222.6,150.9987216878018,223.64999999999998,150.9987216878018C224.7,150.9987216878018,225.74999999999997,154.03086389913872,226.79999999999998,155.86060488873855C227.85,157.69034587833838,228.89999999999998,161.97716762540082,229.95,161.97716762540082C231,161.97716762540082,232.04999999999998,159.9383133798467,233.1,159.9383133798467C234.15,159.9383133798467,235.2,171.85776896923997,236.25,171.85776896923997C237.3,171.85776896923997,238.35,170.44625449154867,239.4,170.44625449154867C240.45000000000002,170.44625449154867,241.5,177.53650082624802,242.55,179.66030733203354C243.60000000000002,181.78411383781906,244.65,182.1435272464905,245.70000000000002,183.18909352626181C246.75000000000003,184.23465980603314,247.8,184.10396402106173,248.85000000000002,185.93370501066155C249.9,187.76344600026135,250.95000000000002,194.38972229831225,252,194.99092290918077C253.05,195.59212352004928,254.1,195.29152321461504,255.15,195.89272382548356C256.2,196.49392443635207,257.25,201.83938204168302,258.3,204.04814080769998C259.35,206.2568995737169,260.4,207.139096122274,261.45,209.14527642158524C262.5,211.15145672089648,263.54999999999995,216.08522260356747,264.59999999999997,216.08522260356747C265.65,216.08522260356747,266.7,215.69313524865322,267.75,215.69313524865322C268.8,215.69313524865322,269.84999999999997,216.90207125963886,270.9,218.98666902993293C271.95,221.07126680022702,273,225.7371063237066,274.05,228.20072187041782C275.1,230.664337417129,276.15,231.87980821736323,277.2,233.7683623102002C278.25,235.65691640303717,279.3,237.81339685506552,280.35,239.53204642743967C281.40000000000003,241.2506959998138,282.45,241.9368488709138,283.5,244.080259744445C284.55,246.22367061797624,285.6,251.0855538189129,286.65000000000003,252.3925116686271C287.70000000000005,253.69946951834126,288.75,253.2224299031956,289.8,254.35294844319836C290.85,255.4834669832011,291.9,257.5353908072524,292.95,259.1756229086437C294,260.81585501003497,295.04999999999995,262.3057869587091,296.09999999999997,264.1943410515461C297.15,266.0828951443831,298.2,268.8471109965285,299.25,270.5069474656655C300.3,272.1667839348025,301.34999999999997,273.32344163179954,302.4,274.153359866368C303.45,274.9832781009365,304.5,274.59772553527085,305.55,275.48645687307646C306.6,276.3751882108821,307.65,278.76692107585905,308.7,280.975679841876C309.75,283.18443860789296,310.8,288.19008717229826,311.85,288.7390094691782C312.90000000000003,289.28793176605814,313.95,289.01347061761817,315,289.5623929144981C316.05,290.11131521137804,317.09999999999997,292.42463060537216,318.15,293.71851887658914C319.2,295.0124071478062,320.25,296.3585737330117,321.3,297.32572254180025C322.35,298.2928713505887,323.4,298.12296683012596,324.45,299.5214117293201C325.5,300.91985662851425,326.55,304.59240818621106,327.6,305.71639193696524C328.65000000000003,306.8403756877194,329.7,306.6377972210137,330.75,307.4023675630965C331.8,308.1669379051793,332.85,309.0883431892278,333.90000000000003,310.303813989462C334.95000000000005,311.5192847896962,336,313.33595620079893,337.05,314.6951923645016C338.1,316.05442852820437,339.15000000000003,317.3417820101728,340.20000000000005,318.4592309716784C341.25000000000006,319.576679933184,342.3,320.5242243742268,343.35,321.3998861335353C344.40000000000003,322.2755478928438,345.45,323.05972260267225,346.5,323.71320152752935C347.55,324.36668045238645,348.6,325.3207596826778,349.65000000000003,325.3207596826778C350.70000000000005,325.3207596826778,351.75,325.28155094718636,352.8,325.28155094718636C353.85,325.28155094718636,354.9,325.895821136552,355.95,326.69306542487766C357,327.4903097132033,358.04999999999995,329.5160943802603,359.09999999999997,330.06501667714025C360.15,330.6139389740202,361.2,330.3394778255802,362.25,330.88840012246015C363.3,331.4373224193401,364.34999999999997,334.7700649361112,365.4,334.7700649361112C366.45,334.7700649361112,367.49999999999994,334.6916474651284,368.54999999999995,334.6916474651284C369.59999999999997,334.6916474651284,370.65,334.8092736716027,371.7,335.0445260845512C372.75,335.2797784974997,373.79999999999995,335.6326571169226,374.84999999999997,336.5736667687168C375.9,337.514676420511,376.95,340.4030532683793,378,340.69058399531644C379.05,340.97811472225357,380.09999999999997,340.88662767277356,381.15,341.1218800857221C382.2,341.3571324986707,383.25,341.5989197008678,384.3,342.10209847300774C385.35,342.6052772451477,386.4,343.6247043679247,387.45,344.14095271856183C388.5,344.65720106919895,389.55,344.7813620649218,390.6,345.1995885768303C391.65000000000003,345.61781508873884,392.7,346.19941133186165,393.75,346.65031179001306C394.8,347.1012122481645,395.84999999999997,347.41488213209584,396.9,347.90499132573865C397.95,348.39510051938146,399,349.48641032389276,400.05,349.5909669518699C401.1,349.6955235798471,402.15,349.64324526585847,403.2,349.74780189383563C404.25,349.8523585218128,405.3,350.2509806659756,406.35,350.4143503971899C407.40000000000003,350.57772012840417,408.45,350.518907025167,409.5,350.72802028112125C410.55,350.9371335370755,411.6,351.62328640817543,412.65000000000003,352.0219085523383C413.70000000000005,352.4205306965011,414.75,352.8387572084097,415.8,353.1197531460982C416.85,353.40074908378676,417.90000000000003,353.41381866228386,418.95000000000005,353.70788417846956C420.00000000000006,354.00194969465525,421.05,354.8057287722295,422.1,354.88414624321234C423.15000000000003,354.9625637141952,424.2,354.92335497870374,425.25,355.0017724496866C426.3,355.08018992066945,427.35,355.9427821014808,428.40000000000003,355.9427821014808C429.45000000000005,355.9427821014808,430.5,355.27623359812657,431.55,355.27623359812657C432.6,355.27623359812657,433.65,357.31508784368066,434.7,357.31508784368066C435.75,357.31508784368066,436.79999999999995,356.92300048876643,437.84999999999997,356.92300048876643C438.9,356.92300048876643,439.95,359.1971071472691,441,359.1971071472691C442.05,359.1971071472691,443.09999999999997,358.84422852784627,444.15,358.84422852784627C445.2,358.84422852784627,446.24999999999994,359.2363158827605,447.29999999999995,359.2363158827605C448.34999999999997,359.2363158827605,449.4,358.9618547343205,450.45,358.9618547343205C451.5,358.9618547343205,452.54999999999995,359.3539420892348,453.59999999999997,359.6284032376748C454.65,359.90286438611474,455.7,360.6086216249604,456.75,360.6086216249604C457.8,360.6086216249604,458.84999999999997,360.4517866829947,459.9,360.4517866829947C460.95,360.4517866829947,462,360.4517866829947,463.05,360.4517866829947C464.1,360.4517866829947,465.15,361.70646621872027,466.2,361.70646621872027C467.25,361.70646621872027,468.3,361.6541879047317,469.35,361.5496312767546C470.40000000000003,361.4450746487775,471.45,361.0399177153661,472.5,361.0399177153661C473.55,361.0399177153661,474.59999999999997,361.2228918143261,475.65,361.3927963347889C476.7,361.56270085525176,477.75,361.98092736716023,478.8,362.0593448381431C479.85,362.13776230912595,480.9,362.1769710446174,481.95,362.1769710446174C483,362.1769710446174,484.05,362.1769710446174,485.1,362.1769710446174C486.15000000000003,362.1769710446174,487.2,362.72589334149734,488.25,362.72589334149734C489.3,362.72589334149734,490.35,361.7456749542117,491.40000000000003,361.7456749542117C492.45000000000005,361.7456749542117,493.5,362.6736150275088,494.55,362.8043108124802C495.6,362.9350065974516,496.65000000000003,363.0003544899373,497.70000000000005,363.0003544899373C498.75000000000006,363.0003544899373,499.8,362.9611457544459,500.85,362.9611457544459C501.90000000000003,362.9611457544459,502.95,363.03956322542876,504,363.03956322542876C505.05,363.03956322542876,506.1,363.03956322542876,507.15000000000003,363.03956322542876C508.20000000000005,363.03956322542876,509.25,363.70611172878296,510.3,363.70611172878296C511.34999999999997,363.70611172878296,512.4,363.35323310936013,513.4499999999999,363.35323310936013C514.5,363.35323310936013,515.55,363.7845291997658,516.6,363.7845291997658C517.65,363.7845291997658,518.7,363.6276942578001,519.75,363.6276942578001C520.8,363.6276942578001,521.85,363.82373793525727,522.9,363.82373793525727C523.9499999999999,363.82373793525727,525,363.82373793525727,526.05,363.82373793525727C527.0999999999999,363.82373793525727,528.15,363.7845291997658,529.1999999999999,363.7845291997658C530.25,363.7845291997658,531.3,363.83680751375437,532.35,363.86294667074867C533.4,363.889085827743,534.45,363.9413641417315,535.5,363.9413641417315C536.55,363.9413641417315,537.6,363.82373793525727,538.65,363.82373793525727C539.6999999999999,363.82373793525727,540.75,364.02631640196296,541.8,364.09819908369724C542.85,364.1700817654315,543.9,364.25503402566295,544.95,364.25503402566295C546,364.25503402566295,547.0500000000001,364.1766165546801,548.1,364.1766165546801C549.15,364.1766165546801,550.2,364.29424276115435,551.25,364.29424276115435C552.3,364.29424276115435,553.35,364.1766165546801,554.4,364.1766165546801C555.4499999999999,364.1766165546801,556.5,364.49028643861146,557.55,364.49028643861146C558.6,364.49028643861146,559.65,364.2158252901715,560.7,364.2158252901715C561.75,364.2158252901715,562.8000000000001,364.36612544288863,563.85,364.4118689676286C564.9,364.4576124923686,565.95,364.46414728161716,567,364.49028643861146C568.05,364.51642559560577,569.1,364.5687039095943,570.15,364.5687039095943C571.2,364.5687039095943,572.25,364.2158252901715,573.3000000000001,364.2158252901715C574.35,364.2158252901715,575.4000000000001,364.6471213805772,576.45,364.6471213805772C577.5,364.6471213805772,578.5500000000001,364.5556343310972,579.6,364.5294951741029C580.65,364.5033560171086,581.7,364.49028643861146,582.75,364.49028643861146C583.8,364.49028643861146,584.85,364.6079126450858,585.9,364.6079126450858C586.95,364.6079126450858,588,364.49028643861146,589.0500000000001,364.49028643861146C590.1,364.49028643861146,591.15,364.49028643861146,592.1999999999999,364.49028643861146C593.25,364.49028643861146,594.3,364.6471213805772,595.35,364.6471213805772C596.4,364.6471213805772,597.45,364.6471213805772,598.5,364.6471213805772C599.55,364.6471213805772,600.6,364.66672574832285,601.65,364.6863301160686C602.6999999999999,364.7059344838143,603.75,364.7386084300571,604.8,364.76474758705143C605.8499999999999,364.79088674404574,606.9,364.8431650580343,607.9499999999999,364.8431650580343C609,364.8431650580343,610.05,364.73207364080855,611.1,364.6863301160686C612.15,364.6405865913286,613.2,364.5687039095943,614.25,364.5687039095943C615.3,364.5687039095943,616.35,364.88237379352574,617.4,364.88237379352574C618.4499999999999,364.88237379352574,619.5,364.6079126450858,620.55,364.6079126450858C621.6,364.6079126450858,622.65,364.92158252901714,623.7,364.92158252901714C624.75,364.92158252901714,625.8000000000001,364.92158252901714,626.85,364.92158252901714C627.9,364.92158252901714,628.95,364.8300954795372,630,364.8039563225429C631.05,364.7778171655486,632.1,364.76474758705143,633.15,364.76474758705143C634.1999999999999,364.76474758705143,635.25,364.88237379352574,636.3,364.88237379352574C637.3499999999999,364.88237379352574,638.4,364.8039563225429,639.4499999999999,364.8039563225429C640.5,364.8039563225429,641.55,364.88237379352574,642.6,364.88237379352574C643.65,364.88237379352574,644.7,364.72553885156003,645.75,364.72553885156003C646.8,364.72553885156003,647.85,364.88237379352574,648.9,364.88237379352574C649.9499999999999,364.88237379352574,651,364.8431650580343,652.05,364.8431650580343C653.1,364.8431650580343,654.15,364.92158252901714,655.2,364.92158252901714C656.25,364.92158252901714,657.3,364.88237379352574,658.3499999999999,364.88237379352574C659.4,364.88237379352574,660.4499999999999,364.92158252901714,661.5,364.92158252901714C662.55,364.92158252901714,663.6,364.88237379352574,664.65,364.88237379352574C665.7,364.88237379352574,666.75,364.92158252901714,667.8000000000001,364.92158252901714C668.85,364.92158252901714,669.9,364.8954433720229,670.9499999999999,364.88237379352574C672,364.8693042150286,673.05,364.8431650580343,674.1,364.8431650580343C675.15,364.8431650580343,676.2,364.9607912645086,677.25,364.9607912645086C678.3000000000001,364.9607912645086,679.35,364.92158252901714,680.4000000000001,364.92158252901714C681.45,364.92158252901714,682.5,365,683.55,365C684.6,365,685.65,364.98693042150285,686.7,364.9607912645086C687.75,364.93465210751435,688.8000000000001,364.8431650580343,689.85,364.8431650580343C690.9,364.8431650580343,691.95,364.88237379352574,693,364.88237379352574C694.05,364.88237379352574,695.1,364.8039563225429,696.15,364.8039563225429C697.2,364.8039563225429,698.25,364.85623463653144,699.3000000000001,364.88237379352574C700.35,364.90851295052005,701.4000000000001,364.9607912645086,702.45,364.9607912645086C703.5,364.9607912645086,704.5500000000001,364.88237379352574,705.6,364.88237379352574C706.65,364.88237379352574,707.7,364.9607912645086,708.75,364.9607912645086C709.8,364.9607912645086,710.85,364.9607912645086,711.9,364.9607912645086C712.9499999999999,364.9607912645086,714,364.92158252901714,715.05,364.92158252901714C716.0999999999999,364.92158252901714,717.15,365,718.1999999999999,365C719.25,365,720.3,364.92158252901714,721.35,364.92158252901714C722.4,364.92158252901714,723.45,364.94772168601145,724.5,364.9607912645086C725.55,364.97386084300575,726.6,365,727.65,365C728.6999999999999,365,729.75,365,730.8,365C731.85,365,732.9,364.92158252901714,733.95,364.92158252901714C735,364.92158252901714,736.05,365,737.0999999999999,365C738.15,365,739.1999999999999,364.9607912645086,740.25,364.9607912645086C741.3,364.9607912645086,742.35,364.9607912645086,743.4,364.9607912645086C744.45,364.9607912645086,745.5,364.88237379352574,746.5500000000001,364.88237379352574C747.6,364.88237379352574,748.65,364.9607912645086,749.6999999999999,364.9607912645086C750.75,364.9607912645086,751.8,364.9607912645086,752.85,364.9607912645086C753.9,364.9607912645086,754.95,364.9607912645086,756,364.9607912645086C757.0500000000001,364.9607912645086,758.1,365,759.1500000000001,365C760.2,365,761.25,365,762.3,365C763.35,365,764.4,365,765.45,365C766.5,365,767.5500000000001,365,768.6,365C769.65,365,770.7,365,771.75,365C772.8,365,773.85,365,774.9,365C775.95,365,777,365,778.0500000000001,365C779.1,365,780.1500000000001,365,781.2,365C782.25,365,783.3000000000001,365,784.35,365C785.4,365,786.45,365,787.5,365C788.55,365,789.6,365,790.65,365C791.6999999999999,365,792.75,365,793.8,365C794.8499999999999,365,795.9,364.9607912645086,796.9499999999999,364.9607912645086C798,364.9607912645086,799.05,365,800.1,365C801.15,365,802.2,365,803.25,365C804.3,365,805.35,365,806.4,365C807.4499999999999,365,808.5,365,809.55,365C810.6,365,811.65,365,812.7,365C813.75,365,814.8,365,815.8499999999999,365C816.9,365,817.9499999999999,365,819,365C820.05,365,821.1,365,822.15,365C823.2,365,824.25,365,825.3000000000001,365C826.35,365,827.4,365,828.4499999999999,365C829.5,365,830.55,365,831.6,365C832.65,365,833.7,365,834.75,365C835.8000000000001,365,836.85,365,837.9000000000001,365C838.95,365,840,365,841.05,365C842.1,365,843.15,365,844.2,365C845.25,365,846.3000000000001,364.9607912645086,847.35,364.9607912645086C848.4,364.9607912645086,849.45,365,850.5,365C851.55,365,852.6,365,853.65,365C854.7,365,855.75,365,856.8000000000001,365C857.85,365,858.9000000000001,365,859.95,365C861,365,862.0500000000001,365,863.1,365C864.15,365,865.2,365,866.25,365C867.3,365,868.35,365,869.4,365C870.4499999999999,365,871.5,365,872.55,365C873.5999999999999,365,874.65,365,875.6999999999999,365C876.75,365,877.8,365,878.85,365C879.9,365,880.95,364.9803956322543,882,364.9607912645086"></path><circle cx="500" cy="10" r="6" style="fill: rgb(158, 158, 158);"></circle><text x="515" y="10" alignment-baseline="middle">All</text><path fill="none" stroke="#006B71" stroke-width="1.5" d="M0,365C1.05,365,2.0999999999999996,365,3.15,365C4.2,365,5.25,365,6.3,365C7.35,365,8.399999999999999,365,9.45,365C10.5,365,11.549999999999999,365,12.6,365C13.65,365,14.7,365,15.75,365C16.8,365,17.849999999999998,364.6797297445516,18.9,364.51959461682736C19.95,364.35945948910313,21,364.0391892336547,22.05,364.0391892336547C23.1,364.0391892336547,24.15,364.51959461682736,25.2,364.51959461682736C26.25,364.51959461682736,27.299999999999997,364.35945948910313,28.349999999999998,364.0391892336547C29.4,363.7189189782063,30.45,363.2385135950336,31.5,362.59797308413675C32.55,361.9574325732399,33.6,360.9966218068946,34.65,360.1959461682735C35.699999999999996,359.3952705296524,36.75,358.99493271034186,37.8,357.79391925241026C38.85,356.5929057944786,39.9,352.98986542068377,40.95,352.98986542068377C42,352.98986542068377,43.050000000000004,354.9114869533744,44.1,354.9114869533744C45.15,354.9114869533744,46.2,350.988176324131,47.25,349.6270277384752C48.3,348.26587915281937,49.35,348.6662169721299,50.4,346.7445954394393C51.45,344.8229739067487,52.5,339.7787173834359,53.550000000000004,337.61689315915896C54.6,335.45506893488204,55.65,336.3358121373652,56.699999999999996,333.77365009377775C57.75,331.21148805019027,58.8,316.959461682735,59.85,316.959461682735C60.9,316.959461682735,61.95,322.24392089763415,63,322.24392089763415C64.05,322.24392089763415,65.1,317.43986706590766,66.14999999999999,317.43986706590766C67.19999999999999,317.43986706590766,68.25,318.88108321542563,69.3,318.88108321542563C70.35,318.88108321542563,71.4,309.1929079881105,72.45,303.98851633707346C73.5,298.7841246860364,74.55,290.53716560823926,75.6,287.6547333092034C76.64999999999999,284.7723010101675,77.7,286.2135171596854,78.75,283.3310848606495C79.8,280.44865256161364,80.85000000000001,275.6445987298871,81.9,270.36013951498796C82.95,265.07568030008883,84.00000000000001,256.4283834029812,85.05000000000001,251.62432957125466C86.10000000000001,246.8202757395282,87.15,246.41993792021762,88.2,241.535816524629C89.25,236.6516951290404,90.3,222.31960119772302,91.35,222.31960119772302C92.39999999999999,222.31960119772302,93.45,222.80000658089565,94.5,222.80000658089565C95.55,222.80000658089565,96.60000000000001,205.50541278668027,97.65,204.54460202033496C98.7,203.58379125398966,99.75,204.06419663716233,100.8,203.10338587081702C101.85,202.14257510447172,102.9,195.41689974005465,103.95,189.65203514198285C105,183.88717054391105,106.05000000000001,176.28075197701077,107.10000000000001,168.51419828238625C108.15,160.74764458776176,109.2,150.25879372182555,110.25,143.05271297423582C111.3,135.84663222664608,112.35,125.27771379684779,113.39999999999999,125.27771379684779C114.44999999999999,125.27771379684779,115.5,132.00338916126486,116.55,132.00338916126486C117.6,132.00338916126486,118.65,103.65947155407854,119.7,102.69866078773322C120.75,101.7378500213879,121.80000000000001,102.21825540456057,122.85000000000001,101.25744463821525C123.9,100.29663387186994,124.95,90.76859377227909,126,85.8844723766905C127.05,81.00035098110189,128.1,71.95271626468366,129.15,71.95271626468366C130.2,71.95271626468366,131.25,83.48244546082725,132.29999999999998,83.48244546082725C133.35,83.48244546082725,134.39999999999998,46.49123095653323,135.45,46.49123095653323C136.5,46.49123095653323,137.54999999999998,47.452041722878526,138.6,49.37366325556911C139.65,51.2952847882597,140.7,63.30541936757595,141.75,63.30541936757595C142.8,63.30541936757595,143.85,58.26116284426314,144.9,56.09933861998621C145.95,53.93751439570931,147,50.334474021914446,148.04999999999998,50.334474021914446C149.1,50.334474021914446,150.14999999999998,52.256095554605,151.2,52.256095554605C152.25,52.256095554605,153.29999999999998,45.770622881774294,154.35,43.12839327432471C155.4,40.48616366687512,156.45,36.402717909907494,157.5,36.402717909907494C158.55,36.402717909907494,159.6,42.647987891152006,160.65,45.05001480701526C161.70000000000002,47.45204172287851,162.75,50.81487940508703,163.8,50.81487940508703C164.85000000000002,50.81487940508703,165.9,39.76555559211613,166.95000000000002,39.76555559211613C168.00000000000003,39.76555559211613,169.05,76.27636471323751,170.10000000000002,76.27636471323751C171.15,76.27636471323751,172.20000000000002,76.11622958551328,173.25,75.79595933006482C174.3,75.47568907461635,175.35,74.27467561668476,176.4,73.39393241420157C177.45,72.51318921171838,178.5,70.51150011516569,179.54999999999998,70.51150011516569C180.6,70.51150011516569,181.64999999999998,103.17906617090586,182.7,103.17906617090586C183.75,103.17906617090586,184.79999999999998,96.9337961896614,185.85,96.9337961896614C186.9,96.9337961896614,187.95,117.59122766608536,189,117.59122766608536C190.05,117.59122766608536,191.1,110.38514691849562,192.15,110.38514691849562C193.20000000000002,110.38514691849562,194.25,115.50947100567053,195.3,117.59122766608536C196.35,119.67298432650016,197.4,119.35271407105175,198.45,122.87568688098452C199.5,126.39865969091733,200.54999999999998,148.33717218913498,201.6,149.29798295548028C202.65,150.25879372182558,203.7,150.73919910499822,204.75,150.73919910499822C205.8,150.73919910499822,206.85,150.73919910499822,207.9,150.73919910499822C208.95000000000002,150.73919910499822,210,157.22467177782897,211.05,163.2297390674871C212.10000000000002,169.2348063571452,213.15,186.7696028429469,214.20000000000002,186.7696028429469C215.25,186.7696028429469,216.3,170.43581981507685,217.35,170.43581981507685C218.4,170.43581981507685,219.45,190.61284590832813,220.5,190.61284590832813C221.54999999999998,190.61284590832813,222.6,185.80879207660163,223.64999999999998,185.80879207660163C224.7,185.80879207660163,225.74999999999997,186.28919745977427,226.79999999999998,187.25000822611958C227.85,188.21081899246488,228.89999999999998,199.18007524157372,229.95,205.02500740350763C231,210.86993956544154,232.04999999999998,222.31960119772302,233.1,222.31960119772302C234.15,222.31960119772302,235.2,206.46622355302557,236.25,206.46622355302557C237.3,206.46622355302557,238.35,228.32466848738116,239.4,235.29054654338458C240.45000000000002,242.256424599388,241.5,248.2614918890461,242.55,248.2614918890461C243.60000000000002,248.2614918890461,244.65,240.5750057582837,245.70000000000002,240.5750057582837C246.75000000000003,240.5750057582837,247.8,254.9871672534632,248.85000000000002,254.9871672534632C249.9,254.9871672534632,250.95000000000002,246.3398703563555,252,246.3398703563555C253.05,246.3398703563555,254.1,255.06723481732533,255.15,259.7912210851897C256.2,264.5152073530541,257.25,274.6837879635418,258.3,274.6837879635418C259.35,274.6837879635418,260.4,254.50676187029055,261.45,254.50676187029055C262.5,254.50676187029055,263.54999999999995,265.155747863951,264.59999999999997,269.8797341318153C265.65,274.6037203996798,266.7,279.7280444868547,267.75,282.8506794774769C268.8,285.97331446809903,269.84999999999997,286.37365228740964,270.9,288.61554407554866C271.95,290.8574358636877,273,295.9817599508627,274.05,296.3020302063111C275.1,296.6223004617595,276.15,296.4621653340353,277.2,296.7824355894837C278.25,297.10270584493213,279.3,304.46892172024616,280.35,304.46892172024616C281.40000000000003,304.46892172024616,282.45,303.9084487732114,283.5,303.0277055707282C284.55,302.146962368245,285.6,299.18446250534697,286.65000000000003,299.18446250534697C287.70000000000005,299.18446250534697,288.75,299.82500301624384,289.8,301.1060840380376C290.85,302.3871650598313,291.9,323.2047316639795,292.95,323.2047316639795C294,323.2047316639795,295.04999999999995,315.0378401500444,296.09999999999997,315.0378401500444C297.15,315.0378401500444,298.2,324.6459478134974,299.25,324.6459478134974C300.3,324.6459478134974,301.34999999999997,322.4841235892205,302.4,321.2831101312889C303.45,320.0820966733572,304.5,317.43986706590766,305.55,317.43986706590766C306.6,317.43986706590766,307.65,323.3648667917037,308.7,326.08716396301537C309.75,328.8094611343271,310.8,333.77365009377775,311.85,333.77365009377775C312.90000000000003,333.77365009377775,313.95,333.6135149660535,315,333.2932447106051C316.05,332.9729744551567,317.09999999999997,330.89121779474186,318.15,330.89121779474186C319.2,330.89121779474186,320.25,335.05473111557154,321.3,336.6560823928137C322.35,338.25743367005583,323.4,339.858784947298,324.45,340.49932545819485C325.5,341.1398659690917,326.55,341.4601362245402,327.6,341.4601362245402C328.65000000000003,341.4601362245402,329.7,341.4601362245402,330.75,341.4601362245402C331.8,341.4601362245402,332.85,343.22162262950656,333.90000000000003,343.8621631404034C334.95000000000005,344.5027036513003,336,344.5027036513003,337.05,345.30337928992134C338.1,346.10405492854244,339.15000000000003,348.3459467166815,340.20000000000005,348.6662169721299C341.25000000000006,348.9864872275783,342.3,349.14662235530255,343.35,349.14662235530255C344.40000000000003,349.14662235530255,345.45,347.22500082261195,346.5,347.22500082261195C347.55,347.22500082261195,348.6,352.98986542068377,349.65000000000003,352.98986542068377C350.70000000000005,352.98986542068377,351.75,351.86891952661426,352.8,351.06824388799316C353.85,350.26756824937206,354.9,348.1858115889573,355.95,348.1858115889573C357,348.1858115889573,358.04999999999995,351.1483114518553,359.09999999999997,352.98986542068377C360.15,354.8314193895123,361.2,359.2351354019282,362.25,359.2351354019282C363.3,359.2351354019282,364.34999999999997,353.95067618702905,365.4,353.95067618702905C366.45,353.95067618702905,367.49999999999994,354.43108157020174,368.54999999999995,354.9114869533744C369.59999999999997,355.391892336547,370.65,356.03243284744383,371.7,356.83310848606493C372.75,357.63378412468603,373.79999999999995,359.71554078510087,374.84999999999997,359.71554078510087C375.9,359.71554078510087,376.95,358.2743246355829,378,358.2743246355829C379.05,358.2743246355829,380.09999999999997,359.71554078510087,381.15,359.71554078510087C382.2,359.71554078510087,383.25,358.75473001875554,384.3,358.75473001875554C385.35,358.75473001875554,386.4,358.91486514647977,387.45,359.2351354019282C388.5,359.5554056573766,389.55,360.11587860441136,390.6,360.67635155144615C391.65000000000003,361.2368244984809,392.7,362.59797308413675,393.75,362.59797308413675C394.8,362.59797308413675,395.84999999999997,362.03750013710203,396.9,361.6371623177915C397.95,361.2368244984809,399,360.5162164237219,400.05,360.1959461682735C401.1,359.8756759128251,402.15,359.71554078510087,403.2,359.71554078510087C404.25,359.71554078510087,405.3,361.3168920623431,406.35,361.6371623177915C407.40000000000003,361.9574325732399,408.45,362.1175677009641,409.5,362.1175677009641C410.55,362.1175677009641,411.6,359.71554078510087,412.65000000000003,359.71554078510087C413.70000000000005,359.71554078510087,414.75,362.1175677009641,415.8,362.1175677009641C416.85,362.1175677009641,417.90000000000003,362.1175677009641,418.95000000000005,362.1175677009641C420.00000000000006,362.1175677009641,421.05,361.1567569346188,422.1,361.1567569346188C423.15000000000003,361.1567569346188,424.2,362.1976352648262,425.25,362.59797308413675C426.3,362.9983109034473,427.35,363.55878385048203,428.40000000000003,363.55878385048203C429.45000000000005,363.55878385048203,430.5,361.1567569346188,431.55,361.1567569346188C432.6,361.1567569346188,433.65,361.39695962620516,434.7,361.6371623177915C435.75,361.8773650093778,436.79999999999995,362.1976352648262,437.84999999999997,362.59797308413675C438.9,362.9983109034473,439.95,363.7189189782063,441,364.0391892336547C442.05,364.35945948910313,443.09999999999997,364.51959461682736,444.15,364.51959461682736C445.2,364.51959461682736,446.24999999999994,362.59797308413675,447.29999999999995,362.59797308413675C448.34999999999997,362.59797308413675,449.4,363.3185811588957,450.45,363.55878385048203C451.5,363.79898654206835,452.54999999999995,364.0391892336547,453.59999999999997,364.0391892336547C454.65,364.0391892336547,455.7,363.55878385048203,456.75,363.55878385048203C457.8,363.55878385048203,458.84999999999997,363.55878385048203,459.9,363.55878385048203C460.95,363.55878385048203,462,362.1175677009641,463.05,362.1175677009641C464.1,362.1175677009641,465.15,363.7189189782063,466.2,364.0391892336547C467.25,364.35945948910313,468.3,364.35945948910313,469.35,364.51959461682736C470.40000000000003,364.6797297445516,471.45,365,472.5,365C473.55,365,474.59999999999997,363.0783784673094,475.65,363.0783784673094C476.7,363.0783784673094,477.75,363.7989865420684,478.8,364.0391892336547C479.85,364.27939192524104,480.9,364.51959461682736,481.95,364.51959461682736C483,364.51959461682736,484.05,364.51959461682736,485.1,364.51959461682736C486.15000000000003,364.51959461682736,487.2,365,488.25,365C489.3,365,490.35,365,491.40000000000003,365C492.45000000000005,365,493.5,364.51959461682736,494.55,364.51959461682736C495.6,364.51959461682736,496.65000000000003,365,497.70000000000005,365C498.75000000000006,365,499.8,365,500.85,365C501.90000000000003,365,502.95,365,504,365C505.05,365,506.1,364.51959461682736,507.15000000000003,364.51959461682736C508.20000000000005,364.51959461682736,509.25,365,510.3,365C511.34999999999997,365,512.4,363.0783784673094,513.4499999999999,363.0783784673094C514.5,363.0783784673094,515.55,364.1993243613789,516.6,364.51959461682736C517.65,364.83986487227577,518.7,365,519.75,365C520.8,365,521.85,365,522.9,365C523.9499999999999,365,525,365,526.05,365C527.0999999999999,365,528.15,364.51959461682736,529.1999999999999,364.51959461682736C530.25,364.51959461682736,531.3,365,532.35,365C533.4,365,534.45,365,535.5,365C536.55,365,537.6,365,538.65,365C539.6999999999999,365,540.75,365,541.8,365C542.85,365,543.9,364.51959461682736,544.95,364.51959461682736C546,364.51959461682736,547.0500000000001,364.51959461682736,548.1,364.51959461682736C549.15,364.51959461682736,550.2,365,551.25,365C552.3,365,553.35,365,554.4,365C555.4499999999999,365,556.5,365,557.55,365C558.6,365,559.65,364.51959461682736,560.7,364.51959461682736C561.75,364.51959461682736,562.8000000000001,364.51959461682736,563.85,364.51959461682736C564.9,364.51959461682736,565.95,365,567,365C568.05,365,569.1,365,570.15,365C571.2,365,572.25,364.51959461682736,573.3000000000001,364.51959461682736C574.35,364.51959461682736,575.4000000000001,365,576.45,365C577.5,365,578.5500000000001,365,579.6,365C580.65,365,581.7,365,582.75,365C583.8,365,584.85,365,585.9,365C586.95,365,588,365,589.0500000000001,365C590.1,365,591.15,364.51959461682736,592.1999999999999,364.51959461682736C593.25,364.51959461682736,594.3,365,595.35,365C596.4,365,597.45,364.51959461682736,598.5,364.51959461682736C599.55,364.51959461682736,600.6,364.51959461682736,601.65,364.51959461682736C602.6999999999999,364.51959461682736,603.75,364.51959461682736,604.8,364.51959461682736C605.8499999999999,364.51959461682736,606.9,365,607.9499999999999,365C609,365,610.05,365,611.1,365C612.15,365,613.2,364.51959461682736,614.25,364.51959461682736C615.3,364.51959461682736,616.35,365,617.4,365C618.4499999999999,365,619.5,365,620.55,365C621.6,365,622.65,365,623.7,365C624.75,365,625.8000000000001,365,626.85,365C627.9,365,628.95,365,630,365C631.05,365,632.1,365,633.15,365C634.1999999999999,365,635.25,365,636.3,365C637.3499999999999,365,638.4,365,639.4499999999999,365C640.5,365,641.55,365,642.6,365C643.65,365,644.7,365,645.75,365C646.8,365,647.85,365,648.9,365C649.9499999999999,365,651,364.51959461682736,652.05,364.51959461682736C653.1,364.51959461682736,654.15,365,655.2,365C656.25,365,657.3,365,658.3499999999999,365C659.4,365,660.4499999999999,365,661.5,365C662.55,365,663.6,365,664.65,365C665.7,365,666.75,365,667.8000000000001,365C668.85,365,669.9,365,670.9499999999999,365C672,365,673.05,364.51959461682736,674.1,364.51959461682736C675.15,364.51959461682736,676.2,365,677.25,365C678.3000000000001,365,679.35,365,680.4000000000001,365C681.45,365,682.5,365,683.55,365C684.6,365,685.65,365,686.7,365C687.75,365,688.8000000000001,365,689.85,365C690.9,365,691.95,365,693,365C694.05,365,695.1,365,696.15,365C697.2,365,698.25,365,699.3000000000001,365C700.35,365,701.4000000000001,365,702.45,365C703.5,365,704.5500000000001,364.51959461682736,705.6,364.51959461682736C706.65,364.51959461682736,707.7,365,708.75,365C709.8,365,710.85,365,711.9,365C712.9499999999999,365,714,365,715.05,365C716.0999999999999,365,717.15,365,718.1999999999999,365C719.25,365,720.3,364.51959461682736,721.35,364.51959461682736C722.4,364.51959461682736,723.45,365,724.5,365C725.55,365,726.6,365,727.65,365C728.6999999999999,365,729.75,365,730.8,365C731.85,365,732.9,365,733.95,365C735,365,736.05,365,737.0999999999999,365C738.15,365,739.1999999999999,365,740.25,365C741.3,365,742.35,365,743.4,365C744.45,365,745.5,365,746.5500000000001,365C747.6,365,748.65,365,749.6999999999999,365C750.75,365,751.8,365,752.85,365C753.9,365,754.95,365,756,365C757.0500000000001,365,758.1,365,759.1500000000001,365C760.2,365,761.25,365,762.3,365C763.35,365,764.4,365,765.45,365C766.5,365,767.5500000000001,365,768.6,365C769.65,365,770.7,365,771.75,365C772.8,365,773.85,365,774.9,365C775.95,365,777,365,778.0500000000001,365C779.1,365,780.1500000000001,365,781.2,365C782.25,365,783.3000000000001,365,784.35,365C785.4,365,786.45,365,787.5,365C788.55,365,789.6,365,790.65,365C791.6999999999999,365,792.75,365,793.8,365C794.8499999999999,365,795.9,365,796.9499999999999,365C798,365,799.05,365,800.1,365C801.15,365,802.2,365,803.25,365C804.3,365,805.35,365,806.4,365C807.4499999999999,365,808.5,365,809.55,365C810.6,365,811.65,365,812.7,365C813.75,365,814.8,365,815.8499999999999,365C816.9,365,817.9499999999999,365,819,365C820.05,365,821.1,365,822.15,365C823.2,365,824.25,365,825.3000000000001,365C826.35,365,827.4,365,828.4499999999999,365C829.5,365,830.55,365,831.6,365C832.65,365,833.7,365,834.75,365C835.8000000000001,365,836.85,365,837.9000000000001,365C838.95,365,840,365,841.05,365C842.1,365,843.15,365,844.2,365C845.25,365,846.3000000000001,365,847.35,365C848.4,365,849.45,365,850.5,365C851.55,365,852.6,365,853.65,365C854.7,365,855.75,365,856.8000000000001,365C857.85,365,858.9000000000001,365,859.95,365C861,365,862.0500000000001,365,863.1,365C864.15,365,865.2,365,866.25,365C867.3,365,868.35,365,869.4,365C870.4499999999999,365,871.5,365,872.55,365C873.5999999999999,365,874.65,365,875.6999999999999,365C876.75,365,877.8,365,878.85,365C879.9,365,880.95,365,882,365"></path><circle cx="500" cy="30" r="6" style="fill: rgb(0, 107, 113);"></circle><text x="515" y="30" alignment-baseline="middle">Combinatorics</text><path fill="none" stroke="#E9B62B" stroke-width="1.5" d="M0,365C1.05,364.939775933473,2.0999999999999996,364.8795518669461,3.15,364.8795518669461C4.2,364.8795518669461,5.25,365,6.3,365C7.35,365,8.399999999999999,365,9.45,365C10.5,365,11.549999999999999,364.6386556008382,12.6,364.6386556008382C13.65,364.6386556008382,14.7,364.6386556008382,15.75,364.6386556008382C16.8,364.6386556008382,17.849999999999998,364.51820746778424,18.9,364.51820746778424C19.95,364.51820746778424,21,364.6386556008382,22.05,364.6386556008382C23.1,364.6386556008382,24.15,364.0765643132532,25.2,363.79551866946065C26.25,363.5144730256681,27.299999999999997,363.2936514484025,28.349999999999998,362.95238173808303C29.4,362.6111120277635,30.45,362.04902074017855,31.5,361.7479004075437C32.55,361.4467800749089,33.6,361.2259584976433,34.65,361.145659742274C35.699999999999996,361.0653609869047,36.75,361.10551036458935,37.8,361.02521160922004C38.85,360.9449128538507,39.9,360.1218506113155,40.95,359.09804148035704C42,358.0742323493986,43.050000000000004,357.2712447957057,44.1,354.88235682346925C45.15,352.4934688512328,46.2,344.7647136469385,47.25,344.7647136469385C48.3,344.7647136469385,49.35,349.58263896909597,50.4,349.58263896909597C51.45,349.58263896909597,52.5,345.4874024452621,53.550000000000004,343.9215767155609C54.6,342.3557509858597,55.65,341.67321156522075,56.699999999999996,340.18768459088886C57.75,338.702157616557,58.8,336.49394184390144,59.85,335.00841486956955C60.9,333.52288789523766,61.95,332.9607966076526,63,331.27452274489747C64.05,329.58824888214235,65.1,326.4766721115823,66.14999999999999,324.89077169303874C67.19999999999999,323.3048712744952,68.25,322.9234521864911,69.3,321.7591202336364C70.35,320.5947882807817,71.4,319.9122488601427,72.45,317.9047799759104C73.5,315.8973110916781,74.55,313.4883484305993,75.6,309.7143069282426C76.64999999999999,305.94026542588585,77.7,299.4360662409733,78.75,295.2605309617701C79.8,291.0849956825669,80.85000000000001,287.2908794913679,81.9,284.6610952530236C82.95,282.03131101467926,84.00000000000001,282.35250603615646,85.05000000000001,279.48182553170426C86.10000000000001,276.61114502725206,87.15,270.95008277371704,88.2,267.4370122263105C89.25,263.923941678904,90.3,260.8926636637132,91.35,258.40340224726515C92.39999999999999,255.9141408308171,93.45,255.31190016554743,94.5,252.50144372762222C95.55,249.690987289697,96.60000000000001,244.75261383448554,97.65,241.54066361971388C98.7,238.32871340494222,99.75,238.04766776114968,100.8,233.2297424389922C101.85,228.4118171168347,102.9,213.83759301730825,103.95,212.63311168676887C105,211.4286303562295,106.05000000000001,212.03087102149917,107.10000000000001,210.8263896909598C108.15,209.6219083604204,109.2,194.5458170398359,110.25,188.66393320903526C111.3,182.78204937823463,112.35,180.5136095390521,113.39999999999999,175.53508670615605C114.44999999999999,170.55656387325996,115.5,161.68355140495325,116.55,158.79279621165875C117.6,155.90204101836426,118.65,157.3474186150115,119.7,154.456663421717C120.75,151.5659082284225,121.80000000000001,135.94780030909524,122.85000000000001,129.5238998795519C123.9,123.09999945000857,124.95,116.71624839814984,126,115.91326084445691C127.05,115.11027329076397,128.1,115.51176706761045,129.15,114.7087795139175C130.2,113.90579196022458,131.25,106.83950148772689,132.29999999999998,103.1457587407395C133.35,99.45201599375207,134.39999999999998,95.6578998025531,135.45,92.54632303199304C136.5,89.43474626143298,137.54999999999998,85.84137695865708,138.6,84.47629811737914C139.65,83.11121927610121,140.7,83.2918914756821,141.75,82.42867985546224C142.8,81.56546823524236,143.85,79.29702839605989,144.9,79.29702839605989C145.95,79.29702839605989,147,79.33717777374453,148.04999999999998,79.4174765291138C149.1,79.49777528448307,150.14999999999998,88.8124309073209,151.2,88.8124309073209C152.25,88.8124309073209,153.29999999999998,76.08507818128832,154.35,72.55193294503943C155.4,69.01878770879053,156.45,67.25221509066608,157.5,67.25221509066608C158.55,67.25221509066608,159.6,77.16911137877361,160.65,77.24941013414292C161.70000000000002,77.32970888951223,162.75,77.36985826719689,163.8,77.36985826719689C164.85000000000002,77.36985826719689,165.9,76.42634789160775,166.95000000000002,75.56313627138786C168.00000000000003,74.69992465116798,169.05,72.19058854587757,170.10000000000002,72.19058854587757C171.15,72.19058854587757,172.20000000000002,80.4412856600723,173.25,84.23540185127132C174.3,88.02951804247037,175.35,94.9552856930718,176.4,94.9552856930718C177.45,94.9552856930718,178.5,92.54632303199304,179.54999999999998,92.54632303199304C180.6,92.54632303199304,181.64999999999998,93.71065498484775,182.7,94.83483756001783C183.75,95.95902013518791,184.79999999999998,97.00290395498875,185.85,99.29141848301356C186.9,101.57993301103836,187.95,108.56592472816669,189,108.56592472816669C190.05,108.56592472816669,191.1,101.82082927714617,192.15,101.82082927714617C193.20000000000002,101.82082927714617,194.25,109.52950979259812,195.3,111.45667992146119C196.35,113.38385005032424,197.4,112.94220689579316,198.45,114.34743511475577C199.5,115.75266333371839,200.54999999999998,116.19430648824947,201.6,119.88804923523688C202.65,123.58179198222429,203.7,136.6303397297342,204.75,136.87123599584208C205.8,137.11213226194997,206.85,136.99168412889603,207.9,137.2325803950039C208.95000000000002,137.4734766611118,210,143.01409078159293,211.05,143.01409078159293C212.10000000000002,143.01409078159293,213.15,142.65274638243108,214.20000000000002,142.65274638243108C215.25,142.65274638243108,216.3,142.65274638243108,217.35,142.65274638243108C218.4,142.65274638243108,219.45,153.8544227564473,220.5,157.1065223489036C221.54999999999998,160.3586219413599,222.6,158.85302027818574,223.64999999999998,162.16534393716898C224.7,165.47766759615226,225.74999999999997,174.2503066202474,226.79999999999998,176.9804643028033C227.85,179.71062198535924,228.89999999999998,179.67047260767458,229.95,181.0757008266372C231,182.4809290455998,232.04999999999998,182.84227344476162,233.1,185.41183361657895C234.15,187.98139378839628,235.2,194.00380044109318,236.25,196.49306185754122C237.3,198.98232327398927,238.35,198.62097887482744,239.4,200.34740211526722C240.45000000000002,202.073825355707,241.5,204.66346021636664,242.55,206.85160130017985C243.60000000000002,209.03974238399306,244.65,211.36840628970253,245.70000000000002,213.47624861814643C246.75000000000003,215.58409094659032,247.8,216.76849758828737,248.85000000000002,219.4986552708433C249.9,222.22881295339923,250.95000000000002,229.85719471348196,252,229.85719471348196C253.05,229.85719471348196,254.1,228.17092085072682,255.15,228.17092085072682C256.2,228.17092085072682,257.25,239.4528959801123,258.3,241.78155988582176C259.35,244.11022379153124,260.4,243.10648934941509,261.45,245.27455574438596C262.5,247.44262213935684,263.54999999999995,253.98697070195414,264.59999999999997,254.78995825564704C265.65,255.59294580933997,266.7,255.99443958618642,267.75,255.99443958618642C268.8,255.99443958618642,269.84999999999997,253.94682132426948,270.9,253.94682132426948C271.95,253.94682132426948,273,261.03318648560946,274.05,264.3053607669081C275.1,267.5775350482067,276.15,270.88985870719006,277.2,273.5798670120613C278.25,276.2698753169326,279.3,278.6788379780113,280.35,280.44541059613573C281.40000000000003,282.2119832142601,282.45,282.1316844588909,283.5,284.1793027208078C284.55,286.2269209827248,285.6,290.8842487941437,286.65000000000003,292.7311201676374C287.70000000000005,294.5779915411311,288.75,294.07612432007306,289.8,295.50142722787797C290.85,296.9267301356829,291.9,299.9379334620313,292.95,301.28293761446696C294,302.6279417669026,295.04999999999995,302.62794176690267,296.09999999999997,303.5714521424918C297.15,304.514962518081,298.2,305.39824882714316,299.25,306.94399986800204C300.3,308.4897509088609,301.34999999999997,312.845958387645,302.4,312.845958387645C303.45,312.845958387645,304.5,310.19609946045836,305.55,310.19609946045836C306.6,310.19609946045836,307.65,313.06677996491055,308.7,314.5322322504001C309.75,315.9976845358897,310.8,318.02522810896426,311.85,318.9888131733958C312.90000000000003,319.9523982378273,313.95,319.73157666056176,315,320.4341907700431C316.05,321.1368048795244,317.09999999999997,322.0000164997443,318.15,323.20449783028363C319.2,324.408979160823,320.25,326.63726962232084,321.3,327.6610787532793C322.35,328.68488788423775,323.4,329.02615759455733,324.45,329.34735261603447C325.5,329.6685476375116,326.55,329.50795012677304,327.6,329.8291451482502C328.65000000000003,330.1503401697273,329.7,332.7199003415447,330.75,333.6834854059762C331.8,334.64707047040775,332.85,334.9883401807272,333.90000000000003,335.6106555348392C334.95000000000005,336.23297088895123,336,336.9556596872748,337.05,337.41737753064825C338.1,337.8790953740217,339.15000000000003,337.73857255212545,340.20000000000005,338.3809625950798C341.25000000000006,339.0233526380341,342.3,340.99067214458177,343.35,342.11485471975186C344.40000000000003,343.23903729492196,345.45,345.1260580461003,346.5,345.1260580461003C347.55,345.1260580461003,348.6,342.47619911891366,349.65000000000003,342.47619911891366C350.70000000000005,342.47619911891366,351.75,346.65173439811684,352.8,346.8123319088554C353.85,346.972929419594,354.9,346.9327800419094,355.95,347.0532281749633C357,347.1736763080172,358.04999999999995,347.2138256857019,359.09999999999997,347.53502070717906C360.15,347.85621572865625,361.2,348.07703730592175,362.25,348.9803983038263C363.3,349.88375930173083,364.34999999999997,352.95518669460625,365.4,352.95518669460625C366.45,352.95518669460625,367.49999999999994,351.50980909795896,368.54999999999995,350.9075684326893C369.59999999999997,350.3053277674196,370.65,349.3417427029881,371.7,349.3417427029881C372.75,349.3417427029881,373.79999999999995,351.83100411943616,374.84999999999997,352.7142904284984C375.9,353.5975767375606,376.95,354.17974271398793,378,354.64146055736137C379.05,355.1031784007348,380.09999999999997,355.4845974887389,381.15,355.4845974887389C382.2,355.4845974887389,383.25,354.7619086904153,384.3,354.7619086904153C385.35,354.7619086904153,386.4,356.80952695233225,387.45,356.80952695233225C388.5,356.80952695233225,389.55,355.36414935568496,390.6,355.36414935568496C391.65000000000003,355.36414935568496,392.7,356.6890788192783,393.75,356.6890788192783C394.8,356.6890788192783,395.84999999999997,356.56863068622437,396.9,356.56863068622437C397.95,356.56863068622437,399,358.9775933473031,400.05,358.9775933473031C401.1,358.9775933473031,402.15,358.13445641592557,403.2,358.13445641592557C404.25,358.13445641592557,405.3,358.49580081508736,406.35,358.49580081508736C407.40000000000003,358.49580081508736,408.45,358.2549045489795,409.5,358.2549045489795C410.55,358.2549045489795,411.6,359.09804148035704,412.65000000000003,359.09804148035704C413.70000000000005,359.09804148035704,414.75,358.0140082828716,415.8,358.0140082828716C416.85,358.0140082828716,417.90000000000003,360.2222240555272,418.95000000000005,360.54341907700433C420.00000000000006,360.86461409848147,421.05,360.9449128538507,422.1,361.02521160922004C423.15000000000003,361.10551036458935,424.2,361.10551036458935,425.25,361.145659742274C426.3,361.18580911995866,427.35,361.2661078753279,428.40000000000003,361.2661078753279C429.45000000000005,361.2661078753279,430.5,359.7002821456267,431.55,359.7002821456267C432.6,359.7002821456267,433.65,360.40289625510803,434.7,360.78431534311216C435.75,361.1657344311163,436.79999999999995,361.98879667365156,437.84999999999997,361.98879667365156C438.9,361.98879667365156,439.95,361.8683485405976,441,361.8683485405976C442.05,361.8683485405976,443.09999999999997,361.90849791828225,444.15,361.98879667365156C445.2,362.0690954290209,446.24999999999994,362.8319336050291,447.29999999999995,362.8319336050291C448.34999999999997,362.8319336050291,449.4,362.7114854719752,450.45,362.7114854719752C451.5,362.7114854719752,452.54999999999995,362.75163484965987,453.59999999999997,362.8319336050291C454.65,362.9122323603984,455.7,363.133053937664,456.75,363.3137261372449C457.8,363.4943983368258,458.84999999999997,363.91596680251456,459.9,363.91596680251456C460.95,363.91596680251456,462,362.59103733892124,463.05,362.59103733892124C464.1,362.59103733892124,465.15,363.55462240335277,466.2,363.55462240335277C467.25,363.55462240335277,468.3,363.55462240335277,469.35,363.55462240335277C470.40000000000003,363.55462240335277,471.45,363.47432364798345,472.5,363.4341742702988C473.55,363.39402489261414,474.59999999999997,363.3137261372449,475.65,363.3137261372449C476.7,363.3137261372449,477.75,363.35387551492954,478.8,363.4341742702988C479.85,363.51447302566805,480.9,364.27731120167635,481.95,364.27731120167635C483,364.27731120167635,484.05,363.91596680251456,485.1,363.91596680251456C486.15000000000003,363.91596680251456,487.2,364.3977593347303,488.25,364.3977593347303C489.3,364.3977593347303,490.35,363.1932780041909,491.40000000000003,363.1932780041909C492.45000000000005,363.1932780041909,493.5,364.15686306862244,494.55,364.15686306862244C495.6,364.15686306862244,496.65000000000003,363.91596680251456,497.70000000000005,363.91596680251456C498.75000000000006,363.91596680251456,499.8,364.3977593347303,500.85,364.3977593347303C501.90000000000003,364.3977593347303,502.95,363.79551866946065,504,363.79551866946065C505.05,363.79551866946065,506.1,363.91596680251456,507.15000000000003,364.0364149355685C508.20000000000005,364.1568630686224,509.25,364.51820746778424,510.3,364.51820746778424C511.34999999999997,364.51820746778424,512.4,363.91596680251456,513.4499999999999,363.91596680251456C514.5,363.91596680251456,515.55,364.27731120167635,516.6,364.27731120167635C517.65,364.27731120167635,518.7,364.15686306862244,519.75,364.15686306862244C520.8,364.15686306862244,521.85,364.317460579361,522.9,364.3977593347303C523.9499999999999,364.47805809009964,525,364.5784315343112,526.05,364.6386556008382C527.0999999999999,364.6988796673652,528.15,364.7591037338921,529.1999999999999,364.7591037338921C530.25,364.7591037338921,531.3,364.0364149355685,532.35,364.0364149355685C533.4,364.0364149355685,534.45,364.8795518669461,535.5,364.8795518669461C536.55,364.8795518669461,537.6,364.6185809119959,538.65,364.51820746778424C539.6999999999999,364.4178340235726,540.75,364.27731120167635,541.8,364.27731120167635C542.85,364.27731120167635,543.9,364.27731120167635,544.95,364.27731120167635C546,364.27731120167635,547.0500000000001,364.317460579361,548.1,364.3977593347303C549.15,364.47805809009964,550.2,364.79925311157683,551.25,364.8795518669461C552.3,364.95985062231534,553.35,365,554.4,365C555.4499999999999,365,556.5,365,557.55,365C558.6,365,559.65,364.6386556008382,560.7,364.6386556008382C561.75,364.6386556008382,562.8000000000001,364.6386556008382,563.85,364.6386556008382C564.9,364.6386556008382,565.95,365,567,365C568.05,365,569.1,364.91970124463074,570.15,364.8795518669461C571.2,364.83940248926143,572.25,364.7591037338921,573.3000000000001,364.7591037338921C574.35,364.7591037338921,575.4000000000001,364.8795518669461,576.45,364.8795518669461C577.5,364.8795518669461,578.5500000000001,364.3977593347303,579.6,364.3977593347303C580.65,364.3977593347303,581.7,364.5784315343112,582.75,364.6386556008382C583.8,364.6988796673652,584.85,364.7591037338921,585.9,364.7591037338921C586.95,364.7591037338921,588,364.7591037338921,589.0500000000001,364.7591037338921C590.1,364.7591037338921,591.15,364.7591037338921,592.1999999999999,364.7591037338921C593.25,364.7591037338921,594.3,364.8795518669461,595.35,364.8795518669461C596.4,364.8795518669461,597.45,364.8795518669461,598.5,364.8795518669461C599.55,364.8795518669461,600.6,364.51820746778424,601.65,364.51820746778424C602.6999999999999,364.51820746778424,603.75,364.79925311157683,604.8,364.8795518669461C605.8499999999999,364.95985062231534,606.9,365,607.9499999999999,365C609,365,610.05,364.6386556008382,611.1,364.6386556008382C612.15,364.6386556008382,613.2,364.6386556008382,614.25,364.6386556008382C615.3,364.6386556008382,616.35,365,617.4,365C618.4499999999999,365,619.5,364.6386556008382,620.55,364.6386556008382C621.6,364.6386556008382,622.65,364.8193278004191,623.7,364.8795518669461C624.75,364.9397759334731,625.8000000000001,365,626.85,365C627.9,365,628.95,364.91970124463074,630,364.8795518669461C631.05,364.83940248926143,632.1,364.7591037338921,633.15,364.7591037338921C634.1999999999999,364.7591037338921,635.25,365,636.3,365C637.3499999999999,365,638.4,364.7591037338921,639.4499999999999,364.7591037338921C640.5,364.7591037338921,641.55,364.83940248926143,642.6,364.8795518669461C643.65,364.91970124463074,644.7,365,645.75,365C646.8,365,647.85,364.7591037338921,648.9,364.7591037338921C649.9499999999999,364.7591037338921,651,365,652.05,365C653.1,365,654.15,364.8795518669461,655.2,364.8795518669461C656.25,364.8795518669461,657.3,365,658.3499999999999,365C659.4,365,660.4499999999999,365,661.5,365C662.55,365,663.6,364.7591037338921,664.65,364.7591037338921C665.7,364.7591037338921,666.75,365,667.8000000000001,365C668.85,365,669.9,364.8795518669461,670.9499999999999,364.8795518669461C672,364.8795518669461,673.05,364.8795518669461,674.1,364.8795518669461C675.15,364.8795518669461,676.2,365,677.25,365C678.3000000000001,365,679.35,365,680.4000000000001,365C681.45,365,682.5,365,683.55,365C684.6,365,685.65,364.8795518669461,686.7,364.8795518669461C687.75,364.8795518669461,688.8000000000001,365,689.85,365C690.9,365,691.95,365,693,365C694.05,365,695.1,364.8795518669461,696.15,364.8795518669461C697.2,364.8795518669461,698.25,364.8795518669461,699.3000000000001,364.8795518669461C700.35,364.8795518669461,701.4000000000001,365,702.45,365C703.5,365,704.5500000000001,365,705.6,365C706.65,365,707.7,365,708.75,365C709.8,365,710.85,365,711.9,365C712.9499999999999,365,714,365,715.05,365C716.0999999999999,365,717.15,365,718.1999999999999,365C719.25,365,720.3,365,721.35,365C722.4,365,723.45,365,724.5,365C725.55,365,726.6,365,727.65,365C728.6999999999999,365,729.75,365,730.8,365C731.85,365,732.9,365,733.95,365C735,365,736.05,365,737.0999999999999,365C738.15,365,739.1999999999999,365,740.25,365C741.3,365,742.35,364.8795518669461,743.4,364.8795518669461C744.45,364.8795518669461,745.5,364.8795518669461,746.5500000000001,364.8795518669461C747.6,364.8795518669461,748.65,365,749.6999999999999,365C750.75,365,751.8,364.8795518669461,752.85,364.8795518669461C753.9,364.8795518669461,754.95,365,756,365C757.0500000000001,365,758.1,365,759.1500000000001,365C760.2,365,761.25,365,762.3,365C763.35,365,764.4,365,765.45,365C766.5,365,767.5500000000001,365,768.6,365C769.65,365,770.7,365,771.75,365C772.8,365,773.85,365,774.9,365C775.95,365,777,365,778.0500000000001,365C779.1,365,780.1500000000001,365,781.2,365C782.25,365,783.3000000000001,365,784.35,365C785.4,365,786.45,365,787.5,365C788.55,365,789.6,365,790.65,365C791.6999999999999,365,792.75,365,793.8,365C794.8499999999999,365,795.9,365,796.9499999999999,365C798,365,799.05,365,800.1,365C801.15,365,802.2,365,803.25,365C804.3,365,805.35,365,806.4,365C807.4499999999999,365,808.5,365,809.55,365C810.6,365,811.65,365,812.7,365C813.75,365,814.8,365,815.8499999999999,365C816.9,365,817.9499999999999,365,819,365C820.05,365,821.1,365,822.15,365C823.2,365,824.25,365,825.3000000000001,365C826.35,365,827.4,365,828.4499999999999,365C829.5,365,830.55,365,831.6,365C832.65,365,833.7,365,834.75,365C835.8000000000001,365,836.85,365,837.9000000000001,365C838.95,365,840,365,841.05,365C842.1,365,843.15,365,844.2,365C845.25,365,846.3000000000001,365,847.35,365C848.4,365,849.45,365,850.5,365C851.55,365,852.6,365,853.65,365C854.7,365,855.75,365,856.8000000000001,365C857.85,365,858.9000000000001,365,859.95,365C861,365,862.0500000000001,365,863.1,365C864.15,365,865.2,365,866.25,365C867.3,365,868.35,365,869.4,365C870.4499999999999,365,871.5,365,872.55,365C873.5999999999999,365,874.65,365,875.6999999999999,365C876.75,365,877.8,365,878.85,365C879.9,365,880.95,365,882,365"></path><circle cx="500" cy="50" r="6" style="fill: rgb(233, 182, 43);"></circle><text x="515" y="50" alignment-baseline="middle">Pure</text><path fill="none" stroke="#CD423D" stroke-width="1.5" d="M0,365C1.05,365,2.0999999999999996,365,3.15,365C4.2,365,5.25,365,6.3,365C7.35,365,8.399999999999999,365,9.45,365C10.5,365,11.549999999999999,365,12.6,365C13.65,365,14.7,365,15.75,365C16.8,365,17.849999999999998,365,18.9,365C19.95,365,21,364.9009259353508,22.05,364.8513889030262C23.1,364.80185187070157,24.15,364.80185187070157,25.2,364.7027778060523C26.25,364.6037037414031,27.299999999999997,364.10833341815703,28.349999999999998,364.10833341815703C29.4,364.10833341815703,30.45,365,31.5,365C32.55,365,33.6,364.40555561210465,34.65,363.95972232118316C35.699999999999996,363.5138890302617,36.75,362.32500025447104,37.8,362.32500025447104C38.85,362.32500025447104,39.9,362.7708335453925,40.95,362.7708335453925C42,362.7708335453925,43.050000000000004,361.28472257565426,44.1,361.28472257565426C45.15,361.28472257565426,46.2,361.87916696354955,47.25,361.87916696354955C48.3,361.87916696354955,49.35,359.50138941196826,50.4,359.50138941196826C51.45,359.50138941196826,52.5,359.6500005089421,53.550000000000004,359.6500005089421C54.6,359.6500005089421,55.65,355.98426011692095,56.699999999999996,355.7861119876225C57.75,355.5879638583241,58.8,355.662269406811,59.85,355.48888979367484C60.9,355.3155101805387,61.95,355.2412046320518,63,354.74583430880574C64.05,354.2504639855597,65.1,350.13889030261697,66.14999999999999,350.13889030261697C67.19999999999999,350.13889030261697,68.25,350.7333346905123,69.3,350.7333346905123C70.35,350.7333346905123,71.4,345.87870552270056,72.45,343.89722422971613C73.5,341.9157429367317,74.55,338.8444469326059,75.6,338.8444469326059C76.64999999999999,338.8444469326059,77.7,339.14166912655355,78.75,339.14166912655355C79.8,339.14166912655355,80.85000000000001,336.4419008648623,81.9,334.83194731431246C82.95,333.2219937637626,84.00000000000001,330.74514214753214,85.05000000000001,329.4819478232546C86.10000000000001,328.21875349897704,87.15,328.7388923383854,88.2,327.2527813686471C89.25,325.7666703989088,90.3,322.12569852304995,91.35,320.2680598108771C92.39999999999999,318.4104210987042,93.45,317.6178285815105,94.5,316.1069490956099C95.55,314.5960696097093,96.60000000000001,313.43194935008097,97.65,311.2027828954735C98.7,308.97361644086607,99.75,304.98588533873493,100.8,302.73195036796517C101.85,300.4780153971954,102.9,298.6699137173471,103.95,297.6791730708549C105,296.68843242436276,106.05000000000001,297.1838027476088,107.10000000000001,296.19306210111665C108.15,295.2023214546245,109.2,283.06574853509494,110.25,280.58889691886446C111.3,278.112045302634,112.35,279.2513970461,113.39999999999999,276.8736194945187C114.44999999999999,274.49584194293743,115.5,269.09630541955494,116.55,266.3222316093768C117.6,263.54815779919863,118.65,261.88866721632417,119.7,260.2291766334497C120.75,258.5696860505752,121.80000000000001,258.94121379300987,122.85000000000001,256.36528811213014C123.9,253.78936243125045,124.95,244.22871519260065,126,240.76112292987796C127.05,237.29353066715524,128.1,237.81366950656368,129.15,235.5597345357939C130.2,233.30579956502413,131.25,229.51621659219143,132.29999999999998,227.23751310525938C133.35,224.9588096183273,134.39999999999998,225.45417994157344,135.45,221.88751361420154C136.5,218.32084728682963,137.54999999999998,205.54029294708022,138.6,205.54029294708022C139.65,205.54029294708022,140.7,209.99862585629512,141.75,209.99862585629512C142.8,209.99862585629512,143.85,200.48751564997005,144.9,197.81251590444106C145.95,195.1375161589121,147,195.2613587397236,148.04999999999998,193.8000162861476C149.1,192.3386738325716,150.14999999999998,191.52131279921556,151.2,189.04446118298506C152.25,186.56760956675456,153.29999999999998,181.29191562418356,154.35,178.93890658876458C155.4,176.5858975533456,156.45,174.9264069704712,157.5,174.9264069704712C158.55,174.9264069704712,159.6,175.8180735523142,160.65,175.8180735523142C161.70000000000002,175.8180735523142,162.75,174.25765703408894,163.8,173.29168490375903C164.85000000000002,172.32571277342913,165.9,171.26066657845,166.95000000000002,170.02224077033478C168.00000000000003,168.78381496221954,169.05,165.86113005506755,170.10000000000002,165.86113005506755C171.15,165.86113005506755,172.20000000000002,168.38751870362265,173.25,168.38751870362265C174.3,168.38751870362265,175.35,148.9194650000509,176.4,148.9194650000509C177.45,148.9194650000509,178.5,156.35001984874245,179.54999999999998,156.35001984874245C180.6,156.35001984874245,181.64999999999998,147.73057622426026,182.7,144.31252099386217C183.75,140.89446576346407,184.79999999999998,135.84168846635387,185.85,135.84168846635387C186.9,135.84168846635387,187.95,151.44585364860603,189,151.44585364860603C190.05,151.44585364860603,191.1,141.9099749261186,192.15,139.11113259977813C193.20000000000002,136.31229027343767,194.25,134.65279969056323,195.3,134.65279969056323C196.35,134.65279969056323,197.4,142.43011376552698,198.45,142.82641002412387C199.5,143.22270628272076,200.54999999999998,143.4208544120192,201.6,143.4208544120192C202.65,143.4208544120192,203.7,134.90048485218628,204.75,133.90974420569407C205.8,132.91900355920185,206.85,132.42363323595575,207.9,132.42363323595575C208.95000000000002,132.42363323595575,210,138.0708549209613,211.05,138.0708549209613C212.10000000000002,138.0708549209613,213.15,130.64030007226978,214.20000000000002,130.64030007226978C215.25,130.64030007226978,216.3,135.19770704613396,217.35,137.476410533066C218.4,139.75511401999808,219.45,144.31252099386217,220.5,144.31252099386217C221.54999999999998,144.31252099386217,222.6,142.52918783017623,223.64999999999998,142.52918783017623C224.7,142.52918783017623,225.74999999999997,143.56946550899303,226.79999999999998,143.56946550899303C227.85,143.56946550899303,228.89999999999998,140.69631763416564,229.95,138.81391040583046C231,136.93150317749527,232.04999999999998,132.2750221389819,233.1,132.2750221389819C234.15,132.2750221389819,235.2,153.22918681229197,236.25,153.22918681229197C237.3,153.22918681229197,238.35,141.9347434422809,239.4,141.9347434422809C240.45000000000002,141.9347434422809,241.5,147.13613183636497,242.55,147.13613183636497C243.60000000000002,147.13613183636497,244.65,146.3930763514958,245.70000000000002,146.3930763514958C246.75000000000003,146.3930763514958,247.8,151.2477055193076,248.85000000000002,154.41807558808264C249.9,157.5884456568577,250.95000000000002,165.41529676414604,252,165.41529676414604C253.05,165.41529676414604,254.1,162.88890811559094,255.15,162.88890811559094C256.2,162.88890811559094,257.25,167.94168541270113,258.3,168.53612980059648C259.35,169.1305741884918,260.4,168.83335199454416,261.45,169.42779638243948C262.5,170.0222407703348,263.54999999999995,179.53335097665993,264.59999999999997,179.53335097665993C265.65,179.53335097665993,266.7,170.1708518673086,267.75,170.1708518673086C268.8,170.1708518673086,269.84999999999997,178.09677703924623,270.9,180.72223975245055C271.95,183.34770246565492,273,184.5365912414455,274.05,185.9236281465346C275.1,187.3106650516237,276.15,189.04446118298506,277.2,189.04446118298506C278.25,189.04446118298506,279.3,189.04446118298506,280.35,189.04446118298506C281.40000000000003,189.04446118298506,282.45,198.5060343569856,283.5,202.12223771668212C284.55,205.7384410763787,285.6,208.41344082190759,286.65000000000003,210.74168134116425C287.70000000000005,213.0699218604209,288.75,216.09168083222212,289.8,216.09168083222212C290.85,216.09168083222212,291.9,215.05140315340535,292.95,215.05140315340535C294,215.05140315340535,295.04999999999995,216.53751412314364,296.09999999999997,219.50973606262025C297.15,222.48195800209692,298.2,232.93427182258952,299.25,233.6277902751341C300.3,234.32130872767866,301.34999999999997,233.97454950140636,302.4,234.66806795395092C303.45,235.3615864064955,304.5,236.50093814996148,305.55,237.93751208737518C306.6,239.37408602478885,307.65,240.53820628441724,308.7,243.28751157843305C309.75,246.03681687244892,310.8,254.43334385147034,311.85,254.43334385147034C312.90000000000003,254.43334385147034,313.95,252.50139959081054,315,252.50139959081054C316.05,252.50139959081054,317.09999999999997,257.4055657909469,318.15,259.04028785765905C319.2,260.67500992437124,320.25,262.30973199108337,321.3,262.30973199108337C322.35,262.30973199108337,323.4,261.26945431226653,324.45,261.26945431226653C325.5,261.26945431226653,326.55,277.81482310868626,327.6,277.9138971733355C328.65000000000003,278.01297123798474,329.7,277.9634342056601,330.75,278.06250827030937C331.8,278.1615823349586,332.85,283.8583410522887,333.90000000000003,285.64167421597466C334.95000000000005,287.4250073796606,336,287.2516277665245,337.05,288.7625072524251C338.1,290.2733867383257,339.15000000000003,293.27037719396463,340.20000000000005,294.70695113137833C341.25000000000006,296.143525068792,342.3,297.38195087690724,343.35,297.38195087690724C344.40000000000003,297.38195087690724,345.45,296.34167319809046,346.5,296.34167319809046C347.55,296.34167319809046,348.6,302.5833392709913,349.65000000000003,302.5833392709913C350.70000000000005,302.5833392709913,351.75,295.4500066162475,352.8,295.4500066162475C353.85,295.4500066162475,354.9,303.1777836588866,355.95,304.6638946286249C357,306.15000559836324,358.04999999999995,306.27384817917476,359.09999999999997,306.8930610832324C360.15,307.51227398729003,361.2,307.5370425034523,362.25,308.3791720529707C363.3,309.22130160248906,364.34999999999997,309.93958857119594,365.4,311.94583838034265C366.45,313.95208818948936,367.49999999999994,320.41667090785097,368.54999999999995,320.41667090785097C369.59999999999997,320.41667090785097,370.65,316.70139348350517,371.7,315.8097269016622C372.75,314.91806031981923,373.79999999999995,314.47222702889775,374.84999999999997,314.47222702889775C375.9,314.47222702889775,376.95,324.5777816231182,378,324.5777816231182C379.05,324.5777816231182,380.09999999999997,322.94305955640607,381.15,322.94305955640607C382.2,322.94305955640607,383.25,325.12268897868887,384.3,325.91528149588265C385.35,326.7078740130764,386.4,326.70787401307643,387.45,327.69861465956865C388.5,328.68935530606086,389.55,330.67083659904523,390.6,331.8597253748359C391.65000000000003,333.0486141506265,392.7,333.74213260317106,393.75,334.83194731431246C394.8,335.92176202545386,395.84999999999997,338.3986136416844,396.9,338.3986136416844C397.95,338.3986136416844,399,336.3180582840508,400.05,336.3180582840508C401.1,336.3180582840508,402.15,339.8847246114227,403.2,339.8847246114227C404.25,339.8847246114227,405.3,339.73611351444885,406.35,339.73611351444885C407.40000000000003,339.73611351444885,408.45,341.22222448418717,409.5,341.22222448418717C410.55,341.22222448418717,411.6,341.07361338721336,412.65000000000003,341.07361338721336C413.70000000000005,341.07361338721336,414.75,345.68055739340207,415.8,345.68055739340207C416.85,345.68055739340207,417.90000000000003,344.6402797145853,418.95000000000005,344.6402797145853C420.00000000000006,344.6402797145853,421.05,347.6125016540619,422.1,347.6125016540619C423.15000000000003,347.6125016540619,424.2,346.7208350722189,425.25,346.7208350722189C426.3,346.7208350722189,427.35,348.8013904298525,428.40000000000003,348.8013904298525C429.45000000000005,348.8013904298525,430.5,347.7611127510357,431.55,347.7611127510357C432.6,347.7611127510357,433.65,350.7333346905123,434.7,350.7333346905123C435.75,350.7333346905123,436.79999999999995,349.8416681086693,437.84999999999997,349.8416681086693C438.9,349.8416681086693,439.95,355.48888979367484,441,355.48888979367484C442.05,355.48888979367484,443.09999999999997,354.3000010178842,444.15,354.3000010178842C445.2,354.3000010178842,446.24999999999994,354.3000010178842,447.29999999999995,354.3000010178842C448.34999999999997,354.3000010178842,449.4,353.8541677269627,450.45,353.8541677269627C451.5,353.8541677269627,452.54999999999995,354.0027788239365,453.59999999999997,354.3000010178842C454.65,354.5972232118319,455.7,357.86666734525613,456.75,357.86666734525613C457.8,357.86666734525613,458.84999999999997,354.89444540577955,459.9,354.89444540577955C460.95,354.89444540577955,462,358.6097228301253,463.05,358.6097228301253C464.1,358.6097228301253,465.15,358.262963603853,466.2,358.1638895392038C467.25,358.0648154745546,468.3,358.1143525068792,469.35,358.01527844223C470.40000000000003,357.9162043775808,471.45,356.6777785694655,472.5,356.6777785694655C473.55,356.6777785694655,474.59999999999997,357.5199081189839,475.65,358.01527844223C476.7,358.5106487654761,477.75,359.6500005089421,478.8,359.6500005089421C479.85,359.6500005089421,480.9,358.90694502407297,481.95,358.90694502407297C483,358.90694502407297,484.05,359.6747690251044,485.1,359.94722270288975C486.15000000000003,360.2196763806751,487.2,360.5416670907851,488.25,360.5416670907851C489.3,360.5416670907851,490.35,358.75833392709916,491.40000000000003,358.75833392709916C492.45000000000005,358.75833392709916,493.5,361.43333367262807,494.55,361.43333367262807C495.6,361.43333367262807,496.65000000000003,361.08657444635577,497.70000000000005,360.9875003817066C498.75000000000006,360.8884263170574,499.8,360.8388892847328,500.85,360.8388892847328C501.90000000000003,360.8388892847328,502.95,361.13611147868045,504,361.28472257565426C505.05,361.43333367262807,506.1,361.4828707049527,507.15000000000003,361.73055586657574C508.20000000000005,361.9782410281988,509.25,362.7708335453925,510.3,362.7708335453925C511.34999999999997,362.7708335453925,512.4,362.6222224484187,513.4499999999999,362.6222224484187C514.5,362.6222224484187,515.55,363.21666683631406,516.6,363.21666683631406C517.65,363.21666683631406,518.7,362.1763891574972,519.75,362.1763891574972C520.8,362.1763891574972,521.85,362.9194446423664,522.9,362.9194446423664C523.9499999999999,362.9194446423664,525,362.9194446423664,526.05,362.9194446423664C527.0999999999999,362.9194446423664,528.15,362.6222224484187,529.1999999999999,362.6222224484187C530.25,362.6222224484187,531.3,363.36527793328787,532.35,363.36527793328787C533.4,363.36527793328787,534.45,362.6222224484187,535.5,362.6222224484187C536.55,362.6222224484187,537.6,363.0432872231779,538.65,363.21666683631406C539.6999999999999,363.3900464494502,540.75,363.66250012723555,541.8,363.66250012723555C542.85,363.66250012723555,543.9,363.66250012723555,544.95,363.66250012723555C546,363.66250012723555,547.0500000000001,363.95972232118316,548.1,363.95972232118316C549.15,363.95972232118316,550.2,363.91018528885854,551.25,363.81111122420936C552.3,363.71203715956017,553.35,362.9194446423664,554.4,362.9194446423664C555.4499999999999,362.9194446423664,556.5,363.95972232118316,557.55,363.95972232118316C558.6,363.95972232118316,559.65,363.81111122420936,560.7,363.81111122420936C561.75,363.81111122420936,562.8000000000001,364.10833341815703,563.85,364.10833341815703C564.9,364.10833341815703,565.95,363.81111122420936,567,363.81111122420936C568.05,363.81111122420936,569.1,363.81111122420936,570.15,363.81111122420936C571.2,363.81111122420936,572.25,363.36527793328787,573.3000000000001,363.36527793328787C574.35,363.36527793328787,575.4000000000001,364.4055556121047,576.45,364.4055556121047C577.5,364.4055556121047,578.5500000000001,364.4055556121047,579.6,364.4055556121047C580.65,364.4055556121047,581.7,364.10833341815703,582.75,364.10833341815703C583.8,364.10833341815703,584.85,364.7027778060523,585.9,364.7027778060523C586.95,364.7027778060523,588,364.52939819291623,589.0500000000001,364.4055556121047C590.1,364.2817130312932,591.15,363.95972232118316,592.1999999999999,363.95972232118316C593.25,363.95972232118316,594.3,364.0587963858324,595.35,364.10833341815703C596.4,364.15787045048165,597.45,364.15787045048165,598.5,364.25694451513084C599.55,364.35601857978,600.6,364.7027778060523,601.65,364.7027778060523C602.6999999999999,364.7027778060523,603.75,364.5541667090785,604.8,364.5541667090785C605.8499999999999,364.5541667090785,606.9,364.7027778060523,607.9499999999999,364.7027778060523C609,364.7027778060523,610.05,364.4055556121047,611.1,364.4055556121047C612.15,364.4055556121047,613.2,364.4550926444293,614.25,364.5541667090785C615.3,364.6532407737277,616.35,365,617.4,365C618.4499999999999,365,619.5,364.5541667090785,620.55,364.5541667090785C621.6,364.5541667090785,622.65,364.8513889030262,623.7,364.8513889030262C624.75,364.8513889030262,625.8000000000001,364.75231483837695,626.85,364.7027778060523C627.9,364.6532407737277,628.95,364.5541667090785,630,364.5541667090785C631.05,364.5541667090785,632.1,364.7027778060523,633.15,364.7027778060523C634.1999999999999,364.7027778060523,635.25,364.7027778060523,636.3,364.7027778060523C637.3499999999999,364.7027778060523,638.4,364.8513889030262,639.4499999999999,364.8513889030262C640.5,364.8513889030262,641.55,364.75231483837695,642.6,364.7027778060523C643.65,364.6532407737277,644.7,364.5541667090785,645.75,364.5541667090785C646.8,364.5541667090785,647.85,365,648.9,365C649.9499999999999,365,651,364.7027778060523,652.05,364.7027778060523C653.1,364.7027778060523,654.15,364.8513889030262,655.2,364.8513889030262C656.25,364.8513889030262,657.3,364.7027778060523,658.3499999999999,364.7027778060523C659.4,364.7027778060523,660.4499999999999,364.7027778060523,661.5,364.7027778060523C662.55,364.7027778060523,663.6,364.8513889030262,664.65,364.8513889030262C665.7,364.8513889030262,666.75,364.8513889030262,667.8000000000001,364.8513889030262C668.85,364.8513889030262,669.9,364.7027778060523,670.9499999999999,364.7027778060523C672,364.7027778060523,673.05,364.80185187070157,674.1,364.8513889030262C675.15,364.9009259353508,676.2,365,677.25,365C678.3000000000001,365,679.35,365,680.4000000000001,365C681.45,365,682.5,365,683.55,365C684.6,365,685.65,365,686.7,365C687.75,365,688.8000000000001,364.9256944515131,689.85,364.8513889030262C690.9,364.7770833545393,691.95,364.5541667090785,693,364.5541667090785C694.05,364.5541667090785,695.1,364.7027778060523,696.15,364.7027778060523C697.2,364.7027778060523,698.25,364.7027778060523,699.3000000000001,364.7027778060523C700.35,364.7027778060523,701.4000000000001,365,702.45,365C703.5,365,704.5500000000001,364.7027778060523,705.6,364.7027778060523C706.65,364.7027778060523,707.7,365,708.75,365C709.8,365,710.85,365,711.9,365C712.9499999999999,365,714,365,715.05,365C716.0999999999999,365,717.15,365,718.1999999999999,365C719.25,365,720.3,365,721.35,365C722.4,365,723.45,365,724.5,365C725.55,365,726.6,365,727.65,365C728.6999999999999,365,729.75,365,730.8,365C731.85,365,732.9,364.8513889030262,733.95,364.8513889030262C735,364.8513889030262,736.05,365,737.0999999999999,365C738.15,365,739.1999999999999,364.8513889030262,740.25,364.8513889030262C741.3,364.8513889030262,742.35,365,743.4,365C744.45,365,745.5,364.7027778060523,746.5500000000001,364.7027778060523C747.6,364.7027778060523,748.65,364.80185187070157,749.6999999999999,364.8513889030262C750.75,364.9009259353508,751.8,365,752.85,365C753.9,365,754.95,365,756,365C757.0500000000001,365,758.1,365,759.1500000000001,365C760.2,365,761.25,365,762.3,365C763.35,365,764.4,365,765.45,365C766.5,365,767.5500000000001,365,768.6,365C769.65,365,770.7,365,771.75,365C772.8,365,773.85,365,774.9,365C775.95,365,777,365,778.0500000000001,365C779.1,365,780.1500000000001,365,781.2,365C782.25,365,783.3000000000001,365,784.35,365C785.4,365,786.45,365,787.5,365C788.55,365,789.6,365,790.65,365C791.6999999999999,365,792.75,365,793.8,365C794.8499999999999,365,795.9,364.8513889030262,796.9499999999999,364.8513889030262C798,364.8513889030262,799.05,365,800.1,365C801.15,365,802.2,365,803.25,365C804.3,365,805.35,365,806.4,365C807.4499999999999,365,808.5,365,809.55,365C810.6,365,811.65,365,812.7,365C813.75,365,814.8,365,815.8499999999999,365C816.9,365,817.9499999999999,365,819,365C820.05,365,821.1,365,822.15,365C823.2,365,824.25,365,825.3000000000001,365C826.35,365,827.4,365,828.4499999999999,365C829.5,365,830.55,365,831.6,365C832.65,365,833.7,365,834.75,365C835.8000000000001,365,836.85,365,837.9000000000001,365C838.95,365,840,365,841.05,365C842.1,365,843.15,365,844.2,365C845.25,365,846.3000000000001,365,847.35,365C848.4,365,849.45,365,850.5,365C851.55,365,852.6,365,853.65,365C854.7,365,855.75,365,856.8000000000001,365C857.85,365,858.9000000000001,365,859.95,365C861,365,862.0500000000001,365,863.1,365C864.15,365,865.2,365,866.25,365C867.3,365,868.35,365,869.4,365C870.4499999999999,365,871.5,365,872.55,365C873.5999999999999,365,874.65,365,875.6999999999999,365C876.75,365,877.8,365,878.85,365C879.9,365,880.95,365,882,365"></path><circle cx="500" cy="70" r="6" style="fill: rgb(205, 66, 61);"></circle><text x="515" y="70" alignment-baseline="middle">Applied</text></g></svg>
