<svg xmlns="http://www.w3.org/2000/svg" version="1.0" viewBox="-680 -680 62.059 20.693">
  <path d="M-672.822-679.995a607.01 607.01 0 01-4.18 20.683h1.025a605.097 605.097 0 003.223-15.588l3.48.67a608.405 608.405 0 01-3.072 14.918h1.008c1.069-4.898 2.1-9.805 3.047-14.728l3.48.67a612.858 612.858 0 01-2.898 14.058h1.035a615.254 615.254 0 002.846-13.869l3.482.67a618.237 618.237 0 01-2.7 13.2h1.02a619.967 619.967 0 004.087-20.684h-1.016c-.391 2.175-.79 4.35-1.205 6.521l-3.485-.666c.373-1.95.73-3.902 1.083-5.855h-1.018a611.71 611.71 0 01-1.047 5.668l-3.482-.664c.318-1.667.621-3.336.925-5.004h-1.013a609.556 609.556 0 01-.895 4.816l-3.482-.664c.264-1.383.517-2.768.771-4.152zm18.486 0a623.583 623.583 0 01-4.064 20.683h1.023c.292-1.368.59-2.735.873-4.105l3.47.717c-.232 1.13-.48 2.258-.72 3.388h1.024c.224-1.062.458-2.123.677-3.187l3.471.717c-.17.824-.352 1.646-.525 2.47h1.023c.159-.757.326-1.512.482-2.27l3.475.717c-.107.519-.222 1.035-.33 1.553h1.023a637.966 637.966 0 003.957-20.683h-1.02c-.098.566-.19 1.133-.29 1.699l-3.492-.62c.064-.359.122-.72.185-1.08h-1.015c-.053.302-.101.605-.155.907l-3.49-.62c.017-.095.032-.19.05-.286h-1.018c-.966 5.453-2 10.892-3.11 16.318l-3.472-.709a624.539 624.539 0 002.984-15.61zm18.455 0a641.516 641.516 0 01-3.935 20.683h1.027l.092-.433 2.102.433h2.449a646.973 646.973 0 001.562-7.853l3.483.67c-.462 2.397-.94 4.79-1.428 7.183h1.018c.474-2.33.943-4.66 1.392-6.994l3.48.67c-.406 2.11-.832 4.218-1.26 6.324h1.013a658.213 658.213 0 003.85-20.683h-1.02a654.698 654.698 0 01-2.387 13.338l-3.48-.665a652.089 652.089 0 002.273-12.673h-1.006c-.232 1.36-.462 2.72-.703 4.08l-3.492-.62c.204-1.152.4-2.307.597-3.46h-1.02c-.188 1.095-.368 2.192-.562 3.287l-3.49-.62c.158-.888.301-1.778.455-2.667zm-13.049 1.27l3.49.622a632.68 632.68 0 01-2.939 15.338l-3.473-.71a628.942 628.942 0 002.922-15.25zm4.475.8l3.492.623a636.222 636.222 0 01-1.338 7.236l-3.484-.664c.457-2.396.9-4.794 1.33-7.195zm8.95 1.6l3.49.625a645.333 645.333 0 01-1.358 7.34l-3.482-.667c.463-2.43.913-4.863 1.35-7.298zm4.474.8l3.49.625c-.441 2.466-.896 4.93-1.365 7.391l-3.485-.664c.468-2.448.92-4.899 1.36-7.352zm-14.944 5.782l3.483.67c-.464 2.409-.94 4.815-1.432 7.218l-3.476-.71c.489-2.391.964-4.783 1.425-7.178zm8.928 1.718l3.483.67c-.47 2.444-.957 4.885-1.456 7.323l-3.472-.711c.496-2.425.977-4.851 1.445-7.282z" opacity=".1"/>
  <path d="M-659.455-679.995c.22.274.536.478.912.547a1.493 1.493 0 001.441-.547zm8.799 0a1.482 1.482 0 00-.153.427 1.5 1.5 0 002.954.526c.06-.34-.01-.67-.155-.953zm10.234.77c-.697.02-1.31.531-1.437 1.251a1.51 1.51 0 001.209 1.756 1.508 1.508 0 001.744-1.23 1.507 1.507 0 00-1.516-1.778zm4.477.786a1.52 1.52 0 00-1.44 1.262 1.514 1.514 0 001.207 1.766c.815.147 1.598-.408 1.746-1.24.149-.834-.395-1.623-1.21-1.766a1.481 1.481 0 00-.303-.022zm-37.242 1.53c-.697.005-1.311.48-1.442 1.162-.15.778.388 1.537 1.201 1.695.813.158 1.596-.348 1.746-1.13.15-.785-.39-1.544-1.203-1.698a1.578 1.578 0 00-.302-.03zm46.195.043c-.699.023-1.31.547-1.442 1.283-.15.84.388 1.64 1.204 1.787.814.147 1.6-.416 1.75-1.26.15-.845-.392-1.646-1.207-1.789a1.479 1.479 0 00-.305-.021zm-32.797 2.494a1.482 1.482 0 00-1.447 1.191c-.153.796.382 1.57 1.195 1.729a1.485 1.485 0 001.752-1.164c.154-.802-.385-1.575-1.2-1.729a1.514 1.514 0 00-.3-.027zm13.398 2.535a1.506 1.506 0 00-.263 2.984c.812.158 1.6-.377 1.758-1.195a1.502 1.502 0 00-1.495-1.79zm4.465.846a1.514 1.514 0 00-1.453 1.234 1.508 1.508 0 001.186 1.77 1.506 1.506 0 001.76-1.206 1.508 1.508 0 00-1.19-1.773 1.493 1.493 0 00-.303-.025zm4.467.845a1.523 1.523 0 00-1.457 1.244 1.514 1.514 0 001.184 1.782c.812.158 1.604-.387 1.763-1.217.16-.831-.374-1.63-1.187-1.783a1.485 1.485 0 00-.303-.026zm13.398 2.535c-.698.016-1.319.537-1.46 1.276-.162.843.364 1.656 1.177 1.814.813.158 1.605-.402 1.768-1.25.163-.848-.368-1.66-1.182-1.814a1.459 1.459 0 00-.303-.026zm-32.84 2.123c-.697 0-1.32.483-1.464 1.184-.164.8.359 1.585 1.17 1.754a1.49 1.49 0 001.77-1.15 1.491 1.491 0 00-1.175-1.756 1.513 1.513 0 00-.3-.031zm13.364 2.713a1.51 1.51 0 00-1.469 1.213 1.51 1.51 0 001.162 1.787 1.507 1.507 0 001.776-1.183 1.506 1.506 0 00-1.47-1.817zm4.455.905a1.522 1.522 0 00-1.473 1.224c-.102.498.05.986.364 1.334h2.197c.183-.199.32-.445.379-.73.17-.83-.353-1.635-1.164-1.799a1.485 1.485 0 00-.303-.03zm4.455.904a1.527 1.527 0 00-1.497 1.654h2.98c.067-.766-.43-1.473-1.18-1.625a1.478 1.478 0 00-.303-.029z" opacity=".1" fill="red"/>
  <circle fill="none" cx="-673.155" cy="-675.465" r="1.5" stroke="#000" stroke-width=".01"/>
  <path stroke="#000" d="M-590.826-789.48c.05 93.07-19.403 186.091-56.746 271.341" stroke-width=".01" fill="none"/>
  <circle fill="none" cx="-626.958" cy="-675.32" r="1.5" stroke="#000" stroke-width=".01"/>
  <circle fill="none" cx="-635.908" cy="-676.914" r="1.5" stroke="#000" stroke-width=".01"/>
  <circle fill="none" cx="-640.383" cy="-677.711" r="1.5" stroke="#000" stroke-width=".01"/>
  <circle fill="none" cx="-649.333" cy="-679.305" r="1.5" stroke="#000" stroke-width=".01"/>
  <circle fill="none" cx="-658.283" cy="-680.899" r="1.5" stroke="#000" stroke-width=".01"/>
  <circle fill="none" cx="-624.049" cy="-666.052" r="1.5" stroke="#000" stroke-width=".01"/>
  <circle fill="none" cx="-637.442" cy="-668.619" r="1.5" stroke="#000" stroke-width=".01"/>
  <circle fill="none" cx="-641.906" cy="-669.475" r="1.5" stroke="#000" stroke-width=".01"/>
  <circle fill="none" cx="-646.37" cy="-670.331" r="1.5" stroke="#000" stroke-width=".01"/>
  <circle fill="none" cx="-659.763" cy="-672.898" r="1.5" stroke="#000" stroke-width=".01"/>
  <circle fill="none" cx="-634.632" cy="-659.431" r="1.5" stroke="#000" stroke-width=".01"/>
  <circle fill="none" cx="-639.084" cy="-660.345" r="1.5" stroke="#000" stroke-width=".01"/>
  <circle fill="none" cx="-643.537" cy="-661.26" r="1.5" stroke="#000" stroke-width=".01"/>
  <circle fill="none" cx="-656.895" cy="-664.003" r="1.5" stroke="#000" stroke-width=".01"/>
  <circle fill="red" opacity=".2" cx="-1267.926" cy="-789.48" r=".1"/>
</svg>
