<svg xmlns="http://www.w3.org/2000/svg" viewBox="0 0 275.107 102.543">
  <path d="M275.107 14.468C184.74-4.577 90.467-4.822 0 13.75l18.054 88.17c78.442-16.105 160.183-15.892 238.54.622l18.513-88.075zm-10.434 19.296l-.198.981a640.126 640.126 0 00-7.062-1.373 1.5 1.5 0 01-.996.715 1.5 1.5 0 01-.069.012l-.482 2.587c2.64.495 5.279 1.006 7.913 1.535l-.196.981a642.739 642.739 0 00-7.9-1.533l-.651 3.485c2.621.492 5.24.999 7.856 1.524l-.198.981c-2.61-.524-5.225-1.03-7.842-1.521l-.65 3.485c2.601.488 5.2.991 7.796 1.512l-.196.98a634.06 634.06 0 00-7.784-1.51l-.65 3.486c2.582.485 5.162.984 7.738 1.501l-.198.98a629.372 629.372 0 00-7.724-1.499l-.65 3.487c2.562.48 5.122.976 7.679 1.49l-.196.978a624.574 624.574 0 00-7.667-1.487l-.65 3.485c2.543.478 5.084.97 7.621 1.479l-.198.981c-2.532-.508-5.068-1-7.607-1.476l-.65 3.485c2.523.474 5.044.962 7.561 1.467l-.196.981c-2.513-.504-5.03-.992-7.549-1.465l-.65 3.485c2.504.47 5.005.954 7.504 1.456l-.198.981c-2.494-.5-4.99-.984-7.49-1.453l-.65 3.485c2.484.466 4.966.947 7.444 1.444l-.196.981a606.778 606.778 0 00-7.432-1.442l-.65 3.485c2.465.463 4.927.94 7.386 1.433l-.197.982a602.058 602.058 0 00-7.373-1.43c-.161.861-.323 1.723-.483 2.586a1.5 1.5 0 01.719.997 1.5 1.5 0 01.012.072c2.145.406 4.289.82 6.429 1.25l-.196.98a597.688 597.688 0 00-6.416-1.25 1.5 1.5 0 01-.998.719 1.5 1.5 0 01-1.77-1.17 1.5 1.5 0 01-.012-.068 601.94 601.94 0 00-44.398-6.485 1.5 1.5 0 01-1.052.82 1.5 1.5 0 01-1.758-1.118 605.628 605.628 0 00-20.95-1.801 1.5 1.5 0 01-1.074.87 1.5 1.5 0 01-1.743-1.057c-47.14-3.01-94.632-.515-141.183 7.506l-.17-.986c46.628-8.034 94.197-10.532 141.413-7.516a1.5 1.5 0 01.976-.86l.174-2.621c-2.03-.133-4.06-.251-6.09-.364a1.5 1.5 0 01-1.08.884 1.5 1.5 0 01-1.736-1.037c-44.866-2.276-89.984.392-134.257 8.02l-.17-.985c44.345-7.641 89.535-10.31 134.472-8.03a1.5 1.5 0 01.966-.876c.03-.572.06-1.143.092-1.715a1.5 1.5 0 01-.86-.95 617.485 617.485 0 00-5.247-.242 1.5 1.5 0 01-1.086.9 1.5 1.5 0 01-1.73-1.014c-42.542-1.601-85.25 1.204-127.207 8.433l-.17-.986c42.024-7.24 84.8-10.049 127.408-8.446a1.5 1.5 0 01.954-.89l.07-1.715a1.5 1.5 0 01-.873-.936c-1.77-.067-3.54-.125-5.31-.176a1.5 1.5 0 01-1.092.916 1.5 1.5 0 01-1.724-.993 621.54 621.54 0 00-5.311-.107 1.5 1.5 0 01-1.1.935 1.5 1.5 0 01-1.717-.974c-1.77-.02-3.542-.033-5.313-.038a1.5 1.5 0 01-1.107.954 1.5 1.5 0 01-1.71-.956c-1.771.003-3.542.014-5.312.032a1.5 1.5 0 01-1.115.973 1.5 1.5 0 01-1.704-.938 617.031 617.031 0 00-95.643 8.866l-.17-.986a618.129 618.129 0 0195.792-8.882 1.5 1.5 0 01.907-.937l-.033-2.622c-2.093.028-4.186.067-6.279.116a1.5 1.5 0 01-1.122.995 1.5 1.5 0 01-1.697-.923 621.24 621.24 0 00-88.17 8.76l-.168-.987a622.28 622.28 0 0188.305-8.773 1.5 1.5 0 01.894-.947l-.068-2.626c-2.112.056-4.224.125-6.335.202a1.5 1.5 0 01-1.13 1.016 1.5 1.5 0 01-1.689-.903 625.338 625.338 0 00-80.579 8.536l-.17-.984a626.415 626.415 0 0180.702-8.551 1.5 1.5 0 01.882-.961l-.067-1.716a1.5 1.5 0 01-.946-.867c-1.827.075-3.655.158-5.482.248a1.5 1.5 0 01-1.134 1.034 1.5 1.5 0 01-1.683-.888c-7.358.398-14.708.922-22.047 1.577a1.5 1.5 0 01-1.152 1.098 1.5 1.5 0 01-1.661-.837 628.964 628.964 0 00-30.2 3.567 1.5 1.5 0 01-1.17 1.176 1.5 1.5 0 01-1.628-.774 624.874 624.874 0 00-15.014 2.398l-.17-.984a625.202 625.202 0 0115.04-2.398 1.5 1.5 0 01.774-1.04l-.378-2.605c-2.13.31-4.257.635-6.383.967a1.5 1.5 0 01-1.173 1.193 1.5 1.5 0 01-1.618-.752 613.33 613.33 0 00-6.862 1.14l-.17-.984c2.29-.395 4.58-.773 6.873-1.142a1.5 1.5 0 01.76-1.05l-.268-1.696a1.5 1.5 0 01-1.044-.758c-2.309.372-4.616.753-6.92 1.15l-.17-.986c2.308-.398 4.62-.78 6.932-1.152a1.5 1.5 0 011.174-1.198 1.5 1.5 0 011.62.755c1.848-.289 3.698-.57 5.55-.843a1.5 1.5 0 011.17-1.177 1.5 1.5 0 011.628.771c1.853-.264 3.707-.521 5.562-.77a1.5 1.5 0 011.165-1.157 1.5 1.5 0 011.638.789c1.856-.24 3.713-.473 5.57-.697a1.5 1.5 0 01.8-1.013l-.201-1.706a1.5 1.5 0 01-1.014-.8c-1.874.225-3.746.46-5.618.702a1.5 1.5 0 01-1.166 1.158 1.5 1.5 0 01-1.637-.79c-1.87.25-3.74.51-5.608.776a1.5 1.5 0 01-1.17 1.177 1.5 1.5 0 01-1.628-.77c-1.867.274-3.733.558-5.597.85a1.5 1.5 0 01-1.173 1.194 1.5 1.5 0 01-1.619-.752c-2.329.374-4.655.76-6.98 1.16l-.168-.986c2.328-.402 4.658-.787 6.99-1.162a1.5 1.5 0 01.76-1.047l-.269-1.696a1.5 1.5 0 01-1.044-.758c-2.348.377-4.695.766-7.039 1.17l-.17-.987a631.57 631.57 0 017.05-1.17 1.5 1.5 0 011.175-1.2 1.5 1.5 0 011.622.757 657.61 657.61 0 016.571-.996l-.377-2.601a1.5 1.5 0 01-1.035-.772 646.546 646.546 0 00-15.606 2.488l-.17-.986c5.2-.896 10.411-1.727 15.631-2.495a1.5 1.5 0 011.17-1.177 1.5 1.5 0 011.628.77 652.747 652.747 0 0131.435-3.713 1.5 1.5 0 011.153-1.102 1.5 1.5 0 011.664.843 655.993 655.993 0 0122.973-1.645 1.5 1.5 0 011.139-1.05 1.5 1.5 0 011.689.902 658.214 658.214 0 0174.714.536 1.5 1.5 0 011.08-.885 1.5 1.5 0 011.748 1.073 656.58 656.58 0 0122.945 1.974 1.5 1.5 0 011.054-.828 1.5 1.5 0 011.761 1.125 652.717 652.717 0 0148.373 7.067 1.5 1.5 0 01.997-.72 1.5 1.5 0 011.77 1.17 1.5 1.5 0 01.013.068c2.36.446 4.72.905 7.075 1.378zm-9.308.152a1.5 1.5 0 01-.718-.997 1.5 1.5 0 01-.011-.065 651.722 651.722 0 00-48.3-7.057 1.5 1.5 0 01-1.003.808l-.277 2.618a648.59 648.59 0 0140.5 5.615 1.5 1.5 0 011.006-.736 1.5 1.5 0 011.77 1.169 1.5 1.5 0 01.01.05c2.182.383 4.363.777 6.541 1.182l.483-2.587zm-.666 3.57a644.95 644.95 0 00-6.53-1.178 1.5 1.5 0 01-1.005.733 1.5 1.5 0 01-.05.01l-.45 2.591c2.465.429 4.926.872 7.385 1.33l.65-3.485zm-.834 4.47c-2.454-.457-4.911-.9-7.37-1.327l-.605 3.492c2.444.426 4.886.865 7.325 1.319l.65-3.484zm-.833 4.466a635.411 635.411 0 00-7.312-1.317l-.606 3.495c2.425.422 4.847.858 7.267 1.309l.65-3.487zm-.835 4.468c-2.415-.449-4.833-.884-7.253-1.305l-.605 3.495c2.405.418 4.808.85 7.208 1.297l.65-3.487zm-.834 4.47a626.222 626.222 0 00-7.194-1.297l-.605 3.493c2.386.415 4.769.844 7.15 1.287l.65-3.484zm-5.235-18.48a1.5 1.5 0 01-.735-1.008 1.5 1.5 0 01-.008-.045 647.769 647.769 0 00-40.435-5.61l-.374 3.526a644.535 644.535 0 0131.812 4.2 1.5 1.5 0 011.019-.756 1.5 1.5 0 011.77 1.169 1.5 1.5 0 01.006.033c2.167.351 4.333.709 6.496 1.082zm4.401 22.948c-2.376-.442-4.755-.87-7.136-1.285l-.604 3.493c2.366.411 4.73.837 7.09 1.276l.65-3.484zm-5.02-19.37c-2.16-.373-4.322-.732-6.485-1.082a1.5 1.5 0 01-1.016.75 1.5 1.5 0 01-.03.007l-.415 2.596c2.45.393 4.896.8 7.34 1.222zm4.187 23.838a616.837 616.837 0 00-7.078-1.274l-.604 3.493c2.346.408 4.69.83 7.03 1.265l.652-3.484zm-4.962-19.362c-2.44-.42-4.883-.826-7.328-1.219l-.56 3.503c2.43.39 4.858.793 7.283 1.211zm4.127 23.83a612.709 612.709 0 00-7.018-1.263l-.605 3.493c2.327.405 4.651.824 6.973 1.256l.65-3.485zm-4.903-19.35c-2.42-.418-4.843-.82-7.268-1.21l-.56 3.503c2.41.386 4.818.787 7.224 1.202zm4.07 23.819a608.474 608.474 0 00-6.96-1.253l-.45 2.593a1.5 1.5 0 01.737 1.007 1.5 1.5 0 01.01.052c2.006.352 4.01.713 6.012 1.085l.651-3.484zm-4.844-19.34a627.222 627.222 0 00-7.21-1.2l-.56 3.5c2.391.384 4.78.781 7.165 1.193zm4.01 23.809a604.33 604.33 0 00-6.001-1.085 1.5 1.5 0 01-1.007.734 1.5 1.5 0 01-1.77-1.169 1.5 1.5 0 01-.01-.048 606.822 606.822 0 00-37.771-5.235l-.278 2.615a1.5 1.5 0 01.814 1.01 602.994 602.994 0 0144.471 6.497 1.5 1.5 0 01.999-.721 1.5 1.5 0 01.07-.013l.482-2.585zm-4.785-19.33c-2.382-.41-4.766-.807-7.152-1.19l-.558 3.5c2.37.38 4.739.775 7.105 1.183zm-5.419-18.398a1.5 1.5 0 01-.752-1.016 1.5 1.5 0 01-.005-.03 643.9 643.9 0 00-31.763-4.19l-.374 3.525c7.76.828 15.505 1.8 23.23 2.91a1.5 1.5 0 011.026-.771 1.5 1.5 0 011.77 1.168 1.5 1.5 0 01.003.012c2.152.32 4.303.646 6.451.987l.414-2.595zm4.643 22.877c-2.361-.407-4.726-.8-7.092-1.18l-.558 3.5c2.35.377 4.7.768 7.046 1.173zm-5.214-19.295c-2.145-.34-4.291-.668-6.439-.987a1.5 1.5 0 01-1.027.771 1.5 1.5 0 01-.01.003l-.38 2.6c2.434.358 4.866.73 7.296 1.116l.56-3.503zm4.44 23.774a613.578 613.578 0 00-7.034-1.17l-.415 2.6a1.5 1.5 0 01.753 1.016 1.5 1.5 0 01.006.032c2.03.329 4.058.666 6.085 1.015zm-5.156-19.285a633.096 633.096 0 00-7.284-1.113l-.513 3.509c2.415.354 4.827.723 7.238 1.106l.559-3.502zm4.38 23.764a609.856 609.856 0 00-6.074-1.012 1.5 1.5 0 01-1.015.75 1.5 1.5 0 01-1.77-1.169 1.5 1.5 0 01-.006-.027 611.99 611.99 0 00-30.103-3.972l-.374 3.524a608.038 608.038 0 0137.835 5.247 1.5 1.5 0 011.009-.738 1.5 1.5 0 01.05-.01zm-5.097-19.276c-2.406-.382-4.814-.75-7.225-1.104-.17 1.17-.342 2.338-.513 3.508 2.395.351 4.788.717 7.18 1.097l.558-3.501zm-.716 4.49a623.758 623.758 0 00-7.167-1.096l-.512 3.508c2.375.35 4.749.711 7.12 1.088l.559-3.5zm-.717 4.488a619.68 619.68 0 00-7.107-1.086l-.381 2.607a1.5 1.5 0 01.77 1.027 1.5 1.5 0 01.003.01c2.054.304 4.106.618 6.157.943l.558-3.5zm-.716 4.49a612.893 612.893 0 00-6.145-.94 1.5 1.5 0 01-1.025.768 1.5 1.5 0 01-1.77-1.169 1.5 1.5 0 01-.001-.009 617.903 617.903 0 00-22.3-2.793l-.375 3.525a613.17 613.17 0 0130.156 3.977 1.5 1.5 0 011.016-.752 1.5 1.5 0 01.03-.005l.415-2.602zm-4.884-22.803a1.5 1.5 0 01-.77-1.026 1.5 1.5 0 01-.002-.01 639.56 639.56 0 00-23.19-2.906l-.374 3.527a635.35 635.35 0 0114.746 1.748 1.5 1.5 0 011.036-.79 1.5 1.5 0 011.77 1.163c2.136.288 4.27.586 6.404.896l.38-2.603zm-.525 3.591c-2.13-.31-4.26-.606-6.393-.893a1.5 1.5 0 01-1.026.784l-.346 2.608c2.42.323 4.837.66 7.253 1.01l.512-3.509zm-.657 4.498c-2.41-.35-4.824-.687-7.239-1.009l-.466 3.515c2.4.32 4.797.653 7.193 1.001l.512-3.507zm-.657 4.498a625.38 625.38 0 00-7.18-1l-.346 2.609a1.5 1.5 0 01.786 1.029c2.077.28 4.153.569 6.227.87l.513-3.508zm-.657 4.498c-2.07-.3-4.143-.59-6.216-.87a1.5 1.5 0 01-1.034.786 1.5 1.5 0 01-1.769-1.158 620.096 620.096 0 00-14.364-1.703l-.374 3.525c7.462.796 14.91 1.73 22.339 2.798a1.5 1.5 0 011.026-.771 1.5 1.5 0 01.01-.003l.382-2.604zm-6.44-13.735a1.5 1.5 0 01-.784-1.023c-4.9-.639-9.808-1.224-14.722-1.748l-.277 2.615a1.5 1.5 0 01.814 1.012c1.82.197 3.638.402 5.456.615a1.5 1.5 0 011.046-.81 1.5 1.5 0 011.766 1.146c2.12.258 4.239.523 6.356.802l.346-2.609zm-.477 3.6c-2.114-.28-4.23-.545-6.346-.802a1.5 1.5 0 01-1.014.795l-.203 1.705a1.5 1.5 0 01.8 1.02c2.1.256 4.2.519 6.297.795l.466-3.514zm-.598 4.506a632.43 632.43 0 00-6.287-.794 1.5 1.5 0 01-1.042.8 1.5 1.5 0 01-1.763-1.135c-1.796-.21-3.593-.413-5.39-.608a1.5 1.5 0 01-1.003.808l-.278 2.618c4.803.512 9.6 1.084 14.39 1.708a1.5 1.5 0 011.027-.789l.346-2.608zm-7.755-4.632a1.5 1.5 0 01-.798-1.011 630.936 630.936 0 00-5.45-.612 1.5 1.5 0 01-1.05.817 1.5 1.5 0 01-1.758-1.115 632.701 632.701 0 00-22.023-1.896 1.5 1.5 0 01-1.073.868 1.5 1.5 0 01-1.742-1.051 634.391 634.391 0 00-30.392-1.212 1.5 1.5 0 01-1.1.934 1.5 1.5 0 01-1.717-.975 634.837 634.837 0 00-14.709-.001l.045 3.545c4.869-.057 9.738-.055 14.607 0a1.5 1.5 0 011.11-.963 1.5 1.5 0 011.727 1.005c10.07.16 20.135.562 30.186 1.204a1.5 1.5 0 011.082-.889 1.5 1.5 0 011.747 1.073c7.301.5 14.594 1.128 21.873 1.882a1.5 1.5 0 011.056-.828 1.5 1.5 0 011.76 1.127c1.8.194 3.6.397 5.398.607a1.5 1.5 0 011.018-.804l.203-1.705zM204.338 26.5a1.5 1.5 0 01-.81-1 655.677 655.677 0 00-22.916-1.97 1.5 1.5 0 01-.967.841l-.175 2.634c5.057.338 10.11.736 15.159 1.192a1.5 1.5 0 011.063-.846 1.5 1.5 0 011.757 1.107c2.205.21 4.41.429 6.612.66l.277-2.618zm-.383 3.614c-2.2-.232-4.4-.45-6.603-.659a1.5 1.5 0 01-.99.82l-.244 2.623c2.49.232 4.977.48 7.464.74l.373-3.524zm-.479 4.52a645.74 645.74 0 00-7.451-.74l-.328 3.53c2.47.23 4.939.476 7.405.735l.374-3.525zm-.479 4.518a641.54 641.54 0 00-7.392-.733c-.08.873-.162 1.745-.243 2.618a1.5 1.5 0 01.827 1c2.146.204 4.29.417 6.434.642l.374-3.527zm-.479 4.521c-2.14-.225-4.282-.438-6.426-.641a1.5 1.5 0 01-1.058.836 1.5 1.5 0 01-1.754-1.097 639.149 639.149 0 00-14.78-1.163l-.173 2.619a1.5 1.5 0 01.854.984c7.36.503 14.713 1.135 22.051 1.895a1.5 1.5 0 011.009-.818l.277-2.615zm-1.056 9.948a1.5 1.5 0 01-.811-1 628.366 628.366 0 00-21.845-1.878 1.5 1.5 0 01-.968.841l-.175 2.633c4.82.323 9.635.701 14.446 1.136a1.5 1.5 0 011.062-.846 1.5 1.5 0 011.757 1.107c2.086.198 4.172.406 6.257.625l.277-2.618zm-.383 3.612a621.779 621.779 0 00-6.248-.622 1.5 1.5 0 01-.991.82l-.243 2.622c2.37.222 4.74.457 7.108.706l.374-3.526zm-5.714-27.05a1.5 1.5 0 01-.824-.986 651.15 651.15 0 00-15.138-1.194l-.174 2.618a1.5 1.5 0 01.854.983c1.885.128 3.769.266 5.652.412a1.5 1.5 0 011.074-.869 1.5 1.5 0 011.752 1.093c2.188.179 4.375.366 6.56.567l.244-2.625zm-.336 3.62c-2.184-.2-4.369-.387-6.554-.566a1.5 1.5 0 01-.98.83l-.135 1.711a1.5 1.5 0 01.84.993c2.168.177 4.335.363 6.501.562l.328-3.53zm5.57 27.951a618.49 618.49 0 00-7.095-.704l-.327 3.53c2.35.22 4.7.452 7.048.699l.374-3.525zm-5.99-23.426a642.04 642.04 0 00-6.494-.56 1.5 1.5 0 01-1.066.85 1.5 1.5 0 01-1.746-1.074 639.13 639.13 0 00-5.593-.408 1.5 1.5 0 01-.969.842l-.175 2.633a638.1 638.1 0 0114.801 1.167 1.5 1.5 0 01.999-.834l.243-2.616zm5.511 27.946c-2.344-.246-4.69-.48-7.036-.699l-.242 2.617a1.5 1.5 0 01.826 1.001c2.027.193 4.053.393 6.078.606l.374-3.525zm-.48 4.52a604.022 604.022 0 00-6.069-.606 1.5 1.5 0 01-1.058.836 1.5 1.5 0 01-1.753-1.096 612.457 612.457 0 00-14.065-1.106l-.175 2.618a1.5 1.5 0 01.854.982 606.57 606.57 0 0120.981 1.804 1.5 1.5 0 011.008-.817l.277-2.615zm-6.797-13.456a1.5 1.5 0 01-.822-.986 623.669 623.669 0 00-14.424-1.137l-.174 2.618a1.5 1.5 0 01.855.983c1.765.12 3.53.25 5.294.386a1.5 1.5 0 011.073-.868 1.5 1.5 0 011.753 1.093c2.068.169 4.136.346 6.202.535l.244-2.624zm-.335 3.621c-2.065-.19-4.13-.367-6.196-.536a1.5 1.5 0 01-.98.83l-.137 1.712a1.5 1.5 0 01.842.992c2.049.168 4.097.344 6.144.532l.327-3.53zm-6.01-26.972a1.5 1.5 0 01-.835-.974 648.973 648.973 0 00-5.653-.412 1.5 1.5 0 01-1.072.867 1.5 1.5 0 01-1.742-1.053 637.57 637.57 0 00-5.658-.338 1.5 1.5 0 01-1.08.885 1.5 1.5 0 01-1.736-1.034 645.834 645.834 0 00-5.663-.262 1.5 1.5 0 01-.944.863l-.07 1.717a1.5 1.5 0 01.88.961c1.868.08 3.734.165 5.6.26a1.5 1.5 0 011.09-.906 1.5 1.5 0 011.742 1.056c1.866.103 3.732.214 5.597.333a1.5 1.5 0 011.08-.886 1.5 1.5 0 011.748 1.074c1.865.127 3.73.264 5.593.408a1.5 1.5 0 01.987-.848l.136-1.712zm5.59 31.497c-2.045-.187-4.09-.362-6.137-.53a1.5 1.5 0 01-1.065.85 1.5 1.5 0 01-1.747-1.072c-1.745-.135-3.49-.262-5.236-.382a1.5 1.5 0 01-.967.84l-.175 2.633c4.7.315 9.395.687 14.086 1.11a1.5 1.5 0 01.999-.833l.242-2.616zm-13.442-41.178a1.5 1.5 0 01-.849-.963 657.208 657.208 0 00-74.607-.532 1.5 1.5 0 01-.863.95l.137 2.633a653.747 653.747 0 0166.545-.008 1.5 1.5 0 011.088-.903 1.5 1.5 0 011.743 1.057c2.21.122 4.422.252 6.631.396l.175-2.63zm-.24 3.629a649.126 649.126 0 00-6.627-.398 1.5 1.5 0 01-.956.854l-.091 1.715a1.5 1.5 0 01.866.971c1.886.104 3.772.217 5.657.338a1.5 1.5 0 01.976-.86l.174-2.62zm5.929 33.238a1.5 1.5 0 01-.836-.974c-1.764-.136-3.529-.265-5.295-.386a1.5 1.5 0 01-1.072.868 1.5 1.5 0 01-1.742-1.054 583.506 583.506 0 00-5.3-.316 1.5 1.5 0 01-1.08.885 1.5 1.5 0 01-1.737-1.034c-1.767-.09-3.535-.171-5.304-.246a1.5 1.5 0 01-.945.865l-.07 1.716a1.5 1.5 0 01.881.961c1.748.074 3.495.154 5.242.243a1.5 1.5 0 011.09-.905 1.5 1.5 0 011.742 1.055c1.747.097 3.493.201 5.239.313a1.5 1.5 0 011.08-.886 1.5 1.5 0 011.748 1.073c1.746.12 3.491.247 5.236.382a1.5 1.5 0 01.987-.847l.136-1.712zm-6.591-23.26a1.5 1.5 0 01-.85-.966c-1.865-.12-3.73-.23-5.596-.333a1.5 1.5 0 01-.959.857l-.09 1.713a1.5 1.5 0 01.867.972c2.152.12 4.303.247 6.453.387l.175-2.63zm-.241 3.627a622.74 622.74 0 00-6.448-.386 1.5 1.5 0 01-1.08.885 1.5 1.5 0 01-1.737-1.034c-4.633-.236-9.269-.42-13.906-.555a1.5 1.5 0 01-1.095.92 1.5 1.5 0 01-1.723-.995 641.155 641.155 0 00-6.458-.13l-.036 2.624a1.5 1.5 0 01.906.94c10.15.16 20.295.565 30.425 1.213a1.5 1.5 0 01.977-.86l.175-2.622zm-.663 9.978a1.5 1.5 0 01-.849-.963 629.782 629.782 0 00-30.15-1.203 1.5 1.5 0 01-.922.889l-.036 2.64c2.094.03 4.188.074 6.282.125a1.5 1.5 0 011.105-.944 1.5 1.5 0 011.731 1.02c4.522.131 9.042.311 13.56.54a1.5 1.5 0 011.088-.904 1.5 1.5 0 011.742 1.055c2.092.115 4.184.239 6.275.376.057-.877.116-1.754.174-2.63zm-.24 3.629a623.5 623.5 0 00-6.268-.376 1.5 1.5 0 01-.958.855l-.091 1.714a1.5 1.5 0 01.867.97c1.766.099 3.533.204 5.3.317a1.5 1.5 0 01.976-.86l.174-2.62zm-6.777-26.81a1.5 1.5 0 01-.86-.947 652.644 652.644 0 00-66.447.004l.184 3.54a649.067 649.067 0 0157.573-.381 1.5 1.5 0 011.097-.926 1.5 1.5 0 011.738 1.04c1.887.08 3.773.166 5.658.262a1.5 1.5 0 01.966-.876l.091-1.715zm6.114 36.788a1.5 1.5 0 01-.85-.964 608.032 608.032 0 00-5.238-.312 1.5 1.5 0 01-.957.855l-.09 1.715a1.5 1.5 0 01.865.97c2.032.113 4.064.233 6.096.366l.174-2.63zm-6.596-27.708a1.5 1.5 0 01-.86-.95 639.85 639.85 0 00-5.604-.26 1.5 1.5 0 01-1.087.9 1.5 1.5 0 01-1.73-1.012 642.6 642.6 0 00-5.607-.188 1.5 1.5 0 01-.933.877l-.046 1.716a1.5 1.5 0 01.894.953c4.64.134 9.28.32 13.915.555a1.5 1.5 0 01.968-.877l.09-1.714zm-.965 18.156a1.5 1.5 0 01-.86-.95c-4.515-.229-9.032-.409-13.55-.54a1.5 1.5 0 01-.933.876l-.046 1.717a1.5 1.5 0 01.892.95c1.768.052 3.536.111 5.303.178a1.5 1.5 0 011.098-.926 1.5 1.5 0 011.738 1.04c1.767.074 3.534.155 5.3.245a1.5 1.5 0 01.967-.876l.091-1.714zm-7.26-23.083a1.5 1.5 0 01-.874-.937 648.036 648.036 0 00-57.49.38l.184 3.54a643.723 643.723 0 0123.394-.767 1.5 1.5 0 011.124-1 1.5 1.5 0 011.713.964c1.868-.019 3.736-.03 5.605-.033a1.5 1.5 0 011.117-.981 1.5 1.5 0 011.72.984c1.868.005 3.737.017 5.605.038a1.5 1.5 0 011.11-.962 1.5 1.5 0 011.726 1.001c1.868.03 3.736.07 5.603.115a1.5 1.5 0 011.105-.945 1.5 1.5 0 011.731 1.02c1.868.055 3.735.117 5.602.188a1.5 1.5 0 01.956-.89l.069-1.715zm-8.596 4.266a1.5 1.5 0 01-.884-.926 642.41 642.41 0 00-5.609-.113 1.5 1.5 0 01-.921.889l-.036 2.641c2.154.031 4.308.076 6.462.129a1.5 1.5 0 01.942-.902l.046-1.718zm-.487 18.176a1.5 1.5 0 01-.886-.926 626.735 626.735 0 00-6.278-.124l-.035 2.622a1.5 1.5 0 01.904.938c1.769.028 3.538.063 5.306.107a1.5 1.5 0 01.943-.9l.046-1.717zm-7.927-18.34a1.5 1.5 0 01-.898-.914c-1.87-.022-3.739-.035-5.609-.04a1.5 1.5 0 01-.91.901v1.718a1.5 1.5 0 01.917.927c2.155.006 4.31.021 6.463.05l.037-2.642zm-.05 3.64a631.237 631.237 0 00-6.46-.047 1.5 1.5 0 01-1.108.955 1.5 1.5 0 01-1.71-.957c-2.153.004-4.307.016-6.46.04l.045 3.547c4.908-.057 9.817-.057 14.726 0a1.5 1.5 0 01.931-.916l.036-2.622zm-.137 9.995a1.5 1.5 0 01-.897-.914 630.819 630.819 0 00-14.59 0l.046 3.546c2.094-.024 4.188-.036 6.283-.04a1.5 1.5 0 011.117-.981 1.5 1.5 0 011.72.983c2.095.006 4.19.02 6.285.046l.036-2.64zm-.05 3.641a625.625 625.625 0 00-6.28-.047 1.5 1.5 0 01-.91.9l-.001 1.718a1.5 1.5 0 01.918.926c1.769.005 3.537.018 5.306.038a1.5 1.5 0 01.932-.914l.035-2.621zm-8.18-17.33a1.5 1.5 0 01-.91-.9c-1.869.002-3.739.013-5.608.033a1.5 1.5 0 01-.9.913l.034 2.64c2.155-.024 4.31-.036 6.464-.04a1.5 1.5 0 01.92-.928v-1.717zm-.01 18.183a1.5 1.5 0 01-.909-.901c-2.093.003-4.186.015-6.28.04l.033 2.621a1.5 1.5 0 01.93.915c1.768-.018 3.537-.029 5.305-.031a1.5 1.5 0 01.92-.927V54.72zm-8.406-18.125a1.5 1.5 0 01-.922-.89v-.001a642.97 642.97 0 00-23.362.766l.184 3.542c4.943-.252 9.888-.447 14.835-.585a1.5 1.5 0 011.129-1.017 1.5 1.5 0 011.706.945c2.154-.05 4.308-.09 6.463-.12l-.033-2.64zm.046 3.64c-2.153.028-4.306.07-6.459.12a1.5 1.5 0 01-.887.926l.069 2.64c2.44-.061 4.88-.108 7.322-.14l-.045-3.546zm.057 4.545c-2.436.032-4.872.078-7.308.139l.091 3.544c2.42-.06 4.84-.106 7.262-.138l-.045-3.545zm.057 4.545c-2.416.032-4.832.078-7.248.137l.068 2.624a1.5 1.5 0 01.94.901c2.095-.049 4.19-.09 6.285-.117l-.045-3.545zm-8.458-8.018a1.5 1.5 0 01-.934-.882c-4.941.138-9.88.332-14.816.584l.137 2.623a1.5 1.5 0 01.964.875c1.827-.09 3.654-.173 5.481-.248a1.5 1.5 0 011.135-1.036 1.5 1.5 0 011.699.926 622.78 622.78 0 016.401-.205l-.067-2.637zm.093 3.636a634.93 634.93 0 00-6.395.202 1.5 1.5 0 01-.875.941l.067 1.716a1.5 1.5 0 01.952.887c2.113-.077 4.228-.146 6.342-.202l-.091-3.544zm-17.74-21.131a1.5 1.5 0 01-.956-.856c-7.655.413-15.303.96-22.94 1.641a1.5 1.5 0 01-.825.99l.24 2.621a649.859 649.859 0 0115.159-1.196 1.5 1.5 0 011.144-1.068 1.5 1.5 0 011.682.885 654.47 654.47 0 016.634-.384l-.137-2.633zm.19 3.633c-2.21.116-4.418.245-6.626.384a1.5 1.5 0 01-.85.963l.171 2.63a647.38 647.38 0 017.49-.438l-.185-3.54zm.237 4.539c-2.493.131-4.986.277-7.477.437l.231 3.537c2.476-.16 4.952-.304 7.43-.434l-.184-3.54zm.236 4.538c-2.473.13-4.945.275-7.417.434l.172 2.621a1.5 1.5 0 01.975.862 637.13 637.13 0 016.454-.375l-.184-3.542zm.237 4.54c-2.15.113-4.3.237-6.448.372a1.5 1.5 0 01-1.141 1.056 1.5 1.5 0 01-1.677-.873c-4.931.33-9.858.719-14.78 1.165l.24 2.622a1.5 1.5 0 01.996.83 633.278 633.278 0 0122.077-1.58 1.5 1.5 0 01.87-.97l-.137-2.622zm-9.184-12.205a1.5 1.5 0 01-.969-.846c-5.05.34-10.096.736-15.137 1.193l.24 2.62a1.5 1.5 0 01.995.83c1.883-.168 3.766-.327 5.65-.479a1.5 1.5 0 011.15-1.087 1.5 1.5 0 011.673.866 647.26 647.26 0 016.57-.468l-.172-2.629zm.236 3.627c-2.187.144-4.373.301-6.56.467a1.5 1.5 0 01-.839.978l.135 1.711a1.5 1.5 0 01.985.845c2.17-.165 4.339-.32 6.51-.464l-.23-3.537zm.296 4.535c-2.168.143-4.334.3-6.5.464a1.5 1.5 0 01-1.146 1.076 1.5 1.5 0 01-1.67-.856c-1.862.15-3.723.308-5.584.474a1.5 1.5 0 01-.826.99l.24 2.621c4.93-.447 9.865-.834 14.803-1.166a1.5 1.5 0 01.853-.98l-.17-2.623zm-8.691-3.013a1.5 1.5 0 01-.98-.835c-1.882.151-3.763.31-5.642.478a1.5 1.5 0 01-1.153 1.099 1.5 1.5 0 01-1.663-.841c-1.879.176-3.757.36-5.634.553a1.5 1.5 0 01-1.158 1.118 1.5 1.5 0 01-1.654-.823c-1.876.201-3.752.411-5.626.628a1.5 1.5 0 01-.8 1.013l.2 1.706a1.5 1.5 0 011.016.8c1.859-.215 3.719-.423 5.58-.622a1.5 1.5 0 011.157-1.12 1.5 1.5 0 011.655.825c1.861-.191 3.724-.374 5.587-.549a1.5 1.5 0 011.153-1.1 1.5 1.5 0 011.664.843c1.863-.167 3.727-.324 5.592-.474a1.5 1.5 0 01.84-.986zM75.61 25.68a1.5 1.5 0 01-.992-.822 651.735 651.735 0 00-31.385 3.707 1.5 1.5 0 01-.773 1.034l.377 2.602c2.193-.316 4.388-.618 6.584-.912a1.5 1.5 0 011.167-1.16 1.5 1.5 0 011.638.79c4.725-.61 9.457-1.17 14.194-1.676a1.5 1.5 0 011.159-1.123 1.5 1.5 0 011.656.829 651.07 651.07 0 016.614-.648l-.24-2.62zm.33 3.617c-2.202.204-4.403.42-6.603.646a1.5 1.5 0 01-.813 1l.18 1.709a1.5 1.5 0 011.005.816 644.8 644.8 0 015.644-.554 1.5 1.5 0 01.827-.998l-.24-2.619zm.915 9.962a1.5 1.5 0 01-.993-.823c-1.86.174-3.718.357-5.576.547a1.5 1.5 0 01-.813 1.002l.18 1.708a1.5 1.5 0 011.006.818c2.144-.22 4.29-.431 6.436-.63l-.24-2.622zm.331 3.617c-2.143.197-4.285.41-6.426.629a1.5 1.5 0 01-1.157 1.116 1.5 1.5 0 01-1.653-.822 633.718 633.718 0 00-13.816 1.632 1.5 1.5 0 01-1.166 1.157 1.5 1.5 0 01-1.636-.788c-2.133.286-4.266.58-6.396.887l.378 2.605a1.5 1.5 0 011.038.777 630.142 630.142 0 0130.246-3.574 1.5 1.5 0 01.828-1l-.24-2.62zM67.53 31.047a1.5 1.5 0 01-1.002-.811c-4.73.506-9.454 1.062-14.172 1.672a1.5 1.5 0 01-.786 1.026l.224 1.703a1.5 1.5 0 011.025.786c1.875-.242 3.752-.476 5.63-.702a1.5 1.5 0 011.162-1.14 1.5 1.5 0 011.647.809c1.879-.218 3.758-.428 5.638-.629a1.5 1.5 0 01.813-1.006l-.18-1.708zm.95 9.041a1.5 1.5 0 01-1.004-.812c-1.857.199-3.713.406-5.567.62a1.5 1.5 0 01-1.163 1.139 1.5 1.5 0 01-1.645-.807c-1.854.223-3.707.454-5.559.693a1.5 1.5 0 01-.786 1.026l.223 1.703a1.5 1.5 0 011.027.787c4.606-.595 9.22-1.138 13.838-1.633a1.5 1.5 0 01.814-1.008l-.178-1.708zm-17.901-7.024a1.5 1.5 0 01-1.026-.785c-2.192.293-4.383.596-6.571.911l.377 2.607a1.5 1.5 0 011.036.774c1.872-.268 3.746-.527 5.62-.777a1.5 1.5 0 01.788-1.027l-.224-1.703zm1.185 9.013a1.5 1.5 0 01-1.025-.785c-1.85.248-3.7.503-5.549.767a1.5 1.5 0 01-.773 1.035l.377 2.603a636.75 636.75 0 016.407-.889 1.5 1.5 0 01.787-1.028l-.224-1.703zm-9.772-8.742c-2.188.319-4.375.65-6.56.993a1.5 1.5 0 01-.76 1.042l.27 1.697a1.5 1.5 0 011.046.762c1.868-.292 3.737-.576 5.608-.852a1.5 1.5 0 01.773-1.037zm1.435 9.902a1.5 1.5 0 01-1.034-.771c-1.848.272-3.694.552-5.539.84a1.5 1.5 0 01-.76 1.044l.27 1.696a1.5 1.5 0 011.047.764c2.13-.333 4.261-.658 6.394-.97zm-24.315 1.162l1.204 6.525c-.749.138-1.497.277-2.245.418l-.22-1.163 1.136-.213-.264-1.416c-1.797.335-3.592.677-5.386 1.028l.176.9-1.038.203-.623-3.16 1.044-.205.174.89c1.798-.352 3.597-.695 5.398-1.03l-.262-1.405-1.142.214-.22-1.164a635.65 635.65 0 012.269-.422zm2.175 11.083c.202 1.098.003 2.082-.593 2.952-.587.876-1.412 1.414-2.476 1.617-1.093.208-2.085.016-2.982-.577-.888-.586-1.442-1.427-1.658-2.522-.216-1.096-.023-2.087.585-2.974.616-.88 1.478-1.429 2.585-1.64 1.078-.205 2.053-.007 2.922.59.877.604 1.415 1.456 1.617 2.554zm.804 5.064l.447 2.423a591.08 591.08 0 00-3.846 2.437l-.576.296.003.02c.173.004.388.028.647.072 1.487.283 2.971.573 4.453.867l.447 2.423-1.018.19-.166-.893c-1.734.471-3.466.95-5.194 1.436l.172.88-1.006.196-.599-3.045 1.01-.198.162.827c1.21-.33 2.423-.657 3.636-.98l.687-.097c-.002-.01-.005-.02-.006-.031a4.513 4.513 0 01-.684-.057c-1.214-.262-2.43-.521-3.648-.776l-.228-1.173a587.564 587.564 0 013.116-2.075l.623-.29a.566.566 0 00-.009-.043l-.68.16a623.39 623.39 0 00-3.768.443l.163.837-1.016.199-.601-3.056 1.02-.2.172.88c1.807-.201 3.615-.394 5.422-.578l-.168-.902 1.033-.191zm-2.013-4.84c-.127-.678-.486-1.208-1.081-1.588-.588-.382-1.249-.504-1.98-.365-.766.146-1.364.508-1.79 1.083-.428.575-.575 1.202-.443 1.88.133.677.504 1.201 1.112 1.576.609.375 1.292.49 2.052.344.725-.138 1.29-.49 1.698-1.058.413-.57.558-1.193.432-1.872zm-5.165-20.708a1.5 1.5 0 01.005.025 1.5 1.5 0 01-.713 1.597l.321 1.686a1.5 1.5 0 011.244 1.182 1.5 1.5 0 01-1.169 1.77 1.5 1.5 0 01-1.77-1.168 1.5 1.5 0 01.713-1.597l-.322-1.687a1.5 1.5 0 01-1.243-1.18 1.5 1.5 0 011.169-1.771 1.5 1.5 0 011.765 1.143zm7.662 40.181a1.5 1.5 0 01.006.025 1.5 1.5 0 01-.714 1.597l.321 1.686a1.5 1.5 0 011.244 1.182 1.5 1.5 0 01-1.169 1.77 1.5 1.5 0 01-1.77-1.168 1.5 1.5 0 01.713-1.596l-.322-1.687a1.5 1.5 0 01-1.243-1.182 1.5 1.5 0 011.169-1.77 1.5 1.5 0 011.765 1.143z"/>
</svg>
