<svg xmlns="http://www.w3.org/2000/svg" viewBox="0 0 275.108 102.297">
  <path d="M275.108 14.031C184.68-4.729 90.408-4.676 0 14.183l18.333 88.114c78.39-16.353 160.132-16.399 238.54-.133 6.08-29.377 12.157-58.755 18.235-88.133zm-10.372 19.33l-.195.98a652.532 652.532 0 00-83.9-10.95 1.5 1.5 0 01-.965.845l-.166 2.633c2.21.141 4.419.298 6.627.461a1.5 1.5 0 011.072-.874 1.5 1.5 0 011.757 1.09c1.903.148 3.805.305 5.706.47a1.5 1.5 0 011.063-.852 1.5 1.5 0 011.761 1.108 652 652 0 015.7.547 1.5 1.5 0 011.054-.835 1.5 1.5 0 011.764 1.119 647.26 647.26 0 0157.842 8.717l-.193.98a646.436 646.436 0 00-57.755-8.701 1.5 1.5 0 01-1 .81l-.27 2.62c2.184.226 4.367.465 6.548.714a1.5 1.5 0 011.043-.813 1.5 1.5 0 011.77 1.138 1.5 1.5 0 010 .002c1.877.222 3.753.45 5.628.689a1.5 1.5 0 011.034-.793 1.5 1.5 0 011.77 1.138 1.5 1.5 0 01.003.018c1.875.247 3.748.503 5.62.766a1.5 1.5 0 011.025-.775 1.5 1.5 0 011.769 1.138 1.5 1.5 0 01.006.025 1.5 1.5 0 01.002.011 640.863 640.863 0 0132.124 5.494l-.195.98a640.26 640.26 0 00-32.071-5.485 1.5 1.5 0 01-1.025.774 1.5 1.5 0 01-.01.002l-.372 2.6c2.154.31 4.306.633 6.457.965a1.5 1.5 0 011.014-.756 1.5 1.5 0 011.769 1.138 1.5 1.5 0 01.006.025 1.5 1.5 0 01.005.029c1.848.293 3.695.595 5.54.904a1.5 1.5 0 011.006-.738 1.5 1.5 0 011.769 1.138 1.5 1.5 0 01.006.024 1.5 1.5 0 01.009.05c1.844.317 3.687.643 5.528.977a1.5 1.5 0 01.995-.723 1.5 1.5 0 011.769 1.138 1.5 1.5 0 01.006.026 1.5 1.5 0 01.013.07c2.303.427 4.604.866 6.902 1.32l-.192.981c-2.295-.453-4.592-.89-6.892-1.316a1.5 1.5 0 01-.994.719 1.5 1.5 0 01-.069.012l-.474 2.587c2.584.476 5.166.968 7.744 1.477l-.195.982c-2.573-.508-5.15-.999-7.73-1.474l-.639 3.486c2.564.473 5.126.96 7.684 1.466l-.192.981a624.872 624.872 0 00-7.672-1.463l-.64 3.488c2.545.469 5.087.953 7.625 1.454l-.193.981c-2.534-.5-5.072-.983-7.612-1.451l-.475 2.588a1.5 1.5 0 01.717.97 1.5 1.5 0 01.006.025 1.5 1.5 0 01.013.072c2.224.414 4.447.836 6.667 1.274l-.193.982a601.25 601.25 0 00-6.657-1.272 1.5 1.5 0 01-.994.718 1.5 1.5 0 01-1.774-1.162 1.5 1.5 0 01-.011-.065c-2.06-.373-4.12-.738-6.182-1.09l-.594 3.495a613.033 613.033 0 0115.526 2.855l-.193.98a612.066 612.066 0 00-15.5-2.85c-.199 1.165-.396 2.33-.594 3.496 5.148.88 10.285 1.822 15.41 2.834l-.194.98a607.482 607.482 0 00-15.384-2.83l-.594 3.498a604.058 604.058 0 0115.292 2.811l-.193.98a602.992 602.992 0 00-15.266-2.807l-.354 2.086a2 2 0 011.176 1.652c4.596.796 9.183 1.646 13.76 2.55l-.194.98a598.41 598.41 0 00-13.737-2.546 2 2 0 01-1.413 1.143 2.008 2.008 0 01-2.366-1.55 1.987 1.987 0 01-.032-.24 605.547 605.547 0 00-107.518-8.154 1.5 1.5 0 01-1.112.98 1.5 1.5 0 01-1.707-.936 603.532 603.532 0 00-93.477 8.969l-.176-.986a604.5 604.5 0 0193.626-8.981 1.5 1.5 0 01.903-.94l-.04-2.624c-2.033.033-4.066.077-6.098.13a1.5 1.5 0 01-1.12 1.002 1.5 1.5 0 01-1.702-.92 607.602 607.602 0 00-86.18 8.84l-.173-.984a608.656 608.656 0 0186.318-8.853 1.5 1.5 0 01.89-.95l-.075-2.626c-2.052.06-4.104.134-6.156.215a1.5 1.5 0 01-1.125 1.02 1.5 1.5 0 01-1.694-.898 611.796 611.796 0 00-78.771 8.599l-.173-.984a612.794 612.794 0 0178.894-8.614 1.5 1.5 0 01.88-.964l-.072-1.714a1.5 1.5 0 01-.949-.866c-1.768.079-3.535.164-5.302.257a1.5 1.5 0 01-1.132 1.038 1.5 1.5 0 01-1.685-.883 615.795 615.795 0 00-71.245 8.252l-.173-.985a616.8 616.8 0 0171.356-8.265 1.5 1.5 0 01.865-.972l-.145-2.622a620.407 620.407 0 00-72.687 8.367l-.173-.985a621.426 621.426 0 0172.805-8.38l-.195-3.54a624.936 624.936 0 00-73.22 8.428l-.174-.985a625.95 625.95 0 0173.338-8.442l-.195-3.54c-2.13.12-4.258.253-6.387.394a1.5 1.5 0 01-1.136 1.055 1.5 1.5 0 01-1.68-.867A628.81 628.81 0 0028.81 54.2l-.173-.985a629.942 629.942 0 0164.65-7.92 1.5 1.5 0 01.852-.981l-.179-2.622c-2.147.148-4.294.31-6.44.48a1.5 1.5 0 01-1.143 1.079 1.5 1.5 0 01-1.672-.85 632.877 632.877 0 00-56.681 7.322l-.173-.985c18.8-3.301 37.75-5.744 56.77-7.335a1.5 1.5 0 01.838-.99l-.214-2.62a641.65 641.65 0 00-6.491.568 1.5 1.5 0 01-1.15 1.1 1.5 1.5 0 01-1.664-.832c-1.858.18-3.717.366-5.574.562a1.5 1.5 0 01-1.153 1.122 1.5 1.5 0 01-1.657-.818c-1.856.205-3.712.419-5.566.64a1.5 1.5 0 01-1.158 1.14 1.5 1.5 0 01-1.648-.801c-1.854.229-3.705.467-5.557.712a1.5 1.5 0 01-1.161 1.161 1.5 1.5 0 01-1.64-.783c-1.85.254-3.699.513-5.546.782a1.5 1.5 0 01-1.167 1.183 1.5 1.5 0 01-1.63-.766c-1.847.278-3.692.564-5.536.858a1.5 1.5 0 01-1.17 1.2 1.5 1.5 0 01-1.62-.75c-2.308.38-4.614.77-6.917 1.175l-.174-.985c2.308-.406 4.618-.795 6.93-1.174a1.5 1.5 0 01.757-1.052l-.274-1.694a1.5 1.5 0 01-1.047-.753c-2.328.381-4.653.773-6.976 1.18l-.173-.985c2.326-.408 4.656-.8 6.987-1.182a1.5 1.5 0 011.17-1.205 1.5 1.5 0 011.625.753c2.168-.346 4.337-.683 6.509-1.007l-.387-2.602a1.5 1.5 0 01-1.036-.767c-5.17.778-10.33 1.615-15.48 2.519l-.172-.986a641.328 641.328 0 0115.504-2.525 1.5 1.5 0 011.166-1.182 1.5 1.5 0 011.632.767c2.193-.32 4.386-.63 6.582-.927l-.351-2.606a1.5 1.5 0 01-1.028-.784 648.252 648.252 0 00-24.116 3.764l-.173-.984a649.62 649.62 0 0124.155-3.77 1.5 1.5 0 011.162-1.163 1.5 1.5 0 011.642.784 653.834 653.834 0 0131.467-3.398 1.5 1.5 0 011.146-1.09 1.5 1.5 0 011.677.86 657.218 657.218 0 0140.219-1.951 1.5 1.5 0 011.119-1 1.5 1.5 0 011.715.957c10.549-.142 21.1-.031 31.644.334a1.5 1.5 0 011.093-.928 1.5 1.5 0 011.74 1.03c1.927.075 3.854.16 5.78.253a1.5 1.5 0 011.086-.91 1.5 1.5 0 011.746 1.05c1.927.1 3.852.21 5.777.327a1.5 1.5 0 011.078-.89 1.5 1.5 0 011.75 1.069 653.513 653.513 0 0184.025 10.967zm-11.767 13.593a1.5 1.5 0 01-.722-.995 1.5 1.5 0 01-.011-.065 634.577 634.577 0 00-5.517-.976 1.5 1.5 0 01-1.004.737 1.5 1.5 0 01-.05.01l-.44 2.592c2.426.414 4.849.842 7.27 1.285l.474-2.588zm-.655 3.573c-2.417-.442-4.836-.87-7.258-1.283l-.593 3.495c2.406.41 4.81.835 7.211 1.274l.64-3.486zm-.82 4.47a626.003 626.003 0 00-7.199-1.272l-.593 3.495c2.387.408 4.771.83 7.153 1.265l.64-3.488zm-.82 4.472a622.268 622.268 0 00-7.14-1.262l-.593 3.494c2.066.353 4.13.719 6.193 1.092a1.5 1.5 0 01.997-.724 1.5 1.5 0 01.069-.013l.474-2.587zm-5.996-13.972a1.5 1.5 0 01-.738-1.005 1.5 1.5 0 01-.009-.048c-1.841-.308-3.684-.61-5.528-.902a1.5 1.5 0 01-1.014.755 1.5 1.5 0 01-.03.006l-.406 2.597c2.43.382 4.859.78 7.285 1.19l.44-2.593zm-.608 3.58c-2.421-.41-4.845-.806-7.272-1.188l-.547 3.503c2.411.379 4.82.772 7.226 1.179l.593-3.495zm-.76 4.48a627.251 627.251 0 00-7.213-1.177l-.548 3.503c2.391.376 4.78.766 7.167 1.17l.594-3.496zm-.761 4.482a623.252 623.252 0 00-7.155-1.167l-.406 2.601a1.5 1.5 0 01.75.99 1.5 1.5 0 01.006.024 1.5 1.5 0 01.006.031c2.07.329 4.139.666 6.206 1.016l.593-3.495zm-.761 4.48a617.031 617.031 0 00-6.194-1.013 1.5 1.5 0 01-1.013.755 1.5 1.5 0 01-1.775-1.163 1.5 1.5 0 01-.005-.029 621.187 621.187 0 00-14.322-2.035l-.455 3.516a616.078 616.078 0 0123.17 3.466l.594-3.496zm-5.417-18.37a1.5 1.5 0 01-.756-1.015 1.5 1.5 0 01-.006-.03c-2.146-.33-4.294-.653-6.444-.961l-.502 3.509c2.436.35 4.87.713 7.302 1.092l.406-2.595zM241.027 67c-7.688-1.3-15.4-2.453-23.132-3.46l-.455 3.517a611.54 611.54 0 0122.993 3.44l.594-3.497zm-5.216-19.267c-2.428-.378-4.857-.741-7.29-1.09-.166 1.17-.334 2.339-.501 3.509 2.416.347 4.83.708 7.243 1.083l.548-3.502zm4.455 23.748a610.543 610.543 0 00-22.955-3.433l-.338 2.61a1.5 1.5 0 01.786 1.009 1.5 1.5 0 01.004.019 606.975 606.975 0 0121.91 3.293l.593-3.498zm-5.158-19.257a628.614 628.614 0 00-7.23-1.081l-.372 2.607a1.5 1.5 0 01.77 1 1.5 1.5 0 01.005.024 1.5 1.5 0 01.002.01c2.094.305 4.187.618 6.278.943l.548-3.503zm4.397 23.739a605.968 605.968 0 00-21.873-3.286 1.5 1.5 0 01-1.03.788 1.5 1.5 0 01-1.773-1.152 610.913 610.913 0 00-85.998-4.795l.041 2.623a1.5 1.5 0 01.933.913 606.532 606.532 0 01107.694 8.168 2 2 0 011.653-1.176l.353-2.083zm-5.1-19.248a614.275 614.275 0 00-6.266-.938 1.5 1.5 0 01-1.022.771 1.5 1.5 0 01-1.774-1.162 1.5 1.5 0 01-.002-.008c-2.091-.294-4.184-.58-6.279-.853l-.455 3.516c4.79.624 9.573 1.303 14.348 2.039a1.5 1.5 0 011.014-.756 1.5 1.5 0 01.03-.005l.406-2.604zm-5.715-18.304a1.5 1.5 0 01-.775-1.024 1.5 1.5 0 01-.002-.01 643.158 643.158 0 00-5.61-.762 1.5 1.5 0 01-1.022.786l-.339 2.609c2.46.32 4.92.654 7.375 1.003l.373-2.602zm-.514 3.592a639.197 639.197 0 00-7.362-1.002l-.455 3.516c2.44.318 4.879.65 7.315.996l.502-3.51zm-.644 4.5a634.238 634.238 0 00-7.302-.993l-.455 3.515c2.42.315 4.84.645 7.256.988l.501-3.51zm-.643 4.5a629.35 629.35 0 00-7.242-.986l-.456 3.517c2.099.273 4.195.558 6.29.853a1.5 1.5 0 011.025-.776 1.5 1.5 0 01.01-.002l.373-2.605zm-6.6-13.73a1.5 1.5 0 01-.789-1.02 644.705 644.705 0 00-5.62-.69 1.5 1.5 0 01-1.011.798l-.304 2.614c2.464.288 4.926.59 7.387.907l.338-2.609zm-.466 3.6a640.048 640.048 0 00-7.373-.904l-.41 3.521c2.445.286 4.887.585 7.328.9l.455-3.516zm-.584 4.51a634.604 634.604 0 00-7.314-.898l-.409 3.52c2.425.284 4.847.581 7.268.892l.455-3.515zm-.584 4.507c-2.416-.311-4.835-.608-7.254-.89l-.304 2.612a1.5 1.5 0 01.803 1.017 1.5 1.5 0 010 .002c2.101.248 4.201.505 6.3.775l.455-3.516zm-.584 4.508c-2.095-.27-4.192-.528-6.29-.776a1.5 1.5 0 01-1.039.805 1.5 1.5 0 01-1.767-1.131c-4.83-.55-9.668-1.044-14.51-1.48l-.317 3.53a623.442 623.442 0 0123.468 2.567l.455-3.515zm-.584 4.508a622.49 622.49 0 00-23.428-2.564l-.316 3.531a618.92 618.92 0 0123.288 2.549l.456-3.516zm-5.612-22.66a1.5 1.5 0 01-.802-1.01 643.31 643.31 0 00-6.537-.712l-.363 3.525a641.8 641.8 0 017.399.81c.1-.872.202-1.743.303-2.614zm5.028 27.166a617.892 617.892 0 00-23.25-2.543l-.235 2.618a1.5 1.5 0 01.83.999c7.414.68 14.815 1.494 22.2 2.444l.455-3.518zm-5.447-23.56a640.99 640.99 0 00-7.385-.807l-.363 3.526c2.448.253 4.894.52 7.34.802l.408-3.52zm4.863 28.068a613.404 613.404 0 00-22.164-2.439 1.5 1.5 0 01-1.055.838 1.5 1.5 0 01-1.756-1.085 615.991 615.991 0 00-62.585-2.26l.056 3.546a611.888 611.888 0 0186.14 4.805 1.5 1.5 0 011.026-.795l.338-2.61zm-5.387-23.551c-2.44-.282-4.883-.55-7.327-.802l-.269 2.616a1.5 1.5 0 01.818 1.007c2.124.223 4.247.455 6.369.7l.409-3.521zm-.525 4.514a633.68 633.68 0 00-6.36-.697 1.5 1.5 0 01-1.047.82 1.5 1.5 0 01-1.762-1.108 631.157 631.157 0 00-6.368-.61l-.316 3.531c4.85.438 9.695.934 14.534 1.484a1.5 1.5 0 011.016-.807l.303-2.613zm-6.494-18.076a1.5 1.5 0 01-.814-.997c-1.898-.191-3.798-.373-5.698-.547a1.5 1.5 0 01-.99.823l-.234 2.624c2.49.225 4.979.464 7.466.717l.27-2.62zm-.372 3.614a646.026 646.026 0 00-7.454-.715l-.316 3.53c2.47.223 4.94.46 7.407.712l.363-3.527zm-.465 4.522a641.338 641.338 0 00-7.395-.71l-.316 3.53c2.45.222 4.9.456 7.348.706l.363-3.526zm-.466 4.522a636.515 636.515 0 00-7.334-.704l-.317 3.53c2.127.192 4.253.397 6.378.61a1.5 1.5 0 011.004-.82l.27-2.616zm-7.195-13.47a1.5 1.5 0 01-.826-.983 650.7 650.7 0 00-5.706-.472 1.5 1.5 0 01-.978.833l-.201 2.63c2.493.192 4.985.398 7.476.62l.235-2.627zm-.324 3.623c-2.487-.22-4.974-.426-7.463-.618l-.27 3.534c2.473.19 4.946.395 7.416.614l.317-3.53zm-.406 4.527a642.284 642.284 0 00-7.403-.613l-.27 3.534c2.454.19 4.906.392 7.357.61l.316-3.531zm-.405 4.528c-2.447-.217-4.895-.42-7.343-.608l-.2 2.617a1.5 1.5 0 01.843.99c2.129.167 4.257.343 6.383.531l.317-3.53zm-.406 4.527c-2.124-.189-4.25-.365-6.376-.532a1.5 1.5 0 01-1.063.854 1.5 1.5 0 01-1.751-1.07 630.675 630.675 0 00-14.678-.916l-.177 3.54c7.919.402 15.83.955 23.728 1.655l.317-3.531zm-.406 4.527a628.925 628.925 0 00-23.689-1.651l-.177 3.54c7.86.398 15.711.947 23.55 1.642l.316-3.53zm-.405 4.528a624.347 624.347 0 00-23.511-1.64l-.131 2.622a1.5 1.5 0 01.87.967c7.493.392 14.98.92 22.455 1.582l.317-3.531zm-6.154-26.958a1.5 1.5 0 01-.84-.972 651.082 651.082 0 00-6.622-.458l-.224 3.538c2.496.16 4.991.333 7.485.522l.201-2.63zm5.748 31.484a619.882 619.882 0 00-22.424-1.575 1.5 1.5 0 01-1.077.887 1.5 1.5 0 01-1.74-1.028 620.79 620.79 0 00-37.819-.647 1.5 1.5 0 01-.895.916l.041 2.641c20.915-.31 41.845.445 62.683 2.26a1.5 1.5 0 01.996-.837l.235-2.617zm-6.025-27.858c-2.49-.188-4.98-.36-7.472-.52l-.223 3.538c2.476.158 4.951.33 7.425.517l.27-3.535zm-.346 4.532a642.44 642.44 0 00-7.412-.515l-.166 2.619a1.5 1.5 0 01.858.98c2.15.14 4.3.289 6.45.45l.27-3.534zm-.347 4.533c-2.147-.162-4.295-.31-6.443-.451a1.5 1.5 0 01-1.07.87 1.5 1.5 0 01-1.745-1.048 626.769 626.769 0 00-6.448-.363l-.177 3.54c4.903.248 9.802.558 14.698.92a1.5 1.5 0 01.986-.85l.2-2.618zm-7.26-17.815a1.5 1.5 0 01-.852-.962c-1.925-.117-3.85-.226-5.776-.326a1.5 1.5 0 01-.955.859l-.132 2.634c2.517.128 5.034.27 7.55.426l.165-2.631zm-.229 3.63a651.564 651.564 0 00-7.536-.427c-.06 1.18-.118 2.362-.177 3.542 2.497.127 4.994.268 7.49.423l.223-3.539zm-.286 4.535a647.736 647.736 0 00-7.477-.422l-.177 3.54c2.478.126 4.955.266 7.43.42l.224-3.538zm-.286 4.536a641.741 641.741 0 00-7.418-.418l-.177 3.54c2.152.11 4.304.232 6.454.362a1.5 1.5 0 01.975-.862l.165-2.621zm-7.782-13.18a1.5 1.5 0 01-.863-.948 657.318 657.318 0 00-5.783-.25 1.5 1.5 0 01-.942.868l-.097 2.64c2.518.094 5.036.203 7.553.326l.132-2.636zm-.182 3.634a652.646 652.646 0 00-7.54-.326l-.13 3.543a649.1 649.1 0 017.493.325l.177-3.542zm-.227 4.54a648.12 648.12 0 00-7.48-.324l-.13 3.543c2.478.093 4.956.2 7.433.322l.177-3.54zm-.227 4.54a643.375 643.375 0 00-7.42-.321l-.097 2.62a1.5 1.5 0 01.883.96c2.153.083 4.305.176 6.457.281l.177-3.54zm-.227 4.54c-2.15-.106-4.3-.2-6.452-.283a1.5 1.5 0 01-1.085.905 1.5 1.5 0 01-1.733-1.01c-4.637-.16-9.275-.269-13.914-.328a1.5 1.5 0 01-.919.892l-.018 1.718a1.5 1.5 0 01.908.935c7.682.098 15.362.335 23.036.712l.177-3.541zm-.227 4.54a635.008 635.008 0 00-23.005-.71 1.5 1.5 0 01-1.099.94 1.5 1.5 0 01-1.72-.969 635.303 635.303 0 00-6.4-.024c.002 1.182.006 2.363.01 3.545a630.916 630.916 0 0132.037.759c.06-1.18.118-2.361.177-3.541zm-.227 4.54a629.952 629.952 0 00-31.986-.758l.007 2.622a1.5 1.5 0 01.922.925 626.177 626.177 0 0130.88.75l.177-3.54zm-.227 4.54a625.245 625.245 0 00-30.837-.75 1.5 1.5 0 01-1.105.959 1.5 1.5 0 01-1.713-.951c-10.284.05-20.566.35-30.835.906l.145 2.62a1.5 1.5 0 01.967.872c1.767-.093 3.534-.177 5.302-.255a1.5 1.5 0 011.132-1.04 1.5 1.5 0 011.701.92c1.768-.07 3.536-.131 5.304-.186a1.5 1.5 0 011.126-1.022 1.5 1.5 0 011.71.94 619.52 619.52 0 015.305-.118 1.5 1.5 0 011.12-1.003 1.5 1.5 0 011.716.958 621.854 621.854 0 0137.868.648 1.5 1.5 0 01.963-.879l.13-2.62zm-7.044-31.242a1.5 1.5 0 01-.875-.933 657.353 657.353 0 00-31.608-.333 1.5 1.5 0 01-.896.915l.042 2.641a654.102 654.102 0 0115.203-.046 1.5 1.5 0 011.109-.969 1.5 1.5 0 011.73.999c5.067.064 10.133.185 15.198.367l.097-2.64zm-.134 3.64a653.321 653.321 0 00-15.182-.369 1.5 1.5 0 01-.918.891l-.028 2.642c2.194.024 4.388.064 6.581.11a1.5 1.5 0 011.101-.949 1.5 1.5 0 011.736 1.017c2.194.057 4.387.122 6.58.201l.13-3.543zm-.167 4.542a647.635 647.635 0 00-6.576-.201 1.5 1.5 0 01-.93.879l-.04 1.717a1.5 1.5 0 01.896.948c2.173.056 4.346.121 6.52.2l.13-3.543zm-.167 4.543a643.881 643.881 0 00-6.517-.2 1.5 1.5 0 01-1.09.922 1.5 1.5 0 01-1.727-.988c-1.87-.04-3.74-.074-5.61-.097a1.5 1.5 0 01-1.098.94 1.5 1.5 0 01-1.72-.97c-1.87-.016-3.74-.021-5.611-.02a1.5 1.5 0 01-1.105.957 1.5 1.5 0 01-1.712-.952 641.7 641.7 0 00-5.61.052 1.5 1.5 0 01-1.112.977 1.5 1.5 0 01-1.707-.933c-1.87.034-3.739.074-5.608.123a1.5 1.5 0 01-1.119.998 1.5 1.5 0 01-1.7-.917c-1.868.058-3.737.126-5.605.2a1.5 1.5 0 01-1.125 1.016 1.5 1.5 0 01-1.693-.9c-2.17.096-4.34.201-6.51.32l.196 3.538c2.151-.116 4.303-.22 6.456-.315a1.5 1.5 0 011.131-1.039 1.5 1.5 0 011.703.92c1.847-.072 3.694-.14 5.542-.197a1.5 1.5 0 011.126-1.02 1.5 1.5 0 011.709.939c1.848-.05 3.696-.089 5.544-.122a1.5 1.5 0 011.12-1.003 1.5 1.5 0 011.716.958c1.849-.025 3.697-.041 5.545-.05a1.5 1.5 0 011.114-.985 1.5 1.5 0 011.723.978c1.849 0 3.697.006 5.545.021a1.5 1.5 0 011.108-.966 1.5 1.5 0 011.729.996c4.642.06 9.283.17 13.923.33a1.5 1.5 0 01.953-.892l.096-2.62zm-8.339-3.89a1.5 1.5 0 01-.888-.922 647.864 647.864 0 00-6.578-.11l-.028 2.622a1.5 1.5 0 01.909.936c1.868.024 3.736.055 5.604.095a1.5 1.5 0 01.94-.904zm-8.427-4.683a1.5 1.5 0 01-.9-.91 653.315 653.315 0 00-15.187.048l.056 3.545c2.194-.033 4.388-.052 6.582-.062a1.5 1.5 0 011.115-.986 1.5 1.5 0 011.723.978c2.195-.001 4.389.007 6.583.028l.028-2.64zm-.038 3.64c-2.193-.02-4.386-.029-6.58-.028a1.5 1.5 0 01-.906.903l.005 1.718a1.5 1.5 0 01.92.923c1.868 0 3.736.007 5.605.023a1.5 1.5 0 01.928-.917l.028-2.621zm-.106 9.996a1.5 1.5 0 01-.9-.911c-1.85-.016-3.7-.023-5.55-.022a1.5 1.5 0 01-.908.904l.007 2.64c2.135-.005 4.27.005 6.405.022a1.5 1.5 0 01.927-.915l.02-1.718zm-8.381-9.118a1.5 1.5 0 01-.911-.898c-2.194.01-4.387.03-6.58.063l.042 2.62a1.5 1.5 0 01.933.913c1.868-.025 3.736-.042 5.604-.051a1.5 1.5 0 01.916-.929l-.004-1.718zm.024 9.09a1.5 1.5 0 01-.912-.897c-1.85.009-3.7.026-5.55.05a1.5 1.5 0 01-.895.915l.027 1.717a1.5 1.5 0 01.933.913c2.135-.029 4.27-.049 6.404-.056l-.007-2.641zm.01 3.642a632.2 632.2 0 00-6.401.057 1.5 1.5 0 01-1.111.977 1.5 1.5 0 01-1.707-.933c-2.133.038-4.265.084-6.398.143l.077 2.623a1.5 1.5 0 01.943.898c4.868-.129 9.737-.203 14.606-.22l-.01-3.545zm.011 4.546c-4.863.016-9.726.092-14.588.22a1.5 1.5 0 01-1.118.997 1.5 1.5 0 01-1.7-.915c-4.86.15-9.72.354-14.576.617l.195 3.54a625.868 625.868 0 0130.877-.908 1.5 1.5 0 01.917-.93 2288.7 2288.7 0 00-.007-2.62zm-8.663-26.283a1.5 1.5 0 01-.925-.887c-13.403.238-26.8.886-40.164 1.945a1.5 1.5 0 01-.836.98l.214 2.625c2.208-.178 4.417-.34 6.627-.496a1.5 1.5 0 011.141-1.075 1.5 1.5 0 011.686.88c7.6-.5 15.208-.87 22.82-1.105a1.5 1.5 0 011.127-1.022 1.5 1.5 0 011.71.942c2.214-.059 4.427-.11 6.641-.146zm.057 3.64c-2.213.036-4.425.086-6.637.145a1.5 1.5 0 01-.884.927l.077 2.64c2.5-.07 4.999-.126 7.5-.167zm.071 4.545a647.82 647.82 0 00-7.486.166l.076 2.622a1.5 1.5 0 01.944.899c1.867-.05 3.735-.091 5.604-.124a1.5 1.5 0 01.903-.942zm.157 9.994a1.5 1.5 0 01-.923-.887c-1.85.034-3.7.074-5.549.123a1.5 1.5 0 01-.882.928l.076 2.638c2.134-.06 4.267-.106 6.401-.144a1.5 1.5 0 01.904-.94l-.027-1.718zm.285 18.18a1.5 1.5 0 01-.923-.888c-1.77.031-3.54.07-5.308.118a1.5 1.5 0 01-.885.929l.077 2.638c2.36-.065 4.72-.118 7.081-.156zm.058 3.64c-2.357.038-4.713.09-7.069.156l.076 2.622a1.5 1.5 0 01.945.9c2.035-.054 4.069-.1 6.104-.133zm-9.091-35.258a1.5 1.5 0 01-.937-.877 651.69 651.69 0 00-22.795 1.107 1.5 1.5 0 01-.846.965l.18 2.63c2.19-.147 4.38-.283 6.572-.409a1.5 1.5 0 011.136-1.055 1.5 1.5 0 011.692.9c1.887-.1 3.774-.192 5.662-.276a1.5 1.5 0 011.13-1.036 1.5 1.5 0 011.7.918c2.194-.088 4.388-.165 6.583-.23l-.077-2.637zm.105 3.637c-2.192.065-4.383.142-6.574.23a1.5 1.5 0 01-.873.942l.072 1.715a1.5 1.5 0 01.956.884c1.868-.074 3.736-.14 5.604-.198a1.5 1.5 0 01.891-.95l-.076-2.623zm.29 9.994a1.5 1.5 0 01-.938-.878 638.22 638.22 0 00-5.544.196 1.5 1.5 0 01-.871.942l.072 1.716a1.5 1.5 0 01.953.883c2.134-.085 4.268-.16 6.402-.223l-.075-2.636zm.103 3.637c-2.132.063-4.263.14-6.395.224a1.5 1.5 0 01-1.125 1.018 1.5 1.5 0 01-1.693-.9c-2.13.095-4.261.197-6.39.313l.194 3.54c4.862-.264 9.727-.47 14.595-.622a1.5 1.5 0 01.89-.95L119.165 45zm.42 14.537a1.5 1.5 0 01-.937-.878 622.7 622.7 0 00-5.304.187 1.5 1.5 0 01-.872.944l.072 1.715a1.5 1.5 0 01.955.884c2.053-.08 4.107-.154 6.162-.215l-.076-2.637zm-9.258-26.954a1.5 1.5 0 01-.948-.865 647.06 647.06 0 00-5.66.275 1.5 1.5 0 01-.86.953c.05.878.097 1.755.146 2.633 2.171-.118 4.343-.222 6.516-.318a1.5 1.5 0 01.878-.962l-.073-1.716zm.38 9.082a1.5 1.5 0 01-.946-.864c-2.15.095-4.301.199-6.45.316l.195 3.539c2.132-.116 4.264-.219 6.397-.313a1.5 1.5 0 01.877-.961zm-8.846-8.664a1.5 1.5 0 01-.96-.852c-2.188.125-4.377.259-6.564.406l.242 3.537c2.475-.167 4.95-.32 7.427-.458l-.145-2.633zm.2 3.632c-2.472.138-4.944.29-7.414.457l.242 3.537c2.455-.166 4.91-.317 7.367-.454l-.195-3.54zm.25 4.539a637.54 637.54 0 00-7.354.453l.18 2.62a1.5 1.5 0 01.977.858c2.13-.141 4.261-.273 6.393-.392l-.195-3.54zm-9.22-12.176a1.5 1.5 0 01-.972-.843c-2.207.155-4.413.32-6.619.497l.29 3.534c2.492-.201 4.986-.388 7.481-.56l-.18-2.628zm.249 3.626c-2.491.172-4.98.358-7.47.559l.29 3.533a642.4 642.4 0 017.421-.555l-.241-3.537zm.31 4.535c-2.471.17-4.94.355-7.41.554l.215 2.62a1.5 1.5 0 01.987.842 638.97 638.97 0 016.45-.48l-.242-3.536zM84.21 25.11a1.5 1.5 0 01-.984-.832 652.796 652.796 0 00-31.419 3.392 1.5 1.5 0 01-.783 1.029l.35 2.604a646.068 646.068 0 0115.096-1.84 1.5 1.5 0 011.155-1.125 1.5 1.5 0 011.66.822c5.04-.533 10.087-1.01 15.139-1.425zm.295 3.621c-5.044.415-10.083.892-15.116 1.425a1.5 1.5 0 01-.808 1.002l.282 2.617c2.183-.234 4.367-.455 6.552-.667A1.5 1.5 0 0176.565 32a1.5 1.5 0 011.669.842c2.185-.202 4.372-.396 6.56-.576zm.37 4.53c-2.184.18-4.368.373-6.55.575a1.5 1.5 0 01-.823.992l.162 1.71a1.5 1.5 0 01.998.827c2.167-.2 4.334-.392 6.502-.57zm-8.369 1.661a1.5 1.5 0 01-.993-.818c-2.182.211-4.363.432-6.542.665l.282 2.616a1.5 1.5 0 011.009.813c1.86-.196 3.72-.385 5.582-.565a1.5 1.5 0 01.824-1l-.162-1.71zm-8.92-3.656a1.5 1.5 0 01-1.006-.807 645.853 645.853 0 00-15.072 1.835l.473 3.514c2.177-.292 4.355-.57 6.534-.838a1.5 1.5 0 011.159-1.144 1.5 1.5 0 011.65.804c2.18-.26 4.361-.51 6.544-.748zm.39 3.61c-2.18.238-4.357.488-6.533.747a1.5 1.5 0 01-.796 1.015l.206 1.704a1.5 1.5 0 011.019.8 639.48 639.48 0 015.575-.64 1.5 1.5 0 01.811-1.009zm-8.322 1.882a1.5 1.5 0 01-1.018-.797c-2.175.269-4.35.547-6.521.838l.351 2.611a1.5 1.5 0 011.029.784c1.855-.246 3.711-.484 5.568-.714a1.5 1.5 0 01.798-1.017zm-9.137-4.328c-2.192.297-4.382.608-6.57.927a1.5 1.5 0 01-.769 1.035l.386 2.603c2.474-.365 4.95-.716 7.427-1.052zm.608 4.504a640.82 640.82 0 00-7.415 1.05l.386 2.604a1.5 1.5 0 011.039.772c1.851-.27 3.704-.532 5.557-.787a1.5 1.5 0 01.784-1.03zm-8.404 1.197c-2.168.323-4.334.66-6.499 1.005a1.5 1.5 0 01-.756 1.045l.274 1.694a1.5 1.5 0 011.05.76c1.848-.294 3.696-.581 5.546-.86a1.5 1.5 0 01.77-1.04zm-23.512 6.64l1.225 6.521c-.749.14-1.496.282-2.244.425l-.222-1.163 1.134-.216-.269-1.414c-1.795.34-3.59.688-5.383 1.044l.18.9-1.039.206-.632-3.158 1.043-.208.176.889c1.797-.357 3.595-.706 5.395-1.047l-.266-1.404-1.142.218-.223-1.163c.756-.145 1.511-.288 2.267-.43zm2.21 11.076c.206 1.097.01 2.082-.583 2.953-.585.879-1.408 1.42-2.472 1.626-1.092.211-2.084.022-2.983-.568-.89-.584-1.447-1.422-1.666-2.516-.22-1.095-.03-2.088.575-2.977.613-.882 1.474-1.432 2.58-1.647 1.077-.209 2.053-.014 2.924.58.879.601 1.42 1.451 1.625 2.55zm.82 5.061l.455 2.422c-1.284.812-2.564 1.63-3.839 2.45l-.575.297.004.021c.173.003.388.026.647.07 1.488.278 2.974.563 4.456.852l.454 2.422-1.017.192-.169-.891c-1.733.477-3.462.96-5.19 1.451l.175.88-1.004.2-.61-3.045c.337-.067.673-.135 1.01-.2l.164.826a620.05 620.05 0 013.633-.992l.686-.099-.006-.031a4.519 4.519 0 01-.684-.054 584.827 584.827 0 00-3.65-.766l-.233-1.172a588.3 588.3 0 013.11-2.085l.622-.292a1.453 1.453 0 00-.009-.042l-.679.163c-1.256.147-2.511.298-3.767.453l.166.837-1.015.202-.611-3.055 1.02-.203.174.88c1.807-.207 3.613-.406 5.42-.596l-.17-.9 1.031-.195zm-2.028-4.833c-.128-.678-.49-1.207-1.086-1.585-.59-.38-1.25-.5-1.981-.358-.766.148-1.362.512-1.788 1.089-.425.576-.57 1.203-.435 1.88.134.677.507 1.2 1.116 1.573.61.373 1.293.485 2.053.338.725-.14 1.29-.495 1.695-1.065.411-.57.554-1.194.426-1.872zm-5.23-20.691a1.5 1.5 0 01.004.024 1.5 1.5 0 01-.708 1.6l.326 1.685a1.5 1.5 0 011.243 1.153 1.5 1.5 0 01.005.025 1.5 1.5 0 01-1.163 1.774 1.5 1.5 0 01-1.775-1.163 1.5 1.5 0 01.709-1.598l-.327-1.686a1.5 1.5 0 01-1.247-1.179 1.5 1.5 0 011.163-1.773 1.5 1.5 0 011.77 1.138zm7.788 40.156a1.5 1.5 0 01.005.025 1.5 1.5 0 01-.708 1.599l.326 1.685a1.5 1.5 0 011.243 1.153 1.5 1.5 0 01.005.025 1.5 1.5 0 01-1.163 1.775 1.5 1.5 0 01-1.775-1.164 1.5 1.5 0 01.709-1.598l-.327-1.686a1.5 1.5 0 01-1.247-1.178A1.5 1.5 0 0121 74.402a1.5 1.5 0 011.77 1.138z"/>
</svg>
