<svg xmlns="http://www.w3.org/2000/svg" version="1.0" viewBox="0 -1.5 232 53">
<path stroke="black" stroke-width="1" d="M 0 0 L 232 0"/>
<path stroke="black" stroke-width="1" d="M 0 4.545454545454546 L 232 4.545454545454546"/>
<path stroke="black" stroke-width="1" d="M 0 9.090909090909092 L 232 9.090909090909092"/>
<path stroke="black" stroke-width="1" d="M 0 13.636363636363637 L 232 13.636363636363637"/>
<path stroke="black" stroke-width="1" d="M 0 18.181818181818183 L 232 18.181818181818183"/>
<path stroke="black" stroke-width="1" d="M 0 22.72727272727273 L 232 22.72727272727273"/>
<path stroke="black" stroke-width="1" d="M 0 27.272727272727273 L 232 27.272727272727273"/>
<path stroke="black" stroke-width="1" d="M 0 31.81818181818182 L 232 31.81818181818182"/>
<path stroke="black" stroke-width="1" d="M 0 36.36363636363637 L 232 36.36363636363637"/>
<path stroke="black" stroke-width="1" d="M 0 40.909090909090914 L 232 40.909090909090914"/>
<path stroke="black" stroke-width="1" d="M 0 45.45454545454546 L 232 45.45454545454546"/>
<path stroke="black" stroke-width="1" d="M 0 50.00000000000001 L 232 50.00000000000001"/>
<path stroke="black" stroke-width="1" d="M 8.285714285714286 9.090909090909092 L 8.285714285714286 13.636363636363637"/>
<circle fill="black"  cx= "8.285714285714286" cy="9.090909090909092" r="1.5"/>
<circle fill="black"  cx= "8.285714285714286" cy="13.636363636363637" r="1.5"/>
<path stroke="black" stroke-width="1" d="M 16.571428571428573 4.545454545454546 L 16.571428571428573 13.636363636363637"/>
<circle fill="black"  cx= "16.571428571428573" cy="4.545454545454546" r="1.5"/>
<circle fill="black"  cx= "16.571428571428573" cy="13.636363636363637" r="1.5"/>
<path stroke="black" stroke-width="1" d="M 24.85714285714286 0 L 24.85714285714286 13.636363636363637"/>
<circle fill="black"  cx= "24.85714285714286" cy="0" r="1.5"/>
<circle fill="black"  cx= "24.85714285714286" cy="13.636363636363637" r="1.5"/>
<path stroke="black" stroke-width="1" d="M 33.142857142857146 9.090909090909092 L 33.142857142857146 13.636363636363637"/>
<circle fill="black"  cx= "33.142857142857146" cy="9.090909090909092" r="1.5"/>
<circle fill="black"  cx= "33.142857142857146" cy="13.636363636363637" r="1.5"/>
<path stroke="black" stroke-width="1" d="M 41.42857142857143 4.545454545454546 L 41.42857142857143 13.636363636363637"/>
<circle fill="black"  cx= "41.42857142857143" cy="4.545454545454546" r="1.5"/>
<circle fill="black"  cx= "41.42857142857143" cy="13.636363636363637" r="1.5"/>
<path stroke="black" stroke-width="1" d="M 49.71428571428572 9.090909090909092 L 49.71428571428572 13.636363636363637"/>
<circle fill="black"  cx= "49.71428571428572" cy="9.090909090909092" r="1.5"/>
<circle fill="black"  cx= "49.71428571428572" cy="13.636363636363637" r="1.5"/>
<path stroke="black" stroke-width="1" d="M 58.00000000000001 0 L 58.00000000000001 18.181818181818183"/>
<circle fill="black"  cx= "58.00000000000001" cy="0" r="1.5"/>
<circle fill="black"  cx= "58.00000000000001" cy="18.181818181818183" r="1.5"/>
<path stroke="black" stroke-width="1" d="M 66.28571428571429 4.545454545454546 L 66.28571428571429 22.72727272727273"/>
<circle fill="black"  cx= "66.28571428571429" cy="4.545454545454546" r="1.5"/>
<circle fill="black"  cx= "66.28571428571429" cy="22.72727272727273" r="1.5"/>
<path stroke="black" stroke-width="1" d="M 74.57142857142858 9.090909090909092 L 74.57142857142858 36.36363636363637"/>
<circle fill="black"  cx= "74.57142857142858" cy="9.090909090909092" r="1.5"/>
<circle fill="black"  cx= "74.57142857142858" cy="36.36363636363637" r="1.5"/>
<path stroke="black" stroke-width="1" d="M 82.85714285714286 9.090909090909092 L 82.85714285714286 13.636363636363637"/>
<circle fill="black"  cx= "82.85714285714286" cy="9.090909090909092" r="1.5"/>
<circle fill="black"  cx= "82.85714285714286" cy="13.636363636363637" r="1.5"/>
<path stroke="black" stroke-width="1" d="M 82.85714285714286 18.181818181818183 L 82.85714285714286 22.72727272727273"/>
<circle fill="black"  cx= "82.85714285714286" cy="18.181818181818183" r="1.5"/>
<circle fill="black"  cx= "82.85714285714286" cy="22.72727272727273" r="1.5"/>
<path stroke="black" stroke-width="1" d="M 82.85714285714286 36.36363636363637 L 82.85714285714286 40.909090909090914"/>
<circle fill="black"  cx= "82.85714285714286" cy="36.36363636363637" r="1.5"/>
<circle fill="black"  cx= "82.85714285714286" cy="40.909090909090914" r="1.5"/>
<path stroke="black" stroke-width="1" d="M 91.14285714285715 4.545454545454546 L 91.14285714285715 13.636363636363637"/>
<circle fill="black"  cx= "91.14285714285715" cy="4.545454545454546" r="1.5"/>
<circle fill="black"  cx= "91.14285714285715" cy="13.636363636363637" r="1.5"/>
<path stroke="black" stroke-width="1" d="M 91.14285714285715 18.181818181818183 L 91.14285714285715 27.272727272727273"/>
<circle fill="black"  cx= "91.14285714285715" cy="18.181818181818183" r="1.5"/>
<circle fill="black"  cx= "91.14285714285715" cy="27.272727272727273" r="1.5"/>
<path stroke="black" stroke-width="1" d="M 91.14285714285715 36.36363636363637 L 91.14285714285715 45.45454545454546"/>
<circle fill="black"  cx= "91.14285714285715" cy="36.36363636363637" r="1.5"/>
<circle fill="black"  cx= "91.14285714285715" cy="45.45454545454546" r="1.5"/>
<path stroke="black" stroke-width="1" d="M 99.42857142857144 0 L 99.42857142857144 13.636363636363637"/>
<circle fill="black"  cx= "99.42857142857144" cy="0" r="1.5"/>
<circle fill="black"  cx= "99.42857142857144" cy="13.636363636363637" r="1.5"/>
<path stroke="black" stroke-width="1" d="M 99.42857142857144 18.181818181818183 L 99.42857142857144 22.72727272727273"/>
<circle fill="black"  cx= "99.42857142857144" cy="18.181818181818183" r="1.5"/>
<circle fill="black"  cx= "99.42857142857144" cy="22.72727272727273" r="1.5"/>
<path stroke="black" stroke-width="1" d="M 99.42857142857144 36.36363636363637 L 99.42857142857144 50.00000000000001"/>
<circle fill="black"  cx= "99.42857142857144" cy="36.36363636363637" r="1.5"/>
<circle fill="black"  cx= "99.42857142857144" cy="50.00000000000001" r="1.5"/>
<path stroke="black" stroke-width="1" d="M 107.71428571428572 9.090909090909092 L 107.71428571428572 13.636363636363637"/>
<circle fill="black"  cx= "107.71428571428572" cy="9.090909090909092" r="1.5"/>
<circle fill="black"  cx= "107.71428571428572" cy="13.636363636363637" r="1.5"/>
<path stroke="black" stroke-width="1" d="M 107.71428571428572 18.181818181818183 L 107.71428571428572 31.81818181818182"/>
<circle fill="black"  cx= "107.71428571428572" cy="18.181818181818183" r="1.5"/>
<circle fill="black"  cx= "107.71428571428572" cy="31.81818181818182" r="1.5"/>
<path stroke="black" stroke-width="1" d="M 116.00000000000001 4.545454545454546 L 116.00000000000001 13.636363636363637"/>
<circle fill="black"  cx= "116.00000000000001" cy="4.545454545454546" r="1.5"/>
<circle fill="black"  cx= "116.00000000000001" cy="13.636363636363637" r="1.5"/>
<path stroke="black" stroke-width="1" d="M 116.00000000000001 18.181818181818183 L 116.00000000000001 22.72727272727273"/>
<circle fill="black"  cx= "116.00000000000001" cy="18.181818181818183" r="1.5"/>
<circle fill="black"  cx= "116.00000000000001" cy="22.72727272727273" r="1.5"/>
<path stroke="black" stroke-width="1" d="M 124.28571428571429 9.090909090909092 L 124.28571428571429 13.636363636363637"/>
<circle fill="black"  cx= "124.28571428571429" cy="9.090909090909092" r="1.5"/>
<circle fill="black"  cx= "124.28571428571429" cy="13.636363636363637" r="1.5"/>
<path stroke="black" stroke-width="1" d="M 132.57142857142858 0 L 132.57142857142858 18.181818181818183"/>
<circle fill="black"  cx= "132.57142857142858" cy="0" r="1.5"/>
<circle fill="black"  cx= "132.57142857142858" cy="18.181818181818183" r="1.5"/>
<path stroke="black" stroke-width="1" d="M 140.85714285714286 0 L 140.85714285714286 36.36363636363637"/>
<circle fill="black"  cx= "140.85714285714286" cy="0" r="1.5"/>
<circle fill="black"  cx= "140.85714285714286" cy="36.36363636363637" r="1.5"/>
<path stroke="black" stroke-width="1" d="M 149.14285714285717 0 L 149.14285714285717 18.181818181818183"/>
<circle fill="black"  cx= "149.14285714285717" cy="0" r="1.5"/>
<circle fill="black"  cx= "149.14285714285717" cy="18.181818181818183" r="1.5"/>
<path stroke="black" stroke-width="1" d="M 157.42857142857144 4.545454545454546 L 157.42857142857144 22.72727272727273"/>
<circle fill="black"  cx= "157.42857142857144" cy="4.545454545454546" r="1.5"/>
<circle fill="black"  cx= "157.42857142857144" cy="22.72727272727273" r="1.5"/>
<path stroke="black" stroke-width="1" d="M 165.71428571428572 4.545454545454546 L 165.71428571428572 40.909090909090914"/>
<circle fill="black"  cx= "165.71428571428572" cy="4.545454545454546" r="1.5"/>
<circle fill="black"  cx= "165.71428571428572" cy="40.909090909090914" r="1.5"/>
<path stroke="black" stroke-width="1" d="M 174.00000000000003 4.545454545454546 L 174.00000000000003 22.72727272727273"/>
<circle fill="black"  cx= "174.00000000000003" cy="4.545454545454546" r="1.5"/>
<circle fill="black"  cx= "174.00000000000003" cy="22.72727272727273" r="1.5"/>
<path stroke="black" stroke-width="1" d="M 182.2857142857143 9.090909090909092 L 182.2857142857143 27.272727272727273"/>
<circle fill="black"  cx= "182.2857142857143" cy="9.090909090909092" r="1.5"/>
<circle fill="black"  cx= "182.2857142857143" cy="27.272727272727273" r="1.5"/>
<path stroke="black" stroke-width="1" d="M 190.57142857142858 9.090909090909092 L 190.57142857142858 45.45454545454546"/>
<circle fill="black"  cx= "190.57142857142858" cy="9.090909090909092" r="1.5"/>
<circle fill="black"  cx= "190.57142857142858" cy="45.45454545454546" r="1.5"/>
<path stroke="black" stroke-width="1" d="M 198.8571428571429 9.090909090909092 L 198.8571428571429 27.272727272727273"/>
<circle fill="black"  cx= "198.8571428571429" cy="9.090909090909092" r="1.5"/>
<circle fill="black"  cx= "198.8571428571429" cy="27.272727272727273" r="1.5"/>
<path stroke="black" stroke-width="1" d="M 207.14285714285717 13.636363636363637 L 207.14285714285717 31.81818181818182"/>
<circle fill="black"  cx= "207.14285714285717" cy="13.636363636363637" r="1.5"/>
<circle fill="black"  cx= "207.14285714285717" cy="31.81818181818182" r="1.5"/>
<path stroke="black" stroke-width="1" d="M 215.42857142857144 13.636363636363637 L 215.42857142857144 50.00000000000001"/>
<circle fill="black"  cx= "215.42857142857144" cy="13.636363636363637" r="1.5"/>
<circle fill="black"  cx= "215.42857142857144" cy="50.00000000000001" r="1.5"/>
<path stroke="black" stroke-width="1" d="M 223.71428571428572 13.636363636363637 L 223.71428571428572 31.81818181818182"/>
<circle fill="black"  cx= "223.71428571428572" cy="13.636363636363637" r="1.5"/>
<circle fill="black"  cx= "223.71428571428572" cy="31.81818181818182" r="1.5"/>
</svg>
