<svg xmlns="http://www.w3.org/2000/svg" width="240" height="240" viewBox="0 0 16.6 16.6"><rect width="16.6" height="16.6" fill="black"/><rect x="0.1" y="0.1" width="1" height="1" fill="white" opacity="0.6239640398932434"/>
<rect x="1.2000000000000002" y="0.1" width="1" height="1" fill="white" opacity="0.7755302711054923"/>
<rect x="2.3000000000000003" y="0.1" width="1" height="1" fill="white" opacity="0.7981458069953645"/>
<rect x="3.4000000000000004" y="0.1" width="1" height="1" fill="white" opacity="0.8482932996207333"/>
<rect x="4.5" y="0.1" width="1" height="1" fill="white" opacity="0.8162663295406658"/>
<rect x="5.6" y="0.1" width="1" height="1" fill="white" opacity="0.8370557662593061"/>
<rect x="6.7" y="0.1" width="1" height="1" fill="white" opacity="0.6981317600786627"/>
<rect x="7.800000000000001" y="0.1" width="1" height="1" fill="white" opacity="0.46326731282483496"/>
<rect x="8.9" y="0.1" width="1" height="1" fill="white" opacity="0.7235566793088917"/>
<rect x="10" y="0.1" width="1" height="1" fill="white" opacity="0.7812895069532237"/>
<rect x="11.1" y="0.1" width="1" height="1" fill="white" opacity="0.7755302711054923"/>
<rect x="12.200000000000001" y="0.1" width="1" height="1" fill="white" opacity="0.8445006321112516"/>
<rect x="13.3" y="0.1" width="1" height="1" fill="white" opacity="0.7982862761623823"/>
<rect x="14.4" y="0.1" width="1" height="1" fill="white" opacity="0.7958983003230791"/>
<rect x="15.500000000000002" y="0.1" width="1" height="1" fill="white" opacity="0.6005056890012642"/>
<rect x="0.1" y="1.2000000000000002" width="1" height="1" fill="white" opacity="0.7749683944374209"/>
<rect x="1.2000000000000002" y="1.2000000000000002" width="1" height="1" fill="white" opacity="0.5250737463126843"/>
<rect x="2.3000000000000003" y="1.2000000000000002" width="1" height="1" fill="white" opacity="0.8103666245259166"/>
<rect x="3.4000000000000004" y="1.2000000000000002" width="1" height="1" fill="white" opacity="0.5250737463126843"/>
<rect x="4.5" y="1.2000000000000002" width="1" height="1" fill="white" opacity="0.8103666245259166"/>
<rect x="5.6" y="1.2000000000000002" width="1" height="1" fill="white" opacity="0.5033010254249193"/>
<rect x="6.7" y="1.2000000000000002" width="1" height="1" fill="white" opacity="0.76007866273353"/>
<rect x="7.800000000000001" y="1.2000000000000002" width="1" height="1" fill="white" opacity="0.4777356370276724"/>
<rect x="8.9" y="1.2000000000000002" width="1" height="1" fill="white" opacity="0.6038769490096924"/>
<rect x="10" y="1.2000000000000002" width="1" height="1" fill="white" opacity="0.39303272931591515"/>
<rect x="11.1" y="1.2000000000000002" width="1" height="1" fill="white" opacity="0.8130355386992555"/>
<rect x="12.200000000000001" y="1.2000000000000002" width="1" height="1" fill="white" opacity="0.5250737463126843"/>
<rect x="13.3" y="1.2000000000000002" width="1" height="1" fill="white" opacity="0.8141592920353983"/>
<rect x="14.4" y="1.2000000000000002" width="1" height="1" fill="white" opacity="0.5250737463126843"/>
<rect x="15.500000000000002" y="1.2000000000000002" width="1" height="1" fill="white" opacity="0.6925129933979491"/>
<rect x="0.1" y="2.3000000000000003" width="1" height="1" fill="white" opacity="0.8162663295406658"/>
<rect x="1.2000000000000002" y="2.3000000000000003" width="1" height="1" fill="white" opacity="0.8482932996207333"/>
<rect x="2.3000000000000003" y="2.3000000000000003" width="1" height="1" fill="white" opacity="0.8162663295406658"/>
<rect x="3.4000000000000004" y="2.3000000000000003" width="1" height="1" fill="white" opacity="0.8482932996207333"/>
<rect x="4.5" y="2.3000000000000003" width="1" height="1" fill="white" opacity="0.7169546284590532"/>
<rect x="5.6" y="2.3000000000000003" width="1" height="1" fill="white" opacity="0.6781851383621295"/>
<rect x="6.7" y="2.3000000000000003" width="1" height="1" fill="white" opacity="0.7738446411012783"/>
<rect x="7.800000000000001" y="2.3000000000000003" width="1" height="1" fill="white" opacity="0.7428009551903357"/>
<rect x="8.9" y="2.3000000000000003" width="1" height="1" fill="white" opacity="0.6756566933558084"/>
<rect x="10" y="2.3000000000000003" width="1" height="1" fill="white" opacity="0.7350751510043545"/>
<rect x="11.1" y="2.3000000000000003" width="1" height="1" fill="white" opacity="0.8151425762045231"/>
<rect x="12.200000000000001" y="2.3000000000000003" width="1" height="1" fill="white" opacity="0.8445006321112516"/>
<rect x="13.3" y="2.3000000000000003" width="1" height="1" fill="white" opacity="0.8162663295406658"/>
<rect x="14.4" y="2.3000000000000003" width="1" height="1" fill="white" opacity="0.8445006321112516"/>
<rect x="15.500000000000002" y="2.3000000000000003" width="1" height="1" fill="white" opacity="0.7873296811349909"/>
<rect x="0.1" y="3.4000000000000004" width="1" height="1" fill="white" opacity="0.8102261553588987"/>
<rect x="1.2000000000000002" y="3.4000000000000004" width="1" height="1" fill="white" opacity="0.5224048321393454"/>
<rect x="2.3000000000000003" y="3.4000000000000004" width="1" height="1" fill="white" opacity="0.8103666245259166"/>
<rect x="3.4000000000000004" y="3.4000000000000004" width="1" height="1" fill="white" opacity="0.5250737463126843"/>
<rect x="4.5" y="3.4000000000000004" width="1" height="1" fill="white" opacity="0.694339092569181"/>
<rect x="5.6" y="3.4000000000000004" width="1" height="1" fill="white" opacity="0.4954347520719202"/>
<rect x="6.7" y="3.4000000000000004" width="1" height="1" fill="white" opacity="0.7288945076555696"/>
<rect x="7.800000000000001" y="3.4000000000000004" width="1" height="1" fill="white" opacity="0.44275881444023035"/>
<rect x="8.9" y="3.4000000000000004" width="1" height="1" fill="white" opacity="0.7949150161539542"/>
<rect x="10" y="3.4000000000000004" width="1" height="1" fill="white" opacity="0.4832139345413682"/>
<rect x="11.1" y="3.4000000000000004" width="1" height="1" fill="white" opacity="0.8110689703610058"/>
<rect x="12.200000000000001" y="3.4000000000000004" width="1" height="1" fill="white" opacity="0.5250737463126843"/>
<rect x="13.3" y="3.4000000000000004" width="1" height="1" fill="white" opacity="0.8141592920353983"/>
<rect x="14.4" y="3.4000000000000004" width="1" height="1" fill="white" opacity="0.5250737463126843"/>
<rect x="15.500000000000002" y="3.4000000000000004" width="1" height="1" fill="white" opacity="0.7992695603315072"/>
<rect x="0.1" y="4.5" width="1" height="1" fill="white" opacity="0.6676499508357916"/>
<rect x="1.2000000000000002" y="4.5" width="1" height="1" fill="white" opacity="0.7635903919089759"/>
<rect x="2.3000000000000003" y="4.5" width="1" height="1" fill="white" opacity="0.7496839443742098"/>
<rect x="3.4000000000000004" y="4.5" width="1" height="1" fill="white" opacity="0.7384464110127827"/>
<rect x="4.5" y="4.5" width="1" height="1" fill="white" opacity="0.7494030060401742"/>
<rect x="5.6" y="4.5" width="1" height="1" fill="white" opacity="0.7277707543194268"/>
<rect x="6.7" y="4.5" width="1" height="1" fill="white" opacity="0.595448798988622"/>
<rect x="7.800000000000001" y="4.5" width="1" height="1" fill="white" opacity="0.7887343728051692"/>
<rect x="8.9" y="4.5" width="1" height="1" fill="white" opacity="0.7902795336423655"/>
<rect x="10" y="4.5" width="1" height="1" fill="white" opacity="0.7638713302430117"/>
<rect x="11.1" y="4.5" width="1" height="1" fill="white" opacity="0.688298918387414"/>
<rect x="12.200000000000001" y="4.5" width="1" height="1" fill="white" opacity="0.8203399353841831"/>
<rect x="13.3" y="4.5" width="1" height="1" fill="white" opacity="0.7989886219974716"/>
<rect x="14.4" y="4.5" width="1" height="1" fill="white" opacity="0.8121927236971485"/>
<rect x="15.500000000000002" y="4.5" width="1" height="1" fill="white" opacity="0.699676920915859"/>
<rect x="0.1" y="5.6" width="1" height="1" fill="white" opacity="0.7356370276724259"/>
<rect x="1.2000000000000002" y="5.6" width="1" height="1" fill="white" opacity="0.4972608512431521"/>
<rect x="2.3000000000000003" y="5.6" width="1" height="1" fill="white" opacity="0.7456103385306925"/>
<rect x="3.4000000000000004" y="5.6" width="1" height="1" fill="white" opacity="0.40750105351875265"/>
<rect x="4.5" y="5.6" width="1" height="1" fill="white" opacity="0.6186262115465655"/>
<rect x="5.6" y="5.6" width="1" height="1" fill="white" opacity="0.44936086529006886"/>
<rect x="6.7" y="5.6" width="1" height="1" fill="white" opacity="0.5422109846888608"/>
<rect x="7.800000000000001" y="5.6" width="1" height="1" fill="white" opacity="0.4802640820339935"/>
<rect x="8.9" y="5.6" width="1" height="1" fill="white" opacity="0.7489815985391206"/>
<rect x="10" y="5.6" width="1" height="1" fill="white" opacity="0.5180502879617924"/>
<rect x="11.1" y="5.6" width="1" height="1" fill="white" opacity="0.7137238376176429"/>
<rect x="12.200000000000001" y="5.6" width="1" height="1" fill="white" opacity="0.4722573395139767"/>
<rect x="13.3" y="5.6" width="1" height="1" fill="white" opacity="0.7184997892962495"/>
<rect x="14.4" y="5.6" width="1" height="1" fill="white" opacity="0.5070936929344009"/>
<rect x="15.500000000000002" y="5.6" width="1" height="1" fill="white" opacity="0.7916842253125439"/>
<rect x="0.1" y="6.7" width="1" height="1" fill="white" opacity="0.6809945217024863"/>
<rect x="1.2000000000000002" y="6.7" width="1" height="1" fill="white" opacity="0.7022053659221801"/>
<rect x="2.3000000000000003" y="6.7" width="1" height="1" fill="white" opacity="0.6659643208315774"/>
<rect x="3.4000000000000004" y="6.7" width="1" height="1" fill="white" opacity="0.7742660486023318"/>
<rect x="4.5" y="6.7" width="1" height="1" fill="white" opacity="0.6325326590813316"/>
<rect x="5.6" y="6.7" width="1" height="1" fill="white" opacity="0.5441775530271106"/>
<rect x="6.7" y="6.7" width="1" height="1" fill="white" opacity="0.7089478859390363"/>
<rect x="7.800000000000001" y="6.7" width="1" height="1" fill="white" opacity="0.7635903919089759"/>
<rect x="8.9" y="6.7" width="1" height="1" fill="white" opacity="0.7332490518331226"/>
<rect x="10" y="6.7" width="1" height="1" fill="white" opacity="0.7023458350891979"/>
<rect x="11.1" y="6.7" width="1" height="1" fill="white" opacity="0.7678044669195112"/>
<rect x="12.200000000000001" y="6.7" width="1" height="1" fill="white" opacity="0.7560050568900126"/>
<rect x="13.3" y="6.7" width="1" height="1" fill="white" opacity="0.705717095097626"/>
<rect x="14.4" y="6.7" width="1" height="1" fill="white" opacity="0.7109144542772862"/>
<rect x="15.500000000000002" y="6.7" width="1" height="1" fill="white" opacity="0.7168141592920354"/>
<rect x="0.1" y="7.800000000000001" width="1" height="1" fill="white" opacity="0.666385728332631"/>
<rect x="1.2000000000000002" y="7.800000000000001" width="1" height="1" fill="white" opacity="0.37645736760781007"/>
<rect x="2.3000000000000003" y="7.800000000000001" width="1" height="1" fill="white" opacity="0.7111953926113218"/>
<rect x="3.4000000000000004" y="7.800000000000001" width="1" height="1" fill="white" opacity="0.49051833122629585"/>
<rect x="4.5" y="7.800000000000001" width="1" height="1" fill="white" opacity="0.7735637027672426"/>
<rect x="5.6" y="7.800000000000001" width="1" height="1" fill="white" opacity="0.3670459334176148"/>
<rect x="6.7" y="7.800000000000001" width="1" height="1" fill="white" opacity="0.6811349908695041"/>
<rect x="7.800000000000001" y="7.800000000000001" width="1" height="1" fill="white" opacity="0.281078803202697"/>
<rect x="8.9" y="7.800000000000001" width="1" height="1" fill="white" opacity="0.6811349908695041"/>
<rect x="10" y="7.800000000000001" width="1" height="1" fill="white" opacity="0.3670459334176148"/>
<rect x="11.1" y="7.800000000000001" width="1" height="1" fill="white" opacity="0.7735637027672426"/>
<rect x="12.200000000000001" y="7.800000000000001" width="1" height="1" fill="white" opacity="0.49051833122629585"/>
<rect x="13.3" y="7.800000000000001" width="1" height="1" fill="white" opacity="0.7113358617783396"/>
<rect x="14.4" y="7.800000000000001" width="1" height="1" fill="white" opacity="0.37645736760781007"/>
<rect x="15.500000000000002" y="7.800000000000001" width="1" height="1" fill="white" opacity="0.666385728332631"/>
<rect x="0.1" y="8.9" width="1" height="1" fill="white" opacity="0.7168141592920354"/>
<rect x="1.2000000000000002" y="8.9" width="1" height="1" fill="white" opacity="0.7109144542772862"/>
<rect x="2.3000000000000003" y="8.9" width="1" height="1" fill="white" opacity="0.705717095097626"/>
<rect x="3.4000000000000004" y="8.9" width="1" height="1" fill="white" opacity="0.7560050568900126"/>
<rect x="4.5" y="8.9" width="1" height="1" fill="white" opacity="0.7678044669195112"/>
<rect x="5.6" y="8.9" width="1" height="1" fill="white" opacity="0.7023458350891979"/>
<rect x="6.7" y="8.9" width="1" height="1" fill="white" opacity="0.7332490518331226"/>
<rect x="7.800000000000001" y="8.9" width="1" height="1" fill="white" opacity="0.7635903919089759"/>
<rect x="8.9" y="8.9" width="1" height="1" fill="white" opacity="0.7089478859390363"/>
<rect x="10" y="8.9" width="1" height="1" fill="white" opacity="0.5441775530271106"/>
<rect x="11.1" y="8.9" width="1" height="1" fill="white" opacity="0.6325326590813316"/>
<rect x="12.200000000000001" y="8.9" width="1" height="1" fill="white" opacity="0.7742660486023318"/>
<rect x="13.3" y="8.9" width="1" height="1" fill="white" opacity="0.6659643208315774"/>
<rect x="14.4" y="8.9" width="1" height="1" fill="white" opacity="0.7022053659221801"/>
<rect x="15.500000000000002" y="8.9" width="1" height="1" fill="white" opacity="0.6809945217024863"/>
<rect x="0.1" y="10" width="1" height="1" fill="white" opacity="0.7916842253125439"/>
<rect x="1.2000000000000002" y="10" width="1" height="1" fill="white" opacity="0.5070936929344009"/>
<rect x="2.3000000000000003" y="10" width="1" height="1" fill="white" opacity="0.7184997892962495"/>
<rect x="3.4000000000000004" y="10" width="1" height="1" fill="white" opacity="0.4722573395139767"/>
<rect x="4.5" y="10" width="1" height="1" fill="white" opacity="0.7137238376176429"/>
<rect x="5.6" y="10" width="1" height="1" fill="white" opacity="0.5180502879617924"/>
<rect x="6.7" y="10" width="1" height="1" fill="white" opacity="0.7489815985391206"/>
<rect x="7.800000000000001" y="10" width="1" height="1" fill="white" opacity="0.4802640820339935"/>
<rect x="8.9" y="10" width="1" height="1" fill="white" opacity="0.5422109846888608"/>
<rect x="10" y="10" width="1" height="1" fill="white" opacity="0.44936086529006886"/>
<rect x="11.1" y="10" width="1" height="1" fill="white" opacity="0.6186262115465655"/>
<rect x="12.200000000000001" y="10" width="1" height="1" fill="white" opacity="0.40750105351875265"/>
<rect x="13.3" y="10" width="1" height="1" fill="white" opacity="0.7456103385306925"/>
<rect x="14.4" y="10" width="1" height="1" fill="white" opacity="0.4972608512431521"/>
<rect x="15.500000000000002" y="10" width="1" height="1" fill="white" opacity="0.7357774968394437"/>
<rect x="0.1" y="11.1" width="1" height="1" fill="white" opacity="0.699676920915859"/>
<rect x="1.2000000000000002" y="11.1" width="1" height="1" fill="white" opacity="0.8121927236971485"/>
<rect x="2.3000000000000003" y="11.1" width="1" height="1" fill="white" opacity="0.7989886219974716"/>
<rect x="3.4000000000000004" y="11.1" width="1" height="1" fill="white" opacity="0.8203399353841831"/>
<rect x="4.5" y="11.1" width="1" height="1" fill="white" opacity="0.688298918387414"/>
<rect x="5.6" y="11.1" width="1" height="1" fill="white" opacity="0.7638713302430117"/>
<rect x="6.7" y="11.1" width="1" height="1" fill="white" opacity="0.7902795336423655"/>
<rect x="7.800000000000001" y="11.1" width="1" height="1" fill="white" opacity="0.7887343728051692"/>
<rect x="8.9" y="11.1" width="1" height="1" fill="white" opacity="0.595448798988622"/>
<rect x="10" y="11.1" width="1" height="1" fill="white" opacity="0.7277707543194268"/>
<rect x="11.1" y="11.1" width="1" height="1" fill="white" opacity="0.7494030060401742"/>
<rect x="12.200000000000001" y="11.1" width="1" height="1" fill="white" opacity="0.7384464110127827"/>
<rect x="13.3" y="11.1" width="1" height="1" fill="white" opacity="0.7496839443742098"/>
<rect x="14.4" y="11.1" width="1" height="1" fill="white" opacity="0.7635903919089759"/>
<rect x="15.500000000000002" y="11.1" width="1" height="1" fill="white" opacity="0.6676499508357916"/>
<rect x="0.1" y="12.200000000000001" width="1" height="1" fill="white" opacity="0.7992695603315072"/>
<rect x="1.2000000000000002" y="12.200000000000001" width="1" height="1" fill="white" opacity="0.5250737463126843"/>
<rect x="2.3000000000000003" y="12.200000000000001" width="1" height="1" fill="white" opacity="0.8141592920353983"/>
<rect x="3.4000000000000004" y="12.200000000000001" width="1" height="1" fill="white" opacity="0.5250737463126843"/>
<rect x="4.5" y="12.200000000000001" width="1" height="1" fill="white" opacity="0.8110689703610058"/>
<rect x="5.6" y="12.200000000000001" width="1" height="1" fill="white" opacity="0.4832139345413682"/>
<rect x="6.7" y="12.200000000000001" width="1" height="1" fill="white" opacity="0.7949150161539542"/>
<rect x="7.800000000000001" y="12.200000000000001" width="1" height="1" fill="white" opacity="0.44275881444023035"/>
<rect x="8.9" y="12.200000000000001" width="1" height="1" fill="white" opacity="0.7288945076555696"/>
<rect x="10" y="12.200000000000001" width="1" height="1" fill="white" opacity="0.4954347520719202"/>
<rect x="11.1" y="12.200000000000001" width="1" height="1" fill="white" opacity="0.6941986234021632"/>
<rect x="12.200000000000001" y="12.200000000000001" width="1" height="1" fill="white" opacity="0.5250737463126843"/>
<rect x="13.3" y="12.200000000000001" width="1" height="1" fill="white" opacity="0.8103666245259166"/>
<rect x="14.4" y="12.200000000000001" width="1" height="1" fill="white" opacity="0.5224048321393454"/>
<rect x="15.500000000000002" y="12.200000000000001" width="1" height="1" fill="white" opacity="0.8102261553588987"/>
<rect x="0.1" y="13.3" width="1" height="1" fill="white" opacity="0.7873296811349909"/>
<rect x="1.2000000000000002" y="13.3" width="1" height="1" fill="white" opacity="0.8445006321112516"/>
<rect x="2.3000000000000003" y="13.3" width="1" height="1" fill="white" opacity="0.8162663295406658"/>
<rect x="3.4000000000000004" y="13.3" width="1" height="1" fill="white" opacity="0.8445006321112516"/>
<rect x="4.5" y="13.3" width="1" height="1" fill="white" opacity="0.8151425762045231"/>
<rect x="5.6" y="13.3" width="1" height="1" fill="white" opacity="0.7350751510043545"/>
<rect x="6.7" y="13.3" width="1" height="1" fill="white" opacity="0.6756566933558084"/>
<rect x="7.800000000000001" y="13.3" width="1" height="1" fill="white" opacity="0.7428009551903357"/>
<rect x="8.9" y="13.3" width="1" height="1" fill="white" opacity="0.7738446411012783"/>
<rect x="10" y="13.3" width="1" height="1" fill="white" opacity="0.6781851383621295"/>
<rect x="11.1" y="13.3" width="1" height="1" fill="white" opacity="0.7169546284590532"/>
<rect x="12.200000000000001" y="13.3" width="1" height="1" fill="white" opacity="0.8482932996207333"/>
<rect x="13.3" y="13.3" width="1" height="1" fill="white" opacity="0.8162663295406658"/>
<rect x="14.4" y="13.3" width="1" height="1" fill="white" opacity="0.8482932996207333"/>
<rect x="15.500000000000002" y="13.3" width="1" height="1" fill="white" opacity="0.8162663295406658"/>
<rect x="0.1" y="14.4" width="1" height="1" fill="white" opacity="0.6923725242309313"/>
<rect x="1.2000000000000002" y="14.4" width="1" height="1" fill="white" opacity="0.5250737463126843"/>
<rect x="2.3000000000000003" y="14.4" width="1" height="1" fill="white" opacity="0.8141592920353983"/>
<rect x="3.4000000000000004" y="14.4" width="1" height="1" fill="white" opacity="0.5250737463126843"/>
<rect x="4.5" y="14.4" width="1" height="1" fill="white" opacity="0.8130355386992555"/>
<rect x="5.6" y="14.4" width="1" height="1" fill="white" opacity="0.39303272931591515"/>
<rect x="6.7" y="14.4" width="1" height="1" fill="white" opacity="0.6038769490096924"/>
<rect x="7.800000000000001" y="14.4" width="1" height="1" fill="white" opacity="0.47745469869363677"/>
<rect x="8.9" y="14.4" width="1" height="1" fill="white" opacity="0.76007866273353"/>
<rect x="10" y="14.4" width="1" height="1" fill="white" opacity="0.5030200870908835"/>
<rect x="11.1" y="14.4" width="1" height="1" fill="white" opacity="0.8102261553588987"/>
<rect x="12.200000000000001" y="14.4" width="1" height="1" fill="white" opacity="0.5247928079786487"/>
<rect x="13.3" y="14.4" width="1" height="1" fill="white" opacity="0.8102261553588987"/>
<rect x="14.4" y="14.4" width="1" height="1" fill="white" opacity="0.5247928079786487"/>
<rect x="15.500000000000002" y="14.4" width="1" height="1" fill="white" opacity="0.7749683944374209"/>
<rect x="0.1" y="15.500000000000002" width="1" height="1" fill="white" opacity="0.6005056890012642"/>
<rect x="1.2000000000000002" y="15.500000000000002" width="1" height="1" fill="white" opacity="0.7958983003230791"/>
<rect x="2.3000000000000003" y="15.500000000000002" width="1" height="1" fill="white" opacity="0.7982862761623823"/>
<rect x="3.4000000000000004" y="15.500000000000002" width="1" height="1" fill="white" opacity="0.8445006321112516"/>
<rect x="4.5" y="15.500000000000002" width="1" height="1" fill="white" opacity="0.7755302711054923"/>
<rect x="5.6" y="15.500000000000002" width="1" height="1" fill="white" opacity="0.7812895069532237"/>
<rect x="6.7" y="15.500000000000002" width="1" height="1" fill="white" opacity="0.7235566793088917"/>
<rect x="7.800000000000001" y="15.500000000000002" width="1" height="1" fill="white" opacity="0.46326731282483496"/>
<rect x="8.9" y="15.500000000000002" width="1" height="1" fill="white" opacity="0.6981317600786627"/>
<rect x="10" y="15.500000000000002" width="1" height="1" fill="white" opacity="0.8370557662593061"/>
<rect x="11.1" y="15.500000000000002" width="1" height="1" fill="white" opacity="0.8162663295406658"/>
<rect x="12.200000000000001" y="15.500000000000002" width="1" height="1" fill="white" opacity="0.8482932996207333"/>
<rect x="13.3" y="15.500000000000002" width="1" height="1" fill="white" opacity="0.7981458069953645"/>
<rect x="14.4" y="15.500000000000002" width="1" height="1" fill="white" opacity="0.7755302711054923"/>
<rect x="15.500000000000002" y="15.500000000000002" width="1" height="1" fill="white" opacity="0.6239640398932434"/>
</svg>
