<svg xmlns="http://www.w3.org/2000/svg" width="240" height="240" viewBox="0 0 23.2 23.2"><rect width="23.2" height="23.2" fill="black"/><rect x="0.1" y="0.1" width="1" height="1" fill="white" opacity="0.6666666666666666"/>
<rect x="1.2000000000000002" y="0.1" width="1" height="1" fill="white" opacity="0.8888888888888888"/>
<rect x="2.3000000000000003" y="0.1" width="1" height="1" fill="white" opacity="0.7407407407407407"/>
<rect x="3.4000000000000004" y="0.1" width="1" height="1" fill="white" opacity="0.9259259259259259"/>
<rect x="4.5" y="0.1" width="1" height="1" fill="white" opacity="0.7407407407407407"/>
<rect x="5.6" y="0.1" width="1" height="1" fill="white" opacity="0.8148148148148148"/>
<rect x="6.7" y="0.1" width="1" height="1" fill="white" opacity="0.7037037037037037"/>
<rect x="7.800000000000001" y="0.1" width="1" height="1" fill="white" opacity="0.8148148148148148"/>
<rect x="8.9" y="0.1" width="1" height="1" fill="white" opacity="0.6296296296296297"/>
<rect x="10" y="0.1" width="1" height="1" fill="white" opacity="0.8518518518518519"/>
<rect x="11.1" y="0.1" width="1" height="1" fill="white" opacity="0.6296296296296297"/>
<rect x="12.200000000000001" y="0.1" width="1" height="1" fill="white" opacity="0.9259259259259259"/>
<rect x="13.3" y="0.1" width="1" height="1" fill="white" opacity="0.6296296296296297"/>
<rect x="14.4" y="0.1" width="1" height="1" fill="white" opacity="0.8888888888888888"/>
<rect x="15.500000000000002" y="0.1" width="1" height="1" fill="white" opacity="0.6296296296296297"/>
<rect x="16.6" y="0.1" width="1" height="1" fill="white" opacity="0.8888888888888888"/>
<rect x="17.700000000000003" y="0.1" width="1" height="1" fill="white" opacity="0.7037037037037037"/>
<rect x="18.800000000000004" y="0.1" width="1" height="1" fill="white" opacity="0.8888888888888888"/>
<rect x="19.900000000000002" y="0.1" width="1" height="1" fill="white" opacity="0.7037037037037037"/>
<rect x="21.000000000000004" y="0.1" width="1" height="1" fill="white" opacity="0.7777777777777778"/>
<rect x="22.1" y="0.1" width="1" height="1" fill="white" opacity="0.5555555555555556"/>
<rect x="0.1" y="1.2000000000000002" width="1" height="1" fill="white" opacity="0.8888888888888888"/>
<rect x="1.2000000000000002" y="1.2000000000000002" width="1" height="1" fill="white" opacity="0.37037037037037035"/>
<rect x="2.3000000000000003" y="1.2000000000000002" width="1" height="1" fill="white" opacity="0.9259259259259259"/>
<rect x="3.4000000000000004" y="1.2000000000000002" width="1" height="1" fill="white" opacity="0.4074074074074074"/>
<rect x="4.5" y="1.2000000000000002" width="1" height="1" fill="white" opacity="0.8888888888888888"/>
<rect x="5.6" y="1.2000000000000002" width="1" height="1" fill="white" opacity="0.4074074074074074"/>
<rect x="6.7" y="1.2000000000000002" width="1" height="1" fill="white" opacity="0.8888888888888888"/>
<rect x="7.800000000000001" y="1.2000000000000002" width="1" height="1" fill="white" opacity="0.4074074074074074"/>
<rect x="8.9" y="1.2000000000000002" width="1" height="1" fill="white" opacity="0.8518518518518519"/>
<rect x="10" y="1.2000000000000002" width="1" height="1" fill="white" opacity="0.3333333333333333"/>
<rect x="11.1" y="1.2000000000000002" width="1" height="1" fill="white" opacity="0.9259259259259259"/>
<rect x="12.200000000000001" y="1.2000000000000002" width="1" height="1" fill="white" opacity="0.4074074074074074"/>
<rect x="13.3" y="1.2000000000000002" width="1" height="1" fill="white" opacity="0.7777777777777778"/>
<rect x="14.4" y="1.2000000000000002" width="1" height="1" fill="white" opacity="0.4074074074074074"/>
<rect x="15.500000000000002" y="1.2000000000000002" width="1" height="1" fill="white" opacity="0.8518518518518519"/>
<rect x="16.6" y="1.2000000000000002" width="1" height="1" fill="white" opacity="0.37037037037037035"/>
<rect x="17.700000000000003" y="1.2000000000000002" width="1" height="1" fill="white" opacity="0.8148148148148148"/>
<rect x="18.800000000000004" y="1.2000000000000002" width="1" height="1" fill="white" opacity="0.4074074074074074"/>
<rect x="19.900000000000002" y="1.2000000000000002" width="1" height="1" fill="white" opacity="0.9259259259259259"/>
<rect x="21.000000000000004" y="1.2000000000000002" width="1" height="1" fill="white" opacity="0.37037037037037035"/>
<rect x="22.1" y="1.2000000000000002" width="1" height="1" fill="white" opacity="0.8518518518518519"/>
<rect x="0.1" y="2.3000000000000003" width="1" height="1" fill="white" opacity="0.7037037037037037"/>
<rect x="1.2000000000000002" y="2.3000000000000003" width="1" height="1" fill="white" opacity="0.9259259259259259"/>
<rect x="2.3000000000000003" y="2.3000000000000003" width="1" height="1" fill="white" opacity="0.7407407407407407"/>
<rect x="3.4000000000000004" y="2.3000000000000003" width="1" height="1" fill="white" opacity="0.9259259259259259"/>
<rect x="4.5" y="2.3000000000000003" width="1" height="1" fill="white" opacity="0.7037037037037037"/>
<rect x="5.6" y="2.3000000000000003" width="1" height="1" fill="white" opacity="0.8518518518518519"/>
<rect x="6.7" y="2.3000000000000003" width="1" height="1" fill="white" opacity="0.7407407407407407"/>
<rect x="7.800000000000001" y="2.3000000000000003" width="1" height="1" fill="white" opacity="0.7407407407407407"/>
<rect x="8.9" y="2.3000000000000003" width="1" height="1" fill="white" opacity="0.7037037037037037"/>
<rect x="10" y="2.3000000000000003" width="1" height="1" fill="white" opacity="0.7407407407407407"/>
<rect x="11.1" y="2.3000000000000003" width="1" height="1" fill="white" opacity="0.7407407407407407"/>
<rect x="12.200000000000001" y="2.3000000000000003" width="1" height="1" fill="white" opacity="0.8148148148148148"/>
<rect x="13.3" y="2.3000000000000003" width="1" height="1" fill="white" opacity="0.6666666666666666"/>
<rect x="14.4" y="2.3000000000000003" width="1" height="1" fill="white" opacity="0.8518518518518519"/>
<rect x="15.500000000000002" y="2.3000000000000003" width="1" height="1" fill="white" opacity="0.7407407407407407"/>
<rect x="16.6" y="2.3000000000000003" width="1" height="1" fill="white" opacity="0.7037037037037037"/>
<rect x="17.700000000000003" y="2.3000000000000003" width="1" height="1" fill="white" opacity="0.7407407407407407"/>
<rect x="18.800000000000004" y="2.3000000000000003" width="1" height="1" fill="white" opacity="0.8888888888888888"/>
<rect x="19.900000000000002" y="2.3000000000000003" width="1" height="1" fill="white" opacity="0.7407407407407407"/>
<rect x="21.000000000000004" y="2.3000000000000003" width="1" height="1" fill="white" opacity="0.8888888888888888"/>
<rect x="22.1" y="2.3000000000000003" width="1" height="1" fill="white" opacity="0.7037037037037037"/>
<rect x="0.1" y="3.4000000000000004" width="1" height="1" fill="white" opacity="0.9259259259259259"/>
<rect x="1.2000000000000002" y="3.4000000000000004" width="1" height="1" fill="white" opacity="0.4074074074074074"/>
<rect x="2.3000000000000003" y="3.4000000000000004" width="1" height="1" fill="white" opacity="0.9259259259259259"/>
<rect x="3.4000000000000004" y="3.4000000000000004" width="1" height="1" fill="white" opacity="0.4074074074074074"/>
<rect x="4.5" y="3.4000000000000004" width="1" height="1" fill="white" opacity="0.8888888888888888"/>
<rect x="5.6" y="3.4000000000000004" width="1" height="1" fill="white" opacity="0.4074074074074074"/>
<rect x="6.7" y="3.4000000000000004" width="1" height="1" fill="white" opacity="0.8888888888888888"/>
<rect x="7.800000000000001" y="3.4000000000000004" width="1" height="1" fill="white" opacity="0.37037037037037035"/>
<rect x="8.9" y="3.4000000000000004" width="1" height="1" fill="white" opacity="0.8148148148148148"/>
<rect x="10" y="3.4000000000000004" width="1" height="1" fill="white" opacity="0.3333333333333333"/>
<rect x="11.1" y="3.4000000000000004" width="1" height="1" fill="white" opacity="0.8518518518518519"/>
<rect x="12.200000000000001" y="3.4000000000000004" width="1" height="1" fill="white" opacity="0.4074074074074074"/>
<rect x="13.3" y="3.4000000000000004" width="1" height="1" fill="white" opacity="0.8888888888888888"/>
<rect x="14.4" y="3.4000000000000004" width="1" height="1" fill="white" opacity="0.37037037037037035"/>
<rect x="15.500000000000002" y="3.4000000000000004" width="1" height="1" fill="white" opacity="0.8518518518518519"/>
<rect x="16.6" y="3.4000000000000004" width="1" height="1" fill="white" opacity="0.4074074074074074"/>
<rect x="17.700000000000003" y="3.4000000000000004" width="1" height="1" fill="white" opacity="0.8518518518518519"/>
<rect x="18.800000000000004" y="3.4000000000000004" width="1" height="1" fill="white" opacity="0.4074074074074074"/>
<rect x="19.900000000000002" y="3.4000000000000004" width="1" height="1" fill="white" opacity="0.9259259259259259"/>
<rect x="21.000000000000004" y="3.4000000000000004" width="1" height="1" fill="white" opacity="0.4074074074074074"/>
<rect x="22.1" y="3.4000000000000004" width="1" height="1" fill="white" opacity="0.9259259259259259"/>
<rect x="0.1" y="4.5" width="1" height="1" fill="white" opacity="0.7037037037037037"/>
<rect x="1.2000000000000002" y="4.5" width="1" height="1" fill="white" opacity="0.8888888888888888"/>
<rect x="2.3000000000000003" y="4.5" width="1" height="1" fill="white" opacity="0.7407407407407407"/>
<rect x="3.4000000000000004" y="4.5" width="1" height="1" fill="white" opacity="0.8888888888888888"/>
<rect x="4.5" y="4.5" width="1" height="1" fill="white" opacity="0.6666666666666666"/>
<rect x="5.6" y="4.5" width="1" height="1" fill="white" opacity="0.8518518518518519"/>
<rect x="6.7" y="4.5" width="1" height="1" fill="white" opacity="0.6296296296296297"/>
<rect x="7.800000000000001" y="4.5" width="1" height="1" fill="white" opacity="0.6666666666666666"/>
<rect x="8.9" y="4.5" width="1" height="1" fill="white" opacity="0.7037037037037037"/>
<rect x="10" y="4.5" width="1" height="1" fill="white" opacity="0.8148148148148148"/>
<rect x="11.1" y="4.5" width="1" height="1" fill="white" opacity="0.7037037037037037"/>
<rect x="12.200000000000001" y="4.5" width="1" height="1" fill="white" opacity="0.7777777777777778"/>
<rect x="13.3" y="4.5" width="1" height="1" fill="white" opacity="0.5555555555555556"/>
<rect x="14.4" y="4.5" width="1" height="1" fill="white" opacity="0.7037037037037037"/>
<rect x="15.500000000000002" y="4.5" width="1" height="1" fill="white" opacity="0.5925925925925926"/>
<rect x="16.6" y="4.5" width="1" height="1" fill="white" opacity="0.7407407407407407"/>
<rect x="17.700000000000003" y="4.5" width="1" height="1" fill="white" opacity="0.7037037037037037"/>
<rect x="18.800000000000004" y="4.5" width="1" height="1" fill="white" opacity="0.8888888888888888"/>
<rect x="19.900000000000002" y="4.5" width="1" height="1" fill="white" opacity="0.7407407407407407"/>
<rect x="21.000000000000004" y="4.5" width="1" height="1" fill="white" opacity="0.8518518518518519"/>
<rect x="22.1" y="4.5" width="1" height="1" fill="white" opacity="0.7407407407407407"/>
<rect x="0.1" y="5.6" width="1" height="1" fill="white" opacity="0.8518518518518519"/>
<rect x="1.2000000000000002" y="5.6" width="1" height="1" fill="white" opacity="0.4074074074074074"/>
<rect x="2.3000000000000003" y="5.6" width="1" height="1" fill="white" opacity="0.7037037037037037"/>
<rect x="3.4000000000000004" y="5.6" width="1" height="1" fill="white" opacity="0.37037037037037035"/>
<rect x="4.5" y="5.6" width="1" height="1" fill="white" opacity="0.7777777777777778"/>
<rect x="5.6" y="5.6" width="1" height="1" fill="white" opacity="0.37037037037037035"/>
<rect x="6.7" y="5.6" width="1" height="1" fill="white" opacity="0.6666666666666666"/>
<rect x="7.800000000000001" y="5.6" width="1" height="1" fill="white" opacity="0.4074074074074074"/>
<rect x="8.9" y="5.6" width="1" height="1" fill="white" opacity="0.7777777777777778"/>
<rect x="10" y="5.6" width="1" height="1" fill="white" opacity="0.3333333333333333"/>
<rect x="11.1" y="5.6" width="1" height="1" fill="white" opacity="0.8148148148148148"/>
<rect x="12.200000000000001" y="5.6" width="1" height="1" fill="white" opacity="0.3333333333333333"/>
<rect x="13.3" y="5.6" width="1" height="1" fill="white" opacity="0.8148148148148148"/>
<rect x="14.4" y="5.6" width="1" height="1" fill="white" opacity="0.4074074074074074"/>
<rect x="15.500000000000002" y="5.6" width="1" height="1" fill="white" opacity="0.7037037037037037"/>
<rect x="16.6" y="5.6" width="1" height="1" fill="white" opacity="0.2962962962962963"/>
<rect x="17.700000000000003" y="5.6" width="1" height="1" fill="white" opacity="0.7777777777777778"/>
<rect x="18.800000000000004" y="5.6" width="1" height="1" fill="white" opacity="0.4074074074074074"/>
<rect x="19.900000000000002" y="5.6" width="1" height="1" fill="white" opacity="0.7777777777777778"/>
<rect x="21.000000000000004" y="5.6" width="1" height="1" fill="white" opacity="0.37037037037037035"/>
<rect x="22.1" y="5.6" width="1" height="1" fill="white" opacity="0.8148148148148148"/>
<rect x="0.1" y="6.7" width="1" height="1" fill="white" opacity="0.6296296296296297"/>
<rect x="1.2000000000000002" y="6.7" width="1" height="1" fill="white" opacity="0.7777777777777778"/>
<rect x="2.3000000000000003" y="6.7" width="1" height="1" fill="white" opacity="0.6666666666666666"/>
<rect x="3.4000000000000004" y="6.7" width="1" height="1" fill="white" opacity="0.8148148148148148"/>
<rect x="4.5" y="6.7" width="1" height="1" fill="white" opacity="0.5555555555555556"/>
<rect x="5.6" y="6.7" width="1" height="1" fill="white" opacity="0.7037037037037037"/>
<rect x="6.7" y="6.7" width="1" height="1" fill="white" opacity="0.7037037037037037"/>
<rect x="7.800000000000001" y="6.7" width="1" height="1" fill="white" opacity="0.7037037037037037"/>
<rect x="8.9" y="6.7" width="1" height="1" fill="white" opacity="0.7407407407407407"/>
<rect x="10" y="6.7" width="1" height="1" fill="white" opacity="0.8148148148148148"/>
<rect x="11.1" y="6.7" width="1" height="1" fill="white" opacity="0.7037037037037037"/>
<rect x="12.200000000000001" y="6.7" width="1" height="1" fill="white" opacity="0.7037037037037037"/>
<rect x="13.3" y="6.7" width="1" height="1" fill="white" opacity="0.7407407407407407"/>
<rect x="14.4" y="6.7" width="1" height="1" fill="white" opacity="0.7407407407407407"/>
<rect x="15.500000000000002" y="6.7" width="1" height="1" fill="white" opacity="0.6296296296296297"/>
<rect x="16.6" y="6.7" width="1" height="1" fill="white" opacity="0.7407407407407407"/>
<rect x="17.700000000000003" y="6.7" width="1" height="1" fill="white" opacity="0.6666666666666666"/>
<rect x="18.800000000000004" y="6.7" width="1" height="1" fill="white" opacity="0.8518518518518519"/>
<rect x="19.900000000000002" y="6.7" width="1" height="1" fill="white" opacity="0.7037037037037037"/>
<rect x="21.000000000000004" y="6.7" width="1" height="1" fill="white" opacity="0.8518518518518519"/>
<rect x="22.1" y="6.7" width="1" height="1" fill="white" opacity="0.6666666666666666"/>
<rect x="0.1" y="7.800000000000001" width="1" height="1" fill="white" opacity="0.7777777777777778"/>
<rect x="1.2000000000000002" y="7.800000000000001" width="1" height="1" fill="white" opacity="0.37037037037037035"/>
<rect x="2.3000000000000003" y="7.800000000000001" width="1" height="1" fill="white" opacity="0.7777777777777778"/>
<rect x="3.4000000000000004" y="7.800000000000001" width="1" height="1" fill="white" opacity="0.4074074074074074"/>
<rect x="4.5" y="7.800000000000001" width="1" height="1" fill="white" opacity="0.7037037037037037"/>
<rect x="5.6" y="7.800000000000001" width="1" height="1" fill="white" opacity="0.4074074074074074"/>
<rect x="6.7" y="7.800000000000001" width="1" height="1" fill="white" opacity="0.7037037037037037"/>
<rect x="7.800000000000001" y="7.800000000000001" width="1" height="1" fill="white" opacity="0.37037037037037035"/>
<rect x="8.9" y="7.800000000000001" width="1" height="1" fill="white" opacity="0.7037037037037037"/>
<rect x="10" y="7.800000000000001" width="1" height="1" fill="white" opacity="0.4074074074074074"/>
<rect x="11.1" y="7.800000000000001" width="1" height="1" fill="white" opacity="0.7407407407407407"/>
<rect x="12.200000000000001" y="7.800000000000001" width="1" height="1" fill="white" opacity="0.4074074074074074"/>
<rect x="13.3" y="7.800000000000001" width="1" height="1" fill="white" opacity="0.7407407407407407"/>
<rect x="14.4" y="7.800000000000001" width="1" height="1" fill="white" opacity="0.37037037037037035"/>
<rect x="15.500000000000002" y="7.800000000000001" width="1" height="1" fill="white" opacity="0.7407407407407407"/>
<rect x="16.6" y="7.800000000000001" width="1" height="1" fill="white" opacity="0.4074074074074074"/>
<rect x="17.700000000000003" y="7.800000000000001" width="1" height="1" fill="white" opacity="0.6666666666666666"/>
<rect x="18.800000000000004" y="7.800000000000001" width="1" height="1" fill="white" opacity="0.37037037037037035"/>
<rect x="19.900000000000002" y="7.800000000000001" width="1" height="1" fill="white" opacity="0.6666666666666666"/>
<rect x="21.000000000000004" y="7.800000000000001" width="1" height="1" fill="white" opacity="0.3333333333333333"/>
<rect x="22.1" y="7.800000000000001" width="1" height="1" fill="white" opacity="0.7407407407407407"/>
<rect x="0.1" y="8.9" width="1" height="1" fill="white" opacity="0.6666666666666666"/>
<rect x="1.2000000000000002" y="8.9" width="1" height="1" fill="white" opacity="0.7777777777777778"/>
<rect x="2.3000000000000003" y="8.9" width="1" height="1" fill="white" opacity="0.7037037037037037"/>
<rect x="3.4000000000000004" y="8.9" width="1" height="1" fill="white" opacity="0.8518518518518519"/>
<rect x="4.5" y="8.9" width="1" height="1" fill="white" opacity="0.7037037037037037"/>
<rect x="5.6" y="8.9" width="1" height="1" fill="white" opacity="0.5925925925925926"/>
<rect x="6.7" y="8.9" width="1" height="1" fill="white" opacity="0.6666666666666666"/>
<rect x="7.800000000000001" y="8.9" width="1" height="1" fill="white" opacity="0.8518518518518519"/>
<rect x="8.9" y="8.9" width="1" height="1" fill="white" opacity="0.5925925925925926"/>
<rect x="10" y="8.9" width="1" height="1" fill="white" opacity="0.7777777777777778"/>
<rect x="11.1" y="8.9" width="1" height="1" fill="white" opacity="0.7407407407407407"/>
<rect x="12.200000000000001" y="8.9" width="1" height="1" fill="white" opacity="0.8148148148148148"/>
<rect x="13.3" y="8.9" width="1" height="1" fill="white" opacity="0.6666666666666666"/>
<rect x="14.4" y="8.9" width="1" height="1" fill="white" opacity="0.8148148148148148"/>
<rect x="15.500000000000002" y="8.9" width="1" height="1" fill="white" opacity="0.7037037037037037"/>
<rect x="16.6" y="8.9" width="1" height="1" fill="white" opacity="0.8888888888888888"/>
<rect x="17.700000000000003" y="8.9" width="1" height="1" fill="white" opacity="0.7037037037037037"/>
<rect x="18.800000000000004" y="8.9" width="1" height="1" fill="white" opacity="0.8148148148148148"/>
<rect x="19.900000000000002" y="8.9" width="1" height="1" fill="white" opacity="0.6296296296296297"/>
<rect x="21.000000000000004" y="8.9" width="1" height="1" fill="white" opacity="0.7777777777777778"/>
<rect x="22.1" y="8.9" width="1" height="1" fill="white" opacity="0.5925925925925926"/>
<rect x="0.1" y="10" width="1" height="1" fill="white" opacity="0.6666666666666666"/>
<rect x="1.2000000000000002" y="10" width="1" height="1" fill="white" opacity="0.4074074074074074"/>
<rect x="2.3000000000000003" y="10" width="1" height="1" fill="white" opacity="0.9629629629629629"/>
<rect x="3.4000000000000004" y="10" width="1" height="1" fill="white" opacity="0.4074074074074074"/>
<rect x="4.5" y="10" width="1" height="1" fill="white" opacity="0.9629629629629629"/>
<rect x="5.6" y="10" width="1" height="1" fill="white" opacity="0.3333333333333333"/>
<rect x="6.7" y="10" width="1" height="1" fill="white" opacity="0.8148148148148148"/>
<rect x="7.800000000000001" y="10" width="1" height="1" fill="white" opacity="0.3333333333333333"/>
<rect x="8.9" y="10" width="1" height="1" fill="white" opacity="0.7407407407407407"/>
<rect x="10" y="10" width="1" height="1" fill="white" opacity="0.2962962962962963"/>
<rect x="11.1" y="10" width="1" height="1" fill="white" opacity="0.7037037037037037"/>
<rect x="12.200000000000001" y="10" width="1" height="1" fill="white" opacity="0.3333333333333333"/>
<rect x="13.3" y="10" width="1" height="1" fill="white" opacity="0.8518518518518519"/>
<rect x="14.4" y="10" width="1" height="1" fill="white" opacity="0.2962962962962963"/>
<rect x="15.500000000000002" y="10" width="1" height="1" fill="white" opacity="0.7037037037037037"/>
<rect x="16.6" y="10" width="1" height="1" fill="white" opacity="0.37037037037037035"/>
<rect x="17.700000000000003" y="10" width="1" height="1" fill="white" opacity="0.7777777777777778"/>
<rect x="18.800000000000004" y="10" width="1" height="1" fill="white" opacity="0.3333333333333333"/>
<rect x="19.900000000000002" y="10" width="1" height="1" fill="white" opacity="0.9259259259259259"/>
<rect x="21.000000000000004" y="10" width="1" height="1" fill="white" opacity="0.37037037037037035"/>
<rect x="22.1" y="10" width="1" height="1" fill="white" opacity="0.8518518518518519"/>
<rect x="0.1" y="11.1" width="1" height="1" fill="white" opacity="0.7037037037037037"/>
<rect x="1.2000000000000002" y="11.1" width="1" height="1" fill="white" opacity="0.7777777777777778"/>
<rect x="2.3000000000000003" y="11.1" width="1" height="1" fill="white" opacity="0.7407407407407407"/>
<rect x="3.4000000000000004" y="11.1" width="1" height="1" fill="white" opacity="0.8148148148148148"/>
<rect x="4.5" y="11.1" width="1" height="1" fill="white" opacity="0.6666666666666666"/>
<rect x="5.6" y="11.1" width="1" height="1" fill="white" opacity="0.8888888888888888"/>
<rect x="6.7" y="11.1" width="1" height="1" fill="white" opacity="0.7777777777777778"/>
<rect x="7.800000000000001" y="11.1" width="1" height="1" fill="white" opacity="0.7407407407407407"/>
<rect x="8.9" y="11.1" width="1" height="1" fill="white" opacity="0.7407407407407407"/>
<rect x="10" y="11.1" width="1" height="1" fill="white" opacity="0.8518518518518519"/>
<rect x="11.1" y="11.1" width="1" height="1" fill="white" opacity="0.3333333333333333"/>
<rect x="12.200000000000001" y="11.1" width="1" height="1" fill="white" opacity="0.8518518518518519"/>
<rect x="13.3" y="11.1" width="1" height="1" fill="white" opacity="0.7407407407407407"/>
<rect x="14.4" y="11.1" width="1" height="1" fill="white" opacity="0.7407407407407407"/>
<rect x="15.500000000000002" y="11.1" width="1" height="1" fill="white" opacity="0.7777777777777778"/>
<rect x="16.6" y="11.1" width="1" height="1" fill="white" opacity="0.8888888888888888"/>
<rect x="17.700000000000003" y="11.1" width="1" height="1" fill="white" opacity="0.6666666666666666"/>
<rect x="18.800000000000004" y="11.1" width="1" height="1" fill="white" opacity="0.8148148148148148"/>
<rect x="19.900000000000002" y="11.1" width="1" height="1" fill="white" opacity="0.7407407407407407"/>
<rect x="21.000000000000004" y="11.1" width="1" height="1" fill="white" opacity="0.7777777777777778"/>
<rect x="22.1" y="11.1" width="1" height="1" fill="white" opacity="0.7037037037037037"/>
<rect x="0.1" y="12.200000000000001" width="1" height="1" fill="white" opacity="0.8518518518518519"/>
<rect x="1.2000000000000002" y="12.200000000000001" width="1" height="1" fill="white" opacity="0.37037037037037035"/>
<rect x="2.3000000000000003" y="12.200000000000001" width="1" height="1" fill="white" opacity="0.9259259259259259"/>
<rect x="3.4000000000000004" y="12.200000000000001" width="1" height="1" fill="white" opacity="0.3333333333333333"/>
<rect x="4.5" y="12.200000000000001" width="1" height="1" fill="white" opacity="0.7777777777777778"/>
<rect x="5.6" y="12.200000000000001" width="1" height="1" fill="white" opacity="0.37037037037037035"/>
<rect x="6.7" y="12.200000000000001" width="1" height="1" fill="white" opacity="0.7037037037037037"/>
<rect x="7.800000000000001" y="12.200000000000001" width="1" height="1" fill="white" opacity="0.2962962962962963"/>
<rect x="8.9" y="12.200000000000001" width="1" height="1" fill="white" opacity="0.8518518518518519"/>
<rect x="10" y="12.200000000000001" width="1" height="1" fill="white" opacity="0.3333333333333333"/>
<rect x="11.1" y="12.200000000000001" width="1" height="1" fill="white" opacity="0.7037037037037037"/>
<rect x="12.200000000000001" y="12.200000000000001" width="1" height="1" fill="white" opacity="0.2962962962962963"/>
<rect x="13.3" y="12.200000000000001" width="1" height="1" fill="white" opacity="0.7407407407407407"/>
<rect x="14.4" y="12.200000000000001" width="1" height="1" fill="white" opacity="0.3333333333333333"/>
<rect x="15.500000000000002" y="12.200000000000001" width="1" height="1" fill="white" opacity="0.8148148148148148"/>
<rect x="16.6" y="12.200000000000001" width="1" height="1" fill="white" opacity="0.3333333333333333"/>
<rect x="17.700000000000003" y="12.200000000000001" width="1" height="1" fill="white" opacity="0.9629629629629629"/>
<rect x="18.800000000000004" y="12.200000000000001" width="1" height="1" fill="white" opacity="0.4074074074074074"/>
<rect x="19.900000000000002" y="12.200000000000001" width="1" height="1" fill="white" opacity="0.9629629629629629"/>
<rect x="21.000000000000004" y="12.200000000000001" width="1" height="1" fill="white" opacity="0.4074074074074074"/>
<rect x="22.1" y="12.200000000000001" width="1" height="1" fill="white" opacity="0.6666666666666666"/>
<rect x="0.1" y="13.3" width="1" height="1" fill="white" opacity="0.5925925925925926"/>
<rect x="1.2000000000000002" y="13.3" width="1" height="1" fill="white" opacity="0.7777777777777778"/>
<rect x="2.3000000000000003" y="13.3" width="1" height="1" fill="white" opacity="0.6296296296296297"/>
<rect x="3.4000000000000004" y="13.3" width="1" height="1" fill="white" opacity="0.8148148148148148"/>
<rect x="4.5" y="13.3" width="1" height="1" fill="white" opacity="0.7037037037037037"/>
<rect x="5.6" y="13.3" width="1" height="1" fill="white" opacity="0.8888888888888888"/>
<rect x="6.7" y="13.3" width="1" height="1" fill="white" opacity="0.7037037037037037"/>
<rect x="7.800000000000001" y="13.3" width="1" height="1" fill="white" opacity="0.8148148148148148"/>
<rect x="8.9" y="13.3" width="1" height="1" fill="white" opacity="0.6666666666666666"/>
<rect x="10" y="13.3" width="1" height="1" fill="white" opacity="0.8148148148148148"/>
<rect x="11.1" y="13.3" width="1" height="1" fill="white" opacity="0.7407407407407407"/>
<rect x="12.200000000000001" y="13.3" width="1" height="1" fill="white" opacity="0.7777777777777778"/>
<rect x="13.3" y="13.3" width="1" height="1" fill="white" opacity="0.5925925925925926"/>
<rect x="14.4" y="13.3" width="1" height="1" fill="white" opacity="0.8518518518518519"/>
<rect x="15.500000000000002" y="13.3" width="1" height="1" fill="white" opacity="0.6666666666666666"/>
<rect x="16.6" y="13.3" width="1" height="1" fill="white" opacity="0.5925925925925926"/>
<rect x="17.700000000000003" y="13.3" width="1" height="1" fill="white" opacity="0.7037037037037037"/>
<rect x="18.800000000000004" y="13.3" width="1" height="1" fill="white" opacity="0.8518518518518519"/>
<rect x="19.900000000000002" y="13.3" width="1" height="1" fill="white" opacity="0.7037037037037037"/>
<rect x="21.000000000000004" y="13.3" width="1" height="1" fill="white" opacity="0.7777777777777778"/>
<rect x="22.1" y="13.3" width="1" height="1" fill="white" opacity="0.6666666666666666"/>
<rect x="0.1" y="14.4" width="1" height="1" fill="white" opacity="0.7407407407407407"/>
<rect x="1.2000000000000002" y="14.4" width="1" height="1" fill="white" opacity="0.3333333333333333"/>
<rect x="2.3000000000000003" y="14.4" width="1" height="1" fill="white" opacity="0.6666666666666666"/>
<rect x="3.4000000000000004" y="14.4" width="1" height="1" fill="white" opacity="0.37037037037037035"/>
<rect x="4.5" y="14.4" width="1" height="1" fill="white" opacity="0.6666666666666666"/>
<rect x="5.6" y="14.4" width="1" height="1" fill="white" opacity="0.4074074074074074"/>
<rect x="6.7" y="14.4" width="1" height="1" fill="white" opacity="0.7407407407407407"/>
<rect x="7.800000000000001" y="14.4" width="1" height="1" fill="white" opacity="0.37037037037037035"/>
<rect x="8.9" y="14.4" width="1" height="1" fill="white" opacity="0.7407407407407407"/>
<rect x="10" y="14.4" width="1" height="1" fill="white" opacity="0.4074074074074074"/>
<rect x="11.1" y="14.4" width="1" height="1" fill="white" opacity="0.7407407407407407"/>
<rect x="12.200000000000001" y="14.4" width="1" height="1" fill="white" opacity="0.4074074074074074"/>
<rect x="13.3" y="14.4" width="1" height="1" fill="white" opacity="0.7037037037037037"/>
<rect x="14.4" y="14.4" width="1" height="1" fill="white" opacity="0.37037037037037035"/>
<rect x="15.500000000000002" y="14.4" width="1" height="1" fill="white" opacity="0.7037037037037037"/>
<rect x="16.6" y="14.4" width="1" height="1" fill="white" opacity="0.4074074074074074"/>
<rect x="17.700000000000003" y="14.4" width="1" height="1" fill="white" opacity="0.7037037037037037"/>
<rect x="18.800000000000004" y="14.4" width="1" height="1" fill="white" opacity="0.4074074074074074"/>
<rect x="19.900000000000002" y="14.4" width="1" height="1" fill="white" opacity="0.7777777777777778"/>
<rect x="21.000000000000004" y="14.4" width="1" height="1" fill="white" opacity="0.37037037037037035"/>
<rect x="22.1" y="14.4" width="1" height="1" fill="white" opacity="0.7777777777777778"/>
<rect x="0.1" y="15.500000000000002" width="1" height="1" fill="white" opacity="0.6666666666666666"/>
<rect x="1.2000000000000002" y="15.500000000000002" width="1" height="1" fill="white" opacity="0.8518518518518519"/>
<rect x="2.3000000000000003" y="15.500000000000002" width="1" height="1" fill="white" opacity="0.7037037037037037"/>
<rect x="3.4000000000000004" y="15.500000000000002" width="1" height="1" fill="white" opacity="0.8518518518518519"/>
<rect x="4.5" y="15.500000000000002" width="1" height="1" fill="white" opacity="0.6666666666666666"/>
<rect x="5.6" y="15.500000000000002" width="1" height="1" fill="white" opacity="0.7407407407407407"/>
<rect x="6.7" y="15.500000000000002" width="1" height="1" fill="white" opacity="0.6296296296296297"/>
<rect x="7.800000000000001" y="15.500000000000002" width="1" height="1" fill="white" opacity="0.7407407407407407"/>
<rect x="8.9" y="15.500000000000002" width="1" height="1" fill="white" opacity="0.7407407407407407"/>
<rect x="10" y="15.500000000000002" width="1" height="1" fill="white" opacity="0.7037037037037037"/>
<rect x="11.1" y="15.500000000000002" width="1" height="1" fill="white" opacity="0.7037037037037037"/>
<rect x="12.200000000000001" y="15.500000000000002" width="1" height="1" fill="white" opacity="0.8148148148148148"/>
<rect x="13.3" y="15.500000000000002" width="1" height="1" fill="white" opacity="0.7407407407407407"/>
<rect x="14.4" y="15.500000000000002" width="1" height="1" fill="white" opacity="0.7037037037037037"/>
<rect x="15.500000000000002" y="15.500000000000002" width="1" height="1" fill="white" opacity="0.7037037037037037"/>
<rect x="16.6" y="15.500000000000002" width="1" height="1" fill="white" opacity="0.7037037037037037"/>
<rect x="17.700000000000003" y="15.500000000000002" width="1" height="1" fill="white" opacity="0.5555555555555556"/>
<rect x="18.800000000000004" y="15.500000000000002" width="1" height="1" fill="white" opacity="0.8148148148148148"/>
<rect x="19.900000000000002" y="15.500000000000002" width="1" height="1" fill="white" opacity="0.6666666666666666"/>
<rect x="21.000000000000004" y="15.500000000000002" width="1" height="1" fill="white" opacity="0.7777777777777778"/>
<rect x="22.1" y="15.500000000000002" width="1" height="1" fill="white" opacity="0.6296296296296297"/>
<rect x="0.1" y="16.6" width="1" height="1" fill="white" opacity="0.8148148148148148"/>
<rect x="1.2000000000000002" y="16.6" width="1" height="1" fill="white" opacity="0.37037037037037035"/>
<rect x="2.3000000000000003" y="16.6" width="1" height="1" fill="white" opacity="0.7777777777777778"/>
<rect x="3.4000000000000004" y="16.6" width="1" height="1" fill="white" opacity="0.4074074074074074"/>
<rect x="4.5" y="16.6" width="1" height="1" fill="white" opacity="0.7777777777777778"/>
<rect x="5.6" y="16.6" width="1" height="1" fill="white" opacity="0.2962962962962963"/>
<rect x="6.7" y="16.6" width="1" height="1" fill="white" opacity="0.7037037037037037"/>
<rect x="7.800000000000001" y="16.6" width="1" height="1" fill="white" opacity="0.4074074074074074"/>
<rect x="8.9" y="16.6" width="1" height="1" fill="white" opacity="0.8148148148148148"/>
<rect x="10" y="16.6" width="1" height="1" fill="white" opacity="0.3333333333333333"/>
<rect x="11.1" y="16.6" width="1" height="1" fill="white" opacity="0.8148148148148148"/>
<rect x="12.200000000000001" y="16.6" width="1" height="1" fill="white" opacity="0.3333333333333333"/>
<rect x="13.3" y="16.6" width="1" height="1" fill="white" opacity="0.7777777777777778"/>
<rect x="14.4" y="16.6" width="1" height="1" fill="white" opacity="0.4074074074074074"/>
<rect x="15.500000000000002" y="16.6" width="1" height="1" fill="white" opacity="0.6666666666666666"/>
<rect x="16.6" y="16.6" width="1" height="1" fill="white" opacity="0.37037037037037035"/>
<rect x="17.700000000000003" y="16.6" width="1" height="1" fill="white" opacity="0.7777777777777778"/>
<rect x="18.800000000000004" y="16.6" width="1" height="1" fill="white" opacity="0.37037037037037035"/>
<rect x="19.900000000000002" y="16.6" width="1" height="1" fill="white" opacity="0.7037037037037037"/>
<rect x="21.000000000000004" y="16.6" width="1" height="1" fill="white" opacity="0.4074074074074074"/>
<rect x="22.1" y="16.6" width="1" height="1" fill="white" opacity="0.8518518518518519"/>
<rect x="0.1" y="17.700000000000003" width="1" height="1" fill="white" opacity="0.7407407407407407"/>
<rect x="1.2000000000000002" y="17.700000000000003" width="1" height="1" fill="white" opacity="0.8518518518518519"/>
<rect x="2.3000000000000003" y="17.700000000000003" width="1" height="1" fill="white" opacity="0.7407407407407407"/>
<rect x="3.4000000000000004" y="17.700000000000003" width="1" height="1" fill="white" opacity="0.8888888888888888"/>
<rect x="4.5" y="17.700000000000003" width="1" height="1" fill="white" opacity="0.7037037037037037"/>
<rect x="5.6" y="17.700000000000003" width="1" height="1" fill="white" opacity="0.7407407407407407"/>
<rect x="6.7" y="17.700000000000003" width="1" height="1" fill="white" opacity="0.5925925925925926"/>
<rect x="7.800000000000001" y="17.700000000000003" width="1" height="1" fill="white" opacity="0.7037037037037037"/>
<rect x="8.9" y="17.700000000000003" width="1" height="1" fill="white" opacity="0.5555555555555556"/>
<rect x="10" y="17.700000000000003" width="1" height="1" fill="white" opacity="0.7777777777777778"/>
<rect x="11.1" y="17.700000000000003" width="1" height="1" fill="white" opacity="0.7037037037037037"/>
<rect x="12.200000000000001" y="17.700000000000003" width="1" height="1" fill="white" opacity="0.8148148148148148"/>
<rect x="13.3" y="17.700000000000003" width="1" height="1" fill="white" opacity="0.7037037037037037"/>
<rect x="14.4" y="17.700000000000003" width="1" height="1" fill="white" opacity="0.6666666666666666"/>
<rect x="15.500000000000002" y="17.700000000000003" width="1" height="1" fill="white" opacity="0.6296296296296297"/>
<rect x="16.6" y="17.700000000000003" width="1" height="1" fill="white" opacity="0.8518518518518519"/>
<rect x="17.700000000000003" y="17.700000000000003" width="1" height="1" fill="white" opacity="0.6666666666666666"/>
<rect x="18.800000000000004" y="17.700000000000003" width="1" height="1" fill="white" opacity="0.8888888888888888"/>
<rect x="19.900000000000002" y="17.700000000000003" width="1" height="1" fill="white" opacity="0.7407407407407407"/>
<rect x="21.000000000000004" y="17.700000000000003" width="1" height="1" fill="white" opacity="0.8888888888888888"/>
<rect x="22.1" y="17.700000000000003" width="1" height="1" fill="white" opacity="0.7037037037037037"/>
<rect x="0.1" y="18.800000000000004" width="1" height="1" fill="white" opacity="0.9259259259259259"/>
<rect x="1.2000000000000002" y="18.800000000000004" width="1" height="1" fill="white" opacity="0.4074074074074074"/>
<rect x="2.3000000000000003" y="18.800000000000004" width="1" height="1" fill="white" opacity="0.9259259259259259"/>
<rect x="3.4000000000000004" y="18.800000000000004" width="1" height="1" fill="white" opacity="0.4074074074074074"/>
<rect x="4.5" y="18.800000000000004" width="1" height="1" fill="white" opacity="0.8518518518518519"/>
<rect x="5.6" y="18.800000000000004" width="1" height="1" fill="white" opacity="0.4074074074074074"/>
<rect x="6.7" y="18.800000000000004" width="1" height="1" fill="white" opacity="0.8518518518518519"/>
<rect x="7.800000000000001" y="18.800000000000004" width="1" height="1" fill="white" opacity="0.37037037037037035"/>
<rect x="8.9" y="18.800000000000004" width="1" height="1" fill="white" opacity="0.8888888888888888"/>
<rect x="10" y="18.800000000000004" width="1" height="1" fill="white" opacity="0.4074074074074074"/>
<rect x="11.1" y="18.800000000000004" width="1" height="1" fill="white" opacity="0.8518518518518519"/>
<rect x="12.200000000000001" y="18.800000000000004" width="1" height="1" fill="white" opacity="0.3333333333333333"/>
<rect x="13.3" y="18.800000000000004" width="1" height="1" fill="white" opacity="0.8148148148148148"/>
<rect x="14.4" y="18.800000000000004" width="1" height="1" fill="white" opacity="0.37037037037037035"/>
<rect x="15.500000000000002" y="18.800000000000004" width="1" height="1" fill="white" opacity="0.8888888888888888"/>
<rect x="16.6" y="18.800000000000004" width="1" height="1" fill="white" opacity="0.4074074074074074"/>
<rect x="17.700000000000003" y="18.800000000000004" width="1" height="1" fill="white" opacity="0.8888888888888888"/>
<rect x="18.800000000000004" y="18.800000000000004" width="1" height="1" fill="white" opacity="0.4074074074074074"/>
<rect x="19.900000000000002" y="18.800000000000004" width="1" height="1" fill="white" opacity="0.9259259259259259"/>
<rect x="21.000000000000004" y="18.800000000000004" width="1" height="1" fill="white" opacity="0.4074074074074074"/>
<rect x="22.1" y="18.800000000000004" width="1" height="1" fill="white" opacity="0.9259259259259259"/>
<rect x="0.1" y="19.900000000000002" width="1" height="1" fill="white" opacity="0.7037037037037037"/>
<rect x="1.2000000000000002" y="19.900000000000002" width="1" height="1" fill="white" opacity="0.8888888888888888"/>
<rect x="2.3000000000000003" y="19.900000000000002" width="1" height="1" fill="white" opacity="0.7407407407407407"/>
<rect x="3.4000000000000004" y="19.900000000000002" width="1" height="1" fill="white" opacity="0.8888888888888888"/>
<rect x="4.5" y="19.900000000000002" width="1" height="1" fill="white" opacity="0.7407407407407407"/>
<rect x="5.6" y="19.900000000000002" width="1" height="1" fill="white" opacity="0.7037037037037037"/>
<rect x="6.7" y="19.900000000000002" width="1" height="1" fill="white" opacity="0.7407407407407407"/>
<rect x="7.800000000000001" y="19.900000000000002" width="1" height="1" fill="white" opacity="0.8518518518518519"/>
<rect x="8.9" y="19.900000000000002" width="1" height="1" fill="white" opacity="0.6666666666666666"/>
<rect x="10" y="19.900000000000002" width="1" height="1" fill="white" opacity="0.8148148148148148"/>
<rect x="11.1" y="19.900000000000002" width="1" height="1" fill="white" opacity="0.7407407407407407"/>
<rect x="12.200000000000001" y="19.900000000000002" width="1" height="1" fill="white" opacity="0.7407407407407407"/>
<rect x="13.3" y="19.900000000000002" width="1" height="1" fill="white" opacity="0.7037037037037037"/>
<rect x="14.4" y="19.900000000000002" width="1" height="1" fill="white" opacity="0.7407407407407407"/>
<rect x="15.500000000000002" y="19.900000000000002" width="1" height="1" fill="white" opacity="0.7407407407407407"/>
<rect x="16.6" y="19.900000000000002" width="1" height="1" fill="white" opacity="0.8518518518518519"/>
<rect x="17.700000000000003" y="19.900000000000002" width="1" height="1" fill="white" opacity="0.7037037037037037"/>
<rect x="18.800000000000004" y="19.900000000000002" width="1" height="1" fill="white" opacity="0.9259259259259259"/>
<rect x="19.900000000000002" y="19.900000000000002" width="1" height="1" fill="white" opacity="0.7407407407407407"/>
<rect x="21.000000000000004" y="19.900000000000002" width="1" height="1" fill="white" opacity="0.9259259259259259"/>
<rect x="22.1" y="19.900000000000002" width="1" height="1" fill="white" opacity="0.7037037037037037"/>
<rect x="0.1" y="21.000000000000004" width="1" height="1" fill="white" opacity="0.8518518518518519"/>
<rect x="1.2000000000000002" y="21.000000000000004" width="1" height="1" fill="white" opacity="0.37037037037037035"/>
<rect x="2.3000000000000003" y="21.000000000000004" width="1" height="1" fill="white" opacity="0.9259259259259259"/>
<rect x="3.4000000000000004" y="21.000000000000004" width="1" height="1" fill="white" opacity="0.4074074074074074"/>
<rect x="4.5" y="21.000000000000004" width="1" height="1" fill="white" opacity="0.8148148148148148"/>
<rect x="5.6" y="21.000000000000004" width="1" height="1" fill="white" opacity="0.37037037037037035"/>
<rect x="6.7" y="21.000000000000004" width="1" height="1" fill="white" opacity="0.8518518518518519"/>
<rect x="7.800000000000001" y="21.000000000000004" width="1" height="1" fill="white" opacity="0.4074074074074074"/>
<rect x="8.9" y="21.000000000000004" width="1" height="1" fill="white" opacity="0.7777777777777778"/>
<rect x="10" y="21.000000000000004" width="1" height="1" fill="white" opacity="0.4074074074074074"/>
<rect x="11.1" y="21.000000000000004" width="1" height="1" fill="white" opacity="0.9259259259259259"/>
<rect x="12.200000000000001" y="21.000000000000004" width="1" height="1" fill="white" opacity="0.3333333333333333"/>
<rect x="13.3" y="21.000000000000004" width="1" height="1" fill="white" opacity="0.8518518518518519"/>
<rect x="14.4" y="21.000000000000004" width="1" height="1" fill="white" opacity="0.4074074074074074"/>
<rect x="15.500000000000002" y="21.000000000000004" width="1" height="1" fill="white" opacity="0.8888888888888888"/>
<rect x="16.6" y="21.000000000000004" width="1" height="1" fill="white" opacity="0.4074074074074074"/>
<rect x="17.700000000000003" y="21.000000000000004" width="1" height="1" fill="white" opacity="0.8888888888888888"/>
<rect x="18.800000000000004" y="21.000000000000004" width="1" height="1" fill="white" opacity="0.4074074074074074"/>
<rect x="19.900000000000002" y="21.000000000000004" width="1" height="1" fill="white" opacity="0.9259259259259259"/>
<rect x="21.000000000000004" y="21.000000000000004" width="1" height="1" fill="white" opacity="0.37037037037037035"/>
<rect x="22.1" y="21.000000000000004" width="1" height="1" fill="white" opacity="0.8888888888888888"/>
<rect x="0.1" y="22.1" width="1" height="1" fill="white" opacity="0.5555555555555556"/>
<rect x="1.2000000000000002" y="22.1" width="1" height="1" fill="white" opacity="0.7777777777777778"/>
<rect x="2.3000000000000003" y="22.1" width="1" height="1" fill="white" opacity="0.7037037037037037"/>
<rect x="3.4000000000000004" y="22.1" width="1" height="1" fill="white" opacity="0.8888888888888888"/>
<rect x="4.5" y="22.1" width="1" height="1" fill="white" opacity="0.7037037037037037"/>
<rect x="5.6" y="22.1" width="1" height="1" fill="white" opacity="0.8888888888888888"/>
<rect x="6.7" y="22.1" width="1" height="1" fill="white" opacity="0.6296296296296297"/>
<rect x="7.800000000000001" y="22.1" width="1" height="1" fill="white" opacity="0.8888888888888888"/>
<rect x="8.9" y="22.1" width="1" height="1" fill="white" opacity="0.6296296296296297"/>
<rect x="10" y="22.1" width="1" height="1" fill="white" opacity="0.9259259259259259"/>
<rect x="11.1" y="22.1" width="1" height="1" fill="white" opacity="0.6296296296296297"/>
<rect x="12.200000000000001" y="22.1" width="1" height="1" fill="white" opacity="0.8518518518518519"/>
<rect x="13.3" y="22.1" width="1" height="1" fill="white" opacity="0.6296296296296297"/>
<rect x="14.4" y="22.1" width="1" height="1" fill="white" opacity="0.8148148148148148"/>
<rect x="15.500000000000002" y="22.1" width="1" height="1" fill="white" opacity="0.7037037037037037"/>
<rect x="16.6" y="22.1" width="1" height="1" fill="white" opacity="0.8148148148148148"/>
<rect x="17.700000000000003" y="22.1" width="1" height="1" fill="white" opacity="0.7407407407407407"/>
<rect x="18.800000000000004" y="22.1" width="1" height="1" fill="white" opacity="0.9259259259259259"/>
<rect x="19.900000000000002" y="22.1" width="1" height="1" fill="white" opacity="0.7407407407407407"/>
<rect x="21.000000000000004" y="22.1" width="1" height="1" fill="white" opacity="0.8888888888888888"/>
<rect x="22.1" y="22.1" width="1" height="1" fill="white" opacity="0.6666666666666666"/>
</svg>
