<svg width="720" height="405"><g transform="translate(80,10)"><g transform="translate(0,345)" fill="none" font-size="10" font-family="sans-serif" text-anchor="middle"><path class="domain" stroke="#000" d="M0.5,6V0.5H610.5V6"></path><g class="tick" opacity="1" transform="translate(0.5,0)"><line stroke="#000" y2="6"></line><text fill="#000" y="9" dy="0.71em">0</text></g><g class="tick" opacity="1" transform="translate(61.5,0)"><line stroke="#000" y2="6"></line><text fill="#000" y="9" dy="0.71em">1</text></g><g class="tick" opacity="1" transform="translate(122.5,0)"><line stroke="#000" y2="6"></line><text fill="#000" y="9" dy="0.71em">2</text></g><g class="tick" opacity="1" transform="translate(183.5,0)"><line stroke="#000" y2="6"></line><text fill="#000" y="9" dy="0.71em">3</text></g><g class="tick" opacity="1" transform="translate(244.5,0)"><line stroke="#000" y2="6"></line><text fill="#000" y="9" dy="0.71em">4</text></g><g class="tick" opacity="1" transform="translate(305.5,0)"><line stroke="#000" y2="6"></line><text fill="#000" y="9" dy="0.71em">5</text></g><g class="tick" opacity="1" transform="translate(366.5,0)"><line stroke="#000" y2="6"></line><text fill="#000" y="9" dy="0.71em">6</text></g><g class="tick" opacity="1" transform="translate(427.5,0)"><line stroke="#000" y2="6"></line><text fill="#000" y="9" dy="0.71em">7</text></g><g class="tick" opacity="1" transform="translate(488.5,0)"><line stroke="#000" y2="6"></line><text fill="#000" y="9" dy="0.71em">8</text></g><g class="tick" opacity="1" transform="translate(549.5,0)"><line stroke="#000" y2="6"></line><text fill="#000" y="9" dy="0.71em">9</text></g><g class="tick" opacity="1" transform="translate(610.5,0)"><line stroke="#000" y2="6"></line><text fill="#000" y="9" dy="0.71em">10</text></g></g><text transform="translate(305 ,385)" style="text-anchor: middle;">Number of authors</text><g fill="none" font-size="10" font-family="sans-serif" text-anchor="end"><path class="domain" stroke="#000" d="M-6,345.5H0.5V0.5H-6"></path><g class="tick" opacity="1" transform="translate(0,345.5)"><line stroke="#000" x2="-6"></line><text fill="#000" x="-9" dy="0.32em">0.00</text></g><g class="tick" opacity="1" transform="translate(0,309.5350243402511)"><line stroke="#000" x2="-6"></line><text fill="#000" x="-9" dy="0.32em">0.05</text></g><g class="tick" opacity="1" transform="translate(0,273.57004868050217)"><line stroke="#000" x2="-6"></line><text fill="#000" x="-9" dy="0.32em">0.10</text></g><g class="tick" opacity="1" transform="translate(0,237.60507302075325)"><line stroke="#000" x2="-6"></line><text fill="#000" x="-9" dy="0.32em">0.15</text></g><g class="tick" opacity="1" transform="translate(0,201.64009736100434)"><line stroke="#000" x2="-6"></line><text fill="#000" x="-9" dy="0.32em">0.20</text></g><g class="tick" opacity="1" transform="translate(0,165.67512170125545)"><line stroke="#000" x2="-6"></line><text fill="#000" x="-9" dy="0.32em">0.25</text></g><g class="tick" opacity="1" transform="translate(0,129.71014604150653)"><line stroke="#000" x2="-6"></line><text fill="#000" x="-9" dy="0.32em">0.30</text></g><g class="tick" opacity="1" transform="translate(0,93.74517038175762)"><line stroke="#000" x2="-6"></line><text fill="#000" x="-9" dy="0.32em">0.35</text></g><g class="tick" opacity="1" transform="translate(0,57.78019472200867)"><line stroke="#000" x2="-6"></line><text fill="#000" x="-9" dy="0.32em">0.40</text></g><g class="tick" opacity="1" transform="translate(0,21.815219062259757)"><line stroke="#000" x2="-6"></line><text fill="#000" x="-9" dy="0.32em">0.45</text></g></g><text transform="rotate(-90)" y="-70" x="-172.5" dy="1em" style="text-anchor: middle;">Proportion of papers</text><path fill="none" stroke="#9e9e9e" opacity="1" stroke-width="1.5" d="M0,345C20.333333333333332,213.11392562303365,40.66666666666667,81.2278512460673,61,81.2278512460673C81.33333333333333,81.2278512460673,101.66666666666667,83.70790933086782,122,88.66802550046884C142.33333333333334,93.62814167006987,162.66666666666666,171.70654037241005,183,206.9829704373112C203.33333333333334,242.25940050221234,223.66666666666666,279.2553974106932,244,300.3266058898758C264.3333333333333,321.3978143690584,284.6666666666667,327.7623982149433,305,333.41022131240686C325.3333333333333,339.05804440987043,345.6666666666667,340.453825892379,366,341.88195595860225C386.3333333333333,343.3100860248255,406.6666666666667,343.629977574894,427,344.02415105793716C447.3333333333333,344.41832454098034,467.6666666666667,344.4848188519496,488,344.61541128250195C508.3333333333333,344.7460037130543,528.6666666666666,344.76068038529525,549,344.8112999283304C569.3333333333334,344.8619194713656,589.6666666666666,344.8905240060393,610,344.919128540713"></path><circle cx="500" cy="10" r="6" style="fill: rgb(158, 158, 158);"></circle><text x="515" y="10" alignment-baseline="middle">All</text><path fill="none" stroke="#006B71" opacity="1" stroke-width="1.5" d="M0,345C20.333333333333332,227.8909897816845,40.66666666666667,110.781979563369,61,103.67616371397673C81.33333333333333,96.57034786458446,101.66666666666667,93.01743993988833,122,93.01743993988833C142.33333333333334,93.01743993988833,162.66666666666666,167.0689624893093,183,199.95683815788968C203.33333333333334,232.84471382647004,223.66666666666666,269.0663753450957,244,290.3446939513706C264.3333333333333,311.62301255764544,284.6666666666667,319.3157625355667,305,327.62674979553873C325.3333333333333,335.93773705551075,345.6666666666667,338.5828535280819,366,340.2106175112026C386.3333333333333,341.8383814943233,406.6666666666667,341.99489726193104,427,342.6522634858836C447.3333333333333,343.3096297098362,467.6666666666667,343.9200412035065,488,344.15481485491813C508.3333333333333,344.38958850632974,528.6666666666666,344.38567561213955,549,344.50697533203555C569.3333333333334,344.62827505193155,589.6666666666666,344.7554441131129,610,344.8826131742942"></path><circle cx="500" cy="30" r="6" style="fill: rgb(0, 107, 113);"></circle><text x="515" y="30" alignment-baseline="middle">Combinatorics</text><path fill="none" stroke="#E9B62B" opacity="1" stroke-width="1.5" d="M0,345C20.333333333333332,172.5,40.66666666666667,0,61,0C81.33333333333333,0,101.66666666666667,59.62832009565292,122,100.7568537022803C142.33333333333334,141.88538730890767,162.66666666666666,210.18118541293023,183,246.77120163976429C203.33333333333334,283.36121786659834,223.66666666666666,307.0025621316936,244,320.29695106328467C264.3333333333333,333.59133999487574,284.6666666666667,337.9363737296097,305,340.2385344606713C325.3333333333333,342.5406951917329,345.6666666666667,343.17712870441545,366,343.69177555726367C386.3333333333333,344.2064224101119,406.6666666666667,344.2908873516099,427,344.463745836536C447.3333333333333,344.63660432146213,467.6666666666667,344.6611580835255,488,344.7289264668204C508.3333333333333,344.7966948501153,528.6666666666666,344.8320522674866,549,344.8703561363054C569.3333333333334,344.90866000512426,589.6666666666666,344.93370484242894,610,344.95874967973356"></path><circle cx="500" cy="50" r="6" style="fill: rgb(233, 182, 43);"></circle><text x="515" y="50" alignment-baseline="middle">Pure</text><path fill="none" stroke="#CD423D" opacity="1" stroke-width="1.5" d="M0,345C20.333333333333332,258.02115505149686,40.66666666666667,171.0423101029937,61,136.7647182279451C81.33333333333333,102.48712635289652,101.66666666666667,85.34833041537223,122,85.34833041537223C142.33333333333334,85.34833041537223,162.66666666666666,141.8424767024467,183,175.1364570359728C203.33333333333334,208.4304373694989,223.66666666666666,259.4015988016532,244,285.11221241652885C264.3333333333333,310.8228260314045,284.6666666666667,321.792574920684,305,329.4001387252267C325.3333333333333,337.00770252976946,345.6666666666667,338.7498927140159,366,340.81148443204086C386.3333333333333,342.8730761500658,406.6666666666667,343.4344485427674,427,343.90387200907827C447.3333333333333,344.3732954753891,467.6666666666667,344.4628246931907,488,344.60800720854456C508.3333333333333,344.7531897238984,528.6666666666666,344.7725473926123,549,344.82578098157535C569.3333333333334,344.8790145705384,589.6666666666666,344.90321165643076,610,344.92740874232305"></path><circle cx="500" cy="70" r="6" style="fill: rgb(205, 66, 61);"></circle><text x="515" y="70" alignment-baseline="middle">Applied</text></g></svg>