<svg width="720" height="405"><g transform="translate(80,10)"><g transform="translate(0,345)" fill="none" font-size="10" font-family="sans-serif" text-anchor="middle"><path class="domain" stroke="#000" d="M0.5,6V0.5H610.5V6"></path><g class="tick" opacity="1" transform="translate(0.5,0)"><line stroke="#000" y2="6"></line><text fill="#000" y="9" dy="0.71em">0</text></g><g class="tick" opacity="1" transform="translate(61.5,0)"><line stroke="#000" y2="6"></line><text fill="#000" y="9" dy="0.71em">5</text></g><g class="tick" opacity="1" transform="translate(122.5,0)"><line stroke="#000" y2="6"></line><text fill="#000" y="9" dy="0.71em">10</text></g><g class="tick" opacity="1" transform="translate(183.5,0)"><line stroke="#000" y2="6"></line><text fill="#000" y="9" dy="0.71em">15</text></g><g class="tick" opacity="1" transform="translate(244.5,0)"><line stroke="#000" y2="6"></line><text fill="#000" y="9" dy="0.71em">20</text></g><g class="tick" opacity="1" transform="translate(305.5,0)"><line stroke="#000" y2="6"></line><text fill="#000" y="9" dy="0.71em">25</text></g><g class="tick" opacity="1" transform="translate(366.5,0)"><line stroke="#000" y2="6"></line><text fill="#000" y="9" dy="0.71em">30</text></g><g class="tick" opacity="1" transform="translate(427.5,0)"><line stroke="#000" y2="6"></line><text fill="#000" y="9" dy="0.71em">35</text></g><g class="tick" opacity="1" transform="translate(488.5,0)"><line stroke="#000" y2="6"></line><text fill="#000" y="9" dy="0.71em">40</text></g><g class="tick" opacity="1" transform="translate(549.5,0)"><line stroke="#000" y2="6"></line><text fill="#000" y="9" dy="0.71em">45</text></g><g class="tick" opacity="1" transform="translate(610.5,0)"><line stroke="#000" y2="6"></line><text fill="#000" y="9" dy="0.71em">50</text></g></g><text transform="translate(305 ,385)" style="text-anchor: middle;">Number of papers</text><g fill="none" font-size="10" font-family="sans-serif" text-anchor="end"><path class="domain" stroke="#000" d="M-6,345.5H0.5V0.5H-6"></path><g class="tick" opacity="1" transform="translate(0,345.5)"><line stroke="#000" x2="-6"></line><text fill="#000" x="-9" dy="0.32em">0.00</text></g><g class="tick" opacity="1" transform="translate(0,311)"><line stroke="#000" x2="-6"></line><text fill="#000" x="-9" dy="0.32em">0.05</text></g><g class="tick" opacity="1" transform="translate(0,276.5)"><line stroke="#000" x2="-6"></line><text fill="#000" x="-9" dy="0.32em">0.10</text></g><g class="tick" opacity="1" transform="translate(0,242)"><line stroke="#000" x2="-6"></line><text fill="#000" x="-9" dy="0.32em">0.15</text></g><g class="tick" opacity="1" transform="translate(0,207.5)"><line stroke="#000" x2="-6"></line><text fill="#000" x="-9" dy="0.32em">0.20</text></g><g class="tick" opacity="1" transform="translate(0,173)"><line stroke="#000" x2="-6"></line><text fill="#000" x="-9" dy="0.32em">0.25</text></g><g class="tick" opacity="1" transform="translate(0,138.5)"><line stroke="#000" x2="-6"></line><text fill="#000" x="-9" dy="0.32em">0.30</text></g><g class="tick" opacity="1" transform="translate(0,104.00000000000003)"><line stroke="#000" x2="-6"></line><text fill="#000" x="-9" dy="0.32em">0.35</text></g><g class="tick" opacity="1" transform="translate(0,69.5)"><line stroke="#000" x2="-6"></line><text fill="#000" x="-9" dy="0.32em">0.40</text></g><g class="tick" opacity="1" transform="translate(0,35)"><line stroke="#000" x2="-6"></line><text fill="#000" x="-9" dy="0.32em">0.45</text></g><g class="tick" opacity="1" transform="translate(0,0.5)"><line stroke="#000" x2="-6"></line><text fill="#000" x="-9" dy="0.32em">0.50</text></g></g><text transform="rotate(-90)" y="-70" x="-172.5" dy="1em" style="text-anchor: middle;">Proportion of authors</text><path fill="none" stroke="#9e9e9e" opacity="1" stroke-width="1.5" d="M0,-345C4.066666666666667,-345,8.133333333333333,-345,12.200000000000001,-345C16.26666666666667,-345,20.333333333333336,-93.5151387511015,24.400000000000002,-21.5893887414025C28.46666666666667,50.336361268296486,32.53333333333333,58.78970354318271,36.6,86.55450005819398C40.66666666666667,114.31929657320526,44.733333333333334,129.14053017496994,48.800000000000004,144.99939034866514C52.86666666666667,160.85825052236035,56.93333333333334,171.23642832994332,61,181.70766110036524C65.06666666666666,192.1788938707872,69.13333333333334,200.1561261645726,73.2,207.82678697119675C77.26666666666667,215.4974477778209,81.33333333333334,221.94819626339154,85.4,227.73162594011006C89.46666666666667,233.5150556168286,93.53333333333335,237.98934218620968,97.60000000000001,242.52736503150788C101.66666666666667,247.06538787680608,105.73333333333333,251.20059745830818,109.8,254.9597630118993C113.86666666666666,258.71892856549044,117.93333333333334,261.97712699037305,122,265.08235835305464C126.06666666666666,268.18758971573624,130.13333333333333,270.9849748657382,134.2,273.59115118798877C138.26666666666665,276.1973275102394,142.33333333333334,278.4669762956476,146.4,280.71941628655827C150.46666666666667,282.97185627746893,154.53333333333333,285.10829624621044,158.6,287.10579113345267C162.66666666666666,289.1032860206949,166.73333333333335,290.9548248360869,170.8,292.70438561001157C174.86666666666667,294.4539463839362,178.93333333333334,296.06264998808405,183,297.6031557770006C187.06666666666666,299.14366156591717,191.13333333333335,300.5930244802722,195.20000000000002,301.9474203435108C199.26666666666668,303.3018162067494,203.33333333333334,304.54467358713305,207.4,305.7295309564321C211.46666666666667,306.9143883257311,215.53333333333333,307.9826083101019,219.6,309.05656455930523C223.66666666666666,310.13052080850855,227.73333333333335,311.21021332254435,231.8,312.1732684516519C235.86666666666667,313.13632358075944,239.93333333333334,313.97381824631026,244,314.8348953339504C248.06666666666666,315.6959724215905,252.13333333333333,316.5685220388957,256.2,317.33973097749276C260.26666666666665,318.1109399160898,264.3333333333333,318.78017081321946,268.4,319.46214896553255C272.46666666666664,320.14412711784564,276.53333333333336,320.8184569170486,280.6,321.4315998913712C284.6666666666667,322.0447428656938,288.73333333333335,322.5833143971934,292.8,323.1410068114681C296.8666666666667,323.6986992257428,300.93333333333334,324.2672268069234,305,324.77775437701945C309.06666666666666,325.2882819471155,313.1333333333333,325.74527104544114,317.2,326.20417223204436C321.26666666666665,326.66307341864757,325.33333333333337,327.09138119281056,329.40000000000003,327.5311614966386C333.4666666666667,327.9709418004667,337.53333333333336,328.430480349829,341.6,328.8428540550127C345.6666666666667,329.2552277601964,349.7333333333333,329.64338168053166,353.79999999999995,330.0054037277408C357.8666666666666,330.36742577495,361.93333333333334,330.68419506625804,366,331.0149863382678C370.06666666666666,331.3457776102776,374.1333333333333,331.6682831664182,378.2,331.9901513597996C382.26666666666665,332.312019553181,386.33333333333337,332.6485470900233,390.40000000000003,332.9461954985562C394.4666666666667,333.2438439070891,398.53333333333336,333.5255582466428,402.6,333.776041810997C406.6666666666667,334.02652537535124,410.73333333333335,334.2196462913801,414.8,334.4490968846817C418.8666666666667,334.6785474779833,422.93333333333334,334.92074532646825,427,335.15274537080654C431.06666666666666,335.38474541514483,435.1333333333333,335.62630590087065,439.2,335.84109715071133C443.26666666666665,336.055888400552,447.3333333333333,336.245822502785,451.4,336.44149286985055C455.46666666666664,336.6371632369161,459.53333333333336,336.8321962412224,463.6,337.0151193531045C467.6666666666667,337.1980424649866,471.73333333333335,337.37586667479536,475.8,337.5390315411432C479.8666666666667,337.702196407491,483.93333333333334,337.8411414889902,488,337.9941085511913C492.06666666666666,338.14707561339236,496.1333333333333,338.31342729353605,500.2,338.45683391434955C504.26666666666665,338.60024053516304,508.3333333333333,338.71496583181386,512.4,338.8545482760723C516.4666666666667,338.99413072033076,520.5333333333333,339.14709778253183,524.6,339.29432857990037C528.6666666666666,339.4415593772689,532.7333333333333,339.60281215533917,536.8,339.7379330602834C540.8666666666667,339.8730539652277,544.9333333333333,339.99542761498856,549,340.105054009566C553.0666666666667,340.21468040414345,557.1333333333333,340.30582327870485,561.2,340.395691427748C565.2666666666667,340.4855595767911,569.3333333333334,340.5492958527082,573.4,340.6442629038247C577.4666666666667,340.7392299549412,581.5333333333333,340.87690031092217,585.6,340.96549373444697C589.6666666666666,341.05408715797176,593.7333333333333,341.0987025511138,597.8,341.17582344497345C601.8666666666667,341.2529443388332,605.9333333333333,341.34058171821914,610,341.42821909760517"></path><circle cx="500" cy="10" r="6" style="fill: rgb(158, 158, 158);"></circle><text x="515" y="10" alignment-baseline="middle">All</text><path fill="none" stroke="#006B71" opacity="1" stroke-width="1.5" d="M0,-345C4.066666666666667,-345,8.133333333333333,-345,12.200000000000001,-345C16.26666666666667,-345,20.333333333333336,-38.309656166357854,24.400000000000002,34.45027794935146C28.46666666666667,107.21021206506076,32.53333333333333,116.74027177269923,36.6,143.5901791229154C40.66666666666667,170.44008647313157,44.733333333333334,181.42037265801935,48.800000000000004,195.54972205064854C52.86666666666667,209.67907144327773,56.93333333333334,219.32159769404984,61,228.36627547869057C65.06666666666666,237.4109532633313,69.13333333333334,243.6321288861437,73.2,249.8177887584929C77.26666666666667,256.00344863084206,81.33333333333334,260.9519765287214,85.4,265.48023471278566C89.46666666666667,270.00849289684993,93.53333333333335,273.36473131562695,97.60000000000001,276.98733786287835C101.66666666666667,280.60994441012974,105.73333333333333,284.23255095738114,109.8,287.215873996294C113.86666666666666,290.1991970352069,117.93333333333334,292.54323656578134,122,294.8872760963558C126.06666666666666,297.2313156269302,130.13333333333333,299.48064648960263,134.2,301.2801111797406C138.26666666666665,303.0795758698785,142.33333333333334,304.239757051678,146.4,305.68406423718346C150.46666666666667,307.12837142268893,154.53333333333333,308.68514515132796,158.6,309.9459542927733C162.66666666666666,311.20676343421866,166.73333333333335,312.16568869672636,170.8,313.24891908585545C174.86666666666667,314.33214947498453,178.93333333333334,315.46273419806465,183,316.4453366275479C187.06666666666666,317.4279390570311,191.13333333333335,318.26847848466133,195.20000000000002,319.1445336627548C199.26666666666668,320.02058884084823,203.33333333333334,320.8552089767346,207.4,321.7016676961087C211.46666666666667,322.5481264154828,215.53333333333333,323.4952130945028,219.6,324.2232859789994C223.66666666666666,324.951358863496,227.73333333333335,325.47225653695693,231.8,326.0701050030883C235.86666666666667,326.66795346921964,239.93333333333334,327.2480440601194,244,327.8103767757875C248.06666666666666,328.3727094914556,252.13333333333333,328.9823965410747,256.2,329.44410129709695C260.26666666666665,329.9058060531192,264.3333333333333,330.2313670990323,268.4,330.5806053119209C272.46666666666664,330.92984352480954,276.53333333333336,331.27908173769816,280.6,331.5395305744287C284.6666666666667,331.7999794111592,288.73333333333335,331.8710109120857,292.8,332.1432983323039C296.8666666666667,332.41558575252213,300.93333333333334,332.85953263331277,305,333.1732550957381C309.06666666666666,333.48697755816346,313.1333333333333,333.700072060943,317.2,334.0256331068561C321.26666666666665,334.3511941527692,325.33333333333337,334.8365760757669,329.40000000000003,335.1266213712168C333.4666666666667,335.4166666666667,337.53333333333336,335.5528103767758,341.6,335.7659048795553C345.6666666666667,335.9789993823348,349.7333333333333,336.22760963557755,353.79999999999995,336.40518838789376C357.8666666666666,336.58276714021,361.93333333333334,336.65379864113646,366,336.8313773934527C370.06666666666666,337.008956145769,374.1333333333333,337.2871628577311,378.2,337.47066090179123C382.26666666666665,337.65415894585135,386.33333333333337,337.74294832200945,390.40000000000003,337.9323656578135C394.4666666666667,338.12178299361744,398.53333333333336,338.43550545604285,402.6,338.6071649166152C406.6666666666667,338.77882437718756,410.73333333333335,338.82617871113854,414.8,338.9623224212477C418.8666666666667,339.0984661313568,422.93333333333334,339.24644842495366,427,339.4240271772699C431.06666666666666,339.6016059295862,435.1333333333333,339.88573193329216,439.2,340.02779493514515C443.26666666666665,340.16985793699814,447.3333333333333,340.2053736874614,451.4,340.2764051883879C455.46666666666664,340.3474366893144,459.53333333333336,340.3592752728021,463.6,340.4539839407041C467.6666666666667,340.54869260860613,471.73333333333335,340.71443277743464,475.8,340.84465719579987C479.8666666666667,340.9748816141651,483.93333333333334,341.11694461601815,488,341.2353304508956C492.06666666666666,341.3537162857731,496.1333333333333,341.46618282890677,500.2,341.55497220506487C504.26666666666665,341.643761581223,508.3333333333333,341.7029544986617,512.4,341.76806670784435C516.4666666666667,341.833178917027,520.5333333333333,341.8864525427219,524.6,341.9456454601606C528.6666666666666,342.00483837759936,532.7333333333333,342.05219271155033,536.8,342.1232242124768C540.8666666666667,342.1942557134033,544.9333333333333,342.28896438130533,549,342.3718344657196C553.0666666666667,342.45470455013384,557.1333333333333,342.54941321803585,561.2,342.62044471896235C565.2666666666667,342.69147621988884,569.3333333333334,342.7506691373276,573.4,342.79802347127855C577.4666666666667,342.84537780522953,581.5333333333333,342.85721638871735,585.6,342.9045707226683C589.6666666666666,342.9519250566193,593.7333333333333,343.02887584928965,597.8,343.08214947498453C601.8666666666667,343.1354231006794,605.9333333333333,343.1798177887585,610,343.2242124768376"></path><circle cx="500" cy="30" r="6" style="fill: rgb(0, 107, 113);"></circle><text x="515" y="30" alignment-baseline="middle">Combinatorics</text><path fill="none" stroke="#E9B62B" opacity="1" stroke-width="1.5" d="M0,-345C4.066666666666667,-345,8.133333333333333,-345,12.200000000000001,-345C16.26666666666667,-345,20.333333333333336,-93.53233065353699,24.400000000000002,-21.087240835481055C28.46666666666667,51.357848982574865,32.53333333333333,61.352944570527356,36.6,89.67053890833557C40.66666666666667,117.98813324614379,44.733333333333334,132.82705696811172,48.800000000000004,148.81832519136825C52.86666666666667,164.80959341462477,56.93333333333334,174.80468900257722,61,185.61814824787476C65.06666666666666,196.4316074931723,69.13333333333334,205.60612763011116,73.2,213.69908066315344C77.26666666666667,221.79203369619572,81.33333333333334,228.20623533484633,85.4,234.1758664461284C89.46666666666667,240.14549755741047,93.53333333333335,244.92518367503942,97.60000000000001,249.51686733084586C101.66666666666667,254.1085509866523,105.73333333333333,258.0035196368812,109.8,261.72596838096706C113.86666666666666,265.4484171250529,117.93333333333334,268.69533023041123,122,271.851559795361C126.06666666666666,275.0077893603108,130.13333333333333,277.96716928876407,134.2,280.66334577066584C138.26666666666665,283.3595222525676,142.33333333333334,285.7128707158518,146.4,288.02861868677155C150.46666666666667,290.3443666576913,154.53333333333333,292.5163480401585,158.6,294.5578335961842C162.66666666666666,296.5993191522099,166.73333333333335,298.5257914374735,170.8,300.2775320229257C174.86666666666667,302.0292726083779,178.93333333333334,303.55762203331153,183,305.0682771088972C187.06666666666666,306.5789321844828,191.13333333333335,308.07410470438896,195.20000000000002,309.3414624764396C199.26666666666668,310.6088202484902,203.33333333333334,311.57316228795634,207.4,312.67242374120093C211.46666666666667,313.7716851944455,215.53333333333333,314.9594183944301,219.6,315.9370311959072C223.66666666666666,316.9146439973843,227.73333333333335,317.6865599876909,231.8,318.53810055006346C235.86666666666667,319.38964111243604,239.93333333333334,320.2411816748086,244,321.0462745701427C248.06666666666666,321.8513674654768,252.13333333333333,322.63434242412586,256.2,323.36865792206794C260.26666666666665,324.10297342001,264.3333333333333,324.79084125091356,268.4,325.4521675577951C272.46666666666664,326.1134938646767,276.53333333333336,326.75933761587874,280.6,327.3366157633573C284.6666666666667,327.91389391083584,288.73333333333335,328.4425125976074,292.8,328.91583644266643C296.8666666666667,329.3891602877255,300.93333333333334,329.7607416240335,305,330.17655883371157C309.06666666666666,330.5923760433896,313.1333333333333,331.00155787206216,317.2,331.4107397007347C321.26666666666665,331.8199215294073,325.33333333333337,332.2910335807978,329.40000000000003,332.6316498057468C333.4666666666667,332.97226603069583,337.53333333333336,333.17575104819787,341.6,333.4544370504289C345.6666666666667,333.73312305265995,349.7333333333333,334.0317151979075,353.79999999999995,334.303765819133C357.8666666666666,334.5758164403585,361.93333333333334,334.821325537562,366,335.08674077778204C370.06666666666666,335.35215601800206,374.1333333333333,335.6197830518906,378.2,335.8962572604531C382.26666666666665,336.1727314690157,386.33333333333337,336.48901796361116,390.40000000000003,336.7455860291572C394.4666666666667,337.00215409470326,398.53333333333336,337.2233334615533,402.6,337.4356656537293C406.6666666666667,337.6479978459053,410.73333333333335,337.8205177520483,414.8,338.0195791822133C418.8666666666667,338.2186406123783,422.93333333333334,338.4442435665654,427,338.6300342347194C431.06666666666666,338.81582490287343,435.1333333333333,338.9772858406739,439.2,339.1343231911374C443.26666666666665,339.2913605416009,447.3333333333333,339.4351271300535,451.4,339.5722583375005C455.46666666666664,339.7093895449475,459.53333333333336,339.8332499903835,463.6,339.9571104358195C467.6666666666667,340.0809708812555,471.73333333333335,340.1915605646806,475.8,340.31542101011655C479.8666666666667,340.43928145555253,483.93333333333334,340.5808362503366,488,340.70027310843557C492.06666666666666,340.81970996653456,496.1333333333333,340.9413586183021,500.2,341.0320421587106C504.26666666666665,341.12272569911914,508.3333333333333,341.1713851598261,512.4,341.24437435088663C516.4666666666667,341.31736354194715,520.5333333333333,341.39035273300766,524.6,341.46997730507366C528.6666666666666,341.54960187713965,532.7333333333333,341.64028541754817,536.8,341.72212178328266C540.8666666666667,341.80395814901715,544.9333333333333,341.89464168942567,549,341.9609954994807C553.0666666666667,342.02734930953574,557.1333333333333,342.0715851829057,561.2,342.12024464361275C565.2666666666667,342.1689041043198,569.3333333333334,342.18217486633074,573.4,342.25295226372276C577.4666666666667,342.3237296611148,581.5333333333333,342.44759010655076,585.6,342.54490902796476C589.6666666666666,342.64222794937876,593.7333333333333,342.76608839481474,597.8,342.83686579220677C601.8666666666667,342.9076431895988,605.9333333333333,342.9386083009578,610,342.96957341231683"></path><circle cx="500" cy="50" r="6" style="fill: rgb(233, 182, 43);"></circle><text x="515" y="50" alignment-baseline="middle">Pure</text><path fill="none" stroke="#CD423D" opacity="1" stroke-width="1.5" d="M0,-345C4.066666666666667,-345,8.133333333333333,-345,12.200000000000001,-345C16.26666666666667,-345,20.333333333333336,-33.30496406260501,24.400000000000002,40.9587559615772C28.46666666666667,115.22247598575939,32.53333333333333,124.41197017532076,36.6,152.35433599785048C40.66666666666667,180.2967018203802,44.733333333333334,193.82447773224962,48.800000000000004,208.61295089675556C52.86666666666667,223.4014240612615,56.93333333333334,232.0733525895076,61,241.08517498488612C65.06666666666666,250.09699738026464,69.13333333333334,256.48236716598376,73.2,262.6838852690267C77.26666666666667,268.8854033720696,81.33333333333334,273.8200443339827,85.4,278.2942836031437C89.46666666666667,282.7685228723047,93.53333333333335,286.2385302613018,97.60000000000001,289.52932088399274C101.66666666666667,292.82011150668365,105.73333333333333,295.36468059380667,109.8,298.0390273392893C113.86666666666666,300.71337408477194,117.93333333333334,303.37536105326797,122,305.57540135688856C126.06666666666666,307.77544166050916,130.13333333333333,309.59078390542084,134.2,311.23926916101294C138.26666666666665,312.88775441660505,142.33333333333334,314.1190971988984,146.4,315.4663128904413C150.46666666666667,316.81352858198426,154.53333333333333,318.1391146638006,158.6,319.3225633102707C162.66666666666666,320.5060119567408,166.73333333333335,321.56895277759116,170.8,322.56700476926176C174.86666666666667,323.56505676093235,178.93333333333334,324.4549607039699,183,325.3108752602942C187.06666666666666,326.1667898166185,191.13333333333335,326.99952979109287,195.20000000000002,327.7024921072076C199.26666666666668,328.40545442332234,203.33333333333334,328.9539195271042,207.4,329.5286491569826C211.46666666666667,330.1033787868611,215.53333333333333,330.6441190300262,219.6,331.1508698864781C223.66666666666666,331.6576207429301,227.73333333333335,332.1102975750655,231.8,332.5691542956942C235.86666666666667,333.0280110163229,239.93333333333334,333.50077248606163,244,333.90401021025053C248.06666666666666,334.30724793443943,252.13333333333333,334.605427554242,256.2,334.9885806408276C260.26666666666665,335.3717337274132,264.3333333333333,335.8831195002351,268.4,336.2029287297642C272.46666666666664,336.52273795929335,276.53333333333336,336.6494256734063,280.6,336.9074360180023C284.6666666666667,337.16544636259823,288.73333333333335,337.50070531336064,292.8,337.75099079733997C296.8666666666667,338.0012762813193,300.93333333333334,338.19594276885874,305,338.40914892187817C309.06666666666666,338.6223550748976,313.1333333333333,338.80929670182036,317.2,339.0302277154564C321.26666666666665,339.2511587290925,325.33333333333337,339.54779337677166,329.40000000000003,339.7347350036945C333.4666666666667,339.9216766306173,337.53333333333336,340.02673473500374,341.6,340.1518774769934C345.6666666666667,340.277020218983,349.7333333333333,340.36508363001275,353.79999999999995,340.4855914556324C357.8666666666666,340.60609928125206,361.93333333333334,340.74360180022836,366,340.87492443071136C370.06666666666666,341.00624706119436,374.1333333333333,341.1468395244173,378.2,341.2735272385303C382.26666666666665,341.40021495264324,386.33333333333337,341.5222677503862,390.40000000000003,341.63505071538924C394.4666666666667,341.74783368039226,398.53333333333336,341.863706589642,402.6,341.9502250285484C406.6666666666667,342.0367434674548,410.73333333333335,342.0861825754013,414.8,342.1541613488278C418.8666666666667,342.2221401222543,422.93333333333334,342.28084906294083,427,342.3580976691073C431.06666666666666,342.43534627527373,435.1333333333333,342.54812924027675,439.2,342.61765298582657C443.26666666666665,342.6871767313764,447.3333333333333,342.7211661180896,451.4,342.7752401424061C455.46666666666664,342.82931416672267,459.53333333333336,342.88802310740914,463.6,342.9420971317257C467.6666666666667,342.9961711560422,471.73333333333335,343.05179015248206,475.8,343.09968428830524C479.8666666666667,343.1475784241284,483.93333333333334,343.1939275878283,488,343.22946194666486C492.06666666666666,343.2649963055014,496.1333333333333,343.2665412776248,500.2,343.31289044132467C504.26666666666665,343.3592396050245,508.3333333333333,343.45502787667095,512.4,343.5075569288641C516.4666666666667,343.5600859810573,520.5333333333333,343.59562033989386,524.6,343.6280647544838C528.6666666666666,343.6605091690737,532.7333333333333,343.66977900181365,536.8,343.70222341640357C540.8666666666667,343.7346678309935,544.9333333333333,343.78719688318665,549,343.8227312420232C553.0666666666667,343.8582656008598,557.1333333333333,343.88762007120306,561.2,343.915429569423C565.2666666666667,343.94323906764293,569.3333333333334,343.96950359373955,573.4,343.9895882313428C577.4666666666667,344.0096728689461,581.5333333333333,344.0127628131927,585.6,344.03593739504265C589.6666666666666,344.0591119768926,593.7333333333333,344.10546114059247,597.8,344.1286357224424C601.8666666666667,344.1518103042924,605.9333333333333,344.1633975952173,610,344.1749848861423"></path><circle cx="500" cy="70" r="6" style="fill: rgb(205, 66, 61);"></circle><text x="515" y="70" alignment-baseline="middle">Applied</text></g></svg>