<svg width="720" height="405"><g transform="translate(80,10)"><g transform="translate(0,345)" fill="none" font-size="10" font-family="sans-serif" text-anchor="middle"><path class="domain" stroke="#000" d="M0.5,6V0.5H610.5V6"></path><g class="tick" opacity="1" transform="translate(0.5,0)"><line stroke="#000" y2="6"></line><text fill="#000" y="9" dy="0.71em">0</text></g><g class="tick" opacity="1" transform="translate(49.300000000000004,0)"><line stroke="#000" y2="6"></line><text fill="#000" y="9" dy="0.71em">2</text></g><g class="tick" opacity="1" transform="translate(98.10000000000001,0)"><line stroke="#000" y2="6"></line><text fill="#000" y="9" dy="0.71em">4</text></g><g class="tick" opacity="1" transform="translate(146.9,0)"><line stroke="#000" y2="6"></line><text fill="#000" y="9" dy="0.71em">6</text></g><g class="tick" opacity="1" transform="translate(195.70000000000002,0)"><line stroke="#000" y2="6"></line><text fill="#000" y="9" dy="0.71em">8</text></g><g class="tick" opacity="1" transform="translate(244.5,0)"><line stroke="#000" y2="6"></line><text fill="#000" y="9" dy="0.71em">10</text></g><g class="tick" opacity="1" transform="translate(293.3,0)"><line stroke="#000" y2="6"></line><text fill="#000" y="9" dy="0.71em">12</text></g><g class="tick" opacity="1" transform="translate(342.1,0)"><line stroke="#000" y2="6"></line><text fill="#000" y="9" dy="0.71em">14</text></g><g class="tick" opacity="1" transform="translate(390.90000000000003,0)"><line stroke="#000" y2="6"></line><text fill="#000" y="9" dy="0.71em">16</text></g><g class="tick" opacity="1" transform="translate(439.7,0)"><line stroke="#000" y2="6"></line><text fill="#000" y="9" dy="0.71em">18</text></g><g class="tick" opacity="1" transform="translate(488.5,0)"><line stroke="#000" y2="6"></line><text fill="#000" y="9" dy="0.71em">20</text></g><g class="tick" opacity="1" transform="translate(537.3,0)"><line stroke="#000" y2="6"></line><text fill="#000" y="9" dy="0.71em">22</text></g><g class="tick" opacity="1" transform="translate(586.1,0)"><line stroke="#000" y2="6"></line><text fill="#000" y="9" dy="0.71em">24</text></g></g><text transform="translate(305 ,385)" style="text-anchor: middle;">Number of papers</text><g fill="none" font-size="10" font-family="sans-serif" text-anchor="end"><path class="domain" stroke="#000" d="M-6,345.5H0.5V0.5H-6"></path><g class="tick" opacity="1" transform="translate(0,345.5)"><line stroke="#000" x2="-6"></line><text fill="#000" x="-9" dy="0.32em">0.00</text></g><g class="tick" opacity="1" transform="translate(0,314.66121265251223)"><line stroke="#000" x2="-6"></line><text fill="#000" x="-9" dy="0.32em">0.05</text></g><g class="tick" opacity="1" transform="translate(0,283.8224253050245)"><line stroke="#000" x2="-6"></line><text fill="#000" x="-9" dy="0.32em">0.10</text></g><g class="tick" opacity="1" transform="translate(0,252.98363795753676)"><line stroke="#000" x2="-6"></line><text fill="#000" x="-9" dy="0.32em">0.15</text></g><g class="tick" opacity="1" transform="translate(0,222.144850610049)"><line stroke="#000" x2="-6"></line><text fill="#000" x="-9" dy="0.32em">0.20</text></g><g class="tick" opacity="1" transform="translate(0,191.30606326256125)"><line stroke="#000" x2="-6"></line><text fill="#000" x="-9" dy="0.32em">0.25</text></g><g class="tick" opacity="1" transform="translate(0,160.46727591507354)"><line stroke="#000" x2="-6"></line><text fill="#000" x="-9" dy="0.32em">0.30</text></g><g class="tick" opacity="1" transform="translate(0,129.62848856758578)"><line stroke="#000" x2="-6"></line><text fill="#000" x="-9" dy="0.32em">0.35</text></g><g class="tick" opacity="1" transform="translate(0,98.78970122009801)"><line stroke="#000" x2="-6"></line><text fill="#000" x="-9" dy="0.32em">0.40</text></g><g class="tick" opacity="1" transform="translate(0,67.95091387261027)"><line stroke="#000" x2="-6"></line><text fill="#000" x="-9" dy="0.32em">0.45</text></g><g class="tick" opacity="1" transform="translate(0,37.112126525122505)"><line stroke="#000" x2="-6"></line><text fill="#000" x="-9" dy="0.32em">0.50</text></g><g class="tick" opacity="1" transform="translate(0,6.273339177634739)"><line stroke="#000" x2="-6"></line><text fill="#000" x="-9" dy="0.32em">0.55</text></g></g><text transform="rotate(-90)" y="-70" x="-172.5" dy="1em" style="text-anchor: middle;">Proportion of authors</text><path fill="none" stroke="#9e9e9e" opacity="1" stroke-width="1.5" d="M0,345C8.133333333333335,200.45520193442152,16.266666666666666,55.91040386884305,24.400000000000002,55.91040386884305C32.53333333333334,55.91040386884305,40.66666666666667,218.7160109983052,48.800000000000004,248.33256841677917C56.93333333333334,277.94912583525314,65.06666666666666,282.11495124006774,73.2,292.7574045444901C81.33333333333334,303.3998578489125,89.46666666666667,307.37140720571807,97.60000000000001,312.1872882433135C105.73333333333333,317.00316928090893,113.86666666666667,319.14932140070334,122,321.65269077006263C130.13333333333333,324.156060139422,138.26666666666668,325.52055027133264,146.4,327.2075044594694C154.53333333333333,328.8944586476062,162.66666666666669,330.661174263078,170.8,331.7744158988832C178.93333333333334,332.8876575346884,187.0666666666667,333.1907509585617,195.20000000000002,333.8869542743007C203.33333333333334,334.58315759003966,211.46666666666667,335.36709847584723,219.6,335.9516357933171C227.73333333333332,336.536173110787,235.86666666666667,336.94808391052453,244,337.39417817912C252.13333333333333,337.8402724477154,260.26666666666665,338.31200431795423,268.4,338.6282014048897C276.5333333333333,338.94439849182515,284.6666666666667,339.0634709083468,292.8,339.29136070073275C300.93333333333334,339.51925049311865,309.06666666666666,339.77391733610995,317.2,339.99554015920523C325.3333333333333,340.2171629823005,333.4666666666667,340.4342280095481,341.6,340.6210976393046C349.73333333333335,340.80796726906107,357.8666666666667,340.9503983893022,366,341.11675793774396C374.1333333333333,341.2831174861857,382.2666666666667,341.46770821801823,390.40000000000003,341.6192549299549C398.53333333333336,341.7708016418915,406.6666666666667,341.9269061496759,414.8,342.0260382093638C422.93333333333334,342.12517026905164,431.06666666666666,342.1149152283943,439.2,342.21404728808216C447.3333333333333,342.31317934777,455.4666666666667,342.52967465053666,463.6,342.620830567491C471.73333333333335,342.71198648444533,479.8666666666667,342.6806516379923,488,342.76098278980834C496.1333333333333,342.8413139416244,504.26666666666665,343.02305605105215,512.4,343.10281747838724C520.5333333333333,343.1825789057223,528.6666666666666,343.1780211098746,536.8,343.2395513538188C544.9333333333333,343.301081597763,553.0666666666667,343.42869988149914,561.2,343.47199894205244C569.3333333333334,343.51529800260573,577.4666666666667,343.494787921291,585.6,343.5369475328824C593.7333333333333,343.57910714447377,601.8666666666667,343.6520318780373,610,343.72495661160076"></path><circle cx="500" cy="10" r="6" style="fill: rgb(158, 158, 158);"></circle><text x="515" y="10" alignment-baseline="middle">All</text><path fill="none" stroke="#006B71" opacity="1" stroke-width="1.5" d="M0,345C8.133333333333335,175.40889230978013,16.266666666666666,5.817784619560314,24.400000000000002,5.817784619560314C32.53333333333334,5.817784619560314,40.66666666666667,213.36741616381852,48.800000000000004,247.44225497340966C56.93333333333334,281.5170937830008,65.06666666666666,287.1838876285089,73.2,298.5545131877964C81.33333333333334,309.92513874708385,89.46666666666667,311.1209327798428,97.60000000000001,315.66600832913457C105.73333333333333,320.21108387842634,113.86666666666667,323.2693535728275,122,325.82496648354686C130.13333333333333,328.3805793942662,138.26666666666668,329.5181710625988,146.4,330.99968579345057C154.53333333333333,332.4812005243023,162.66666666666669,333.95213300707667,170.8,334.71405486865757C178.93333333333334,335.4759767302385,187.0666666666667,335.28549626484323,195.20000000000002,335.85693766102895C203.33333333333334,336.4283790572146,211.46666666666667,337.57126184958605,219.6,338.1427032457717C227.73333333333332,338.71414464195743,235.86666666666667,338.7988026265775,244,339.2855860381431C252.13333333333333,339.77236944970866,260.26666666666665,340.97874573054514,268.4,341.06340371516524C276.5333333333333,341.14806169978533,284.6666666666667,341.1057327074753,292.8,341.1903906920954C300.93333333333334,341.27504867671547,309.06666666666666,341.98405929790886,317.2,342.04755278637396C325.3333333333333,342.11104627483905,333.4666666666667,342.0792995306065,341.6,342.1427930190716C349.73333333333335,342.2062865075367,357.8666666666667,342.502589453707,366,342.5872474383271C374.1333333333333,342.6719054229472,382.2666666666667,342.69306991910224,390.40000000000003,342.71423441525724C398.53333333333336,342.73539891141223,406.6666666666667,342.72481666333476,414.8,342.74598115948976C422.93333333333334,342.76714565564475,431.06666666666666,343.2856758114429,439.2,343.349169299908C447.3333333333333,343.4126627883731,455.4666666666667,343.4126627883731,463.6,343.4444095326056C471.73333333333335,343.47615627683814,479.8666666666667,343.47615627683814,488,343.53964976530324C496.1333333333333,343.60314325376834,504.26666666666665,343.8835728278224,512.4,343.98410418455876C520.5333333333333,344.08463554129514,528.6666666666666,344.06347104514015,536.8,344.1428379057215C544.9333333333333,344.2222047663028,553.0666666666667,344.46030534804686,561.2,344.46030534804686C569.3333333333334,344.46030534804686,577.4666666666667,344.0793444172564,585.6,344.0793444172564C593.7333333333333,344.0793444172564,601.8666666666667,344.1587112778377,610,344.2380781384191"></path><circle cx="500" cy="30" r="6" style="fill: rgb(0, 107, 113);"></circle><text x="515" y="30" alignment-baseline="middle">Combinatorics</text><path fill="none" stroke="#E9B62B" opacity="1" stroke-width="1.5" d="M0,345C8.133333333333335,200.23077247807802,16.266666666666666,55.461544956156104,24.400000000000002,55.461544956156104C32.53333333333334,55.461544956156104,40.66666666666667,215.2407142368789,48.800000000000004,245.99606908407404C56.93333333333334,276.7514239312692,65.06666666666666,281.1108709252307,73.2,292.12910135486675C81.33333333333334,303.1473317845028,89.46666666666667,307.4771226764646,97.60000000000001,312.1054516618904C105.73333333333333,316.7337806473162,113.86666666666667,317.46727490344307,122,319.8990752674216C130.13333333333333,322.33087563140015,138.26666666666668,324.7982633177784,146.4,326.6962538457616C154.53333333333333,328.5942443737448,162.66666666666669,330.05530166559856,170.8,331.28701843532104C178.93333333333334,332.5187352050435,187.0666666666667,333.30956459170324,195.20000000000002,334.08655446409637C203.33333333333334,334.8635443364895,211.46666666666667,335.4428268622177,219.6,335.9489576696799C227.73333333333332,336.4550884771421,235.86666666666667,336.7121080278065,244,337.12333930886956C252.13333333333333,337.53457058993257,260.26666666666665,338.07628871979443,268.4,338.4163453560581C276.5333333333333,338.7564019923218,284.6666666666667,338.918522016587,292.8,339.16367912645154C300.93333333333334,339.40883623631606,309.06666666666666,339.6282913911141,317.2,339.88728801524513C325.3333333333333,340.1462846393762,333.4666666666667,340.50215786337304,341.6,340.7176588712378C349.73333333333335,340.93315987910256,357.8666666666667,340.9628159811023,366,341.18029406243375C374.1333333333333,341.39777214376517,382.2666666666667,341.9829858898933,390.40000000000003,342.0225273592263C398.53333333333336,342.06206882855923,406.6666666666667,342.0422980938928,414.8,342.08183956322574C422.93333333333334,342.1213810325587,431.06666666666666,342.6196035461544,439.2,342.67496160322054C447.3333333333333,342.7303196602867,455.4666666666667,342.71648014602016,463.6,342.7579986888198C471.73333333333335,342.7995172316194,479.8666666666667,342.86080650908553,488,342.9240728600183C496.1333333333333,342.9873392109511,504.26666666666665,343.072353370017,512.4,343.1375967944164C520.5333333333333,343.2028402188158,528.6666666666666,343.24040461468223,536.8,343.3155334064149C544.9333333333333,343.39066219814754,553.0666666666667,343.49544709187995,561.2,343.58836954481245C569.3333333333334,343.68129199774495,577.4666666666667,343.8572515362767,585.6,343.87306812400993C593.7333333333333,343.8888847117432,601.8666666666667,343.89283885867644,610,343.89679300560977"></path><circle cx="500" cy="50" r="6" style="fill: rgb(233, 182, 43);"></circle><text x="515" y="50" alignment-baseline="middle">Pure</text><path fill="none" stroke="#CD423D" opacity="1" stroke-width="1.5" d="M0,345C8.133333333333335,172.5,16.266666666666666,0,24.400000000000002,0C32.53333333333334,0,40.66666666666667,212.56881064463445,48.800000000000004,245.42595350177731C56.93333333333334,278.28309635892015,65.06666666666666,282.9536939187242,73.2,294.7116677874916C81.33333333333334,306.469641656259,89.46666666666667,310.8101762897492,97.60000000000001,315.97379671438176C105.73333333333333,321.1374171390143,113.86666666666667,323.1813214525891,122,325.6933903352868C130.13333333333333,328.20545921798447,138.26666666666668,329.502233643962,146.4,331.0462100105678C154.53333333333333,332.5901863771736,162.66666666666669,333.8993899510039,170.8,334.9572485349217C178.93333333333334,336.01510711883947,187.0666666666667,336.842335959266,195.20000000000002,337.39336151407434C203.33333333333334,337.9443870688827,211.46666666666667,337.8394298203478,219.6,338.2634018637717C227.73333333333332,338.6873739071957,235.86666666666667,339.4441709097896,244,339.9371937746181C252.13333333333333,340.4302166394466,260.26666666666665,341.0005764242482,268.4,341.2215390527428C276.5333333333333,341.4425016812374,284.6666666666667,341.406595254107,292.8,341.5529829954847C300.93333333333334,341.69937073686236,309.06666666666666,341.9341435296378,317.2,342.09986550100876C325.3333333333333,342.2655874723797,333.4666666666667,342.42026131232586,341.6,342.5473148237102C349.73333333333335,342.6743683350946,357.8666666666667,342.725465942934,366,342.86218656931504C374.1333333333333,342.99890719569606,382.2666666666667,343.2530142184648,390.40000000000003,343.36763858199635C398.53333333333336,343.4822629455279,406.6666666666667,343.48916802766837,414.8,343.54993275050435C422.93333333333334,343.61069747334034,431.06666666666666,343.68941540974157,439.2,343.7322269190124C447.3333333333333,343.77503842828327,455.4666666666667,343.7570852147181,463.6,343.80680180612933C471.73333333333335,343.8565183975406,479.8666666666667,344.03052646748006,488,344.03052646748006C496.1333333333333,344.03052646748006,504.26666666666665,343.9145210875204,512.4,343.9145210875204C520.5333333333333,343.9145210875204,528.6666666666666,344.3702565087905,536.8,344.3702565087905C544.9333333333333,344.3702565087905,553.0666666666667,344.24596503026225,561.2,344.24596503026225C569.3333333333334,344.24596503026225,577.4666666666667,344.38959073878374,585.6,344.4116870016332C593.7333333333333,344.43378326448266,601.8666666666667,344.439307330195,610,344.4448313959074"></path><circle cx="500" cy="70" r="6" style="fill: rgb(205, 66, 61);"></circle><text x="515" y="70" alignment-baseline="middle">Applied</text></g></svg>