<svg width="720" height="405"><g transform="translate(80,10)"><g transform="translate(0,345)" fill="none" font-size="10" font-family="sans-serif" text-anchor="middle"><path class="domain" stroke="#000" d="M0.5,6V0.5H610.5V6"></path><g class="tick" opacity="1" transform="translate(0.5,0)"><line stroke="#000" y2="6"></line><text fill="#000" y="9" dy="0.71em">0</text></g><g class="tick" opacity="1" transform="translate(51.33333333333333,0)"><line stroke="#000" y2="6"></line><text fill="#000" y="9" dy="0.71em">20</text></g><g class="tick" opacity="1" transform="translate(102.16666666666666,0)"><line stroke="#000" y2="6"></line><text fill="#000" y="9" dy="0.71em">40</text></g><g class="tick" opacity="1" transform="translate(153,0)"><line stroke="#000" y2="6"></line><text fill="#000" y="9" dy="0.71em">60</text></g><g class="tick" opacity="1" transform="translate(203.83333333333331,0)"><line stroke="#000" y2="6"></line><text fill="#000" y="9" dy="0.71em">80</text></g><g class="tick" opacity="1" transform="translate(254.66666666666669,0)"><line stroke="#000" y2="6"></line><text fill="#000" y="9" dy="0.71em">100</text></g><g class="tick" opacity="1" transform="translate(305.5,0)"><line stroke="#000" y2="6"></line><text fill="#000" y="9" dy="0.71em">120</text></g><g class="tick" opacity="1" transform="translate(356.33333333333337,0)"><line stroke="#000" y2="6"></line><text fill="#000" y="9" dy="0.71em">140</text></g><g class="tick" opacity="1" transform="translate(407.16666666666663,0)"><line stroke="#000" y2="6"></line><text fill="#000" y="9" dy="0.71em">160</text></g><g class="tick" opacity="1" transform="translate(458,0)"><line stroke="#000" y2="6"></line><text fill="#000" y="9" dy="0.71em">180</text></g><g class="tick" opacity="1" transform="translate(508.83333333333337,0)"><line stroke="#000" y2="6"></line><text fill="#000" y="9" dy="0.71em">200</text></g><g class="tick" opacity="1" transform="translate(559.6666666666666,0)"><line stroke="#000" y2="6"></line><text fill="#000" y="9" dy="0.71em">220</text></g><g class="tick" opacity="1" transform="translate(610.5,0)"><line stroke="#000" y2="6"></line><text fill="#000" y="9" dy="0.71em">240</text></g></g><text transform="translate(305 ,385)" style="text-anchor: middle;">Number of characters</text><g fill="none" font-size="10" font-family="sans-serif" text-anchor="end"><path class="domain" stroke="#000" d="M-6,345.5H0.5V0.5H-6"></path><g class="tick" opacity="1" transform="translate(0,345.5)"><line stroke="#000" x2="-6"></line><text fill="#000" x="-9" dy="0.32em">0.000</text></g><g class="tick" opacity="1" transform="translate(0,314.862)"><line stroke="#000" x2="-6"></line><text fill="#000" x="-9" dy="0.32em">0.002</text></g><g class="tick" opacity="1" transform="translate(0,284.224)"><line stroke="#000" x2="-6"></line><text fill="#000" x="-9" dy="0.32em">0.004</text></g><g class="tick" opacity="1" transform="translate(0,253.586)"><line stroke="#000" x2="-6"></line><text fill="#000" x="-9" dy="0.32em">0.006</text></g><g class="tick" opacity="1" transform="translate(0,222.948)"><line stroke="#000" x2="-6"></line><text fill="#000" x="-9" dy="0.32em">0.008</text></g><g class="tick" opacity="1" transform="translate(0,192.31)"><line stroke="#000" x2="-6"></line><text fill="#000" x="-9" dy="0.32em">0.010</text></g><g class="tick" opacity="1" transform="translate(0,161.672)"><line stroke="#000" x2="-6"></line><text fill="#000" x="-9" dy="0.32em">0.012</text></g><g class="tick" opacity="1" transform="translate(0,131.034)"><line stroke="#000" x2="-6"></line><text fill="#000" x="-9" dy="0.32em">0.014</text></g><g class="tick" opacity="1" transform="translate(0,100.39600000000002)"><line stroke="#000" x2="-6"></line><text fill="#000" x="-9" dy="0.32em">0.016</text></g><g class="tick" opacity="1" transform="translate(0,69.75800000000004)"><line stroke="#000" x2="-6"></line><text fill="#000" x="-9" dy="0.32em">0.018</text></g><g class="tick" opacity="1" transform="translate(0,39.120000000000005)"><line stroke="#000" x2="-6"></line><text fill="#000" x="-9" dy="0.32em">0.020</text></g><g class="tick" opacity="1" transform="translate(0,8.482000000000028)"><line stroke="#000" x2="-6"></line><text fill="#000" x="-9" dy="0.32em">0.022</text></g></g><text transform="rotate(-90)" y="-70" x="-172.5" dy="1em" style="text-anchor: middle;">Proportion of papers</text><path fill="none" stroke="#9e9e9e" opacity="1" stroke-width="1.5" d="M0,345C0.8472222222222222,344.98086301924315,1.6944444444444442,344.96172603848635,2.5416666666666665,344.96172603848635C3.388888888888889,344.96172603848635,4.236111111111111,345,5.083333333333333,345C5.930555555555555,345,6.777777777777778,344.9808630192432,7.625,344.96172603848635C8.472222222222221,344.9425890577295,9.319444444444445,344.885178115459,10.166666666666666,344.885178115459C11.013888888888888,344.885178115459,11.86111111111111,344.885178115459,12.708333333333332,344.885178115459C13.555555555555555,344.885178115459,14.402777777777777,344.77035623091797,15.25,344.7320822694043C16.09722222222222,344.69380830789066,16.944444444444446,344.70656629506186,17.791666666666668,344.65553434637695C18.63888888888889,344.60450239769204,19.48611111111111,344.425890577295,20.333333333333332,344.2727947312403C21.180555555555554,344.11969888518564,22.02777777777778,343.90281310327487,22.875,343.73695927004894C23.72222222222222,343.571105436823,24.569444444444443,343.5200734881381,25.416666666666664,343.2776717318849C26.263888888888886,343.03526997563165,27.11111111111111,342.65253036049495,27.958333333333332,342.2825487325295C28.805555555555554,341.91256710456406,29.65277777777778,341.41500560488635,30.5,341.0577819640921C31.34722222222222,340.70055832329786,32.19444444444444,340.59211543234244,33.041666666666664,340.13920688776403C33.888888888888886,339.6862983431856,34.736111111111114,339.30355872804887,35.583333333333336,338.34033069662155C36.43055555555556,337.37710266519423,37.27777777777778,334.7425783143367,38.125,334.3598386992C38.97222222222222,333.9770990840633,39.81944444444444,334.1684688916317,40.666666666666664,333.785729276495C41.513888888888886,333.4029896613583,42.361111111111114,331.0300040475108,43.208333333333336,329.843511240587C44.05555555555556,328.65701843366327,44.90277777777778,327.6555164407223,45.75,326.6667724349525C46.59722222222222,325.67802842918275,47.44444444444444,324.70204241058417,48.291666666666664,323.9110472059683C49.138888888888886,323.12005200135246,49.98611111111111,323.19022093079417,50.83333333333333,321.9208012072575C51.68055555555555,320.6513814837208,52.52777777777778,317.4682636845007,53.375,316.2945288647482C54.22222222222222,315.1207940449957,55.06944444444444,315.7076614548719,55.916666666666664,314.5339266351194C56.763888888888886,313.36019181536693,57.611111111111114,310.84686834263596,58.458333333333336,308.8311063695827C59.30555555555556,306.81534439652944,60.15277777777778,304.6145916094935,61,302.4393547968C61.84722222222222,300.26411798410646,62.69444444444445,298.3057669533237,63.54166666666667,295.77968549342154C64.38888888888889,293.25360403351937,65.23611111111111,289.39431291422443,66.08333333333333,287.282866037387C66.93055555555556,285.1714191605496,67.77777777777777,285.1841771477208,68.625,283.1110042323971C69.47222222222223,281.03783131707337,70.31944444444444,277.6059327680144,71.16666666666667,274.8438285454446C72.01388888888889,272.0817243228748,72.86111111111111,268.7263736968431,73.70833333333333,266.5383788969784C74.55555555555556,264.3503840971136,75.40277777777777,264.15263529595967,76.25,261.71585974625606C77.09722222222223,259.27908419655245,77.94444444444444,254.99877950060713,78.79166666666667,251.91772559875676C79.63888888888889,248.83667169690642,80.48611111111111,246.67419287138412,81.33333333333333,243.2295363351539C82.18055555555556,239.7848797989237,83.02777777777777,233.96085865526035,83.875,231.24978638137546C84.72222222222223,228.53871410749056,85.56944444444444,229.82089181819848,86.41666666666667,226.9631026918445C87.2638888888889,224.10531356549055,88.11111111111111,215.8700328464661,88.95833333333334,211.19423054821286C89.80555555555556,206.51842824995964,90.65277777777779,203.0291187586301,91.5,198.90828890232507C92.34722222222223,194.78745904602002,93.19444444444444,189.5056523571337,94.04166666666667,186.4692514103826C94.88888888888889,183.43285046363155,95.73611111111111,184.00695988633655,96.58333333333333,180.68988322181858C97.43055555555556,177.37280655730058,98.27777777777777,170.9045070614905,99.125,166.56679142327468C99.97222222222221,162.22907578505885,100.81944444444444,158.29323674273653,101.66666666666666,154.6635893925236C102.51388888888889,151.03394204231063,103.3611111111111,147.26395683321425,104.20833333333333,144.788907321997C105.05555555555556,142.31385781077972,105.90277777777777,141.89284423412937,106.75,139.81329232522C107.59722222222223,137.73374041631064,108.44444444444444,136.1070970519797,109.29166666666667,132.31159586854085C110.13888888888889,128.516094685102,110.98611111111111,117.04028522458688,111.83333333333333,117.04028522458688C112.68055555555556,117.04028522458688,113.52777777777777,120.29357195324874,114.375,120.29357195324874C115.22222222222223,120.29357195324874,116.06944444444444,111.69468859984444,116.91666666666667,109.9596023445581C117.76388888888889,108.22451608927179,118.61111111111111,108.07779923680273,119.45833333333333,107.35697296162863C120.30555555555556,106.63614668645452,121.15277777777777,106.78286353892359,122,105.63464469351351C122.84722222222223,104.48642584810342,123.69444444444444,101.29692905529764,124.54166666666667,99.20461915921706C125.3888888888889,97.11230926313648,126.23611111111111,93.08078531703003,127.08333333333334,93.08078531703003C127.93055555555556,93.08078531703003,128.77777777777777,95.30067508482287,129.625,96.02788035358259C130.47222222222223,96.7550856223423,131.31944444444443,97.44401692958834,132.16666666666666,97.44401692958834C133.01388888888889,97.44401692958834,133.86111111111111,93.45076694499552,134.70833333333334,93.42525097065308C135.55555555555557,93.39973499631064,136.40277777777777,93.38697700913943,137.25,93.38697700913943C138.09722222222223,93.38697700913943,138.94444444444443,94.87966150817246,139.79166666666666,94.87966150817246C140.63888888888889,94.87966150817246,141.48611111111111,92.04738835616094,142.33333333333334,91.51155289496958C143.18055555555557,90.97571743377823,144.02777777777777,90.70779970318256,144.875,90.70779970318256C145.72222222222223,90.70779970318256,146.56944444444443,93.34870304762569,147.41666666666666,93.34870304762569C148.26388888888889,93.34870304762569,149.1111111111111,89.5213068962588,149.95833333333331,89.5213068962588C150.80555555555554,89.5213068962588,151.65277777777777,97.59711277564301,152.5,97.59711277564301C153.34722222222223,97.59711277564301,154.19444444444443,88.83237558901277,155.04166666666666,88.83237558901277C155.88888888888889,88.83237558901277,156.73611111111111,91.4987949077984,157.58333333333334,92.27703212524301C158.43055555555557,93.05526934268761,159.27777777777777,92.68528771472215,160.125,93.50179889368042C160.97222222222223,94.31831007263868,161.81944444444443,98.15208521759116,162.66666666666666,99.6639066973811C163.51388888888889,101.17572817717102,164.3611111111111,101.67328967684874,165.20833333333331,102.57272777241997C166.05555555555554,103.47216586799121,166.90277777777777,104.2440240918502,167.75,105.06053527080849C168.59722222222223,105.87704644976675,169.44444444444443,107.47179484616962,170.29166666666666,107.47179484616962C171.13888888888889,107.47179484616962,171.98611111111111,107.45903685899839,172.83333333333334,107.43352088465593C173.68055555555557,107.40800491031348,174.52777777777777,104.60124773264442,175.375,104.60124773264442C176.22222222222223,104.60124773264442,177.06944444444446,119.55360869731781,177.91666666666669,119.68118856903004C178.7638888888889,119.80876844074227,179.61111111111111,119.74497850488616,180.45833333333334,119.87255837659839C181.30555555555557,120.00013824831062,182.15277777777777,120.52321572233078,183,121.82453041379554C183.84722222222223,123.12584510526031,184.69444444444443,128.10146010203724,185.54166666666666,128.10146010203724C186.38888888888889,128.10146010203724,187.23611111111111,126.64704956451783,188.08333333333334,126.64704956451783C188.93055555555557,126.64704956451783,189.77777777777777,138.35888178770057,190.625,138.35888178770057C191.47222222222223,138.35888178770057,192.31944444444443,135.64143052023005,193.16666666666666,135.64143052023005C194.01388888888889,135.64143052023005,194.86111111111111,142.4669536568344,195.70833333333334,144.5209895914013C196.55555555555557,146.5750255259682,197.40277777777777,146.72812137202288,198.25,147.96564612763152C199.09722222222223,149.20317088324015,199.94444444444443,150.0707140108833,200.79166666666666,151.9461381250531C201.63888888888889,153.82156223922289,202.4861111111111,157.4767255637783,203.33333333333331,159.21819081265025C204.18055555555554,160.95965606152222,205.02777777777777,160.78742323471067,205.875,162.39492961828478C206.72222222222223,164.00243600185888,207.56944444444443,166.87936210896964,208.41666666666666,168.86322911409482C209.26388888888889,170.84709611922,210.11111111111111,172.18668477219842,210.95833333333334,174.29813164903584C211.80555555555557,176.40957852587326,212.65277777777777,181.5319103751193,213.5,181.5319103751193C214.34722222222223,181.5319103751193,215.19444444444446,180.7664311448459,216.04166666666669,180.7664311448459C216.8888888888889,180.7664311448459,217.73611111111111,181.9210289838416,218.58333333333334,184.21108768107615C219.43055555555557,186.5011463783107,220.27777777777777,191.7638160864402,221.125,194.50678332825314C221.97222222222223,197.24975057006608,222.81944444444443,198.49365431926034,223.66666666666666,200.66889113195384C224.51388888888889,202.84412794464737,225.36111111111111,205.72105405175813,226.20833333333334,207.55820420441427C227.05555555555557,209.39535435707037,227.90277777777777,209.47828127368334,228.75,211.69179204789054C229.59722222222223,213.90530282209775,230.44444444444443,218.6512740497927,231.29166666666666,220.83926884965746C232.13888888888889,223.02726364952224,232.98611111111111,223.77998489262438,233.83333333333334,224.81976084707907C234.68055555555557,225.85953680153375,235.52777777777777,225.5724820901812,236.375,227.07792457638553C237.22222222222223,228.58336706258984,238.06944444444443,233.4824341363395,238.91666666666666,236.07230553209777C239.76388888888889,238.66217692785605,240.6111111111111,241.0224045545323,241.45833333333331,242.61715295093518C242.30555555555554,244.21190134733808,243.15277777777777,244.59464096247473,244,245.64079591051504C244.84722222222223,246.68695085855532,245.69444444444443,247.3695031722158,246.54166666666666,248.89408263917693C247.38888888888889,250.41866210613807,248.23611111111111,252.41528709843442,249.08333333333334,254.78827271228192C249.93055555555557,257.16125832612937,250.77777777777777,262.9278685275222,251.625,263.1319963222618C252.47222222222223,263.33612411700136,253.31944444444446,263.2340602196316,254.16666666666669,263.4381880143712C255.01388888888889,263.64231580911076,255.86111111111111,266.76164367247475,256.7083333333333,268.3372550881208C257.55555555555554,269.91286650376685,258.40277777777777,272.0498293549467,259.25,272.89185650824743C260.09722222222223,273.73388366154813,260.9444444444444,273.3128700848978,261.79166666666663,274.1548972381985C262.63888888888886,274.9969243914992,263.4861111111111,280.06184529847474,264.3333333333333,281.5417718103366C265.18055555555554,283.0216983221985,266.02777777777777,282.88136046331505,266.875,283.76166157812946C267.72222222222223,284.6419626929439,268.56944444444446,285.63070669871365,269.4166666666667,286.823578499223C270.2638888888889,288.01645029973236,271.11111111111114,289.51551379235104,271.95833333333337,290.9188923811856C272.8055555555556,292.3222709700201,273.65277777777777,294.0509782317208,274.5,295.24385003223017C275.34722222222223,296.4367218327395,276.19444444444446,297.2723699924546,277.0416666666667,298.0761231842417C277.8888888888889,298.87987637602873,278.7361111111111,299.3455429077784,279.5833333333333,300.0663691829525C280.43055555555554,300.7871954581266,281.27777777777777,302.29901693791646,282.125,302.4010808352863C282.97222222222223,302.5031447326561,283.81944444444446,302.4521127839712,284.6666666666667,302.554176681341C285.5138888888889,302.6562405787108,286.3611111111111,302.8348523991079,287.2083333333333,303.3962038346417C288.05555555555554,303.95755527017553,288.90277777777777,306.6367325761324,289.75,307.30014790903596C290.59722222222223,307.96356324193954,291.44444444444446,307.63185557548775,292.2916666666667,308.29527090839133C293.1388888888889,308.9586862412949,293.9861111111111,313.23261194365466,294.8333333333333,313.23261194365466C295.68055555555554,313.23261194365466,296.52777777777777,312.84987232851796,297.375,312.84987232851796C298.22222222222223,312.84987232851796,299.0694444444444,313.13692703987044,299.91666666666663,313.423981751223C300.76388888888886,313.7110364625755,301.6111111111111,313.8067213663597,302.4583333333333,314.5722005966331C303.30555555555554,315.3376798269065,304.15277777777777,318.8206103246504,305,318.97370617070504C305.84722222222223,319.1268020167597,306.69444444444446,319.05025409373235,307.5416666666667,319.203349939787C308.3888888888889,319.3564457858417,309.2361111111111,319.7200484202216,310.0833333333333,320.31329482368346C310.93055555555554,320.90654122714534,311.77777777777777,322.0930340340691,312.625,322.7628283605583C313.47222222222223,323.43262268704746,314.31944444444446,323.8600152572834,315.1666666666667,324.33206078261867C316.0138888888889,324.80410630795393,316.86111111111114,325.2570148525324,317.70833333333337,325.5951015125698C318.5555555555556,325.9331881726072,319.40277777777777,325.88215622392227,320.25,326.3605807428431C321.09722222222223,326.839005261764,321.94444444444446,328.18497290832806,322.7916666666667,328.46564862609495C323.6388888888889,328.74632434386183,324.4861111111111,328.8866622027453,325.3333333333333,328.8866622027453C326.18055555555554,328.8866622027453,327.02777777777777,328.7718403182043,327.875,328.7718403182043C328.72222222222223,328.7718403182043,329.5694444444444,329.81161627265897,330.41666666666663,330.2262508557237C331.26388888888886,330.6408854387885,332.1111111111111,330.8832871950417,332.9583333333333,331.2596478165928C333.80555555555554,331.6360084381439,334.65277777777777,332.2292548416057,335.5,332.4844145850302C336.34722222222223,332.7395743284547,337.19444444444446,332.6119944567424,338.0416666666667,332.8671542001669C338.8888888888889,333.1223139435914,339.7361111111111,334.04088901991935,340.5833333333333,334.1684688916316C341.43055555555554,334.2960487633439,342.27777777777777,334.2322588274877,343.125,334.3598386992C343.97222222222223,334.48741857091227,344.81944444444446,335.4697835830964,345.6666666666667,335.4697835830964C346.5138888888889,335.4697835830964,347.3611111111111,334.7425783143367,348.2083333333333,334.7425783143367C349.05555555555554,334.7425783143367,349.90277777777777,336.77109827456115,350.75,336.77109827456115C351.59722222222223,336.77109827456115,352.44444444444446,336.6180024285065,353.2916666666667,336.6180024285065C354.1388888888889,336.6180024285065,354.98611111111114,339.02926200386764,355.83333333333337,339.02926200386764C356.6805555555556,339.02926200386764,357.52777777777777,338.5699744657036,358.375,338.5699744657036C359.22222222222223,338.5699744657036,360.06944444444446,339.02926200386764,360.9166666666667,339.02926200386764C361.7638888888889,339.02926200386764,362.6111111111111,338.6847963502446,363.4583333333333,338.6847963502446C364.30555555555554,338.6847963502446,365.15277777777777,339.2780427537065,366,339.565097465059C366.84722222222223,339.85215217641155,367.6944444444444,340.4071246183597,368.54166666666663,340.4071246183597C369.38888888888886,340.4071246183597,370.2361111111111,340.33057669533235,371.0833333333333,340.2923027338187C371.93055555555554,340.25402877230505,372.77777777777777,340.1774808492777,373.625,340.1774808492777C374.47222222222223,340.1774808492777,375.31944444444446,341.6318913867971,376.1666666666667,341.6318913867971C377.0138888888889,341.6318913867971,377.8611111111111,341.47879554074245,378.7083333333333,341.36397365620144C379.55555555555554,341.2491517716604,380.40277777777777,340.9429600795511,381.25,340.9429600795511C382.09722222222223,340.9429600795511,382.94444444444446,341.22363579731797,383.7916666666667,341.4022476177151C384.6388888888889,341.5808594381122,385.4861111111111,341.93808307890646,386.3333333333333,342.0146310019338C387.18055555555554,342.0911789249612,388.02777777777777,342.0975579185468,388.875,342.12945288647484C389.72222222222223,342.1613478544029,390.56944444444446,342.1549688608173,391.4166666666667,342.20600080950214C392.2638888888889,342.257032758187,393.11111111111114,342.6270143861525,393.95833333333337,342.6270143861525C394.8055555555556,342.6270143861525,395.65277777777777,341.74671327133814,396.5,341.74671327133814C397.34722222222223,341.74671327133814,398.19444444444446,342.6908043220086,399.0416666666667,342.7418362706935C399.8888888888889,342.7928682193784,400.7361111111111,342.7928682193784,401.5833333333333,342.8183841937209C402.43055555555554,342.8439001680633,403.27777777777777,342.8630371488201,404.125,342.8949321167482C404.97222222222223,342.92682708467623,405.8194444444444,343.0097540012892,406.66666666666663,343.0097540012892C407.51388888888886,343.0097540012892,408.3611111111111,342.8183841937209,409.2083333333333,342.8183841937209C410.05555555555554,342.8183841937209,410.90277777777777,343.73695927004894,411.75,343.73695927004894C412.59722222222223,343.73695927004894,413.44444444444446,343.35421965491224,414.2916666666667,343.35421965491224C415.1388888888889,343.35421965491224,415.9861111111111,343.7752332315626,416.8333333333333,343.7752332315626C417.68055555555554,343.7752332315626,418.52777777777777,343.6221373855079,419.375,343.6221373855079C420.22222222222223,343.6221373855079,421.06944444444446,343.82626518024745,421.9166666666667,343.8517811545899C422.7638888888889,343.87729712893236,423.6111111111111,343.8900551161036,424.4583333333333,343.8900551161036C425.30555555555554,343.8900551161036,426.15277777777777,343.7752332315626,427,343.7752332315626C427.84722222222223,343.7752332315626,428.69444444444446,343.7879912187338,429.5416666666667,343.81350719307625C430.3888888888889,343.8390231674187,431.23611111111114,343.9666030391309,432.08333333333337,343.9666030391309C432.9305555555556,343.9666030391309,433.77777777777777,343.7752332315626,434.625,343.7752332315626C435.47222222222223,343.7752332315626,436.31944444444446,344.0431509621583,437.1666666666667,344.1196988851856C438.0138888888889,344.1962468082129,438.8611111111111,344.2345207697266,439.7083333333333,344.2345207697266C440.55555555555554,344.2345207697266,441.40277777777777,344.1196988851856,442.25,344.1196988851856C443.09722222222223,344.1196988851856,443.9444444444444,344.31106869275396,444.79166666666663,344.31106869275396C445.63888888888886,344.31106869275396,446.4861111111111,344.1196988851856,447.3333333333333,344.1196988851856C448.18055555555554,344.1196988851856,449.02777777777777,344.425890577295,449.875,344.425890577295C450.72222222222223,344.425890577295,451.56944444444446,344.1579728466993,452.4166666666667,344.1579728466993C453.2638888888889,344.1579728466993,454.1111111111111,344.4003746029525,454.9583333333333,344.425890577295C455.80555555555554,344.45140655163743,456.65277777777777,344.4386485644662,457.5,344.46416453880863C458.34722222222223,344.4896805131511,459.19444444444446,344.57898642334965,460.0416666666667,344.57898642334965C460.8888888888889,344.57898642334965,461.7361111111111,344.19624680821295,462.5833333333333,344.19624680821295C463.43055555555554,344.19624680821295,464.27777777777777,344.65553434637695,465.125,344.65553434637695C465.97222222222223,344.65553434637695,466.81944444444446,344.57260742976405,467.6666666666667,344.540712461836C468.5138888888889,344.50881749390794,469.36111111111114,344.46416453880863,470.20833333333337,344.46416453880863C471.0555555555556,344.46416453880863,471.90277777777777,344.6172603848633,472.75,344.6172603848633C473.59722222222223,344.6172603848633,474.44444444444446,344.5024385003223,475.2916666666667,344.5024385003223C476.1388888888889,344.5024385003223,476.9861111111111,344.5024385003223,477.8333333333333,344.5024385003223C478.68055555555554,344.5024385003223,479.52777777777777,344.65553434637695,480.375,344.65553434637695C481.22222222222223,344.65553434637695,482.0694444444444,344.65553434637695,482.91666666666663,344.65553434637695C483.76388888888886,344.65553434637695,484.6111111111111,344.6746713271338,485.4583333333333,344.69380830789066C486.30555555555554,344.7129452886475,487.15277777777777,344.7512192501611,488,344.77035623091797C488.84722222222223,344.7894932116748,489.69444444444446,344.8086301924317,490.5416666666667,344.8086301924317C491.3888888888889,344.8086301924317,492.2361111111111,344.7320822694043,493.0833333333333,344.69380830789066C493.93055555555554,344.655534346377,494.77777777777777,344.57898642334965,495.625,344.57898642334965C496.47222222222223,344.57898642334965,497.31944444444446,344.885178115459,498.1666666666667,344.885178115459C499.0138888888889,344.885178115459,499.8611111111111,344.6172603848633,500.7083333333333,344.6172603848633C501.55555555555554,344.6172603848633,502.40277777777777,344.92345207697264,503.25,344.92345207697264C504.09722222222223,344.92345207697264,504.94444444444446,344.92345207697264,505.7916666666667,344.92345207697264C506.6388888888889,344.92345207697264,507.48611111111114,344.83414616677413,508.33333333333337,344.8086301924317C509.1805555555556,344.7831142180892,510.02777777777777,344.77035623091797,510.875,344.77035623091797C511.72222222222223,344.77035623091797,512.5694444444445,344.885178115459,513.4166666666666,344.885178115459C514.2638888888889,344.885178115459,515.1111111111111,344.8086301924317,515.9583333333334,344.8086301924317C516.8055555555555,344.8086301924317,517.6527777777778,344.885178115459,518.5,344.885178115459C519.3472222222222,344.885178115459,520.1944444444445,344.7320822694043,521.0416666666666,344.7320822694043C521.8888888888888,344.7320822694043,522.7361111111111,344.885178115459,523.5833333333333,344.885178115459C524.4305555555555,344.885178115459,525.2777777777777,344.84690415394533,526.125,344.84690415394533C526.9722222222222,344.84690415394533,527.8194444444445,344.92345207697264,528.6666666666666,344.92345207697264C529.5138888888889,344.92345207697264,530.3611111111111,344.885178115459,531.2083333333334,344.885178115459C532.0555555555555,344.885178115459,532.9027777777778,344.92345207697264,533.75,344.92345207697264C534.5972222222222,344.92345207697264,535.4444444444445,344.885178115459,536.2916666666666,344.885178115459C537.1388888888889,344.885178115459,537.9861111111111,344.92345207697264,538.8333333333334,344.92345207697264C539.6805555555555,344.92345207697264,540.5277777777778,344.84690415394533,541.375,344.84690415394533C542.2222222222223,344.84690415394533,543.0694444444445,344.84690415394533,543.9166666666667,344.84690415394533C544.7638888888889,344.84690415394533,545.6111111111112,344.96172603848635,546.4583333333334,344.96172603848635C547.3055555555555,344.96172603848635,548.1527777777778,344.92345207697264,549,344.92345207697264C549.8472222222222,344.92345207697264,550.6944444444445,344.96172603848635,551.5416666666666,344.96172603848635C552.3888888888889,344.96172603848635,553.2361111111111,344.96172603848635,554.0833333333334,344.96172603848635C554.9305555555555,344.96172603848635,555.7777777777778,344.84690415394533,556.625,344.84690415394533C557.4722222222222,344.84690415394533,558.3194444444445,344.84690415394533,559.1666666666666,344.84690415394533C560.0138888888888,344.84690415394533,560.8611111111111,344.8086301924317,561.7083333333333,344.8086301924317C562.5555555555555,344.8086301924317,563.4027777777777,344.85966214111653,564.25,344.885178115459C565.0972222222222,344.91069408980144,565.9444444444445,344.96172603848635,566.7916666666666,344.96172603848635C567.6388888888889,344.96172603848635,568.4861111111111,344.885178115459,569.3333333333334,344.885178115459C570.1805555555555,344.885178115459,571.0277777777778,344.96172603848635,571.875,344.96172603848635C572.7222222222222,344.96172603848635,573.5694444444445,344.96172603848635,574.4166666666666,344.96172603848635C575.2638888888889,344.96172603848635,576.1111111111111,344.92345207697264,576.9583333333334,344.92345207697264C577.8055555555555,344.92345207697264,578.6527777777778,345,579.5,345C580.3472222222223,345,581.1944444444445,344.92345207697264,582.0416666666667,344.92345207697264C582.8888888888889,344.92345207697264,583.7361111111112,344.92345207697264,584.5833333333334,344.92345207697264C585.4305555555555,344.92345207697264,586.2777777777778,345,587.125,345C587.9722222222222,345,588.8194444444445,345,589.6666666666666,345C590.5138888888889,345,591.3611111111111,344.92345207697264,592.2083333333334,344.92345207697264C593.0555555555555,344.92345207697264,593.9027777777778,344.96172603848635,594.75,344.96172603848635C595.5972222222222,344.96172603848635,596.4444444444445,344.96172603848635,597.2916666666666,344.96172603848635C598.1388888888888,344.96172603848635,598.9861111111111,344.96172603848635,599.8333333333333,344.96172603848635C600.6805555555555,344.96172603848635,601.5277777777777,344.84690415394533,602.375,344.84690415394533C603.2222222222222,344.84690415394533,604.0694444444445,344.96172603848635,604.9166666666666,344.96172603848635C605.7638888888889,344.96172603848635,606.6111111111111,344.96172603848635,607.4583333333334,344.96172603848635C608.3055555555555,344.96172603848635,609.1527777777778,344.9425890577295,610,344.92345207697264"></path><circle cx="500" cy="10" r="6" style="fill: rgb(158, 158, 158);"></circle><text x="515" y="10" alignment-baseline="middle">All</text><path fill="none" stroke="#006B71" opacity="1" stroke-width="1.5" d="M0,345C0.8472222222222222,345,1.6944444444444442,345,2.5416666666666665,345C3.388888888888889,345,4.236111111111111,345,5.083333333333333,345C5.930555555555555,345,6.777777777777778,345,7.625,345C8.472222222222221,345,9.319444444444445,345,10.166666666666666,345C11.013888888888888,345,11.86111111111111,345,12.708333333333332,345C13.555555555555555,345,14.402777777777777,344.6666666666667,15.25,344.5C16.09722222222222,344.3333333333333,16.944444444444446,344,17.791666666666668,344C18.63888888888889,344,19.48611111111111,344.5,20.333333333333332,344.5C21.180555555555554,344.5,22.02777777777778,344.3333333333333,22.875,344C23.72222222222222,343.6666666666667,24.569444444444443,343.1666666666667,25.416666666666664,342.5C26.263888888888886,341.8333333333333,27.11111111111111,340.8333333333333,27.958333333333332,340C28.805555555555554,339.1666666666667,29.65277777777778,338.75,30.5,337.5C31.34722222222222,336.25,32.19444444444444,332.5,33.041666666666664,332.5C33.888888888888886,332.5,34.736111111111114,334.5,35.583333333333336,334.5C36.43055555555556,334.5,37.27777777777778,330,38.125,328.5C38.97222222222222,327,39.81944444444444,327.5,40.666666666666664,325.5C41.513888888888886,323.5,42.361111111111114,317.8333333333333,43.208333333333336,315.5C44.05555555555556,313.1666666666667,44.90277777777778,314.1666666666667,45.75,311.5C46.59722222222222,308.8333333333333,47.44444444444444,295,48.291666666666664,295C49.138888888888886,295,49.98611111111111,300,50.83333333333333,300C51.68055555555555,300,52.52777777777778,295,53.375,295C54.22222222222222,295,55.06944444444444,296.5,55.916666666666664,296.5C56.763888888888886,296.5,57.611111111111114,286.4166666666667,58.458333333333336,281C59.30555555555556,275.5833333333333,60.15277777777778,267,61,264C61.84722222222222,261,62.69444444444445,262.5,63.54166666666667,259.5C64.38888888888889,256.5,65.23611111111111,251.66666666666666,66.08333333333333,246C66.93055555555556,240.33333333333331,67.77777777777777,230.75,68.625,225.5C69.47222222222223,220.25,70.31944444444444,219.33333333333334,71.16666666666667,214.5C72.01388888888889,209.66666666666669,72.86111111111111,196.50000000000003,73.70833333333333,196.50000000000003C74.55555555555556,196.50000000000003,75.40277777777777,196.50000000000003,76.25,196.50000000000003C77.09722222222223,196.50000000000003,77.94444444444444,177.50000000000006,78.79166666666667,176.50000000000003C79.63888888888889,175.5,80.48611111111111,176.00000000000003,81.33333333333333,175C82.18055555555556,173.99999999999997,83.02777777777777,167,83.875,161C84.72222222222223,155,85.56944444444444,147.16666666666666,86.41666666666667,139C87.2638888888889,130.83333333333334,88.11111111111111,119.41666666666667,88.95833333333334,112C89.80555555555556,104.58333333333337,90.65277777777779,94.50000000000003,91.5,94.50000000000003C92.34722222222223,94.50000000000003,93.19444444444444,98.5,94.04166666666667,98.5C94.88888888888889,98.5,95.73611111111111,73.33333333333329,96.58333333333333,71C97.43055555555556,68.6666666666667,98.27777777777777,69.83333333333336,99.125,67.50000000000006C99.97222222222221,65.16666666666677,100.81944444444444,57.58333333333333,101.66666666666666,52.5C102.51388888888889,47.41666666666664,103.3611111111111,37,104.20833333333333,37C105.05555555555556,37,105.90277777777777,49.5,106.75,49.5C107.59722222222223,49.5,108.44444444444444,9.500000000000057,109.29166666666667,9.500000000000057C110.13888888888889,9.500000000000057,110.98611111111111,11.33333333333336,111.83333333333333,14.5C112.68055555555556,17.666666666666657,113.52777777777777,28.5,114.375,28.5C115.22222222222223,28.5,116.06944444444444,23.91666666666667,116.91666666666667,22C117.76388888888889,20.08333333333334,118.61111111111111,17.333333333333332,119.45833333333333,17C120.30555555555556,16.666666666666668,121.15277777777777,16.833333333333332,122,16.5C122.84722222222223,16.166666666666668,123.69444444444444,11.25,124.54166666666667,8.5C125.3888888888889,5.75,126.23611111111111,0,127.08333333333334,0C127.93055555555556,0,128.77777777777777,9.833333333333428,129.625,11.500000000000057C130.47222222222223,13.166666666666686,131.31944444444443,14,132.16666666666666,14C133.01388888888889,14,133.86111111111111,5.500000000000057,134.70833333333334,5.500000000000057C135.55555555555557,5.500000000000057,136.40277777777777,41.333333333333336,137.25,42C138.09722222222223,42.666666666666664,138.94444444444443,43,139.79166666666666,43C140.63888888888889,43,141.48611111111111,41.08333333333335,142.33333333333334,39.5C143.18055555555557,37.91666666666667,144.02777777777777,33.5,144.875,33.5C145.72222222222223,33.5,146.56944444444443,69.50000000000006,147.41666666666666,69.50000000000006C148.26388888888889,69.50000000000006,149.1111111111111,64.5,149.95833333333331,64.5C150.80555555555554,64.5,151.65277777777777,85.5,152.5,85.5C153.34722222222223,85.5,154.19444444444443,78.5,155.04166666666666,78.5C155.88888888888889,78.5,156.73611111111111,82.99999999999999,157.58333333333334,85C158.43055555555557,86.99999999999999,159.27777777777777,86.83333333333334,160.125,90.50000000000003C160.97222222222223,94.16666666666671,161.81944444444443,117.6666666666667,162.66666666666666,119.00000000000003C163.51388888888889,120.33333333333336,164.3611111111111,120.66666666666671,165.20833333333331,121.00000000000003C166.05555555555554,121.33333333333334,166.90277777777777,121.16666666666669,167.75,121.5C168.59722222222223,121.83333333333331,169.44444444444443,126.3333333333334,170.29166666666666,132.5C171.13888888888889,138.66666666666669,171.98611111111111,158.5,172.83333333333334,158.5C173.68055555555557,158.5,174.52777777777777,138.50000000000003,175.375,138.50000000000003C176.22222222222223,138.50000000000003,177.06944444444446,163.5,177.91666666666669,163.5C178.7638888888889,163.5,179.61111111111111,155.5,180.45833333333334,155.5C181.30555555555557,155.5,182.15277777777777,156.83333333333334,183,159.5C183.84722222222223,162.16666666666666,184.69444444444443,171.6666666666667,185.54166666666666,177.50000000000003C186.38888888888889,183.3333333333334,187.23611111111111,194.5,188.08333333333334,194.5C188.93055555555557,194.5,189.77777777777777,178,190.625,178C191.47222222222223,178,192.31944444444443,200.5,193.16666666666666,208C194.01388888888889,215.50000000000006,194.86111111111111,223,195.70833333333334,223C196.55555555555557,223,197.40277777777777,215,198.25,215C199.09722222222223,215,199.94444444444443,230,200.79166666666666,230C201.63888888888889,230,202.4861111111111,220,203.33333333333331,220C204.18055555555554,220,205.02777777777777,230.58333333333331,205.875,235.5C206.72222222222223,240.41666666666663,207.56944444444443,249.5,208.41666666666666,249.5C209.26388888888889,249.5,210.11111111111111,228,210.95833333333334,228C211.80555555555557,228,212.65277777777777,240.58333333333334,213.5,245.5C214.34722222222223,250.4166666666667,215.19444444444446,254.16666666666666,216.04166666666669,257.5C216.8888888888889,260.8333333333333,217.73611111111111,263.1666666666667,218.58333333333334,265.5C219.43055555555557,267.8333333333333,220.27777777777777,270.0833333333333,221.125,271.5C221.97222222222223,272.9166666666667,222.81944444444443,272.3333333333333,223.66666666666666,274C224.51388888888889,275.6666666666667,225.36111111111111,282.5,226.20833333333334,282.5C227.05555555555557,282.5,227.90277777777777,280.5833333333333,228.75,279.5C229.59722222222223,278.4166666666667,230.44444444444443,276,231.29166666666666,276C232.13888888888889,276,232.98611111111111,276.6666666666667,233.83333333333334,278C234.68055555555557,279.3333333333333,235.52777777777777,299.5,236.375,299.5C237.22222222222223,299.5,238.06944444444443,292,238.91666666666666,292C239.76388888888889,292,240.6111111111111,303.5,241.45833333333331,303.5C242.30555555555554,303.5,243.15277777777777,301.08333333333337,244,299.5C244.84722222222223,297.9166666666667,245.69444444444443,294,246.54166666666666,294C247.38888888888889,294,248.23611111111111,300.91666666666663,249.08333333333334,304C249.93055555555557,307.0833333333333,250.77777777777777,312.5,251.625,312.5C252.47222222222223,312.5,253.31944444444446,312,254.16666666666669,311.5C255.01388888888889,311,255.86111111111111,309.5,256.7083333333333,309.5C257.55555555555554,309.5,258.40277777777777,313.3333333333333,259.25,315C260.09722222222223,316.66666666666663,260.9444444444444,319.1666666666667,261.79166666666663,319.5C262.63888888888886,319.8333333333333,263.4861111111111,320,264.3333333333333,320C265.18055555555554,320,266.02777777777777,320,266.875,320C267.72222222222223,320,268.56944444444446,321.75,269.4166666666667,322.5C270.2638888888889,323.25,271.11111111111114,323.5833333333333,271.95833333333337,324.5C272.8055555555556,325.4166666666667,273.65277777777777,327.6666666666667,274.5,328C275.34722222222223,328.3333333333333,276.19444444444446,328.5,277.0416666666667,328.5C277.8888888888889,328.5,278.7361111111111,326,279.5833333333333,326C280.43055555555554,326,281.27777777777777,333,282.125,333C282.97222222222223,333,283.81944444444446,331.4166666666667,284.6666666666667,330.5C285.5138888888889,329.5833333333333,286.3611111111111,327.5,287.2083333333333,327.5C288.05555555555554,327.5,288.90277777777777,330.0833333333333,289.75,332C290.59722222222223,333.9166666666667,291.44444444444446,339,292.2916666666667,339C293.1388888888889,339,293.9861111111111,333.5,294.8333333333333,333.5C295.68055555555554,333.5,296.52777777777777,334,297.375,334.5C298.22222222222223,335,299.0694444444444,335.6666666666667,299.91666666666663,336.5C300.76388888888886,337.3333333333333,301.6111111111111,339.5,302.4583333333333,339.5C303.30555555555554,339.5,304.15277777777777,338,305,338C305.84722222222223,338,306.69444444444446,339.5,307.5416666666667,339.5C308.3888888888889,339.5,309.2361111111111,338.5,310.0833333333333,338.5C310.93055555555554,338.5,311.77777777777777,338.6666666666667,312.625,339C313.47222222222223,339.3333333333333,314.31944444444446,339.9166666666667,315.1666666666667,340.5C316.0138888888889,341.0833333333333,316.86111111111114,342.5,317.70833333333337,342.5C318.5555555555556,342.5,319.40277777777777,341.9166666666667,320.25,341.5C321.09722222222223,341.0833333333333,321.94444444444446,340.3333333333333,322.7916666666667,340C323.6388888888889,339.6666666666667,324.4861111111111,339.5,325.3333333333333,339.5C326.18055555555554,339.5,327.02777777777777,341.1666666666667,327.875,341.5C328.72222222222223,341.8333333333333,329.5694444444444,342,330.41666666666663,342C331.26388888888886,342,332.1111111111111,339.5,332.9583333333333,339.5C333.80555555555554,339.5,334.65277777777777,342,335.5,342C336.34722222222223,342,337.19444444444446,342,338.0416666666667,342C338.8888888888889,342,339.7361111111111,341,340.5833333333333,341C341.43055555555554,341,342.27777777777777,342.1666666666667,343.125,342.5C343.97222222222223,342.8333333333333,344.81944444444446,343,345.6666666666667,343C346.5138888888889,343,347.3611111111111,341,348.2083333333333,341C349.05555555555554,341,349.90277777777777,341.25,350.75,341.5C351.59722222222223,341.75,352.44444444444446,342.0833333333333,353.2916666666667,342.5C354.1388888888889,342.9166666666667,354.98611111111114,343.6666666666667,355.83333333333337,344C356.6805555555556,344.3333333333333,357.52777777777777,344.5,358.375,344.5C359.22222222222223,344.5,360.06944444444446,342.5,360.9166666666667,342.5C361.7638888888889,342.5,362.6111111111111,343.25,363.4583333333333,343.5C364.30555555555554,343.75,365.15277777777777,344,366,344C366.84722222222223,344,367.6944444444444,343.5,368.54166666666663,343.5C369.38888888888886,343.5,370.2361111111111,343.5,371.0833333333333,343.5C371.93055555555554,343.5,372.77777777777777,342,373.625,342C374.47222222222223,342,375.31944444444446,343.6666666666667,376.1666666666667,344C377.0138888888889,344.3333333333333,377.8611111111111,344.3333333333333,378.7083333333333,344.5C379.55555555555554,344.6666666666667,380.40277777777777,345,381.25,345C382.09722222222223,345,382.94444444444446,343,383.7916666666667,343C384.6388888888889,343,385.4861111111111,343.75,386.3333333333333,344C387.18055555555554,344.25,388.02777777777777,344.5,388.875,344.5C389.72222222222223,344.5,390.56944444444446,344.5,391.4166666666667,344.5C392.2638888888889,344.5,393.11111111111114,345,393.95833333333337,345C394.8055555555556,345,395.65277777777777,345,396.5,345C397.34722222222223,345,398.19444444444446,344.5,399.0416666666667,344.5C399.8888888888889,344.5,400.7361111111111,345,401.5833333333333,345C402.43055555555554,345,403.27777777777777,345,404.125,345C404.97222222222223,345,405.8194444444444,345,406.66666666666663,345C407.51388888888886,345,408.3611111111111,344.5,409.2083333333333,344.5C410.05555555555554,344.5,410.90277777777777,345,411.75,345C412.59722222222223,345,413.44444444444446,343,414.2916666666667,343C415.1388888888889,343,415.9861111111111,344.1666666666667,416.8333333333333,344.5C417.68055555555554,344.8333333333333,418.52777777777777,345,419.375,345C420.22222222222223,345,421.06944444444446,345,421.9166666666667,345C422.7638888888889,345,423.6111111111111,345,424.4583333333333,345C425.30555555555554,345,426.15277777777777,344.5,427,344.5C427.84722222222223,344.5,428.69444444444446,345,429.5416666666667,345C430.3888888888889,345,431.23611111111114,345,432.08333333333337,345C432.9305555555556,345,433.77777777777777,345,434.625,345C435.47222222222223,345,436.31944444444446,345,437.1666666666667,345C438.0138888888889,345,438.8611111111111,344.5,439.7083333333333,344.5C440.55555555555554,344.5,441.40277777777777,344.5,442.25,344.5C443.09722222222223,344.5,443.9444444444444,345,444.79166666666663,345C445.63888888888886,345,446.4861111111111,345,447.3333333333333,345C448.18055555555554,345,449.02777777777777,345,449.875,345C450.72222222222223,345,451.56944444444446,344.5,452.4166666666667,344.5C453.2638888888889,344.5,454.1111111111111,344.5,454.9583333333333,344.5C455.80555555555554,344.5,456.65277777777777,345,457.5,345C458.34722222222223,345,459.19444444444446,345,460.0416666666667,345C460.8888888888889,345,461.7361111111111,344.5,462.5833333333333,344.5C463.43055555555554,344.5,464.27777777777777,345,465.125,345C465.97222222222223,345,466.81944444444446,345,467.6666666666667,345C468.5138888888889,345,469.36111111111114,345,470.20833333333337,345C471.0555555555556,345,471.90277777777777,345,472.75,345C473.59722222222223,345,474.44444444444446,345,475.2916666666667,345C476.1388888888889,345,476.9861111111111,344.5,477.8333333333333,344.5C478.68055555555554,344.5,479.52777777777777,345,480.375,345C481.22222222222223,345,482.0694444444444,344.5,482.91666666666663,344.5C483.76388888888886,344.5,484.6111111111111,344.5,485.4583333333333,344.5C486.30555555555554,344.5,487.15277777777777,344.5,488,344.5C488.84722222222223,344.5,489.69444444444446,345,490.5416666666667,345C491.3888888888889,345,492.2361111111111,345,493.0833333333333,345C493.93055555555554,345,494.77777777777777,344.5,495.625,344.5C496.47222222222223,344.5,497.31944444444446,345,498.1666666666667,345C499.0138888888889,345,499.8611111111111,345,500.7083333333333,345C501.55555555555554,345,502.40277777777777,345,503.25,345C504.09722222222223,345,504.94444444444446,345,505.7916666666667,345C506.6388888888889,345,507.48611111111114,345,508.33333333333337,345C509.1805555555556,345,510.02777777777777,345,510.875,345C511.72222222222223,345,512.5694444444445,345,513.4166666666666,345C514.2638888888889,345,515.1111111111111,345,515.9583333333334,345C516.8055555555555,345,517.6527777777778,345,518.5,345C519.3472222222222,345,520.1944444444445,345,521.0416666666666,345C521.8888888888888,345,522.7361111111111,345,523.5833333333333,345C524.4305555555555,345,525.2777777777777,344.5,526.125,344.5C526.9722222222222,344.5,527.8194444444445,345,528.6666666666666,345C529.5138888888889,345,530.3611111111111,345,531.2083333333334,345C532.0555555555555,345,532.9027777777778,345,533.75,345C534.5972222222222,345,535.4444444444445,345,536.2916666666666,345C537.1388888888889,345,537.9861111111111,345,538.8333333333334,345C539.6805555555555,345,540.5277777777778,345,541.375,345C542.2222222222223,345,543.0694444444445,344.5,543.9166666666667,344.5C544.7638888888889,344.5,545.6111111111112,345,546.4583333333334,345C547.3055555555555,345,548.1527777777778,345,549,345C549.8472222222222,345,550.6944444444445,345,551.5416666666666,345C552.3888888888889,345,553.2361111111111,345,554.0833333333334,345C554.9305555555555,345,555.7777777777778,345,556.625,345C557.4722222222222,345,558.3194444444445,345,559.1666666666666,345C560.0138888888888,345,560.8611111111111,345,561.7083333333333,345C562.5555555555555,345,563.4027777777777,345,564.25,345C565.0972222222222,345,565.9444444444445,345,566.7916666666666,345C567.6388888888889,345,568.4861111111111,344.5,569.3333333333334,344.5C570.1805555555555,344.5,571.0277777777778,345,571.875,345C572.7222222222222,345,573.5694444444445,345,574.4166666666666,345C575.2638888888889,345,576.1111111111111,345,576.9583333333334,345C577.8055555555555,345,578.6527777777778,345,579.5,345C580.3472222222223,345,581.1944444444445,344.5,582.0416666666667,344.5C582.8888888888889,344.5,583.7361111111112,345,584.5833333333334,345C585.4305555555555,345,586.2777777777778,345,587.125,345C587.9722222222222,345,588.8194444444445,345,589.6666666666666,345C590.5138888888889,345,591.3611111111111,345,592.2083333333334,345C593.0555555555555,345,593.9027777777778,345,594.75,345C595.5972222222222,345,596.4444444444445,345,597.2916666666666,345C598.1388888888888,345,598.9861111111111,345,599.8333333333333,345C600.6805555555555,345,601.5277777777777,345,602.375,345C603.2222222222222,345,604.0694444444445,345,604.9166666666666,345C605.7638888888889,345,606.6111111111111,345,607.4583333333334,345C608.3055555555555,345,609.1527777777778,345,610,345"></path><circle cx="500" cy="30" r="6" style="fill: rgb(0, 107, 113);"></circle><text x="515" y="30" alignment-baseline="middle">Combinatorics</text><path fill="none" stroke="#E9B62B" opacity="1" stroke-width="1.5" d="M0,345C0.8472222222222222,344.9372491029149,1.6944444444444442,344.8744982058298,2.5416666666666665,344.8744982058298C3.388888888888889,344.8744982058298,4.236111111111111,345,5.083333333333333,345C5.930555555555555,345,6.777777777777778,345,7.625,345C8.472222222222221,345,9.319444444444445,344.6234946174895,10.166666666666666,344.6234946174895C11.013888888888888,344.6234946174895,11.86111111111111,344.6234946174895,12.708333333333332,344.6234946174895C13.555555555555555,344.6234946174895,14.402777777777777,344.4979928233193,15.25,344.4979928233193C16.09722222222222,344.4979928233193,16.944444444444446,344.6234946174895,17.791666666666668,344.6234946174895C18.63888888888889,344.6234946174895,19.48611111111111,344.0378195780287,20.333333333333332,343.74498205829826C21.180555555555554,343.45214453856784,22.02777777777778,343.2220579159225,22.875,342.866469499107C23.72222222222222,342.51088108229146,24.569444444444443,341.92520604283067,25.416666666666664,341.61145155740525C26.263888888888886,341.2976970719798,27.11111111111111,341.13036134641953,27.958333333333332,340.98394258655435C28.805555555555554,340.83752382668916,29.65277777777778,340.90027472377426,30.5,340.732938998214C31.34722222222222,340.5656032726538,32.19444444444444,339.89626037041285,33.041666666666664,338.8504120856614C33.888888888888886,337.80456380090993,34.736111111111114,336.9469682074137,35.583333333333336,334.4578492897052C36.43055555555556,331.96873037199674,37.27777777777778,323.91569857941045,38.125,323.91569857941045C38.97222222222222,323.91569857941045,39.81944444444444,328.9357703462175,40.666666666666664,328.9357703462175C41.513888888888886,328.9357703462175,42.361111111111114,324.292203961921,43.208333333333336,322.6606806377087C44.05555555555556,321.0291573134964,44.90277777777778,320.6944858623759,45.75,319.14663040094376C46.59722222222222,317.5987749395116,47.44444444444444,314.9423202962429,48.291666666666664,313.37354786911567C49.138888888888886,311.80477544198845,49.98611111111111,311.55377185364813,50.83333333333333,309.7339958381806C51.68055555555555,307.91421982271305,52.52777777777778,304.0864151005227,53.375,302.45489177631043C54.22222222222222,300.8233684520982,55.06944444444444,301.0743720404385,55.916666666666664,299.9448558929069C56.763888888888886,298.8153397453753,57.611111111111114,297.83224235770894,58.458333333333336,295.6777948911209C59.30555555555556,293.5233474245329,60.15277777777778,290.90872671265424,61,287.0181710933788C61.84722222222222,283.1276154741033,62.69444444444445,276.68519004003434,63.54166666666667,272.3344611754682C64.38888888888889,267.98373231090216,65.23611111111111,263.7375882748112,66.08333333333333,260.9137979059822C66.93055555555556,258.09000753715327,67.77777777777777,258.38284505688364,68.625,255.39171896249445C69.47222222222223,252.40059286810526,70.31944444444444,246.60659337058217,71.16666666666667,242.96704133964707C72.01388888888889,239.327489308712,72.86111111111111,236.1899444544576,73.70833333333333,233.5544067768839C74.55555555555556,230.9188690993102,75.40277777777777,230.14494136859412,76.25,227.15381527420493C77.09722222222223,224.16268917981574,77.94444444444444,218.9961986531435,78.79166666666667,215.60765021054874C79.63888888888889,212.21910176795402,80.48611111111111,211.9680981796136,81.33333333333333,206.82252461863644C82.18055555555556,201.67695105765924,83.02777777777777,185.7382231980469,83.875,184.7342088446855C84.72222222222223,183.73019449132408,85.56944444444444,184.2322016680048,86.41666666666667,183.22818731464338C87.2638888888889,182.22417296128197,88.11111111111111,166.30636206736466,88.95833333333334,160.13585718733103C89.80555555555556,153.96535230729742,90.65277777777779,151.37164856111377,91.5,146.20515803444155C92.34722222222223,141.0386675077693,93.19444444444444,132.4836285385023,94.04166666666667,129.1369140272976C94.88888888888889,125.7901995160929,95.73611111111111,127.46355677169525,96.58333333333333,124.11684226049056C97.43055555555556,120.77012774928585,98.27777777777777,104.45489450716302,99.125,98.012469073094C99.97222222222221,91.570043639025,100.81944444444444,87.47031836279926,101.66666666666666,85.46228965607645C102.51388888888889,83.45426094935362,103.3611111111111,84.45827530271504,104.20833333333333,82.45024659599221C105.05555555555556,80.44221788926939,105.90277777777777,73.95795852381032,106.75,70.15107076731499C107.59722222222223,66.34418301081966,108.44444444444444,62.91380063683485,109.29166666666667,59.608920057020214C110.13888888888889,56.3040394772056,110.98611111111111,51.15846591622842,111.83333333333333,50.32178728842723C112.68055555555556,49.48510866062603,113.52777777777777,49.903447974526635,114.375,49.06676934672544C115.22222222222223,48.23009071892424,116.06944444444444,44.29770116825881,116.91666666666667,44.29770116825881C117.76388888888889,44.29770116825881,118.61111111111111,44.50687082520907,119.45833333333333,44.925210139109595C120.30555555555556,45.34354945301012,121.15277777777777,54.83985187855353,122,54.83985187855353C122.84722222222223,54.83985187855353,123.69444444444444,41.36932597095463,124.54166666666667,38.02261145974995C125.3888888888889,34.67589694854528,126.23611111111111,33.002539692942946,127.08333333333334,33.002539692942946C127.93055555555556,33.002539692942946,128.77777777777777,41.913167079025435,129.625,42.6661778440465C130.47222222222223,43.41918860906757,131.31944444444443,43.795693991578105,132.16666666666666,43.795693991578105C133.01388888888889,43.795693991578105,133.86111111111111,42.31058942723102,134.70833333333334,41.28565810817457C135.55555555555557,40.26072678911813,136.40277777777777,37.64610607723944,137.25,37.64610607723944C138.09722222222223,37.64610607723944,138.94444444444443,46.36848077206667,139.79166666666666,50.447289082597365C140.63888888888889,54.52609739312811,141.48611111111111,62.118955940423746,142.33333333333334,62.118955940423746C143.18055555555557,62.118955940423746,144.02777777777777,60.11092723370098,144.875,60.11092723370098C145.72222222222223,60.11092723370098,146.56944444444443,61.13585855275738,147.41666666666666,62.118955940423746C148.26388888888889,63.102053328090115,149.1111111111111,63.75047926463607,149.95833333333331,66.0095115596992C150.80555555555554,68.26854385476237,151.65277777777777,75.6731497108027,152.5,75.6731497108027C153.34722222222223,75.6731497108027,154.19444444444443,68.2685438547623,155.04166666666666,68.2685438547623C155.88888888888889,68.2685438547623,156.73611111111111,76.59349620138394,157.58333333333334,78.93619635922727C158.43055555555557,81.27889651707056,159.27777777777777,81.00697596303519,160.125,82.45024659599221C160.97222222222223,83.89351722894924,161.81944444444443,84.16543778298461,162.66666666666666,87.59582015696941C163.51388888888889,91.02620253095421,164.3611111111111,105.79358031164489,165.20833333333331,105.79358031164489C166.05555555555554,105.79358031164489,166.90277777777777,105.79358031164489,167.75,105.79358031164489C168.59722222222223,105.79358031164489,169.44444444444443,111.69216463764317,170.29166666666666,111.69216463764317C171.13888888888889,111.69216463764317,171.98611111111111,111.4411610493028,172.83333333333334,111.31565925513263C173.68055555555557,111.19015746096245,174.52777777777777,110.93915387262214,175.375,110.93915387262214C176.22222222222223,110.93915387262214,177.06944444444446,122.56898679905844,177.91666666666669,126.12487096721341C178.7638888888889,129.68075513536834,179.61111111111111,128.67674078200696,180.45833333333334,132.274458881552C181.30555555555557,135.87217698109703,182.15277777777777,144.86647222995967,183,147.71117956448364C183.84722222222223,150.55588689900762,184.69444444444443,150.43038510483746,185.54166666666666,151.97824056626962C186.38888888888889,153.52609602770178,187.23611111111111,154.3209407241129,188.08333333333334,156.99831233307665C188.93055555555557,159.6756839420404,189.77777777777777,165.57426826803865,190.625,168.0424702200521C191.47222222222223,170.51067217206557,192.31944444444443,170.0295819610799,193.16666666666666,171.80752404515738C194.01388888888889,173.58546612923487,194.86111111111111,176.32558863528368,195.70833333333334,178.71012272451705C196.55555555555557,181.0946568137504,197.40277777777777,183.79294538840918,198.25,186.11472858055743C199.09722222222223,188.43651177270567,199.94444444444443,189.7333636457975,200.79166666666666,192.64082187740658C201.63888888888889,195.54828010901565,202.4861111111111,203.55947797021187,203.33333333333331,203.55947797021187C204.18055555555554,203.55947797021187,205.02777777777777,202.3044600285101,205.875,202.3044600285101C206.72222222222223,202.3044600285101,207.56944444444443,214.47813406301722,208.41666666666666,216.23515918139964C209.26388888888889,217.99218429978208,210.11111111111111,217.11367174059086,210.95833333333334,218.8706968589733C211.80555555555557,220.62772197735572,212.65277777777777,227.6976563822757,213.5,228.7853385984172C214.34722222222223,229.87302081455874,215.19444444444446,230.4168619226295,216.04166666666669,230.4168619226295C216.8888888888889,230.4168619226295,217.73611111111111,228.65983680424702,218.58333333333334,228.65983680424702C219.43055555555557,228.65983680424702,220.27777777777777,235.9180239004222,221.125,239.2019875145418C221.97222222222223,242.48595112866138,222.81944444444443,245.62349598291578,223.66666666666666,248.36361848896462C224.51388888888889,251.10374099501348,225.36111111111111,253.61377687841699,226.20833333333334,255.64272255083483C227.05555555555557,257.67166822325265,227.90277777777777,258.34101112549365,228.75,260.5372925234717C229.59722222222223,262.73357392144976,230.44444444444443,266.93788402615064,231.29166666666666,268.8204109387033C232.13888888888889,270.7029378512559,232.98611111111111,270.30551550305034,233.83333333333334,271.8324539987875C234.68055555555557,273.3593924945246,235.52777777777777,276.49693734877906,236.375,277.9820419131261C237.22222222222223,279.4671464774732,238.06944444444443,279.7599839972036,238.91666666666666,280.74308138487C239.76388888888889,281.72617877253634,240.6111111111111,282.2909368463022,241.45833333333331,283.8806262391244C242.30555555555554,285.4703156319466,243.15277777777777,290.28121774180335,244,290.28121774180335C244.84722222222223,290.28121774180335,245.69444444444443,287.3946764758893,246.54166666666666,287.3946764758893C247.38888888888889,287.3946764758893,248.23611111111111,290.4485534673636,249.08333333333334,292.0382428601858C249.93055555555557,293.627932253008,250.77777777777777,296.0961342050215,251.625,296.93281283282266C252.47222222222223,297.76949146062384,253.31944444444446,297.4766539408934,254.16666666666669,298.1878307745244C255.01388888888889,298.8990076081554,255.86111111111111,300.028523755687,256.7083333333333,301.19987383460864C257.55555555555554,302.3712239135303,258.40277777777777,304.1282490319128,259.25,305.2159312480543C260.09722222222223,306.3036134641958,260.9444444444444,307.30762781755715,261.79166666666663,307.72596713145776C262.63888888888886,308.1443064453584,263.4861111111111,307.93513678840804,264.3333333333333,308.35347610230866C265.18055555555554,308.7718154162093,266.02777777777777,311.13543253974757,266.875,312.11852992741393C267.72222222222223,313.1016273150803,268.56944444444446,313.561800560371,269.4166666666667,314.25206042830695C270.2638888888889,314.9423202962429,271.11111111111114,315.79991588973905,271.95833333333337,316.2600891350297C272.8055555555556,316.7202623803203,273.65277777777777,316.5110927233701,274.5,317.0130999000508C275.34722222222223,317.51510707673157,276.19444444444446,319.8159733031847,277.0416666666667,321.0291573134964C277.8888888888889,322.2423413238081,278.7361111111111,324.292203961921,279.5833333333333,324.292203961921C280.43055555555554,324.292203961921,281.27777777777777,321.40566269600697,282.125,321.40566269600697C282.97222222222223,321.40566269600697,283.81944444444446,325.92372728613327,284.6666666666667,325.92372728613327C285.5138888888889,325.92372728613327,286.3611111111111,325.92372728613327,287.2083333333333,325.92372728613327C288.05555555555554,325.92372728613327,288.90277777777777,326.19564784016865,289.75,326.55123625698417C290.59722222222223,326.9068246737997,291.44444444444446,327.11599433074997,292.2916666666667,328.0572577870263C293.1388888888889,328.9985212433026,293.9861111111111,332.1988169946421,294.8333333333333,332.1988169946421C295.68055555555554,332.1988169946421,296.52777777777777,330.94379905294034,297.375,330.31629008208944C298.22222222222223,329.68878111123854,299.0694444444444,328.4337631695368,299.91666666666663,328.4337631695368C300.76388888888886,328.4337631695368,301.6111111111111,331.2366365726707,302.4583333333333,332.1988169946421C303.30555555555554,333.16099741661344,304.15277777777777,333.9558421130246,305,334.2068457013649C305.84722222222223,334.4578492897052,306.69444444444446,334.5833510838754,307.5416666666667,334.5833510838754C308.3888888888889,334.5833510838754,309.2361111111111,334.0813439071947,310.0833333333333,334.0813439071947C310.93055555555554,334.0813439071947,311.77777777777777,336.08937261391753,312.625,336.08937261391753C313.47222222222223,336.08937261391753,314.31944444444446,335.0853582605561,315.1666666666667,335.0853582605561C316.0138888888889,335.0853582605561,316.86111111111114,336.34037620225786,317.70833333333337,336.34037620225786C318.5555555555556,336.34037620225786,319.40277777777777,336.08937261391753,320.25,336.08937261391753C321.09722222222223,336.08937261391753,321.94444444444446,338.7249102914912,322.7916666666667,338.7249102914912C323.6388888888889,338.7249102914912,324.4861111111111,337.59539414395965,325.3333333333333,337.59539414395965C326.18055555555554,337.59539414395965,327.02777777777777,338.0974013206403,327.875,338.0974013206403C328.72222222222223,338.0974013206403,329.5694444444444,338.0974013206403,330.41666666666663,338.0974013206403C331.26388888888886,338.0974013206403,332.1111111111111,338.8504120856614,332.9583333333333,338.8504120856614C333.80555555555554,338.8504120856614,334.65277777777777,337.7208959381298,335.5,337.7208959381298C336.34722222222223,337.7208959381298,337.19444444444446,339.8125925076327,338.0416666666667,340.2309318215333C338.8888888888889,340.64927113543393,339.7361111111111,340.7747729296041,340.5833333333333,340.8584407923842C341.43055555555554,340.9421086551643,342.27777777777777,340.9421086551643,343.125,340.98394258655435C343.97222222222223,341.0257765179444,344.81944444444446,341.10944438072454,345.6666666666667,341.10944438072454C346.5138888888889,341.10944438072454,347.3611111111111,339.4779210565123,348.2083333333333,339.4779210565123C349.05555555555554,339.4779210565123,349.90277777777777,340.0845130616681,350.75,340.48193540987364C351.59722222222223,340.8793577580792,352.44444444444446,341.8624551457456,353.2916666666667,341.8624551457456C354.1388888888889,341.8624551457456,354.98611111111114,341.73695335157544,355.83333333333337,341.73695335157544C356.6805555555556,341.73695335157544,357.52777777777777,341.8415381800506,358.375,341.98795693991576C359.22222222222223,342.13437569978095,360.06944444444446,342.61546591076666,360.9166666666667,342.61546591076666C361.7638888888889,342.61546591076666,362.6111111111111,342.61546591076666,363.4583333333333,342.61546591076666C364.30555555555554,342.61546591076666,365.15277777777777,342.6572998421567,366,342.74096770493685C366.84722222222223,342.82463556771694,367.6944444444444,342.92922039619214,368.54166666666663,343.11747308744737C369.38888888888886,343.30572577870265,370.2361111111111,343.8704838524684,371.0833333333333,343.8704838524684C371.93055555555554,343.8704838524684,372.77777777777777,342.48996411659647,373.625,342.48996411659647C374.47222222222223,342.48996411659647,375.31944444444446,343.4939784699579,376.1666666666667,343.4939784699579C377.0138888888889,343.4939784699579,377.8611111111111,343.4939784699579,378.7083333333333,343.4939784699579C379.55555555555554,343.4939784699579,380.40277777777777,343.41031060717773,381.25,343.3684766757877C382.09722222222223,343.32664274439765,382.94444444444446,343.24297488161756,383.7916666666667,343.24297488161756C384.6388888888889,343.24297488161756,385.4861111111111,343.2848088130076,386.3333333333333,343.3684766757877C387.18055555555554,343.4521445385678,388.02777777777777,344.24698923497897,388.875,344.24698923497897C389.72222222222223,344.24698923497897,390.56944444444446,343.8704838524684,391.4166666666667,343.8704838524684C392.2638888888889,343.8704838524684,393.11111111111114,344.24698923497897,393.95833333333337,344.24698923497897C394.8055555555556,344.24698923497897,395.65277777777777,343.11747308744737,396.5,343.11747308744737C397.34722222222223,343.11747308744737,398.19444444444446,344.1214874408088,399.0416666666667,344.1214874408088C399.8888888888889,344.1214874408088,400.7361111111111,343.8704838524684,401.5833333333333,343.8704838524684C402.43055555555554,343.8704838524684,403.27777777777777,344.3724910291491,404.125,344.3724910291491C404.97222222222223,344.3724910291491,405.8194444444444,343.74498205829826,406.66666666666663,343.74498205829826C407.51388888888886,343.74498205829826,408.3611111111111,343.7868159896883,409.2083333333333,343.8704838524684C410.05555555555554,343.9541517152485,410.90277777777777,344.4979928233193,411.75,344.4979928233193C412.59722222222223,344.4979928233193,413.44444444444446,343.8704838524684,414.2916666666667,343.8704838524684C415.1388888888889,343.8704838524684,415.9861111111111,344.24698923497897,416.8333333333333,344.24698923497897C417.68055555555554,344.24698923497897,418.52777777777777,344.1214874408088,419.375,344.1214874408088C420.22222222222223,344.1214874408088,421.06944444444446,344.28882316636896,421.9166666666667,344.3724910291491C422.7638888888889,344.4561588919292,423.6111111111111,344.5607437204044,424.4583333333333,344.6234946174895C425.30555555555554,344.6862455145746,426.15277777777777,344.7489964116597,427,344.7489964116597C427.84722222222223,344.7489964116597,428.69444444444446,343.8704838524684,429.5416666666667,343.8704838524684C430.3888888888889,343.8704838524684,431.23611111111114,344.8744982058298,432.08333333333337,344.8744982058298C432.9305555555556,344.8744982058298,433.77777777777777,344.60257765179443,434.625,344.4979928233193C435.47222222222223,344.39340799484415,436.31944444444446,344.24698923497897,437.1666666666667,344.24698923497897C438.0138888888889,344.24698923497897,438.8611111111111,344.24698923497897,439.7083333333333,344.24698923497897C440.55555555555554,344.24698923497897,441.40277777777777,344.288823166369,442.25,344.3724910291491C443.09722222222223,344.4561588919292,443.9444444444444,344.79083034304966,444.79166666666663,344.8744982058298C445.63888888888886,344.95816606860996,446.4861111111111,345,447.3333333333333,345C448.18055555555554,345,449.02777777777777,345,449.875,345C450.72222222222223,345,451.56944444444446,344.6234946174895,452.4166666666667,344.6234946174895C453.2638888888889,344.6234946174895,454.1111111111111,344.6234946174895,454.9583333333333,344.6234946174895C455.80555555555554,344.6234946174895,456.65277777777777,345,457.5,345C458.34722222222223,345,459.19444444444446,344.91633213721985,460.0416666666667,344.8744982058298C460.8888888888889,344.83266427443976,461.7361111111111,344.7489964116597,462.5833333333333,344.7489964116597C463.43055555555554,344.7489964116597,464.27777777777777,344.8744982058298,465.125,344.8744982058298C465.97222222222223,344.8744982058298,466.81944444444446,344.3724910291491,467.6666666666667,344.3724910291491C468.5138888888889,344.3724910291491,469.36111111111114,344.5607437204044,470.20833333333337,344.6234946174895C471.0555555555556,344.6862455145746,471.90277777777777,344.7489964116597,472.75,344.7489964116597C473.59722222222223,344.7489964116597,474.44444444444446,344.7489964116597,475.2916666666667,344.7489964116597C476.1388888888889,344.7489964116597,476.9861111111111,344.7489964116597,477.8333333333333,344.7489964116597C478.68055555555554,344.7489964116597,479.52777777777777,344.8744982058298,480.375,344.8744982058298C481.22222222222223,344.8744982058298,482.0694444444444,344.8744982058298,482.91666666666663,344.8744982058298C483.76388888888886,344.8744982058298,484.6111111111111,344.4979928233193,485.4583333333333,344.4979928233193C486.30555555555554,344.4979928233193,487.15277777777777,344.7908303430497,488,344.8744982058298C488.84722222222223,344.9581660686099,489.69444444444446,345,490.5416666666667,345C491.3888888888889,345,492.2361111111111,344.6234946174895,493.0833333333333,344.6234946174895C493.93055555555554,344.6234946174895,494.77777777777777,344.6234946174895,495.625,344.6234946174895C496.47222222222223,344.6234946174895,497.31944444444446,345,498.1666666666667,345C499.0138888888889,345,499.8611111111111,344.6234946174895,500.7083333333333,344.6234946174895C501.55555555555554,344.6234946174895,502.40277777777777,344.8117473087447,503.25,344.8744982058298C504.09722222222223,344.9372491029149,504.94444444444446,345,505.7916666666667,345C506.6388888888889,345,507.48611111111114,344.91633213721985,508.33333333333337,344.8744982058298C509.1805555555556,344.83266427443976,510.02777777777777,344.7489964116597,510.875,344.7489964116597C511.72222222222223,344.7489964116597,512.5694444444445,345,513.4166666666666,345C514.2638888888889,345,515.1111111111111,344.7489964116597,515.9583333333334,344.7489964116597C516.8055555555555,344.7489964116597,517.6527777777778,344.83266427443976,518.5,344.8744982058298C519.3472222222222,344.91633213721985,520.1944444444445,345,521.0416666666666,345C521.8888888888888,345,522.7361111111111,344.7489964116597,523.5833333333333,344.7489964116597C524.4305555555555,344.7489964116597,525.2777777777777,345,526.125,345C526.9722222222222,345,527.8194444444445,344.8744982058298,528.6666666666666,344.8744982058298C529.5138888888889,344.8744982058298,530.3611111111111,345,531.2083333333334,345C532.0555555555555,345,532.9027777777778,345,533.75,345C534.5972222222222,345,535.4444444444445,344.7489964116597,536.2916666666666,344.7489964116597C537.1388888888889,344.7489964116597,537.9861111111111,345,538.8333333333334,345C539.6805555555555,345,540.5277777777778,344.8744982058298,541.375,344.8744982058298C542.2222222222223,344.8744982058298,543.0694444444445,344.8744982058298,543.9166666666667,344.8744982058298C544.7638888888889,344.8744982058298,545.6111111111112,345,546.4583333333334,345C547.3055555555555,345,548.1527777777778,345,549,345C549.8472222222222,345,550.6944444444445,345,551.5416666666666,345C552.3888888888889,345,553.2361111111111,344.8744982058298,554.0833333333334,344.8744982058298C554.9305555555555,344.8744982058298,555.7777777777778,345,556.625,345C557.4722222222222,345,558.3194444444445,345,559.1666666666666,345C560.0138888888888,345,560.8611111111111,344.8744982058298,561.7083333333333,344.8744982058298C562.5555555555555,344.8744982058298,563.4027777777777,344.8744982058298,564.25,344.8744982058298C565.0972222222222,344.8744982058298,565.9444444444445,345,566.7916666666666,345C567.6388888888889,345,568.4861111111111,345,569.3333333333334,345C570.1805555555555,345,571.0277777777778,345,571.875,345C572.7222222222222,345,573.5694444444445,345,574.4166666666666,345C575.2638888888889,345,576.1111111111111,345,576.9583333333334,345C577.8055555555555,345,578.6527777777778,345,579.5,345C580.3472222222223,345,581.1944444444445,345,582.0416666666667,345C582.8888888888889,345,583.7361111111112,345,584.5833333333334,345C585.4305555555555,345,586.2777777777778,345,587.125,345C587.9722222222222,345,588.8194444444445,345,589.6666666666666,345C590.5138888888889,345,591.3611111111111,345,592.2083333333334,345C593.0555555555555,345,593.9027777777778,344.8744982058298,594.75,344.8744982058298C595.5972222222222,344.8744982058298,596.4444444444445,345,597.2916666666666,345C598.1388888888888,345,598.9861111111111,344.8744982058298,599.8333333333333,344.8744982058298C600.6805555555555,344.8744982058298,601.5277777777777,344.8744982058298,602.375,344.8744982058298C603.2222222222222,344.8744982058298,604.0694444444445,345,604.9166666666666,345C605.7638888888889,345,606.6111111111111,344.8744982058298,607.4583333333334,344.8744982058298C608.3055555555555,344.8744982058298,609.1527777777778,344.9372491029149,610,345"></path><circle cx="500" cy="50" r="6" style="fill: rgb(233, 182, 43);"></circle><text x="515" y="50" alignment-baseline="middle">Pure</text><path fill="none" stroke="#CD423D" opacity="1" stroke-width="1.5" d="M0,345C0.8472222222222222,345,1.6944444444444442,345,2.5416666666666665,345C3.388888888888889,345,4.236111111111111,345,5.083333333333333,345C5.930555555555555,345,6.777777777777778,345,7.625,345C8.472222222222221,345,9.319444444444445,345,10.166666666666666,345C11.013888888888888,345,11.86111111111111,345,12.708333333333332,345C13.555555555555555,345,14.402777777777777,345,15.25,345C16.09722222222222,345,16.944444444444446,344.8969344057699,17.791666666666668,344.84540160865487C18.63888888888889,344.7938688115398,19.48611111111111,344.7938688115398,20.333333333333332,344.6908032173097C21.180555555555554,344.58773762307953,22.02777777777778,344.0724096519291,22.875,344.0724096519291C23.72222222222222,344.0724096519291,24.569444444444443,345,25.416666666666664,345C26.263888888888886,345,27.11111111111111,344.38160643461936,27.958333333333332,343.9178112605839C28.805555555555554,343.45401608654845,29.65277777777778,342.2172289557872,30.5,342.2172289557872C31.34722222222222,342.2172289557872,32.19444444444444,342.6810241298227,33.041666666666664,342.6810241298227C33.888888888888886,342.6810241298227,34.736111111111114,341.1350402163711,35.583333333333336,341.1350402163711C36.43055555555556,341.1350402163711,37.27777777777778,341.75343378175177,38.125,341.75343378175177C38.97222222222222,341.75343378175177,39.81944444444444,339.2798595202293,40.666666666666664,339.2798595202293C41.513888888888886,339.2798595202293,42.361111111111114,339.43445791157444,43.208333333333336,339.43445791157444C44.05555555555556,339.43445791157444,44.90277777777778,335.36336693948545,45.75,335.2603013452553C46.59722222222222,335.15723575102515,47.44444444444444,335.20876854814026,48.291666666666664,335.1057029539101C49.138888888888886,335.00263735967997,49.98611111111111,334.84803896833483,50.83333333333333,334.33271099718434C51.68055555555555,333.81738302603384,52.52777777777778,329.3855624741394,53.375,329.3855624741394C54.22222222222222,329.3855624741394,55.06944444444444,330.00395603952,55.916666666666664,330.00395603952C56.763888888888886,330.00395603952,57.611111111111114,324.7733771323423,58.458333333333336,322.73783164629776C59.30555555555556,320.70228616025327,60.15277777777778,317.79068312325285,61,317.79068312325285C61.84722222222222,317.79068312325285,62.69444444444445,317.79068312325285,63.54166666666667,317.79068312325285C64.38888888888889,317.79068312325285,65.23611111111111,314.956379281925,66.08333333333333,313.3073297742434C66.93055555555556,311.65828026656175,67.77777777777777,309.2104724035968,68.625,307.89638607716296C69.47222222222223,306.58229975072913,70.31944444444444,307.04609492476465,71.16666666666667,305.4228118156405C72.01388888888889,303.7995287065164,72.86111111111111,300.1149337127902,73.70833333333333,298.15668742241826C74.55555555555556,296.1984411320463,75.40277777777777,295.24508438541784,76.25,293.67333407340874C77.09722222222223,292.10158376139964,77.94444444444444,290.9936286234261,78.79166666666667,288.7261855503638C79.63888888888889,286.45874247730154,80.48611111111111,282.43918430232753,81.33333333333333,280.06867563503516C82.18055555555556,277.6981669677428,83.02777777777777,275.3276583004504,83.875,274.5031335466096C84.72222222222223,273.6786087927688,85.56944444444444,274.0908711696892,86.41666666666667,273.2663464158484C87.2638888888889,272.44182166200756,88.11111111111111,258.1672368611383,88.95833333333334,256.10592497653624C89.80555555555556,254.0446130919342,90.65277777777779,255.07526903423522,91.5,253.01395714963317C92.34722222222223,250.95264526503112,93.19444444444444,244.82024240834,94.04166666666667,241.88287297278205C94.88888888888889,238.94550353722414,95.73611111111111,237.1418556381973,96.58333333333333,235.38974053628556C97.43055555555556,233.6376254343738,98.27777777777777,234.0498878112942,99.125,231.37018236131155C99.97222222222221,228.6904769113289,100.81944444444444,218.3839174883186,101.66666666666666,214.9827528787252C102.51388888888889,211.5815882691318,103.3611111111111,212.22574823306994,104.20833333333333,209.8810059643351C105.05555555555556,207.53626369560024,105.90277777777777,203.259041535051,106.75,200.91429926631616C107.59722222222223,198.56955699758132,108.44444444444444,199.21371696151945,109.29166666666667,195.81255235192606C110.13888888888889,192.41138774233266,110.98611111111111,178.34293412992363,111.83333333333333,178.34293412992363C112.68055555555556,178.34293412992363,113.52777777777777,181.28030356548152,114.375,181.28030356548152C115.22222222222223,181.28030356548152,116.06944444444444,171.84980169342714,116.91666666666667,169.37622743190465C117.76388888888889,166.90265317038217,118.61111111111111,167.10878435884237,119.45833333333333,165.66586603962094C120.30555555555556,164.2229477203995,121.15277777777777,163.3211237708861,122,160.718717516576C122.84722222222223,158.1163112622659,123.69444444444444,152.57653557239792,124.54166666666667,150.05142851376038C125.3888888888889,147.52632145512285,126.23611111111111,145.5680751647509,127.08333333333334,145.5680751647509C127.93055555555556,145.5680751647509,128.77777777777777,146.80486229551215,129.625,146.80486229551215C130.47222222222223,146.80486229551215,131.31944444444443,145.59384156330844,132.16666666666666,144.64048481668C133.01388888888889,143.68712807005153,133.86111111111111,142.50187373640532,134.70833333333334,141.08472181574137C135.55555555555557,139.66756989507746,136.40277777777777,136.13757329269646,137.25,136.13757329269646C138.09722222222223,136.13757329269646,138.94444444444443,138.45654916287378,139.79166666666666,138.45654916287378C140.63888888888889,138.45654916287378,141.48611111111111,118.20415989665858,142.33333333333334,118.20415989665858C143.18055555555557,118.20415989665858,144.02777777777777,126.70707142064205,144.875,126.70707142064205C145.72222222222223,126.70707142064205,146.56944444444443,117.3281023457027,147.41666666666666,113.87540493899425C148.26388888888889,110.4227075322858,149.1111111111111,105.99088698039137,149.95833333333331,105.99088698039137C150.80555555555554,105.99088698039137,151.65277777777777,120.83233254952617,152.5,120.83233254952617C153.34722222222223,120.83233254952617,154.19444444444443,111.35029788035673,155.04166666666666,108.61905963325901C155.88888888888889,105.88782138616126,156.73611111111111,104.44490306693982,157.58333333333334,104.44490306693982C158.43055555555557,104.44490306693982,159.27777777777777,112.17482263419751,160.125,112.17482263419751C160.97222222222223,112.17482263419751,161.81944444444443,112.12328983708247,162.66666666666666,112.02022424285238C163.51388888888889,111.91715864862229,164.3611111111111,104.18723908136465,165.20833333333331,103.05351754483348C166.05555555555554,101.9197960083023,166.90277777777777,101.35293524003671,167.75,101.35293524003671C168.59722222222223,101.35293524003671,169.44444444444443,105.99088698039137,170.29166666666666,105.99088698039137C171.13888888888889,105.99088698039137,171.98611111111111,99.34315615254974,172.83333333333334,99.34315615254974C173.68055555555557,99.34315615254974,174.52777777777777,103.85227590011678,175.375,106.14548537173656C176.22222222222223,108.43869484335636,177.06944444444446,113.10241298226848,177.91666666666669,113.10241298226848C178.7638888888889,113.10241298226848,179.61111111111111,110.93803550343631,180.45833333333334,110.93803550343631C181.30555555555557,110.93803550343631,182.15277777777777,112.48401941688786,183,112.48401941688786C183.84722222222223,112.48401941688786,184.69444444444443,109.59818277844498,185.54166666666666,107.84606767653324C186.38888888888889,106.09395257462148,187.23611111111111,101.97132880541736,188.08333333333334,101.97132880541736C188.93055555555557,101.97132880541736,189.77777777777777,122.8421116370132,190.625,122.8421116370132C191.47222222222223,122.8421116370132,192.31944444444443,111.09263389478147,193.16666666666666,111.09263389478147C194.01388888888889,111.09263389478147,194.86111111111111,116.34897920051671,195.70833333333334,116.34897920051671C196.55555555555557,116.34897920051671,197.40277777777777,115.73058563513612,198.25,115.73058563513612C199.09722222222223,115.73058563513612,199.94444444444443,121.19306212933154,200.79166666666666,124.54269394180989C201.63888888888889,127.89232575428824,202.4861111111111,135.8283765100062,203.33333333333331,135.8283765100062C204.18055555555554,135.8283765100062,205.02777777777777,133.81859742251916,205.875,133.81859742251916C206.72222222222223,133.81859742251916,207.56944444444443,138.40501636575877,208.41666666666666,138.92034433690927C209.26388888888889,139.4356723080598,210.11111111111111,139.17800832248452,210.95833333333334,139.69333629363504C211.80555555555557,140.20866426478554,212.65277777777777,149.43303494837974,213.5,149.43303494837974C214.34722222222223,149.43303494837974,215.19444444444446,141.70311538112205,216.04166666666669,141.70311538112205C216.8888888888889,141.70311538112205,217.73611111111111,148.6085101945389,218.58333333333334,151.13361725317642C219.43055555555557,153.65872431181396,220.27777777777777,155.3077738194956,221.125,156.85375773294714C221.97222222222223,158.3997416463987,222.81944444444443,160.40952073388573,223.66666666666666,160.40952073388573C224.51388888888889,160.40952073388573,225.36111111111111,160.40952073388573,226.20833333333334,160.40952073388573C227.05555555555557,160.40952073388573,227.90277777777777,169.60812501892238,228.75,173.39578560687866C229.59722222222223,177.18344619483494,230.44444444444443,180.68767639865845,231.29166666666666,183.1354842616234C232.13888888888889,185.58329212458835,232.98611111111111,188.08263278466833,233.83333333333334,188.08263278466833C234.68055555555557,188.08263278466833,235.52777777777777,186.07285369718133,236.375,186.07285369718133C237.22222222222223,186.07285369718133,238.06944444444443,188.70102635004895,238.91666666666666,192.2567893509875C239.76388888888889,195.81255235192606,240.6111111111111,207.40743170281263,241.45833333333331,207.40743170281263C242.30555555555554,207.40743170281263,243.15277777777777,207.40743170281263,244,207.40743170281263C244.84722222222223,207.40743170281263,245.69444444444443,209.6748747758749,246.54166666666666,211.2723914864415C247.38888888888889,212.8699081970081,248.23611111111111,213.97786333498166,249.08333333333334,216.9925319662122C249.93055555555557,220.0072005974427,250.77777777777777,229.36040327382455,251.625,229.36040327382455C252.47222222222223,229.36040327382455,253.31944444444446,225.95923866423112,254.16666666666669,225.95923866423112C255.01388888888889,225.95923866423112,255.86111111111111,231.18981757140887,256.7083333333333,233.07076466610823C257.55555555555554,234.95171176080765,258.40277777777777,237.24492123242743,259.25,237.24492123242743C260.09722222222223,237.24492123242743,260.9444444444444,235.38974053628556,261.79166666666663,235.38974053628556C262.63888888888886,235.38974053628556,263.4861111111111,251.67410442464185,264.3333333333333,252.70476036694288C265.18055555555554,253.7354163092439,266.02777777777777,253.22008833809338,266.875,254.2507442803944C267.72222222222223,255.28140022269542,268.56944444444446,259.94511836160757,269.4166666666667,261.6714670649618C270.2638888888889,263.39781576831604,271.11111111111114,263.06285258706816,271.95833333333337,264.6088365005197C272.8055555555556,266.15482041397127,273.65277777777777,269.4786858278921,274.5,270.94737054567105C275.34722222222223,272.41605526345006,276.19444444444446,273.42094480719356,277.0416666666667,273.42094480719356C277.8888888888889,273.42094480719356,278.7361111111111,272.33875606777747,279.5833333333333,272.33875606777747C280.43055555555554,272.33875606777747,281.27777777777777,278.83188850427393,282.125,278.83188850427393C282.97222222222223,278.83188850427393,283.81944444444446,272.4933544591226,284.6666666666667,272.4933544591226C285.5138888888889,272.4933544591226,286.3611111111111,280.2232740263804,287.2083333333333,281.4600611571416C288.05555555555554,282.6968482879028,288.90277777777777,282.67108188934526,289.75,283.3152418532834C290.59722222222223,283.95940181722153,291.44444444444446,284.37166419414194,292.2916666666667,285.3250209407704C293.1388888888889,286.27837768739886,293.9861111111111,286.871004854222,294.8333333333333,289.03538233305414C295.68055555555554,291.19975981188634,296.52777777777777,298.3112858137634,297.375,298.3112858137634C298.22222222222223,298.3112858137634,299.0694444444444,294.0855964503291,299.91666666666663,293.3641372907184C300.76388888888886,292.64267813110774,301.6111111111111,292.2819485513024,302.4583333333333,292.2819485513024C303.30555555555554,292.2819485513024,304.15277777777777,302.3308439887374,305,302.3308439887374C305.84722222222223,302.3308439887374,306.69444444444446,300.939458466631,307.5416666666667,300.939458466631C308.3888888888889,300.939458466631,309.2361111111111,303.0265367497906,310.0833333333333,303.87682790218895C310.93055555555554,304.7271190545873,311.77777777777777,304.959016641605,312.625,306.0412053810211C313.47222222222223,307.1233941204372,314.31944444444446,309.1331732079242,315.1666666666667,310.3699603386854C316.0138888888889,311.60674746944665,316.86111111111114,312.3797394261724,317.70833333333337,313.4619281655885C318.5555555555556,314.54411690500456,319.40277777777777,316.8630927751819,320.25,316.8630927751819C321.09722222222223,316.8630927751819,321.94444444444446,314.85331368769494,322.7916666666667,314.85331368769494C323.6388888888889,314.85331368769494,324.4861111111111,318.40907668863343,325.3333333333333,318.40907668863343C326.18055555555554,318.40907668863343,327.02777777777777,318.40907668863343,327.875,318.40907668863343C328.72222222222223,318.40907668863343,329.5694444444444,319.955060602085,330.41666666666663,319.955060602085C331.26388888888886,319.955060602085,332.1111111111111,319.49126542804953,332.9583333333333,319.49126542804953C333.80555555555554,319.49126542804953,334.65277777777777,324.74761073378477,335.5,324.74761073378477C336.34722222222223,324.74761073378477,337.19444444444446,323.82002038571386,338.0416666666667,323.82002038571386C338.8888888888889,323.82002038571386,339.7361111111111,326.2935946472363,340.5833333333333,326.2935946472363C341.43055555555554,326.2935946472363,342.27777777777777,325.6752010818557,343.125,325.6752010818557C343.97222222222223,325.6752010818557,344.81944444444446,327.994176952033,345.6666666666667,327.994176952033C346.5138888888889,327.994176952033,347.3611111111111,326.60279142992664,348.2083333333333,326.60279142992664C349.05555555555554,326.60279142992664,349.90277777777777,330.00395603952,350.75,330.00395603952C351.59722222222223,330.00395603952,352.44444444444446,329.23096408279423,353.2916666666667,329.23096408279423C354.1388888888889,329.23096408279423,354.98611111111114,335.1057029539101,355.83333333333337,335.1057029539101C356.6805555555556,335.1057029539101,357.52777777777777,333.4051206491134,358.375,333.4051206491134C359.22222222222223,333.4051206491134,360.06944444444446,333.8689158231489,360.9166666666667,333.8689158231489C361.7638888888889,333.8689158231489,362.6111111111111,333.0959238664231,363.4583333333333,333.0959238664231C364.30555555555554,333.0959238664231,365.15277777777777,333.30205505488334,366,333.71431743180375C366.84722222222223,334.12657980872416,367.6944444444444,337.57927721543257,368.54166666666663,337.57927721543257C369.38888888888886,337.57927721543257,370.2361111111111,334.33271099718434,371.0833333333333,334.33271099718434C371.93055555555554,334.33271099718434,372.77777777777777,338.1976707808132,373.625,338.1976707808132C374.47222222222223,338.1976707808132,375.31944444444446,337.991539592353,376.1666666666667,337.8884739981229C377.0138888888889,337.7854084038928,377.8611111111111,337.7854084038928,378.7083333333333,337.57927721543257C379.55555555555554,337.37314602697234,380.40277777777777,336.1878916933262,381.25,336.1878916933262C382.09722222222223,336.1878916933262,382.94444444444446,337.1927812370697,383.7916666666667,337.73387560677776C384.6388888888889,338.2749699764858,385.4861111111111,339.43445791157444,386.3333333333333,339.43445791157444C387.18055555555554,339.43445791157444,388.02777777777777,338.50686756350353,388.875,338.50686756350353C389.72222222222223,338.50686756350353,390.56944444444446,339.43445791157444,391.4166666666667,339.74365469426476C392.2638888888889,340.0528514769551,393.11111111111114,340.36204825964535,393.95833333333337,340.36204825964535C394.8055555555556,340.36204825964535,395.65277777777777,338.50686756350353,396.5,338.50686756350353C397.34722222222223,338.50686756350353,398.19444444444446,340.980441825026,399.0416666666667,340.980441825026C399.8888888888889,340.980441825026,400.7361111111111,340.8773762307959,401.5833333333333,340.82584343368086C402.43055555555554,340.7743106365658,403.27777777777777,340.67124504233567,404.125,340.67124504233567C404.97222222222223,340.67124504233567,405.8194444444444,341.0062082235835,406.66666666666663,341.1350402163711C407.51388888888886,341.26387220915876,408.3611111111111,341.2381058106012,409.2083333333333,341.44423699906145C410.05555555555554,341.6503681875217,410.90277777777777,342.6810241298227,411.75,342.6810241298227C412.59722222222223,342.6810241298227,413.44444444444446,342.52642573847754,414.2916666666667,342.52642573847754C415.1388888888889,342.52642573847754,415.9861111111111,343.1448193038581,416.8333333333333,343.1448193038581C417.68055555555554,343.1448193038581,418.52777777777777,341.75343378175177,419.375,341.75343378175177C420.22222222222223,341.75343378175177,421.06944444444446,342.7325569269378,421.9166666666667,342.83562252116786C422.7638888888889,342.93868811539795,423.6111111111111,342.990220912513,424.4583333333333,342.990220912513C425.30555555555554,342.990220912513,426.15277777777777,342.52642573847754,427,342.52642573847754C427.84722222222223,342.52642573847754,428.69444444444446,343.2994176952033,429.5416666666667,343.2994176952033C430.3888888888889,343.2994176952033,431.23611111111114,342.52642573847754,432.08333333333337,342.52642573847754C432.9305555555556,342.52642573847754,433.77777777777777,342.96445451395545,434.625,343.1448193038581C435.47222222222223,343.3251840937608,436.31944444444446,343.60861447789364,437.1666666666667,343.60861447789364C438.0138888888889,343.60861447789364,438.8611111111111,343.60861447789364,439.7083333333333,343.60861447789364C440.55555555555554,343.60861447789364,441.40277777777777,343.9178112605839,442.25,343.9178112605839C443.09722222222223,343.9178112605839,443.9444444444444,343.86627846346886,444.79166666666663,343.76321286923877C445.63888888888886,343.6601472750087,446.4861111111111,342.83562252116786,447.3333333333333,342.83562252116786C448.18055555555554,342.83562252116786,449.02777777777777,343.76321286923877,449.875,343.76321286923877C450.72222222222223,343.76321286923877,451.56944444444446,343.76321286923877,452.4166666666667,343.76321286923877C453.2638888888889,343.76321286923877,454.1111111111111,344.0724096519291,454.9583333333333,344.0724096519291C455.80555555555554,344.0724096519291,456.65277777777777,343.76321286923877,457.5,343.76321286923877C458.34722222222223,343.76321286923877,459.19444444444446,343.76321286923877,460.0416666666667,343.76321286923877C460.8888888888889,343.76321286923877,461.7361111111111,343.2994176952033,462.5833333333333,343.2994176952033C463.43055555555554,343.2994176952033,464.27777777777777,344.38160643461936,465.125,344.38160643461936C465.97222222222223,344.38160643461936,466.81944444444446,344.38160643461936,467.6666666666667,344.38160643461936C468.5138888888889,344.38160643461936,469.36111111111114,344.0724096519291,470.20833333333337,344.0724096519291C471.0555555555556,344.0724096519291,471.90277777777777,344.6908032173097,472.75,344.6908032173097C473.59722222222223,344.6908032173097,474.44444444444446,344.510438427407,475.2916666666667,344.38160643461936C476.1388888888889,344.2527744418317,476.9861111111111,343.9178112605839,477.8333333333333,343.9178112605839C478.68055555555554,343.9178112605839,479.52777777777777,344.02087685481405,480.375,344.0724096519291C481.22222222222223,344.12394244904414,482.0694444444444,344.12394244904414,482.91666666666663,344.2270080432742C483.76388888888886,344.3300736375043,484.6111111111111,344.6908032173097,485.4583333333333,344.6908032173097C486.30555555555554,344.6908032173097,487.15277777777777,344.53620482596455,488,344.53620482596455C488.84722222222223,344.53620482596455,489.69444444444446,344.6908032173097,490.5416666666667,344.6908032173097C491.3888888888889,344.6908032173097,492.2361111111111,344.38160643461936,493.0833333333333,344.38160643461936C493.93055555555554,344.38160643461936,494.77777777777777,344.43313923173446,495.625,344.53620482596455C496.47222222222223,344.63927042019463,497.31944444444446,345,498.1666666666667,345C499.0138888888889,345,499.8611111111111,344.53620482596455,500.7083333333333,344.53620482596455C501.55555555555554,344.53620482596455,502.40277777777777,344.84540160865487,503.25,344.84540160865487C504.09722222222223,344.84540160865487,504.94444444444446,344.7423360144247,505.7916666666667,344.6908032173097C506.6388888888889,344.63927042019463,507.48611111111114,344.53620482596455,508.33333333333337,344.53620482596455C509.1805555555556,344.53620482596455,510.02777777777777,344.6908032173097,510.875,344.6908032173097C511.72222222222223,344.6908032173097,512.5694444444445,344.6908032173097,513.4166666666666,344.6908032173097C514.2638888888889,344.6908032173097,515.1111111111111,344.84540160865487,515.9583333333334,344.84540160865487C516.8055555555555,344.84540160865487,517.6527777777778,344.7423360144247,518.5,344.6908032173097C519.3472222222222,344.63927042019463,520.1944444444445,344.53620482596455,521.0416666666666,344.53620482596455C521.8888888888888,344.53620482596455,522.7361111111111,345,523.5833333333333,345C524.4305555555555,345,525.2777777777777,344.6908032173097,526.125,344.6908032173097C526.9722222222222,344.6908032173097,527.8194444444445,344.84540160865487,528.6666666666666,344.84540160865487C529.5138888888889,344.84540160865487,530.3611111111111,344.6908032173097,531.2083333333334,344.6908032173097C532.0555555555555,344.6908032173097,532.9027777777778,344.6908032173097,533.75,344.6908032173097C534.5972222222222,344.6908032173097,535.4444444444445,344.84540160865487,536.2916666666666,344.84540160865487C537.1388888888889,344.84540160865487,537.9861111111111,344.84540160865487,538.8333333333334,344.84540160865487C539.6805555555555,344.84540160865487,540.5277777777778,344.6908032173097,541.375,344.6908032173097C542.2222222222223,344.6908032173097,543.0694444444445,344.7938688115398,543.9166666666667,344.84540160865487C544.7638888888889,344.8969344057699,545.6111111111112,345,546.4583333333334,345C547.3055555555555,345,548.1527777777778,345,549,345C549.8472222222222,345,550.6944444444445,344.84540160865487,551.5416666666666,344.84540160865487C552.3888888888889,344.84540160865487,553.2361111111111,345,554.0833333333334,345C554.9305555555555,345,555.7777777777778,344.92270080432746,556.625,344.84540160865487C557.4722222222222,344.7681024129823,558.3194444444445,344.53620482596455,559.1666666666666,344.53620482596455C560.0138888888888,344.53620482596455,560.8611111111111,344.6908032173097,561.7083333333333,344.6908032173097C562.5555555555555,344.6908032173097,563.4027777777777,344.6908032173097,564.25,344.6908032173097C565.0972222222222,344.6908032173097,565.9444444444445,345,566.7916666666666,345C567.6388888888889,345,568.4861111111111,344.6908032173097,569.3333333333334,344.6908032173097C570.1805555555555,344.6908032173097,571.0277777777778,345,571.875,345C572.7222222222222,345,573.5694444444445,345,574.4166666666666,345C575.2638888888889,345,576.1111111111111,345,576.9583333333334,345C577.8055555555555,345,578.6527777777778,345,579.5,345C580.3472222222223,345,581.1944444444445,345,582.0416666666667,345C582.8888888888889,345,583.7361111111112,345,584.5833333333334,345C585.4305555555555,345,586.2777777777778,345,587.125,345C587.9722222222222,345,588.8194444444445,345,589.6666666666666,345C590.5138888888889,345,591.3611111111111,344.84540160865487,592.2083333333334,344.84540160865487C593.0555555555555,344.84540160865487,593.9027777777778,345,594.75,345C595.5972222222222,345,596.4444444444445,344.84540160865487,597.2916666666666,344.84540160865487C598.1388888888888,344.84540160865487,598.9861111111111,345,599.8333333333333,345C600.6805555555555,345,601.5277777777777,344.6908032173097,602.375,344.6908032173097C603.2222222222222,344.6908032173097,604.0694444444445,344.7938688115398,604.9166666666666,344.84540160865487C605.7638888888889,344.8969344057699,606.6111111111111,345,607.4583333333334,345C608.3055555555555,345,609.1527777777778,345,610,345"></path><circle cx="500" cy="70" r="6" style="fill: rgb(205, 66, 61);"></circle><text x="515" y="70" alignment-baseline="middle">Applied</text></g></svg>