<svg xmlns="http://www.w3.org/2000/svg" viewBox="0 0 24 24" class="icon">
  <path d="M5.49 10.447c-.452 0-.87.328-1.16.668-.234.277-.351.702-.351 1.057 0 .354.133.748.367 1.024.286.34.593.574 1.048.574.41 0 .897-.172 1.178-.453.285-.28.522-.752.522-1.161 0-.405-.11-.89-.396-1.17-.285-.286-.804-.54-1.209-.54zm8.098.111c-.47 0-.852.185-1.146.554-.24.296-.36.633-.36 1.012 0 .383.12.723.36 1.02.294.368.676.553 1.146.553.418 0 .773-.15 1.062-.452.29-.306.435-.68.435-1.121 0-.437-.147-.806-.441-1.107a1.401 1.401 0 00-1.056-.459zM12 .5C5.649.5.5 5.649.5 12S5.649 23.5 12 23.5 23.5 18.351 23.5 12 18.351.5 12 .5zM9.272 15.514h-2.13v-.867c-.216.272-.725.549-.946.673a3.01 3.01 0 01-1.404.357 3.102 3.102 0 01-2.125-.8c-.741-.652-1.09-1.651-1.09-2.728 0-1.095.38-1.97 1.14-2.623.602-.52 1.34-.936 2.122-.936.455 0 1.017.04 1.417.234.23.11.642.37.886.623V4.88h2.13v10.635zm7.29-.98c-.708.816-1.7 1.224-2.974 1.224-1.28 0-2.274-.408-2.982-1.224-.585-.67-.877-1.493-.877-2.468 0-.88.295-1.658.884-2.338.713-.82 1.727-1.23 3.043-1.23 1.21 0 2.177.41 2.9 1.23.588.67.883 1.469.883 2.396 0 .937-.292 1.74-.877 2.41zm1.798-9.238c.249-.248.55-.372.904-.372.355 0 .656.124.905.372.248.244.372.543.372.898 0 .358-.124.662-.372.91a1.228 1.228 0 01-.905.366 1.23 1.23 0 01-.904-.372 1.243 1.243 0 01-.366-.904c0-.355.122-.654.366-.898zm2.036 10.213h-2.264V8.747h2.264z"/>
</svg>
