<svg xmlns="http://www.w3.org/2000/svg" class="icon" viewBox="0 0 24 24"><path d="M6 2c-1.1 0-1.99.9-1.99 2l-.004 7h-.012C2.89 11 2 12.037 2 13.326v2.348C2 16.963 2.89 18 3.994 18h.008L4 20c0 1.1.89 2 1.99 2H18c1.1 0 2-.9 2-2V8l-6-6H6zm0 2h7v5h5v2H6V4zm-.85 8.113h1.68c.227 0 .437.038.633.114a1.45 1.45 0 01.994 1.392c0 .226-.042.435-.127.621-.084.182-.2.34-.348.473a1.61 1.61 0 01-.52.314 1.836 1.836 0 01-.632.106h-.78v1.754h-.9v-4.774zm3.946 0h1.613c.378 0 .717.06 1.02.174.302.116.56.28.773.492.213.21.375.46.486.754.116.294.174.616.174.967 0 .356-.058.68-.174.973a2.062 2.062 0 01-.486.754c-.213.208-.471.37-.773.486a2.835 2.835 0 01-1.02.174H9.096v-4.774zm4.79 0h3.026v.854h-2.127v1.16H16.7v.853h-1.914v1.907h-.898v-4.774zm-7.837.854v1.312h.793c.235 0 .415-.066.535-.199a.67.67 0 00.133-.707.489.489 0 00-.133-.207.6.6 0 00-.22-.146.848.848 0 00-.315-.053h-.793zm3.945 0v3.066h.674c.262 0 .493-.036.693-.107a1.279 1.279 0 00.8-.793c.067-.191.1-.402.1-.633 0-.231-.032-.44-.099-.627a1.267 1.267 0 00-.3-.486 1.32 1.32 0 00-.5-.307 1.955 1.955 0 00-.694-.113h-.674zM6 18h12v2H6v-2z"/></svg>